G75*
%MOIN*%
%OFA0B0*%
%FSLAX24Y24*%
%IPPOS*%
%LPD*%
%AMOC8*
5,1,8,0,0,1.08239X$1,22.5*
%
%ADD10C,0.0160*%
%ADD11R,0.0433X0.0787*%
%ADD12R,0.0512X0.0591*%
D10*
X000208Y000180D02*
X016349Y000180D01*
X016349Y019865D01*
X000208Y019865D01*
X000208Y000180D01*
D11*
X002995Y000810D03*
X002995Y002385D03*
X004334Y002385D03*
X005302Y002385D03*
X005302Y000810D03*
X004334Y000810D03*
X006641Y000810D03*
X007609Y000810D03*
X007609Y002385D03*
X006641Y002385D03*
X006641Y004019D03*
X007609Y004019D03*
X007609Y005593D03*
X006641Y005593D03*
X005302Y005593D03*
X004334Y005593D03*
X004334Y004019D03*
X005302Y004019D03*
X002995Y004019D03*
X002030Y004019D03*
X002030Y005593D03*
X002995Y005593D03*
X002995Y007227D03*
X002030Y007227D03*
X002030Y008802D03*
X002995Y008802D03*
X004334Y008802D03*
X005302Y008802D03*
X005302Y007227D03*
X004334Y007227D03*
X006641Y007227D03*
X007609Y007227D03*
X007609Y008802D03*
X006641Y008802D03*
X006641Y010436D03*
X007609Y010436D03*
X007609Y012011D03*
X006641Y012011D03*
X005302Y012011D03*
X004334Y012011D03*
X004334Y010436D03*
X005302Y010436D03*
X002995Y010436D03*
X002030Y010436D03*
X002030Y012011D03*
X002995Y012011D03*
X002995Y013645D03*
X002030Y013645D03*
X002030Y015219D03*
X002995Y015219D03*
X004334Y015219D03*
X005302Y015219D03*
X005302Y013645D03*
X004334Y013645D03*
X006641Y013645D03*
X007609Y013645D03*
X007609Y015219D03*
X006641Y015219D03*
X006641Y016853D03*
X007609Y016853D03*
X007609Y018428D03*
X006641Y018428D03*
X005302Y018428D03*
X004334Y018428D03*
X004334Y016853D03*
X005302Y016853D03*
X002995Y016853D03*
X002995Y018428D03*
X000691Y015219D03*
X000691Y013645D03*
X000691Y012011D03*
X000691Y010436D03*
X000691Y008802D03*
X000691Y007227D03*
X000691Y005593D03*
X000691Y004019D03*
X008948Y004019D03*
X009915Y004019D03*
X009915Y005593D03*
X008948Y005593D03*
X008948Y007227D03*
X009915Y007227D03*
X009915Y008802D03*
X008948Y008802D03*
X008948Y010436D03*
X009915Y010436D03*
X009915Y012011D03*
X008948Y012011D03*
X008948Y013645D03*
X009915Y013645D03*
X009915Y015219D03*
X008948Y015219D03*
X008948Y016853D03*
X009915Y016853D03*
X009915Y018428D03*
X008948Y018428D03*
X011254Y018428D03*
X012221Y018428D03*
X012221Y016853D03*
X011254Y016853D03*
X011254Y015219D03*
X012221Y015219D03*
X012221Y013645D03*
X011254Y013645D03*
X011254Y012011D03*
X012221Y012011D03*
X012221Y010436D03*
X011254Y010436D03*
X011254Y008802D03*
X012221Y008802D03*
X012221Y007227D03*
X011254Y007227D03*
X011254Y005593D03*
X012221Y005593D03*
X012221Y004019D03*
X011254Y004019D03*
X011254Y002385D03*
X012221Y002385D03*
X012221Y000810D03*
X011254Y000810D03*
X009915Y000810D03*
X008948Y000810D03*
X008948Y002385D03*
X009915Y002385D03*
X013560Y002385D03*
X013560Y000810D03*
X013560Y004019D03*
X014527Y004019D03*
X014527Y005593D03*
X013560Y005593D03*
X013560Y007227D03*
X014527Y007227D03*
X014527Y008802D03*
X013560Y008802D03*
X013560Y010436D03*
X014527Y010436D03*
X014527Y012011D03*
X013560Y012011D03*
X013560Y013645D03*
X014527Y013645D03*
X014527Y015219D03*
X013560Y015219D03*
X013560Y016853D03*
X013560Y018428D03*
X015865Y015219D03*
X015865Y013645D03*
X015865Y012011D03*
X015865Y010436D03*
X015865Y008802D03*
X015865Y007227D03*
X015865Y005593D03*
X015865Y004019D03*
D12*
X015570Y006400D03*
X014822Y006400D03*
X013264Y006400D03*
X012516Y006400D03*
X010958Y006400D03*
X010210Y006400D03*
X008652Y006400D03*
X007904Y006400D03*
X006345Y006400D03*
X005597Y006400D03*
X004038Y006400D03*
X003290Y006400D03*
X001735Y006400D03*
X000987Y006400D03*
X000987Y009609D03*
X001735Y009609D03*
X003290Y009609D03*
X004038Y009609D03*
X005597Y009609D03*
X006345Y009609D03*
X007904Y009609D03*
X008652Y009609D03*
X010210Y009609D03*
X010958Y009609D03*
X012516Y009609D03*
X013264Y009609D03*
X014822Y009609D03*
X015570Y009609D03*
X015570Y012818D03*
X014822Y012818D03*
X013264Y012818D03*
X012516Y012818D03*
X010958Y012818D03*
X010210Y012818D03*
X008652Y012818D03*
X007904Y012818D03*
X006345Y012818D03*
X005597Y012818D03*
X004038Y012818D03*
X003290Y012818D03*
X001735Y012818D03*
X000987Y012818D03*
X000987Y016026D03*
X001735Y016026D03*
X003290Y016026D03*
X004038Y016026D03*
X005597Y016026D03*
X006345Y016026D03*
X007904Y016026D03*
X008652Y016026D03*
X010210Y016026D03*
X010958Y016026D03*
X012516Y016026D03*
X013264Y016026D03*
X014822Y016026D03*
X015570Y016026D03*
X013264Y019235D03*
X012516Y019235D03*
X010958Y019235D03*
X010210Y019235D03*
X008652Y019235D03*
X007904Y019235D03*
X006345Y019235D03*
X005597Y019235D03*
X004038Y019235D03*
X003290Y019235D03*
X003290Y003192D03*
X004038Y003192D03*
X005597Y003192D03*
X006345Y003192D03*
X007904Y003192D03*
X008652Y003192D03*
X010210Y003192D03*
X010958Y003192D03*
X012516Y003192D03*
X013264Y003192D03*
M02*
