G75*
%MOIN*%
%OFA0B0*%
%FSLAX24Y24*%
%IPPOS*%
%LPD*%
%AMOC8*
5,1,8,0,0,1.08239X$1,22.5*
%
%ADD10R,0.0312X0.0004*%
%ADD11R,0.0344X0.0004*%
%ADD12R,0.0368X0.0004*%
%ADD13R,0.0392X0.0004*%
%ADD14R,0.0408X0.0004*%
%ADD15R,0.0424X0.0004*%
%ADD16R,0.0432X0.0004*%
%ADD17R,0.0448X0.0004*%
%ADD18R,0.0456X0.0004*%
%ADD19R,0.0472X0.0004*%
%ADD20R,0.0480X0.0004*%
%ADD21R,0.0488X0.0004*%
%ADD22R,0.0496X0.0004*%
%ADD23R,0.0504X0.0004*%
%ADD24R,0.0512X0.0004*%
%ADD25R,0.0520X0.0004*%
%ADD26R,0.0528X0.0004*%
%ADD27R,0.0536X0.0004*%
%ADD28R,0.0536X0.0004*%
%ADD29R,0.0544X0.0004*%
%ADD30R,0.0552X0.0004*%
%ADD31R,0.0560X0.0004*%
%ADD32R,0.0560X0.0004*%
%ADD33R,0.0568X0.0004*%
%ADD34R,0.0576X0.0004*%
%ADD35R,0.0584X0.0004*%
%ADD36R,0.0592X0.0004*%
%ADD37R,0.0592X0.0004*%
%ADD38R,0.0600X0.0004*%
%ADD39R,0.0608X0.0004*%
%ADD40R,0.0608X0.0004*%
%ADD41R,0.0616X0.0004*%
%ADD42R,0.0624X0.0004*%
%ADD43R,0.0632X0.0004*%
%ADD44R,0.0632X0.0004*%
%ADD45R,0.0640X0.0004*%
%ADD46R,0.0648X0.0004*%
%ADD47R,0.0648X0.0004*%
%ADD48R,0.0656X0.0004*%
%ADD49R,0.0664X0.0004*%
%ADD50R,0.0664X0.0004*%
%ADD51R,0.0672X0.0004*%
%ADD52R,0.0680X0.0004*%
%ADD53R,0.0680X0.0004*%
%ADD54R,0.0688X0.0004*%
%ADD55R,0.0696X0.0004*%
%ADD56R,0.0700X0.0004*%
%ADD57R,0.0708X0.0004*%
%ADD58R,0.0716X0.0004*%
%ADD59R,0.0720X0.0004*%
%ADD60R,0.0720X0.0004*%
%ADD61R,0.0724X0.0004*%
%ADD62R,0.0808X0.0004*%
%ADD63R,0.0824X0.0004*%
%ADD64R,0.0832X0.0004*%
%ADD65R,0.0840X0.0004*%
%ADD66R,0.0848X0.0004*%
%ADD67R,0.0856X0.0004*%
%ADD68R,0.0860X0.0004*%
%ADD69R,0.0864X0.0004*%
%ADD70R,0.0864X0.0004*%
%ADD71R,0.0868X0.0004*%
%ADD72R,0.0872X0.0004*%
%ADD73R,0.0872X0.0004*%
%ADD74R,0.0860X0.0004*%
%ADD75R,0.0832X0.0004*%
%ADD76R,0.0824X0.0004*%
%ADD77R,0.0708X0.0004*%
%ADD78R,0.0712X0.0004*%
%ADD79R,0.0712X0.0004*%
%ADD80R,0.0700X0.0004*%
%ADD81R,0.0696X0.0004*%
%ADD82R,0.0692X0.0004*%
%ADD83R,0.0668X0.0004*%
%ADD84R,0.0660X0.0004*%
%ADD85R,0.0452X0.0004*%
%ADD86R,0.0188X0.0004*%
%ADD87R,0.0448X0.0004*%
%ADD88R,0.0440X0.0004*%
%ADD89R,0.0184X0.0004*%
%ADD90R,0.0432X0.0004*%
%ADD91R,0.0184X0.0004*%
%ADD92R,0.0424X0.0004*%
%ADD93R,0.0412X0.0004*%
%ADD94R,0.0128X0.0004*%
%ADD95R,0.0044X0.0004*%
%ADD96R,0.0400X0.0004*%
%ADD97R,0.0008X0.0004*%
%ADD98R,0.0388X0.0004*%
%ADD99R,0.0132X0.0004*%
%ADD100R,0.0360X0.0004*%
%ADD101R,0.0136X0.0004*%
%ADD102R,0.0340X0.0004*%
%ADD103R,0.0140X0.0004*%
%ADD104R,0.0328X0.0004*%
%ADD105R,0.0144X0.0004*%
%ADD106R,0.0324X0.0004*%
%ADD107R,0.0148X0.0004*%
%ADD108R,0.0320X0.0004*%
%ADD109R,0.0156X0.0004*%
%ADD110R,0.0316X0.0004*%
%ADD111R,0.0176X0.0004*%
%ADD112R,0.0080X0.0004*%
%ADD113R,0.0052X0.0004*%
%ADD114R,0.0380X0.0004*%
%ADD115R,0.0372X0.0004*%
%ADD116R,0.0356X0.0004*%
%ADD117R,0.0004X0.0004*%
%ADD118R,0.0308X0.0004*%
%ADD119R,0.0060X0.0004*%
%ADD120R,0.0240X0.0004*%
%ADD121R,0.0232X0.0004*%
%ADD122R,0.0044X0.0004*%
%ADD123R,0.0164X0.0004*%
%ADD124R,0.0056X0.0004*%
%ADD125R,0.0036X0.0004*%
%ADD126R,0.0156X0.0004*%
%ADD127R,0.0048X0.0004*%
%ADD128R,0.0024X0.0004*%
%ADD129R,0.0036X0.0004*%
%ADD130R,0.0016X0.0004*%
%ADD131R,0.0028X0.0004*%
%ADD132R,0.0012X0.0004*%
%ADD133R,0.0124X0.0004*%
%ADD134R,0.0108X0.0004*%
%ADD135R,0.0008X0.0004*%
%ADD136R,0.0092X0.0004*%
%ADD137R,0.0068X0.0004*%
%ADD138R,0.0008X0.0004*%
%ADD139R,0.0016X0.0004*%
%ADD140R,0.0024X0.0004*%
%ADD141R,0.0032X0.0004*%
%ADD142R,0.0032X0.0004*%
%ADD143R,0.0040X0.0004*%
%ADD144R,0.0056X0.0004*%
%ADD145R,0.0064X0.0004*%
%ADD146R,0.0072X0.0004*%
%ADD147R,0.0088X0.0004*%
%ADD148R,0.0096X0.0004*%
%ADD149R,0.0104X0.0004*%
%ADD150R,0.0112X0.0004*%
%ADD151R,0.0120X0.0004*%
%ADD152R,0.0124X0.0004*%
%ADD153R,0.0128X0.0004*%
%ADD154R,0.0144X0.0004*%
%ADD155R,0.0152X0.0004*%
%ADD156R,0.0152X0.0004*%
%ADD157R,0.0160X0.0004*%
%ADD158R,0.0168X0.0004*%
%ADD159R,0.0176X0.0004*%
%ADD160R,0.0184X0.0004*%
%ADD161R,0.0192X0.0004*%
%ADD162R,0.0200X0.0004*%
%ADD163R,0.0208X0.0004*%
%ADD164R,0.0216X0.0004*%
%ADD165R,0.0216X0.0004*%
%ADD166R,0.0224X0.0004*%
%ADD167R,0.0232X0.0004*%
%ADD168R,0.0240X0.0004*%
%ADD169R,0.0248X0.0004*%
%ADD170R,0.0256X0.0004*%
%ADD171R,0.0264X0.0004*%
%ADD172R,0.0272X0.0004*%
%ADD173R,0.0280X0.0004*%
%ADD174R,0.0288X0.0004*%
%ADD175R,0.0296X0.0004*%
%ADD176R,0.0304X0.0004*%
%ADD177R,0.0320X0.0004*%
%ADD178R,0.0328X0.0004*%
%ADD179R,0.0336X0.0004*%
%ADD180R,0.0336X0.0004*%
%ADD181R,0.0200X0.0004*%
%ADD182R,0.0128X0.0004*%
%ADD183R,0.0204X0.0004*%
%ADD184R,0.0216X0.0004*%
%ADD185R,0.0228X0.0004*%
%ADD186R,0.0416X0.0004*%
%ADD187R,0.0424X0.0004*%
%ADD188R,0.0428X0.0004*%
%ADD189R,0.0304X0.0004*%
%ADD190R,0.0180X0.0004*%
%ADD191R,0.0112X0.0004*%
%ADD192R,0.0176X0.0004*%
%ADD193R,0.0112X0.0004*%
%ADD194R,0.0132X0.0004*%
%ADD195R,0.0116X0.0004*%
%ADD196R,0.0332X0.0004*%
%ADD197R,0.0336X0.0004*%
%ADD198R,0.0480X0.0004*%
%ADD199R,0.0496X0.0004*%
%ADD200R,0.0512X0.0004*%
%ADD201R,0.0544X0.0004*%
%ADD202R,0.0208X0.0004*%
%ADD203R,0.0356X0.0004*%
%ADD204R,0.0208X0.0004*%
%ADD205R,0.0364X0.0004*%
%ADD206R,0.0212X0.0004*%
%ADD207R,0.0368X0.0004*%
%ADD208R,0.0220X0.0004*%
%ADD209R,0.0600X0.0004*%
%ADD210R,0.0356X0.0004*%
%ADD211R,0.0228X0.0004*%
%ADD212R,0.0236X0.0004*%
%ADD213R,0.0360X0.0004*%
%ADD214R,0.0368X0.0004*%
%ADD215R,0.0244X0.0004*%
%ADD216R,0.0252X0.0004*%
%ADD217R,0.0376X0.0004*%
%ADD218R,0.0672X0.0004*%
%ADD219R,0.0624X0.0004*%
%ADD220R,0.0596X0.0004*%
%ADD221R,0.0552X0.0004*%
%ADD222R,0.0456X0.0004*%
%ADD223R,0.0384X0.0004*%
%ADD224R,0.0352X0.0004*%
%ADD225R,0.0188X0.0004*%
%ADD226R,0.0108X0.0004*%
%ADD227C,0.0600*%
%ADD228OC8,0.0850*%
%ADD229C,0.0160*%
%ADD230C,0.0356*%
%ADD231C,0.0100*%
%ADD232C,0.0120*%
D10*
X015088Y018382D03*
X015084Y018894D03*
X015088Y019194D03*
X015088Y019198D03*
D11*
X015088Y018386D03*
D12*
X015088Y018390D03*
D13*
X015088Y018394D03*
X015112Y018878D03*
D14*
X015088Y019258D03*
X015088Y019262D03*
X015088Y019518D03*
X015088Y018398D03*
D15*
X015088Y018402D03*
D16*
X015088Y018406D03*
X015088Y019278D03*
X015088Y019514D03*
D17*
X015088Y018410D03*
D18*
X015088Y018414D03*
D19*
X015088Y018418D03*
D20*
X015088Y018422D03*
X015088Y019506D03*
D21*
X015088Y019314D03*
X015088Y018426D03*
D22*
X015088Y018430D03*
D23*
X015088Y018434D03*
X015088Y019326D03*
D24*
X015088Y019498D03*
X015088Y018438D03*
D25*
X015088Y018442D03*
X015088Y019334D03*
X015088Y019338D03*
D26*
X015088Y019342D03*
X015088Y018446D03*
D27*
X015088Y018450D03*
D28*
X015088Y018454D03*
X015088Y019346D03*
X015088Y019494D03*
D29*
X015088Y019354D03*
X015088Y018458D03*
D30*
X015088Y018462D03*
X015088Y019358D03*
D31*
X015088Y019362D03*
X015088Y018466D03*
D32*
X015088Y018470D03*
D33*
X015088Y018474D03*
X015088Y019366D03*
X015088Y019486D03*
D34*
X015088Y018482D03*
X015088Y018478D03*
D35*
X015088Y018486D03*
X015088Y019482D03*
D36*
X015088Y018490D03*
D37*
X015088Y018494D03*
D38*
X015088Y018498D03*
X015088Y018502D03*
D39*
X015088Y018506D03*
X015088Y019474D03*
D40*
X015088Y018510D03*
D41*
X015088Y018514D03*
X015088Y018518D03*
D42*
X015088Y018522D03*
X015088Y018526D03*
D43*
X015088Y018530D03*
D44*
X015088Y018534D03*
X015088Y019466D03*
D45*
X015088Y018542D03*
X015088Y018538D03*
D46*
X015088Y018546D03*
X015088Y018554D03*
X015088Y019462D03*
D47*
X015088Y018550D03*
D48*
X015088Y018558D03*
X015088Y018562D03*
X015088Y019426D03*
X015088Y019458D03*
D49*
X015088Y019454D03*
X015088Y019434D03*
X015088Y018566D03*
D50*
X015088Y018570D03*
X015088Y019430D03*
D51*
X015088Y019438D03*
X015084Y018806D03*
X015088Y018582D03*
X015088Y018578D03*
X015088Y018574D03*
D52*
X015088Y018586D03*
X015088Y018802D03*
X015088Y019442D03*
X015088Y019446D03*
D53*
X015088Y018590D03*
D54*
X015088Y018594D03*
X015088Y018598D03*
X015088Y018798D03*
D55*
X015088Y018606D03*
X015088Y018602D03*
D56*
X015086Y018610D03*
D57*
X015086Y018614D03*
X015086Y018618D03*
D58*
X015086Y018622D03*
X015086Y018626D03*
D59*
X015088Y018630D03*
D60*
X015088Y018634D03*
D61*
X015090Y018638D03*
D62*
X015088Y018642D03*
X015088Y018734D03*
D63*
X015088Y018646D03*
D64*
X015088Y018650D03*
D65*
X015088Y018654D03*
X015088Y018722D03*
D66*
X015088Y018718D03*
X015088Y018658D03*
D67*
X015088Y018662D03*
X015088Y018714D03*
D68*
X015090Y018666D03*
D69*
X015088Y018670D03*
D70*
X015088Y018674D03*
X015088Y018702D03*
X015088Y018706D03*
D71*
X015090Y018698D03*
X015090Y018682D03*
X015090Y018678D03*
D72*
X015088Y018686D03*
X015088Y018694D03*
D73*
X015088Y018690D03*
D74*
X015090Y018710D03*
D75*
X015088Y018726D03*
D76*
X015088Y018730D03*
D77*
X015098Y018766D03*
X015094Y018778D03*
D78*
X015096Y018770D03*
D79*
X015096Y018774D03*
D80*
X015094Y018782D03*
X015094Y018786D03*
D81*
X015092Y018790D03*
D82*
X015090Y018794D03*
D83*
X015082Y018810D03*
D84*
X015082Y018814D03*
X015082Y018818D03*
D85*
X014982Y018822D03*
D86*
X015314Y018838D03*
X015318Y018826D03*
X015318Y018822D03*
D87*
X014980Y018826D03*
D88*
X014980Y018830D03*
D89*
X015316Y018830D03*
D90*
X014980Y018834D03*
D91*
X015316Y018834D03*
D92*
X014976Y018838D03*
D93*
X014974Y018842D03*
D94*
X015276Y018846D03*
X015280Y018842D03*
X015196Y019218D03*
X015200Y019222D03*
D95*
X015386Y018842D03*
D96*
X014972Y018846D03*
X015088Y019254D03*
D97*
X015088Y018994D03*
X015404Y018846D03*
D98*
X014970Y018850D03*
D99*
X015270Y018850D03*
X014926Y019290D03*
D100*
X014976Y019378D03*
X014960Y018854D03*
D101*
X015088Y018922D03*
X015088Y019078D03*
X015208Y019238D03*
X015268Y018854D03*
D102*
X014954Y018858D03*
D103*
X015210Y019242D03*
X015262Y018858D03*
D104*
X014956Y018862D03*
X015020Y019298D03*
D105*
X015256Y018862D03*
D106*
X014958Y018866D03*
D107*
X015086Y018918D03*
X015250Y018866D03*
D108*
X014964Y018870D03*
X015088Y019530D03*
D109*
X015206Y019250D03*
X015242Y018870D03*
D110*
X014970Y018874D03*
D111*
X015224Y018874D03*
D112*
X015088Y019038D03*
X015088Y019042D03*
X014860Y018878D03*
D113*
X014862Y018882D03*
X014962Y018906D03*
D114*
X015110Y018882D03*
D115*
X015106Y018886D03*
D116*
X015102Y018890D03*
X014982Y019370D03*
D117*
X015254Y018894D03*
D118*
X015082Y018898D03*
D119*
X014962Y018902D03*
D120*
X015116Y018902D03*
X015088Y019146D03*
X014888Y019414D03*
X015088Y019538D03*
D121*
X014900Y019394D03*
X014896Y019398D03*
X015116Y018906D03*
D122*
X014958Y018910D03*
D123*
X015086Y018910D03*
D124*
X015200Y018910D03*
D125*
X014958Y018914D03*
D126*
X015086Y018914D03*
D127*
X015088Y019018D03*
X015204Y018914D03*
D128*
X014956Y018918D03*
D129*
X015086Y018942D03*
X015206Y018918D03*
D130*
X015212Y018926D03*
X014956Y018922D03*
D131*
X015210Y018922D03*
D132*
X014954Y018926D03*
D133*
X015086Y018926D03*
X014930Y019282D03*
X015262Y019306D03*
D134*
X015086Y018930D03*
D135*
X015216Y018930D03*
D136*
X015086Y018934D03*
D137*
X015086Y018938D03*
D138*
X015088Y018990D03*
D139*
X015088Y018998D03*
D140*
X015088Y019002D03*
D141*
X015088Y019006D03*
D142*
X015088Y019010D03*
D143*
X015088Y019014D03*
D144*
X015088Y019022D03*
X015088Y019026D03*
D145*
X015088Y019030D03*
D146*
X015088Y019034D03*
D147*
X015088Y019046D03*
D148*
X015088Y019050D03*
D149*
X015088Y019054D03*
X015088Y019058D03*
D150*
X015088Y019062D03*
D151*
X015088Y019066D03*
X015264Y019302D03*
D152*
X015086Y019070D03*
D153*
X015088Y019074D03*
X015204Y019226D03*
X015208Y019234D03*
X014928Y019286D03*
D154*
X015088Y019082D03*
X015208Y019246D03*
D155*
X015088Y019086D03*
D156*
X015088Y019090D03*
D157*
X015088Y019094D03*
D158*
X015088Y019098D03*
X015088Y019102D03*
D159*
X015088Y019106D03*
D160*
X015088Y019110D03*
D161*
X015088Y019114D03*
X015088Y019118D03*
D162*
X015088Y019122D03*
X015016Y019218D03*
X015012Y019222D03*
X015008Y019226D03*
D163*
X015004Y019238D03*
X015088Y019126D03*
D164*
X015088Y019130D03*
D165*
X015088Y019134D03*
D166*
X015088Y019138D03*
D167*
X015088Y019142D03*
X014892Y019406D03*
D168*
X015088Y019150D03*
D169*
X015088Y019154D03*
D170*
X015088Y019158D03*
D171*
X015088Y019162D03*
X015088Y019166D03*
D172*
X015088Y019170D03*
D173*
X015088Y019174D03*
X015088Y019534D03*
D174*
X015088Y019182D03*
X015088Y019178D03*
D175*
X015088Y019186D03*
D176*
X015088Y019190D03*
D177*
X015088Y019202D03*
D178*
X015088Y019206D03*
D179*
X015088Y019210D03*
D180*
X015088Y019214D03*
D181*
X015008Y019230D03*
D182*
X015204Y019230D03*
D183*
X015274Y019374D03*
X015006Y019234D03*
D184*
X015004Y019242D03*
X015004Y019246D03*
D185*
X015006Y019250D03*
D186*
X015088Y019266D03*
D187*
X015088Y019270D03*
D188*
X015090Y019274D03*
D189*
X015156Y019282D03*
D190*
X015098Y019286D03*
X015094Y019294D03*
D191*
X015256Y019286D03*
X015260Y019294D03*
D192*
X015096Y019290D03*
D193*
X015260Y019290D03*
D194*
X014926Y019294D03*
D195*
X015262Y019298D03*
D196*
X015018Y019302D03*
D197*
X015020Y019306D03*
D198*
X015088Y019310D03*
D199*
X015088Y019318D03*
X015088Y019322D03*
X015088Y019502D03*
D200*
X015088Y019330D03*
D201*
X015088Y019350D03*
D202*
X015268Y019370D03*
D203*
X015218Y019398D03*
X015218Y019402D03*
X014978Y019374D03*
D204*
X015276Y019378D03*
D205*
X014974Y019382D03*
D206*
X015278Y019382D03*
D207*
X014976Y019386D03*
D208*
X015274Y019386D03*
D209*
X015088Y019390D03*
D210*
X015214Y019394D03*
X015222Y019406D03*
D211*
X014894Y019402D03*
D212*
X014890Y019410D03*
D213*
X015224Y019410D03*
D214*
X015224Y019414D03*
X015224Y019418D03*
D215*
X014890Y019418D03*
D216*
X014890Y019422D03*
D217*
X015224Y019422D03*
D218*
X015088Y019450D03*
D219*
X015088Y019470D03*
D220*
X015090Y019478D03*
D221*
X015088Y019490D03*
D222*
X015088Y019510D03*
D223*
X015088Y019522D03*
D224*
X015088Y019526D03*
D225*
X015086Y019542D03*
D226*
X015090Y019546D03*
D227*
X014778Y018040D02*
X014778Y017440D01*
X015778Y017440D02*
X015778Y018040D01*
X015788Y002035D02*
X015788Y001435D01*
X014788Y001435D02*
X014788Y002035D01*
X001783Y002040D02*
X001783Y001440D01*
X000783Y001440D02*
X000783Y002040D01*
X000788Y017420D02*
X000788Y018020D01*
X001788Y018020D02*
X001788Y017420D01*
D228*
X001889Y002897D03*
D229*
X000488Y000460D02*
X003854Y000460D01*
X003793Y000485D01*
X003722Y000556D01*
X001540Y000556D01*
X001448Y000594D01*
X001378Y000664D01*
X001200Y000842D01*
X001128Y000872D01*
X001049Y000951D01*
X001028Y001001D01*
X000882Y000940D01*
X000683Y000940D01*
X000499Y001016D01*
X000488Y001028D01*
X000488Y000460D01*
X000488Y000497D02*
X003781Y000497D01*
X004160Y000460D02*
X004221Y000485D01*
X004327Y000592D01*
X004385Y000731D01*
X004385Y000881D01*
X004327Y001020D01*
X004221Y001127D01*
X004082Y001184D01*
X003932Y001184D01*
X003793Y001127D01*
X003722Y001056D01*
X002106Y001056D01*
X002206Y001157D01*
X002283Y001341D01*
X002283Y002139D01*
X002206Y002323D01*
X002203Y002327D01*
X002514Y002638D01*
X002514Y003155D01*
X002148Y003522D01*
X001630Y003522D01*
X001566Y003458D01*
X001566Y014318D01*
X001606Y014318D01*
X001745Y014375D01*
X001851Y014482D01*
X001909Y014621D01*
X001909Y014771D01*
X001851Y014910D01*
X001745Y015016D01*
X001606Y015074D01*
X001455Y015074D01*
X001316Y015016D01*
X001210Y014910D01*
X001152Y014771D01*
X001152Y014714D01*
X001049Y014610D01*
X001006Y014507D01*
X001006Y002489D01*
X000882Y002540D01*
X000683Y002540D01*
X000499Y002464D01*
X000488Y002452D01*
X000488Y017045D01*
X000536Y017009D01*
X000603Y016975D01*
X000675Y016952D01*
X000750Y016940D01*
X000768Y016940D01*
X000768Y017700D01*
X000808Y017700D01*
X000808Y017740D01*
X001268Y017740D01*
X001268Y018058D01*
X001256Y018132D01*
X001232Y018204D01*
X001198Y018272D01*
X001154Y018333D01*
X001100Y018386D01*
X001039Y018431D01*
X000972Y018465D01*
X000900Y018488D01*
X000825Y018500D01*
X000808Y018500D01*
X000808Y017740D01*
X000768Y017740D01*
X000768Y018500D01*
X000750Y018500D01*
X000675Y018488D01*
X000603Y018465D01*
X000536Y018431D01*
X000488Y018395D01*
X000488Y019585D01*
X014602Y019585D01*
X014552Y019535D01*
X014548Y019531D01*
X014548Y019357D01*
X014556Y019349D01*
X014556Y019345D01*
X014568Y019333D01*
X014568Y019329D01*
X014572Y019325D01*
X014580Y019317D01*
X014580Y019313D01*
X014588Y019305D01*
X014592Y019301D01*
X014592Y019297D01*
X014596Y019293D01*
X014604Y019285D01*
X014604Y019281D01*
X014616Y019269D01*
X014616Y019265D01*
X014628Y019253D01*
X014628Y019249D01*
X014632Y019245D01*
X014640Y019237D01*
X014640Y019233D01*
X014648Y019225D01*
X014652Y019221D01*
X014652Y019217D01*
X014660Y019209D01*
X014660Y019205D01*
X014668Y019197D01*
X014676Y019189D01*
X014676Y019185D01*
X014684Y019177D01*
X014684Y019173D01*
X014692Y019165D01*
X014696Y019161D01*
X014696Y019157D01*
X014708Y019145D01*
X014708Y019141D01*
X014720Y019129D01*
X014720Y019125D01*
X014732Y019113D01*
X014732Y019109D01*
X014736Y019105D01*
X014744Y019097D01*
X014744Y019093D01*
X014748Y019089D01*
X014752Y019085D01*
X014753Y019084D01*
X014753Y019084D01*
X014749Y019080D01*
X014737Y019080D01*
X014733Y019076D01*
X014729Y019076D01*
X014725Y019072D01*
X014721Y019072D01*
X014717Y019068D01*
X014713Y019068D01*
X014705Y019060D01*
X014701Y019060D01*
X014693Y019052D01*
X014693Y019052D01*
X014576Y018935D01*
X014572Y018931D01*
X014568Y018927D01*
X014564Y018923D01*
X014564Y018919D01*
X014560Y018915D01*
X014556Y018911D01*
X014556Y018907D01*
X014552Y018903D01*
X014552Y018899D01*
X014548Y018895D01*
X014548Y018887D01*
X014476Y018815D01*
X014472Y018811D01*
X014468Y018807D01*
X014464Y018803D01*
X014460Y018799D01*
X014460Y018795D01*
X014456Y018791D01*
X014456Y018783D01*
X014452Y018779D01*
X014452Y018601D01*
X014456Y018597D01*
X014456Y018585D01*
X014460Y018581D01*
X014460Y018577D01*
X014468Y018569D01*
X014472Y018565D01*
X014550Y018487D01*
X014494Y018464D01*
X014354Y018323D01*
X014278Y018139D01*
X014278Y017341D01*
X014354Y017157D01*
X014494Y017016D01*
X014678Y016940D01*
X014877Y016940D01*
X015061Y017016D01*
X015201Y017157D01*
X015278Y017341D01*
X015354Y017157D01*
X015494Y017016D01*
X015678Y016940D01*
X015877Y016940D01*
X016061Y017016D01*
X016069Y017025D01*
X016069Y016265D01*
X015960Y016310D01*
X015810Y016310D01*
X015671Y016253D01*
X015564Y016146D01*
X015507Y016007D01*
X015507Y015857D01*
X015564Y015718D01*
X015671Y015611D01*
X015687Y015604D01*
X015687Y013025D01*
X015647Y012985D01*
X015589Y012846D01*
X015589Y012695D01*
X015647Y012556D01*
X015687Y012516D01*
X015687Y009860D01*
X015647Y009819D01*
X015589Y009680D01*
X015589Y009530D01*
X015647Y009391D01*
X015687Y009350D01*
X015687Y006671D01*
X015647Y006630D01*
X015589Y006491D01*
X015589Y006341D01*
X015647Y006202D01*
X015753Y006096D01*
X015892Y006038D01*
X016043Y006038D01*
X016069Y006049D01*
X016069Y005018D01*
X016036Y005052D01*
X015897Y005109D01*
X015747Y005109D01*
X015608Y005052D01*
X015551Y004995D01*
X013878Y004995D01*
X013200Y005674D01*
X013200Y006377D01*
X013190Y006402D01*
X013190Y017915D01*
X013260Y017986D01*
X013318Y018124D01*
X013318Y018275D01*
X013260Y018414D01*
X013154Y018520D01*
X013015Y018578D01*
X012865Y018578D01*
X012726Y018520D01*
X012619Y018414D01*
X012562Y018275D01*
X012562Y018124D01*
X012619Y017986D01*
X012690Y017915D01*
X012690Y006402D01*
X012680Y006377D01*
X012680Y005514D01*
X012719Y005419D01*
X013550Y004588D01*
X013623Y004515D01*
X013719Y004475D01*
X015543Y004475D01*
X015608Y004411D01*
X015747Y004353D01*
X015897Y004353D01*
X016036Y004411D01*
X016069Y004444D01*
X016069Y002459D01*
X015887Y002535D01*
X015688Y002535D01*
X015504Y002459D01*
X015364Y002318D01*
X015288Y002134D01*
X015288Y001336D01*
X015288Y002134D01*
X015211Y002318D01*
X015071Y002459D01*
X014887Y002535D01*
X014688Y002535D01*
X014504Y002459D01*
X014364Y002318D01*
X014288Y002134D01*
X014288Y001336D01*
X014364Y001152D01*
X014504Y001011D01*
X014688Y000935D01*
X014887Y000935D01*
X015071Y001011D01*
X015211Y001152D01*
X015288Y001336D01*
X015364Y001152D01*
X015504Y001011D01*
X015688Y000935D01*
X015887Y000935D01*
X016069Y001011D01*
X016069Y000460D01*
X013208Y000460D01*
X013241Y000474D01*
X013347Y000580D01*
X013405Y000719D01*
X013405Y000869D01*
X013347Y001008D01*
X013241Y001115D01*
X013102Y001172D01*
X013002Y001172D01*
X010832Y003343D01*
X010832Y017923D01*
X010902Y017993D01*
X010960Y018132D01*
X010960Y018283D01*
X010902Y018422D01*
X010796Y018528D01*
X010657Y018586D01*
X010506Y018586D01*
X010367Y018528D01*
X010261Y018422D01*
X010203Y018283D01*
X010203Y018132D01*
X010261Y017993D01*
X010332Y017923D01*
X010332Y003189D01*
X010370Y003097D01*
X012648Y000819D01*
X012648Y000719D01*
X012706Y000580D01*
X012812Y000474D01*
X012845Y000460D01*
X010742Y000460D01*
X010804Y000485D01*
X010910Y000592D01*
X010968Y000731D01*
X010968Y000881D01*
X010910Y001020D01*
X010804Y001127D01*
X010665Y001184D01*
X010565Y001184D01*
X008540Y003209D01*
X008540Y017978D01*
X008611Y018048D01*
X008668Y018187D01*
X008668Y018338D01*
X008611Y018477D01*
X008504Y018583D01*
X008365Y018641D01*
X008215Y018641D01*
X008076Y018583D01*
X007970Y018477D01*
X007912Y018338D01*
X007912Y018187D01*
X007970Y018048D01*
X008040Y017978D01*
X008040Y003055D01*
X008078Y002964D01*
X010211Y000831D01*
X010211Y000731D01*
X010269Y000592D01*
X010375Y000485D01*
X010437Y000460D01*
X008444Y000460D01*
X008548Y000564D01*
X008605Y000703D01*
X008605Y000854D01*
X008548Y000993D01*
X008441Y001099D01*
X008302Y001157D01*
X008203Y001157D01*
X006158Y003201D01*
X006158Y018049D01*
X006229Y018119D01*
X006286Y018258D01*
X006286Y018409D01*
X006229Y018548D01*
X006123Y018654D01*
X005984Y018712D01*
X005833Y018712D01*
X005694Y018654D01*
X005588Y018548D01*
X005530Y018409D01*
X005530Y018258D01*
X005588Y018119D01*
X005658Y018049D01*
X005658Y003048D01*
X005696Y002956D01*
X007849Y000803D01*
X007849Y000703D01*
X007907Y000564D01*
X008011Y000460D01*
X005949Y000460D01*
X006020Y000489D01*
X006127Y000596D01*
X006184Y000735D01*
X006184Y000885D01*
X006127Y001024D01*
X006020Y001130D01*
X005881Y001188D01*
X005781Y001188D01*
X003796Y003173D01*
X003796Y018009D01*
X003867Y018080D01*
X003924Y018219D01*
X003924Y018369D01*
X003867Y018508D01*
X003760Y018615D01*
X003621Y018672D01*
X003471Y018672D01*
X003332Y018615D01*
X003226Y018508D01*
X003168Y018369D01*
X003168Y018219D01*
X003226Y018080D01*
X003296Y018009D01*
X003296Y003020D01*
X003334Y002928D01*
X005428Y000834D01*
X005428Y000735D01*
X005485Y000596D01*
X005592Y000489D01*
X005663Y000460D01*
X004160Y000460D01*
X004233Y000497D02*
X005584Y000497D01*
X005461Y000656D02*
X004354Y000656D01*
X004385Y000814D02*
X005428Y000814D01*
X005290Y000973D02*
X004347Y000973D01*
X004210Y001131D02*
X005131Y001131D01*
X004973Y001290D02*
X002261Y001290D01*
X002283Y001448D02*
X004814Y001448D01*
X004656Y001607D02*
X002283Y001607D01*
X002283Y001765D02*
X004497Y001765D01*
X004339Y001924D02*
X002283Y001924D01*
X002283Y002082D02*
X004180Y002082D01*
X004022Y002241D02*
X002241Y002241D01*
X002275Y002399D02*
X003863Y002399D01*
X003705Y002558D02*
X002434Y002558D01*
X002514Y002716D02*
X003546Y002716D01*
X003388Y002875D02*
X002514Y002875D01*
X002514Y003033D02*
X003296Y003033D01*
X003296Y003192D02*
X002478Y003192D01*
X002319Y003350D02*
X003296Y003350D01*
X003296Y003509D02*
X002161Y003509D01*
X001617Y003509D02*
X001566Y003509D01*
X001566Y003667D02*
X003296Y003667D01*
X003296Y003826D02*
X001566Y003826D01*
X001566Y003984D02*
X003296Y003984D01*
X003296Y004143D02*
X001566Y004143D01*
X001566Y004301D02*
X003296Y004301D01*
X003296Y004460D02*
X001566Y004460D01*
X001566Y004618D02*
X003296Y004618D01*
X003296Y004777D02*
X001566Y004777D01*
X001566Y004935D02*
X003296Y004935D01*
X003296Y005094D02*
X001566Y005094D01*
X001566Y005252D02*
X003296Y005252D01*
X003296Y005411D02*
X001566Y005411D01*
X001566Y005569D02*
X003296Y005569D01*
X003296Y005728D02*
X001566Y005728D01*
X001566Y005886D02*
X003296Y005886D01*
X003296Y006045D02*
X001566Y006045D01*
X001566Y006203D02*
X003296Y006203D01*
X003296Y006362D02*
X001566Y006362D01*
X001566Y006520D02*
X003296Y006520D01*
X003296Y006679D02*
X001566Y006679D01*
X001566Y006837D02*
X003296Y006837D01*
X003296Y006996D02*
X001566Y006996D01*
X001566Y007154D02*
X003296Y007154D01*
X003296Y007313D02*
X001566Y007313D01*
X001566Y007471D02*
X003296Y007471D01*
X003296Y007630D02*
X001566Y007630D01*
X001566Y007788D02*
X003296Y007788D01*
X003296Y007947D02*
X001566Y007947D01*
X001566Y008105D02*
X003296Y008105D01*
X003296Y008264D02*
X001566Y008264D01*
X001566Y008422D02*
X003296Y008422D01*
X003296Y008581D02*
X001566Y008581D01*
X001566Y008739D02*
X003296Y008739D01*
X003296Y008898D02*
X001566Y008898D01*
X001566Y009056D02*
X003296Y009056D01*
X003296Y009215D02*
X001566Y009215D01*
X001566Y009373D02*
X003296Y009373D01*
X003296Y009532D02*
X001566Y009532D01*
X001566Y009690D02*
X003296Y009690D01*
X003296Y009849D02*
X001566Y009849D01*
X001566Y010007D02*
X003296Y010007D01*
X003296Y010166D02*
X001566Y010166D01*
X001566Y010324D02*
X003296Y010324D01*
X003296Y010483D02*
X001566Y010483D01*
X001566Y010641D02*
X003296Y010641D01*
X003296Y010800D02*
X001566Y010800D01*
X001566Y010958D02*
X003296Y010958D01*
X003296Y011117D02*
X001566Y011117D01*
X001566Y011275D02*
X003296Y011275D01*
X003296Y011434D02*
X001566Y011434D01*
X001566Y011592D02*
X003296Y011592D01*
X003296Y011751D02*
X001566Y011751D01*
X001566Y011909D02*
X003296Y011909D01*
X003296Y012068D02*
X001566Y012068D01*
X001566Y012226D02*
X003296Y012226D01*
X003296Y012385D02*
X001566Y012385D01*
X001566Y012543D02*
X003296Y012543D01*
X003296Y012702D02*
X001566Y012702D01*
X001566Y012860D02*
X003296Y012860D01*
X003296Y013019D02*
X001566Y013019D01*
X001566Y013177D02*
X003296Y013177D01*
X003296Y013336D02*
X001566Y013336D01*
X001566Y013494D02*
X003296Y013494D01*
X003296Y013653D02*
X001566Y013653D01*
X001566Y013811D02*
X003296Y013811D01*
X003296Y013970D02*
X001566Y013970D01*
X001566Y014128D02*
X003296Y014128D01*
X003296Y014287D02*
X001566Y014287D01*
X001814Y014445D02*
X003296Y014445D01*
X003296Y014604D02*
X001901Y014604D01*
X001909Y014762D02*
X003296Y014762D01*
X003296Y014921D02*
X001840Y014921D01*
X001530Y014696D02*
X001286Y014452D01*
X001286Y001109D01*
X001040Y000973D02*
X000960Y000973D01*
X001228Y000814D02*
X000488Y000814D01*
X000488Y000656D02*
X001386Y000656D01*
X000605Y000973D02*
X000488Y000973D01*
X000488Y002558D02*
X001006Y002558D01*
X001006Y002716D02*
X000488Y002716D01*
X000488Y002875D02*
X001006Y002875D01*
X001006Y003033D02*
X000488Y003033D01*
X000488Y003192D02*
X001006Y003192D01*
X001006Y003350D02*
X000488Y003350D01*
X000488Y003509D02*
X001006Y003509D01*
X001006Y003667D02*
X000488Y003667D01*
X000488Y003826D02*
X001006Y003826D01*
X001006Y003984D02*
X000488Y003984D01*
X000488Y004143D02*
X001006Y004143D01*
X001006Y004301D02*
X000488Y004301D01*
X000488Y004460D02*
X001006Y004460D01*
X001006Y004618D02*
X000488Y004618D01*
X000488Y004777D02*
X001006Y004777D01*
X001006Y004935D02*
X000488Y004935D01*
X000488Y005094D02*
X001006Y005094D01*
X001006Y005252D02*
X000488Y005252D01*
X000488Y005411D02*
X001006Y005411D01*
X001006Y005569D02*
X000488Y005569D01*
X000488Y005728D02*
X001006Y005728D01*
X001006Y005886D02*
X000488Y005886D01*
X000488Y006045D02*
X001006Y006045D01*
X001006Y006203D02*
X000488Y006203D01*
X000488Y006362D02*
X001006Y006362D01*
X001006Y006520D02*
X000488Y006520D01*
X000488Y006679D02*
X001006Y006679D01*
X001006Y006837D02*
X000488Y006837D01*
X000488Y006996D02*
X001006Y006996D01*
X001006Y007154D02*
X000488Y007154D01*
X000488Y007313D02*
X001006Y007313D01*
X001006Y007471D02*
X000488Y007471D01*
X000488Y007630D02*
X001006Y007630D01*
X001006Y007788D02*
X000488Y007788D01*
X000488Y007947D02*
X001006Y007947D01*
X001006Y008105D02*
X000488Y008105D01*
X000488Y008264D02*
X001006Y008264D01*
X001006Y008422D02*
X000488Y008422D01*
X000488Y008581D02*
X001006Y008581D01*
X001006Y008739D02*
X000488Y008739D01*
X000488Y008898D02*
X001006Y008898D01*
X001006Y009056D02*
X000488Y009056D01*
X000488Y009215D02*
X001006Y009215D01*
X001006Y009373D02*
X000488Y009373D01*
X000488Y009532D02*
X001006Y009532D01*
X001006Y009690D02*
X000488Y009690D01*
X000488Y009849D02*
X001006Y009849D01*
X001006Y010007D02*
X000488Y010007D01*
X000488Y010166D02*
X001006Y010166D01*
X001006Y010324D02*
X000488Y010324D01*
X000488Y010483D02*
X001006Y010483D01*
X001006Y010641D02*
X000488Y010641D01*
X000488Y010800D02*
X001006Y010800D01*
X001006Y010958D02*
X000488Y010958D01*
X000488Y011117D02*
X001006Y011117D01*
X001006Y011275D02*
X000488Y011275D01*
X000488Y011434D02*
X001006Y011434D01*
X001006Y011592D02*
X000488Y011592D01*
X000488Y011751D02*
X001006Y011751D01*
X001006Y011909D02*
X000488Y011909D01*
X000488Y012068D02*
X001006Y012068D01*
X001006Y012226D02*
X000488Y012226D01*
X000488Y012385D02*
X001006Y012385D01*
X001006Y012543D02*
X000488Y012543D01*
X000488Y012702D02*
X001006Y012702D01*
X001006Y012860D02*
X000488Y012860D01*
X000488Y013019D02*
X001006Y013019D01*
X001006Y013177D02*
X000488Y013177D01*
X000488Y013336D02*
X001006Y013336D01*
X001006Y013494D02*
X000488Y013494D01*
X000488Y013653D02*
X001006Y013653D01*
X001006Y013811D02*
X000488Y013811D01*
X000488Y013970D02*
X001006Y013970D01*
X001006Y014128D02*
X000488Y014128D01*
X000488Y014287D02*
X001006Y014287D01*
X001006Y014445D02*
X000488Y014445D01*
X000488Y014604D02*
X001046Y014604D01*
X001152Y014762D02*
X000488Y014762D01*
X000488Y014921D02*
X001220Y014921D01*
X000759Y014365D02*
X000759Y016263D01*
X001007Y016511D01*
X000696Y016511D01*
X000488Y016506D02*
X003296Y016506D01*
X003296Y016664D02*
X000488Y016664D01*
X000488Y016823D02*
X003296Y016823D01*
X003296Y016981D02*
X002034Y016981D01*
X002071Y016996D02*
X002211Y017137D01*
X002288Y017321D01*
X002288Y018119D01*
X002211Y018303D01*
X002071Y018444D01*
X001887Y018520D01*
X001688Y018520D01*
X001504Y018444D01*
X001364Y018303D01*
X001288Y018119D01*
X001288Y017321D01*
X001364Y017137D01*
X001504Y016996D01*
X001688Y016920D01*
X001887Y016920D01*
X002071Y016996D01*
X002213Y017140D02*
X003296Y017140D01*
X003296Y017298D02*
X002278Y017298D01*
X002288Y017457D02*
X003296Y017457D01*
X003296Y017615D02*
X002288Y017615D01*
X002288Y017774D02*
X003296Y017774D01*
X003296Y017932D02*
X002288Y017932D01*
X002288Y018091D02*
X003221Y018091D01*
X003168Y018249D02*
X002234Y018249D01*
X002107Y018408D02*
X003184Y018408D01*
X003283Y018566D02*
X000488Y018566D01*
X000488Y018408D02*
X000504Y018408D01*
X000768Y018408D02*
X000808Y018408D01*
X000808Y018249D02*
X000768Y018249D01*
X000768Y018091D02*
X000808Y018091D01*
X000808Y017932D02*
X000768Y017932D01*
X000768Y017774D02*
X000808Y017774D01*
X000808Y017700D02*
X001268Y017700D01*
X001268Y017382D01*
X001256Y017308D01*
X001232Y017236D01*
X001198Y017168D01*
X001154Y017107D01*
X001100Y017054D01*
X001039Y017009D01*
X000972Y016975D01*
X000900Y016952D01*
X000825Y016940D01*
X000808Y016940D01*
X000808Y017700D01*
X000808Y017615D02*
X000768Y017615D01*
X000768Y017457D02*
X000808Y017457D01*
X000808Y017298D02*
X000768Y017298D01*
X000768Y017140D02*
X000808Y017140D01*
X000808Y016981D02*
X000768Y016981D01*
X000592Y016981D02*
X000488Y016981D01*
X000983Y016981D02*
X001541Y016981D01*
X001363Y017140D02*
X001177Y017140D01*
X001253Y017298D02*
X001297Y017298D01*
X001288Y017457D02*
X001268Y017457D01*
X001268Y017615D02*
X001288Y017615D01*
X001288Y017774D02*
X001268Y017774D01*
X001268Y017932D02*
X001288Y017932D01*
X001288Y018091D02*
X001262Y018091D01*
X001210Y018249D02*
X001341Y018249D01*
X001468Y018408D02*
X001071Y018408D01*
X000488Y018725D02*
X014452Y018725D01*
X014476Y018815D02*
X014476Y018815D01*
X014544Y018883D02*
X000488Y018883D01*
X000488Y019042D02*
X014682Y019042D01*
X014748Y019089D02*
X014748Y019089D01*
X014752Y019085D02*
X014752Y019085D01*
X014736Y019105D02*
X014736Y019105D01*
X014692Y019165D02*
X014692Y019165D01*
X014668Y019197D02*
X014668Y019197D01*
X014665Y019200D02*
X000488Y019200D01*
X000488Y019359D02*
X014548Y019359D01*
X014572Y019325D02*
X014572Y019325D01*
X014588Y019305D02*
X014588Y019305D01*
X014596Y019293D02*
X014596Y019293D01*
X014632Y019245D02*
X014632Y019245D01*
X014648Y019225D02*
X014648Y019225D01*
X014576Y018935D02*
X014576Y018935D01*
X014560Y018915D02*
X014560Y018915D01*
X014468Y018569D02*
X014468Y018569D01*
X014471Y018566D02*
X013043Y018566D01*
X012836Y018566D02*
X010704Y018566D01*
X010459Y018566D02*
X008522Y018566D01*
X008639Y018408D02*
X010255Y018408D01*
X010203Y018249D02*
X008668Y018249D01*
X008628Y018091D02*
X010221Y018091D01*
X010322Y017932D02*
X008540Y017932D01*
X008540Y017774D02*
X010332Y017774D01*
X010332Y017615D02*
X008540Y017615D01*
X008540Y017457D02*
X010332Y017457D01*
X010332Y017298D02*
X008540Y017298D01*
X008540Y017140D02*
X010332Y017140D01*
X010332Y016981D02*
X008540Y016981D01*
X008540Y016823D02*
X010332Y016823D01*
X010332Y016664D02*
X008540Y016664D01*
X008540Y016506D02*
X010332Y016506D01*
X010332Y016347D02*
X008540Y016347D01*
X008540Y016189D02*
X010332Y016189D01*
X010332Y016030D02*
X008540Y016030D01*
X008540Y015872D02*
X010332Y015872D01*
X010332Y015713D02*
X008540Y015713D01*
X008540Y015555D02*
X010332Y015555D01*
X010332Y015396D02*
X008540Y015396D01*
X008540Y015238D02*
X010332Y015238D01*
X010332Y015079D02*
X008540Y015079D01*
X008540Y014921D02*
X010332Y014921D01*
X010332Y014762D02*
X008540Y014762D01*
X008540Y014604D02*
X010332Y014604D01*
X010332Y014445D02*
X008540Y014445D01*
X008540Y014287D02*
X010332Y014287D01*
X010332Y014128D02*
X008540Y014128D01*
X008540Y013970D02*
X010332Y013970D01*
X010332Y013811D02*
X008540Y013811D01*
X008540Y013653D02*
X010332Y013653D01*
X010332Y013494D02*
X008540Y013494D01*
X008540Y013336D02*
X010332Y013336D01*
X010332Y013177D02*
X008540Y013177D01*
X008540Y013019D02*
X010332Y013019D01*
X010332Y012860D02*
X008540Y012860D01*
X008540Y012702D02*
X010332Y012702D01*
X010332Y012543D02*
X008540Y012543D01*
X008540Y012385D02*
X010332Y012385D01*
X010332Y012226D02*
X008540Y012226D01*
X008540Y012068D02*
X010332Y012068D01*
X010332Y011909D02*
X008540Y011909D01*
X008540Y011751D02*
X010332Y011751D01*
X010332Y011592D02*
X008540Y011592D01*
X008540Y011434D02*
X010332Y011434D01*
X010332Y011275D02*
X008540Y011275D01*
X008540Y011117D02*
X010332Y011117D01*
X010332Y010958D02*
X008540Y010958D01*
X008540Y010800D02*
X010332Y010800D01*
X010332Y010641D02*
X008540Y010641D01*
X008540Y010483D02*
X010332Y010483D01*
X010332Y010324D02*
X008540Y010324D01*
X008540Y010166D02*
X010332Y010166D01*
X010332Y010007D02*
X008540Y010007D01*
X008540Y009849D02*
X010332Y009849D01*
X010332Y009690D02*
X008540Y009690D01*
X008540Y009532D02*
X010332Y009532D01*
X010332Y009373D02*
X008540Y009373D01*
X008540Y009215D02*
X010332Y009215D01*
X010332Y009056D02*
X008540Y009056D01*
X008540Y008898D02*
X010332Y008898D01*
X010332Y008739D02*
X008540Y008739D01*
X008540Y008581D02*
X010332Y008581D01*
X010332Y008422D02*
X008540Y008422D01*
X008540Y008264D02*
X010332Y008264D01*
X010332Y008105D02*
X008540Y008105D01*
X008540Y007947D02*
X010332Y007947D01*
X010332Y007788D02*
X008540Y007788D01*
X008540Y007630D02*
X010332Y007630D01*
X010332Y007471D02*
X008540Y007471D01*
X008540Y007313D02*
X010332Y007313D01*
X010332Y007154D02*
X008540Y007154D01*
X008540Y006996D02*
X010332Y006996D01*
X010332Y006837D02*
X008540Y006837D01*
X008540Y006679D02*
X010332Y006679D01*
X010332Y006520D02*
X008540Y006520D01*
X008540Y006362D02*
X010332Y006362D01*
X010332Y006203D02*
X008540Y006203D01*
X008540Y006045D02*
X010332Y006045D01*
X010332Y005886D02*
X008540Y005886D01*
X008540Y005728D02*
X010332Y005728D01*
X010332Y005569D02*
X008540Y005569D01*
X008540Y005411D02*
X010332Y005411D01*
X010332Y005252D02*
X008540Y005252D01*
X008540Y005094D02*
X010332Y005094D01*
X010332Y004935D02*
X008540Y004935D01*
X008540Y004777D02*
X010332Y004777D01*
X010332Y004618D02*
X008540Y004618D01*
X008540Y004460D02*
X010332Y004460D01*
X010332Y004301D02*
X008540Y004301D01*
X008540Y004143D02*
X010332Y004143D01*
X010332Y003984D02*
X008540Y003984D01*
X008540Y003826D02*
X010332Y003826D01*
X010332Y003667D02*
X008540Y003667D01*
X008540Y003509D02*
X010332Y003509D01*
X010332Y003350D02*
X008540Y003350D01*
X008557Y003192D02*
X010332Y003192D01*
X010434Y003033D02*
X008716Y003033D01*
X008874Y002875D02*
X010593Y002875D01*
X010751Y002716D02*
X009033Y002716D01*
X009191Y002558D02*
X010910Y002558D01*
X011068Y002399D02*
X009350Y002399D01*
X009508Y002241D02*
X011227Y002241D01*
X011385Y002082D02*
X009667Y002082D01*
X009825Y001924D02*
X011544Y001924D01*
X011702Y001765D02*
X009984Y001765D01*
X009936Y001983D02*
X010676Y001274D01*
X010793Y001131D02*
X012336Y001131D01*
X012178Y001290D02*
X010459Y001290D01*
X010301Y001448D02*
X012019Y001448D01*
X011861Y001607D02*
X010142Y001607D01*
X009936Y001983D02*
X009936Y004790D01*
X009936Y008038D01*
X009936Y011101D01*
X009936Y014294D01*
X009936Y017523D01*
X010832Y017457D02*
X012690Y017457D01*
X012690Y017615D02*
X010832Y017615D01*
X010832Y017774D02*
X012690Y017774D01*
X012673Y017932D02*
X010841Y017932D01*
X010942Y018091D02*
X012576Y018091D01*
X012562Y018249D02*
X010960Y018249D01*
X010908Y018408D02*
X012617Y018408D01*
X013207Y017932D02*
X014278Y017932D01*
X014278Y017774D02*
X013190Y017774D01*
X013190Y017615D02*
X014278Y017615D01*
X014278Y017457D02*
X013190Y017457D01*
X013190Y017298D02*
X014295Y017298D01*
X014371Y017140D02*
X013190Y017140D01*
X013190Y016981D02*
X014579Y016981D01*
X014976Y016981D02*
X015579Y016981D01*
X015371Y017140D02*
X015184Y017140D01*
X015260Y017298D02*
X015295Y017298D01*
X015278Y017341D02*
X015278Y018139D01*
X015294Y018180D01*
X015261Y018180D01*
X015278Y018139D01*
X015278Y017341D01*
X015278Y017457D02*
X015278Y017457D01*
X015278Y017615D02*
X015278Y017615D01*
X015278Y017774D02*
X015278Y017774D01*
X015278Y017932D02*
X015278Y017932D01*
X015278Y018091D02*
X015278Y018091D01*
X015678Y018540D02*
X015704Y018565D01*
X015704Y018565D01*
X015720Y018581D01*
X015720Y018589D01*
X015724Y018593D01*
X015724Y018601D01*
X015724Y018779D01*
X015724Y018779D01*
X015724Y018783D01*
X015720Y018787D01*
X015720Y018795D01*
X015700Y018815D01*
X015612Y018903D01*
X015612Y018911D01*
X015608Y018915D01*
X015608Y018931D01*
X015490Y019048D01*
X015426Y019048D01*
X015408Y019066D01*
X015420Y019077D01*
X015420Y019081D01*
X015424Y019085D01*
X015424Y019085D01*
X015428Y019089D01*
X015432Y019093D01*
X015432Y019097D01*
X015440Y019105D01*
X015440Y019105D01*
X015444Y019109D01*
X015444Y019113D01*
X015456Y019125D01*
X015456Y019129D01*
X015468Y019141D01*
X015468Y019145D01*
X015480Y019157D01*
X015480Y019161D01*
X015492Y019173D01*
X015492Y019177D01*
X015500Y019185D01*
X015500Y019185D01*
X015504Y019189D01*
X015504Y019193D01*
X015516Y019205D01*
X015516Y019209D01*
X015524Y019217D01*
X015524Y019221D01*
X015528Y019225D01*
X015528Y019225D01*
X015536Y019233D01*
X015536Y019237D01*
X015544Y019245D01*
X015544Y019245D01*
X015548Y019249D01*
X015548Y019253D01*
X015560Y019265D01*
X015560Y019269D01*
X015572Y019281D01*
X015572Y019285D01*
X015584Y019297D01*
X015584Y019301D01*
X015588Y019305D01*
X015588Y019305D01*
X015596Y019313D01*
X015596Y019317D01*
X015604Y019325D01*
X015604Y019325D01*
X015608Y019329D01*
X015608Y019333D01*
X015620Y019345D01*
X015620Y019349D01*
X015628Y019357D01*
X015628Y019531D01*
X015624Y019535D01*
X015573Y019585D01*
X016069Y019585D01*
X016069Y018455D01*
X016061Y018464D01*
X015877Y018540D01*
X015678Y018540D01*
X015704Y018566D02*
X016069Y018566D01*
X016069Y018725D02*
X015724Y018725D01*
X015724Y018601D02*
X015724Y018601D01*
X015631Y018883D02*
X016069Y018883D01*
X016069Y019042D02*
X015497Y019042D01*
X015428Y019089D02*
X015428Y019089D01*
X015504Y019193D02*
X015504Y019193D01*
X015504Y019193D01*
X015510Y019200D02*
X016069Y019200D01*
X016069Y019359D02*
X015628Y019359D01*
X015628Y019517D02*
X016069Y019517D01*
X015624Y019535D02*
X015624Y019535D01*
X014552Y019535D02*
X014552Y019535D01*
X014548Y019517D02*
X000488Y019517D01*
X002605Y019247D02*
X002605Y018932D01*
X002546Y018873D01*
X002546Y016830D01*
X002326Y016609D01*
X001137Y016609D01*
X001121Y016625D01*
X001007Y016511D01*
X000488Y016347D02*
X003296Y016347D01*
X003296Y016189D02*
X000488Y016189D01*
X000488Y016030D02*
X003296Y016030D01*
X003296Y015872D02*
X000488Y015872D01*
X000488Y015713D02*
X003296Y015713D01*
X003296Y015555D02*
X000488Y015555D01*
X000488Y015396D02*
X003296Y015396D01*
X003296Y015238D02*
X000488Y015238D01*
X000488Y015079D02*
X003296Y015079D01*
X003796Y015079D02*
X005658Y015079D01*
X005658Y014921D02*
X003796Y014921D01*
X003796Y014762D02*
X005658Y014762D01*
X005658Y014604D02*
X003796Y014604D01*
X003796Y014445D02*
X005658Y014445D01*
X005658Y014287D02*
X003796Y014287D01*
X003796Y014128D02*
X005658Y014128D01*
X005658Y013970D02*
X003796Y013970D01*
X003796Y013811D02*
X005658Y013811D01*
X005658Y013653D02*
X003796Y013653D01*
X003796Y013494D02*
X005658Y013494D01*
X005658Y013336D02*
X003796Y013336D01*
X003796Y013177D02*
X005658Y013177D01*
X005658Y013019D02*
X003796Y013019D01*
X003796Y012860D02*
X005658Y012860D01*
X005658Y012702D02*
X003796Y012702D01*
X003796Y012543D02*
X005658Y012543D01*
X005658Y012385D02*
X003796Y012385D01*
X003796Y012226D02*
X005658Y012226D01*
X005658Y012068D02*
X003796Y012068D01*
X003796Y011909D02*
X005658Y011909D01*
X005658Y011751D02*
X003796Y011751D01*
X003796Y011592D02*
X005658Y011592D01*
X005658Y011434D02*
X003796Y011434D01*
X003796Y011275D02*
X005658Y011275D01*
X005658Y011117D02*
X003796Y011117D01*
X003796Y010958D02*
X005658Y010958D01*
X005658Y010800D02*
X003796Y010800D01*
X003796Y010641D02*
X005658Y010641D01*
X005658Y010483D02*
X003796Y010483D01*
X003796Y010324D02*
X005658Y010324D01*
X005658Y010166D02*
X003796Y010166D01*
X003796Y010007D02*
X005658Y010007D01*
X005658Y009849D02*
X003796Y009849D01*
X003796Y009690D02*
X005658Y009690D01*
X005658Y009532D02*
X003796Y009532D01*
X003796Y009373D02*
X005658Y009373D01*
X005658Y009215D02*
X003796Y009215D01*
X003796Y009056D02*
X005658Y009056D01*
X005658Y008898D02*
X003796Y008898D01*
X003796Y008739D02*
X005658Y008739D01*
X005658Y008581D02*
X003796Y008581D01*
X003796Y008422D02*
X005658Y008422D01*
X005658Y008264D02*
X003796Y008264D01*
X003796Y008105D02*
X005658Y008105D01*
X005658Y007947D02*
X003796Y007947D01*
X003796Y007788D02*
X005658Y007788D01*
X005658Y007630D02*
X003796Y007630D01*
X003796Y007471D02*
X005658Y007471D01*
X005658Y007313D02*
X003796Y007313D01*
X003796Y007154D02*
X005658Y007154D01*
X005658Y006996D02*
X003796Y006996D01*
X003796Y006837D02*
X005658Y006837D01*
X005658Y006679D02*
X003796Y006679D01*
X003796Y006520D02*
X005658Y006520D01*
X005658Y006362D02*
X003796Y006362D01*
X003796Y006203D02*
X005658Y006203D01*
X005658Y006045D02*
X003796Y006045D01*
X003796Y005886D02*
X005658Y005886D01*
X005658Y005728D02*
X003796Y005728D01*
X003796Y005569D02*
X005658Y005569D01*
X005658Y005411D02*
X003796Y005411D01*
X003796Y005252D02*
X005658Y005252D01*
X005658Y005094D02*
X003796Y005094D01*
X003796Y004935D02*
X005658Y004935D01*
X005658Y004777D02*
X003796Y004777D01*
X003796Y004618D02*
X005658Y004618D01*
X005658Y004460D02*
X003796Y004460D01*
X003796Y004301D02*
X005658Y004301D01*
X005658Y004143D02*
X003796Y004143D01*
X003796Y003984D02*
X005658Y003984D01*
X005658Y003826D02*
X003796Y003826D01*
X003796Y003667D02*
X005658Y003667D01*
X005658Y003509D02*
X003796Y003509D01*
X003796Y003350D02*
X005658Y003350D01*
X005658Y003192D02*
X003796Y003192D01*
X003936Y003033D02*
X005664Y003033D01*
X005778Y002875D02*
X004095Y002875D01*
X004253Y002716D02*
X005936Y002716D01*
X006095Y002558D02*
X004412Y002558D01*
X004570Y002399D02*
X006253Y002399D01*
X006412Y002241D02*
X004729Y002241D01*
X004887Y002082D02*
X006570Y002082D01*
X006729Y001924D02*
X005046Y001924D01*
X005204Y001765D02*
X006887Y001765D01*
X007046Y001607D02*
X005363Y001607D01*
X005521Y001448D02*
X007204Y001448D01*
X007363Y001290D02*
X005680Y001290D01*
X006019Y001131D02*
X007521Y001131D01*
X007680Y000973D02*
X006148Y000973D01*
X006184Y000814D02*
X007838Y000814D01*
X007869Y000656D02*
X006151Y000656D01*
X006028Y000497D02*
X007974Y000497D01*
X008481Y000497D02*
X010364Y000497D01*
X010243Y000656D02*
X008586Y000656D01*
X008605Y000814D02*
X010211Y000814D01*
X010069Y000973D02*
X008556Y000973D01*
X008364Y001131D02*
X009911Y001131D01*
X009752Y001290D02*
X008070Y001290D01*
X007911Y001448D02*
X009594Y001448D01*
X009435Y001607D02*
X007753Y001607D01*
X007594Y001765D02*
X009277Y001765D01*
X009118Y001924D02*
X007436Y001924D01*
X007609Y002019D02*
X008432Y001196D01*
X008960Y002082D02*
X007277Y002082D01*
X007119Y002241D02*
X008801Y002241D01*
X008643Y002399D02*
X006960Y002399D01*
X006802Y002558D02*
X008484Y002558D01*
X008326Y002716D02*
X006643Y002716D01*
X006485Y002875D02*
X008167Y002875D01*
X008050Y003033D02*
X006326Y003033D01*
X006168Y003192D02*
X008040Y003192D01*
X008040Y003350D02*
X006158Y003350D01*
X006158Y003509D02*
X008040Y003509D01*
X008040Y003667D02*
X006158Y003667D01*
X006158Y003826D02*
X008040Y003826D01*
X008040Y003984D02*
X006158Y003984D01*
X006158Y004143D02*
X008040Y004143D01*
X008040Y004301D02*
X006158Y004301D01*
X006158Y004460D02*
X008040Y004460D01*
X008040Y004618D02*
X006158Y004618D01*
X006158Y004777D02*
X008040Y004777D01*
X008040Y004935D02*
X006158Y004935D01*
X006158Y005094D02*
X008040Y005094D01*
X008040Y005252D02*
X006158Y005252D01*
X006158Y005411D02*
X008040Y005411D01*
X008040Y005569D02*
X006158Y005569D01*
X006158Y005728D02*
X008040Y005728D01*
X008040Y005886D02*
X006158Y005886D01*
X006158Y006045D02*
X008040Y006045D01*
X008040Y006203D02*
X006158Y006203D01*
X006158Y006362D02*
X008040Y006362D01*
X008040Y006520D02*
X006158Y006520D01*
X006158Y006679D02*
X008040Y006679D01*
X008040Y006837D02*
X006158Y006837D01*
X006158Y006996D02*
X008040Y006996D01*
X008040Y007154D02*
X006158Y007154D01*
X006158Y007313D02*
X008040Y007313D01*
X008040Y007471D02*
X006158Y007471D01*
X006158Y007630D02*
X008040Y007630D01*
X008040Y007788D02*
X006158Y007788D01*
X006158Y007947D02*
X008040Y007947D01*
X008040Y008105D02*
X006158Y008105D01*
X006158Y008264D02*
X008040Y008264D01*
X008040Y008422D02*
X006158Y008422D01*
X006158Y008581D02*
X008040Y008581D01*
X008040Y008739D02*
X006158Y008739D01*
X006158Y008898D02*
X008040Y008898D01*
X008040Y009056D02*
X006158Y009056D01*
X006158Y009215D02*
X008040Y009215D01*
X008040Y009373D02*
X006158Y009373D01*
X006158Y009532D02*
X008040Y009532D01*
X008040Y009690D02*
X006158Y009690D01*
X006158Y009849D02*
X008040Y009849D01*
X008040Y010007D02*
X006158Y010007D01*
X006158Y010166D02*
X008040Y010166D01*
X008040Y010324D02*
X006158Y010324D01*
X006158Y010483D02*
X008040Y010483D01*
X008040Y010641D02*
X006158Y010641D01*
X006158Y010800D02*
X008040Y010800D01*
X008040Y010958D02*
X006158Y010958D01*
X006158Y011117D02*
X008040Y011117D01*
X008040Y011275D02*
X006158Y011275D01*
X006158Y011434D02*
X008040Y011434D01*
X008040Y011592D02*
X006158Y011592D01*
X006158Y011751D02*
X008040Y011751D01*
X008040Y011909D02*
X006158Y011909D01*
X006158Y012068D02*
X008040Y012068D01*
X008040Y012226D02*
X006158Y012226D01*
X006158Y012385D02*
X008040Y012385D01*
X008040Y012543D02*
X006158Y012543D01*
X006158Y012702D02*
X008040Y012702D01*
X008040Y012860D02*
X006158Y012860D01*
X006158Y013019D02*
X008040Y013019D01*
X008040Y013177D02*
X006158Y013177D01*
X006158Y013336D02*
X008040Y013336D01*
X008040Y013494D02*
X006158Y013494D01*
X006158Y013653D02*
X008040Y013653D01*
X008040Y013811D02*
X006158Y013811D01*
X006158Y013970D02*
X008040Y013970D01*
X008040Y014128D02*
X006158Y014128D01*
X006158Y014287D02*
X008040Y014287D01*
X008040Y014445D02*
X006158Y014445D01*
X006158Y014604D02*
X008040Y014604D01*
X008040Y014762D02*
X006158Y014762D01*
X006158Y014921D02*
X008040Y014921D01*
X008040Y015079D02*
X006158Y015079D01*
X006158Y015238D02*
X008040Y015238D01*
X008040Y015396D02*
X006158Y015396D01*
X006158Y015555D02*
X008040Y015555D01*
X008040Y015713D02*
X006158Y015713D01*
X006158Y015872D02*
X008040Y015872D01*
X008040Y016030D02*
X006158Y016030D01*
X006158Y016189D02*
X008040Y016189D01*
X008040Y016347D02*
X006158Y016347D01*
X006158Y016506D02*
X008040Y016506D01*
X008040Y016664D02*
X006158Y016664D01*
X006158Y016823D02*
X008040Y016823D01*
X008040Y016981D02*
X006158Y016981D01*
X006158Y017140D02*
X008040Y017140D01*
X008040Y017298D02*
X006158Y017298D01*
X006158Y017457D02*
X008040Y017457D01*
X008040Y017615D02*
X006158Y017615D01*
X006158Y017774D02*
X008040Y017774D01*
X008040Y017932D02*
X006158Y017932D01*
X006200Y018091D02*
X007952Y018091D01*
X007912Y018249D02*
X006283Y018249D01*
X006286Y018408D02*
X007941Y018408D01*
X008059Y018566D02*
X006211Y018566D01*
X005658Y017932D02*
X003796Y017932D01*
X003796Y017774D02*
X005658Y017774D01*
X005658Y017615D02*
X003796Y017615D01*
X003796Y017457D02*
X005658Y017457D01*
X005658Y017298D02*
X003796Y017298D01*
X003796Y017140D02*
X005658Y017140D01*
X005658Y016981D02*
X003796Y016981D01*
X003796Y016823D02*
X005658Y016823D01*
X005658Y016664D02*
X003796Y016664D01*
X003796Y016506D02*
X005658Y016506D01*
X005658Y016347D02*
X003796Y016347D01*
X003796Y016189D02*
X005658Y016189D01*
X005658Y016030D02*
X003796Y016030D01*
X003796Y015872D02*
X005658Y015872D01*
X005658Y015713D02*
X003796Y015713D01*
X003796Y015555D02*
X005658Y015555D01*
X005658Y015396D02*
X003796Y015396D01*
X003796Y015238D02*
X005658Y015238D01*
X005353Y014432D02*
X005353Y011137D01*
X005353Y007971D01*
X005353Y004747D01*
X005353Y001912D01*
X006058Y001208D01*
X007609Y002019D02*
X007609Y004692D01*
X007609Y008007D01*
X007609Y011211D01*
X007609Y014511D01*
X007609Y017515D01*
X007609Y019093D01*
X007456Y019247D01*
X005046Y019247D01*
X005353Y018940D01*
X005353Y017526D01*
X005353Y014432D01*
X003026Y014393D02*
X003026Y011211D01*
X003026Y007987D01*
X003026Y004747D01*
X003026Y001566D01*
X003448Y001145D01*
X003803Y001131D02*
X002181Y001131D01*
X000731Y002948D02*
X000759Y002975D01*
X000759Y008023D01*
X000759Y011215D01*
X000759Y014365D01*
X003026Y014393D02*
X003026Y017534D01*
X003871Y018091D02*
X005617Y018091D01*
X005534Y018249D02*
X003924Y018249D01*
X003908Y018408D02*
X005530Y018408D01*
X005606Y018566D02*
X003809Y018566D01*
X002920Y019247D02*
X002605Y018932D01*
X002920Y019247D02*
X005046Y019247D01*
X007456Y019247D02*
X007530Y019247D01*
X007530Y019456D01*
X007530Y019247D02*
X009763Y019247D01*
X009763Y019471D01*
X009763Y019247D02*
X012145Y019247D01*
X012145Y019507D01*
X012145Y019247D02*
X013349Y019247D01*
X014188Y018408D01*
X014188Y014700D01*
X014527Y014361D01*
X014523Y014365D02*
X014523Y011204D01*
X014727Y011204D01*
X014523Y011204D02*
X014523Y007873D01*
X014727Y007873D01*
X014523Y007873D02*
X014523Y005597D01*
X015011Y005109D01*
X015708Y005094D02*
X013780Y005094D01*
X013621Y005252D02*
X016069Y005252D01*
X016069Y005094D02*
X015935Y005094D01*
X016069Y005411D02*
X013463Y005411D01*
X013304Y005569D02*
X016069Y005569D01*
X016069Y005728D02*
X013200Y005728D01*
X013200Y005886D02*
X016069Y005886D01*
X016058Y006045D02*
X016069Y006045D01*
X015877Y006045D02*
X013200Y006045D01*
X013200Y006203D02*
X015646Y006203D01*
X015589Y006362D02*
X013200Y006362D01*
X013190Y006520D02*
X015601Y006520D01*
X015687Y006679D02*
X013190Y006679D01*
X013190Y006837D02*
X015687Y006837D01*
X015687Y006996D02*
X013190Y006996D01*
X013190Y007154D02*
X015687Y007154D01*
X015687Y007313D02*
X013190Y007313D01*
X013190Y007471D02*
X015687Y007471D01*
X015687Y007630D02*
X013190Y007630D01*
X013190Y007788D02*
X015687Y007788D01*
X015687Y007947D02*
X013190Y007947D01*
X013190Y008105D02*
X015687Y008105D01*
X015687Y008264D02*
X013190Y008264D01*
X013190Y008422D02*
X015687Y008422D01*
X015687Y008581D02*
X013190Y008581D01*
X013190Y008739D02*
X015687Y008739D01*
X015687Y008898D02*
X013190Y008898D01*
X013190Y009056D02*
X015687Y009056D01*
X015687Y009215D02*
X013190Y009215D01*
X013190Y009373D02*
X015665Y009373D01*
X015589Y009532D02*
X013190Y009532D01*
X013190Y009690D02*
X015593Y009690D01*
X015676Y009849D02*
X013190Y009849D01*
X013190Y010007D02*
X015687Y010007D01*
X015687Y010166D02*
X013190Y010166D01*
X013190Y010324D02*
X015687Y010324D01*
X015687Y010483D02*
X013190Y010483D01*
X013190Y010641D02*
X015687Y010641D01*
X015687Y010800D02*
X013190Y010800D01*
X013190Y010958D02*
X015687Y010958D01*
X015687Y011117D02*
X013190Y011117D01*
X013190Y011275D02*
X015687Y011275D01*
X015687Y011434D02*
X013190Y011434D01*
X013190Y011592D02*
X015687Y011592D01*
X015687Y011751D02*
X013190Y011751D01*
X013190Y011909D02*
X015687Y011909D01*
X015687Y012068D02*
X013190Y012068D01*
X013190Y012226D02*
X015687Y012226D01*
X015687Y012385D02*
X013190Y012385D01*
X013190Y012543D02*
X015660Y012543D01*
X015589Y012702D02*
X013190Y012702D01*
X013190Y012860D02*
X015595Y012860D01*
X015681Y013019D02*
X013190Y013019D01*
X013190Y013177D02*
X015687Y013177D01*
X015687Y013336D02*
X013190Y013336D01*
X013190Y013494D02*
X015687Y013494D01*
X015687Y013653D02*
X013190Y013653D01*
X013190Y013811D02*
X015687Y013811D01*
X015687Y013970D02*
X013190Y013970D01*
X013190Y014128D02*
X015687Y014128D01*
X015687Y014287D02*
X013190Y014287D01*
X013190Y014445D02*
X015687Y014445D01*
X015687Y014604D02*
X013190Y014604D01*
X013190Y014762D02*
X015687Y014762D01*
X015687Y014921D02*
X013190Y014921D01*
X013190Y015079D02*
X015687Y015079D01*
X015687Y015238D02*
X013190Y015238D01*
X013190Y015396D02*
X015687Y015396D01*
X015687Y015555D02*
X013190Y015555D01*
X013190Y015713D02*
X015569Y015713D01*
X015507Y015872D02*
X013190Y015872D01*
X013190Y016030D02*
X015516Y016030D01*
X015607Y016189D02*
X013190Y016189D01*
X013190Y016347D02*
X016069Y016347D01*
X016069Y016506D02*
X013190Y016506D01*
X013190Y016664D02*
X016069Y016664D01*
X016069Y016823D02*
X013190Y016823D01*
X012690Y016823D02*
X010832Y016823D01*
X010832Y016981D02*
X012690Y016981D01*
X012690Y017140D02*
X010832Y017140D01*
X010832Y017298D02*
X012690Y017298D01*
X012219Y017483D02*
X012219Y014318D01*
X012219Y011156D01*
X012219Y008113D01*
X012219Y004806D01*
X012219Y002066D01*
X013054Y001231D01*
X013201Y001131D02*
X014384Y001131D01*
X014307Y001290D02*
X012885Y001290D01*
X012726Y001448D02*
X014288Y001448D01*
X014288Y001607D02*
X012568Y001607D01*
X012409Y001765D02*
X014288Y001765D01*
X014288Y001924D02*
X012251Y001924D01*
X012092Y002082D02*
X014288Y002082D01*
X014331Y002241D02*
X011934Y002241D01*
X011775Y002399D02*
X014444Y002399D01*
X015131Y002399D02*
X015444Y002399D01*
X015331Y002241D02*
X015244Y002241D01*
X015288Y002082D02*
X015288Y002082D01*
X015288Y001924D02*
X015288Y001924D01*
X015288Y001765D02*
X015288Y001765D01*
X015288Y001607D02*
X015288Y001607D01*
X015288Y001448D02*
X015288Y001448D01*
X015268Y001290D02*
X015307Y001290D01*
X015384Y001131D02*
X015191Y001131D01*
X014978Y000973D02*
X015598Y000973D01*
X015978Y000973D02*
X016069Y000973D01*
X016069Y000814D02*
X013405Y000814D01*
X013378Y000656D02*
X016069Y000656D01*
X016069Y000497D02*
X013264Y000497D01*
X013362Y000973D02*
X014598Y000973D01*
X016069Y002558D02*
X011617Y002558D01*
X011458Y002716D02*
X016069Y002716D01*
X016069Y002875D02*
X011300Y002875D01*
X011141Y003033D02*
X016069Y003033D01*
X016069Y003192D02*
X010983Y003192D01*
X010832Y003350D02*
X016069Y003350D01*
X016069Y003509D02*
X010832Y003509D01*
X010832Y003667D02*
X016069Y003667D01*
X016069Y003826D02*
X010832Y003826D01*
X010832Y003984D02*
X016069Y003984D01*
X016069Y004143D02*
X010832Y004143D01*
X010832Y004301D02*
X016069Y004301D01*
X015559Y004460D02*
X010832Y004460D01*
X010832Y004618D02*
X013520Y004618D01*
X013361Y004777D02*
X010832Y004777D01*
X010832Y004935D02*
X013203Y004935D01*
X013044Y005094D02*
X010832Y005094D01*
X010832Y005252D02*
X012886Y005252D01*
X012727Y005411D02*
X010832Y005411D01*
X010832Y005569D02*
X012680Y005569D01*
X012680Y005728D02*
X010832Y005728D01*
X010832Y005886D02*
X012680Y005886D01*
X012680Y006045D02*
X010832Y006045D01*
X010832Y006203D02*
X012680Y006203D01*
X012680Y006362D02*
X010832Y006362D01*
X010832Y006520D02*
X012690Y006520D01*
X012690Y006679D02*
X010832Y006679D01*
X010832Y006837D02*
X012690Y006837D01*
X012690Y006996D02*
X010832Y006996D01*
X010832Y007154D02*
X012690Y007154D01*
X012690Y007313D02*
X010832Y007313D01*
X010832Y007471D02*
X012690Y007471D01*
X012690Y007630D02*
X010832Y007630D01*
X010832Y007788D02*
X012690Y007788D01*
X012690Y007947D02*
X010832Y007947D01*
X010832Y008105D02*
X012690Y008105D01*
X012690Y008264D02*
X010832Y008264D01*
X010832Y008422D02*
X012690Y008422D01*
X012690Y008581D02*
X010832Y008581D01*
X010832Y008739D02*
X012690Y008739D01*
X012690Y008898D02*
X010832Y008898D01*
X010832Y009056D02*
X012690Y009056D01*
X012690Y009215D02*
X010832Y009215D01*
X010832Y009373D02*
X012690Y009373D01*
X012690Y009532D02*
X010832Y009532D01*
X010832Y009690D02*
X012690Y009690D01*
X012690Y009849D02*
X010832Y009849D01*
X010832Y010007D02*
X012690Y010007D01*
X012690Y010166D02*
X010832Y010166D01*
X010832Y010324D02*
X012690Y010324D01*
X012690Y010483D02*
X010832Y010483D01*
X010832Y010641D02*
X012690Y010641D01*
X012690Y010800D02*
X010832Y010800D01*
X010832Y010958D02*
X012690Y010958D01*
X012690Y011117D02*
X010832Y011117D01*
X010832Y011275D02*
X012690Y011275D01*
X012690Y011434D02*
X010832Y011434D01*
X010832Y011592D02*
X012690Y011592D01*
X012690Y011751D02*
X010832Y011751D01*
X010832Y011909D02*
X012690Y011909D01*
X012690Y012068D02*
X010832Y012068D01*
X010832Y012226D02*
X012690Y012226D01*
X012690Y012385D02*
X010832Y012385D01*
X010832Y012543D02*
X012690Y012543D01*
X012690Y012702D02*
X010832Y012702D01*
X010832Y012860D02*
X012690Y012860D01*
X012690Y013019D02*
X010832Y013019D01*
X010832Y013177D02*
X012690Y013177D01*
X012690Y013336D02*
X010832Y013336D01*
X010832Y013494D02*
X012690Y013494D01*
X012690Y013653D02*
X010832Y013653D01*
X010832Y013811D02*
X012690Y013811D01*
X012690Y013970D02*
X010832Y013970D01*
X010832Y014128D02*
X012690Y014128D01*
X012690Y014287D02*
X010832Y014287D01*
X010832Y014445D02*
X012690Y014445D01*
X012690Y014604D02*
X010832Y014604D01*
X010832Y014762D02*
X012690Y014762D01*
X012690Y014921D02*
X010832Y014921D01*
X010832Y015079D02*
X012690Y015079D01*
X012690Y015238D02*
X010832Y015238D01*
X010832Y015396D02*
X012690Y015396D01*
X012690Y015555D02*
X010832Y015555D01*
X010832Y015713D02*
X012690Y015713D01*
X012690Y015872D02*
X010832Y015872D01*
X010832Y016030D02*
X012690Y016030D01*
X012690Y016189D02*
X010832Y016189D01*
X010832Y016347D02*
X012690Y016347D01*
X012690Y016506D02*
X010832Y016506D01*
X010832Y016664D02*
X012690Y016664D01*
X013304Y018091D02*
X014278Y018091D01*
X014323Y018249D02*
X013318Y018249D01*
X013263Y018408D02*
X014438Y018408D01*
X014472Y018565D02*
X014472Y018565D01*
X015976Y016981D02*
X016069Y016981D01*
X015885Y015932D02*
X015967Y015849D01*
X015967Y012771D01*
X015967Y009605D01*
X015967Y006416D01*
X012495Y000973D02*
X010930Y000973D01*
X010968Y000814D02*
X012648Y000814D01*
X012675Y000656D02*
X010936Y000656D01*
X010815Y000497D02*
X012789Y000497D01*
D230*
X013026Y000794D03*
X013054Y001231D03*
X010676Y001274D03*
X010589Y000806D03*
X008432Y001196D03*
X008227Y000778D03*
X006058Y001208D03*
X005806Y000810D03*
X004007Y000806D03*
X003448Y001145D03*
X000759Y002975D03*
X003026Y004747D03*
X005353Y004747D03*
X007609Y004692D03*
X009936Y004790D03*
X012219Y004806D03*
X014727Y007873D03*
X015967Y006416D03*
X015011Y005109D03*
X015822Y004731D03*
X012219Y008113D03*
X009936Y008038D03*
X007609Y008007D03*
X005353Y007971D03*
X003026Y007987D03*
X000759Y008023D03*
X000759Y011215D03*
X003026Y011211D03*
X005353Y011137D03*
X007609Y011211D03*
X009936Y011101D03*
X012219Y011156D03*
X014727Y011204D03*
X015967Y012771D03*
X014523Y014365D03*
X015885Y015932D03*
X012940Y018200D03*
X012219Y017483D03*
X010582Y018208D03*
X009936Y017523D03*
X008290Y018263D03*
X007609Y017515D03*
X005908Y018334D03*
X005353Y017526D03*
X005046Y019247D03*
X003546Y018294D03*
X003026Y017534D03*
X002605Y019247D03*
X000696Y016511D03*
X001530Y014696D03*
X000759Y014365D03*
X003026Y014393D03*
X005353Y014432D03*
X007609Y014511D03*
X009936Y014294D03*
X012219Y014318D03*
X015967Y009605D03*
X012145Y019507D03*
X009763Y019471D03*
X007530Y019456D03*
D231*
X008290Y018263D02*
X008290Y003105D01*
X010589Y000806D01*
X010582Y003239D02*
X013026Y000794D01*
X010582Y003239D02*
X010582Y018208D01*
X012940Y018200D02*
X012940Y006326D01*
X008227Y000778D02*
X005908Y003097D01*
X005908Y018334D01*
X003546Y018294D02*
X003546Y003070D01*
X005806Y000810D01*
X004007Y000806D02*
X001589Y000806D01*
X001286Y001109D01*
D232*
X012940Y005566D02*
X013771Y004735D01*
X015818Y004735D01*
X015822Y004731D01*
X012940Y005566D02*
X012940Y006326D01*
M02*
