G75*
%MOIN*%
%OFA0B0*%
%FSLAX24Y24*%
%IPPOS*%
%LPD*%
%AMOC8*
5,1,8,0,0,1.08239X$1,22.5*
%
%ADD10C,0.0160*%
%ADD11R,0.0312X0.0004*%
%ADD12R,0.0344X0.0004*%
%ADD13R,0.0368X0.0004*%
%ADD14R,0.0392X0.0004*%
%ADD15R,0.0408X0.0004*%
%ADD16R,0.0424X0.0004*%
%ADD17R,0.0432X0.0004*%
%ADD18R,0.0448X0.0004*%
%ADD19R,0.0456X0.0004*%
%ADD20R,0.0472X0.0004*%
%ADD21R,0.0480X0.0004*%
%ADD22R,0.0488X0.0004*%
%ADD23R,0.0496X0.0004*%
%ADD24R,0.0504X0.0004*%
%ADD25R,0.0512X0.0004*%
%ADD26R,0.0520X0.0004*%
%ADD27R,0.0528X0.0004*%
%ADD28R,0.0536X0.0004*%
%ADD29R,0.0536X0.0004*%
%ADD30R,0.0544X0.0004*%
%ADD31R,0.0552X0.0004*%
%ADD32R,0.0560X0.0004*%
%ADD33R,0.0560X0.0004*%
%ADD34R,0.0568X0.0004*%
%ADD35R,0.0576X0.0004*%
%ADD36R,0.0584X0.0004*%
%ADD37R,0.0592X0.0004*%
%ADD38R,0.0592X0.0004*%
%ADD39R,0.0600X0.0004*%
%ADD40R,0.0608X0.0004*%
%ADD41R,0.0608X0.0004*%
%ADD42R,0.0616X0.0004*%
%ADD43R,0.0624X0.0004*%
%ADD44R,0.0632X0.0004*%
%ADD45R,0.0632X0.0004*%
%ADD46R,0.0640X0.0004*%
%ADD47R,0.0648X0.0004*%
%ADD48R,0.0648X0.0004*%
%ADD49R,0.0656X0.0004*%
%ADD50R,0.0664X0.0004*%
%ADD51R,0.0664X0.0004*%
%ADD52R,0.0672X0.0004*%
%ADD53R,0.0680X0.0004*%
%ADD54R,0.0680X0.0004*%
%ADD55R,0.0688X0.0004*%
%ADD56R,0.0696X0.0004*%
%ADD57R,0.0700X0.0004*%
%ADD58R,0.0708X0.0004*%
%ADD59R,0.0716X0.0004*%
%ADD60R,0.0720X0.0004*%
%ADD61R,0.0720X0.0004*%
%ADD62R,0.0724X0.0004*%
%ADD63R,0.0808X0.0004*%
%ADD64R,0.0824X0.0004*%
%ADD65R,0.0832X0.0004*%
%ADD66R,0.0840X0.0004*%
%ADD67R,0.0848X0.0004*%
%ADD68R,0.0856X0.0004*%
%ADD69R,0.0860X0.0004*%
%ADD70R,0.0864X0.0004*%
%ADD71R,0.0864X0.0004*%
%ADD72R,0.0868X0.0004*%
%ADD73R,0.0872X0.0004*%
%ADD74R,0.0872X0.0004*%
%ADD75R,0.0860X0.0004*%
%ADD76R,0.0832X0.0004*%
%ADD77R,0.0824X0.0004*%
%ADD78R,0.0708X0.0004*%
%ADD79R,0.0712X0.0004*%
%ADD80R,0.0712X0.0004*%
%ADD81R,0.0700X0.0004*%
%ADD82R,0.0696X0.0004*%
%ADD83R,0.0692X0.0004*%
%ADD84R,0.0668X0.0004*%
%ADD85R,0.0660X0.0004*%
%ADD86R,0.0452X0.0004*%
%ADD87R,0.0188X0.0004*%
%ADD88R,0.0448X0.0004*%
%ADD89R,0.0440X0.0004*%
%ADD90R,0.0184X0.0004*%
%ADD91R,0.0432X0.0004*%
%ADD92R,0.0184X0.0004*%
%ADD93R,0.0424X0.0004*%
%ADD94R,0.0412X0.0004*%
%ADD95R,0.0128X0.0004*%
%ADD96R,0.0044X0.0004*%
%ADD97R,0.0400X0.0004*%
%ADD98R,0.0008X0.0004*%
%ADD99R,0.0388X0.0004*%
%ADD100R,0.0132X0.0004*%
%ADD101R,0.0360X0.0004*%
%ADD102R,0.0136X0.0004*%
%ADD103R,0.0340X0.0004*%
%ADD104R,0.0140X0.0004*%
%ADD105R,0.0328X0.0004*%
%ADD106R,0.0144X0.0004*%
%ADD107R,0.0324X0.0004*%
%ADD108R,0.0148X0.0004*%
%ADD109R,0.0320X0.0004*%
%ADD110R,0.0156X0.0004*%
%ADD111R,0.0316X0.0004*%
%ADD112R,0.0176X0.0004*%
%ADD113R,0.0080X0.0004*%
%ADD114R,0.0052X0.0004*%
%ADD115R,0.0380X0.0004*%
%ADD116R,0.0372X0.0004*%
%ADD117R,0.0356X0.0004*%
%ADD118R,0.0004X0.0004*%
%ADD119R,0.0308X0.0004*%
%ADD120R,0.0060X0.0004*%
%ADD121R,0.0240X0.0004*%
%ADD122R,0.0232X0.0004*%
%ADD123R,0.0044X0.0004*%
%ADD124R,0.0164X0.0004*%
%ADD125R,0.0056X0.0004*%
%ADD126R,0.0036X0.0004*%
%ADD127R,0.0156X0.0004*%
%ADD128R,0.0048X0.0004*%
%ADD129R,0.0024X0.0004*%
%ADD130R,0.0036X0.0004*%
%ADD131R,0.0016X0.0004*%
%ADD132R,0.0028X0.0004*%
%ADD133R,0.0012X0.0004*%
%ADD134R,0.0124X0.0004*%
%ADD135R,0.0108X0.0004*%
%ADD136R,0.0008X0.0004*%
%ADD137R,0.0092X0.0004*%
%ADD138R,0.0068X0.0004*%
%ADD139R,0.0008X0.0004*%
%ADD140R,0.0016X0.0004*%
%ADD141R,0.0024X0.0004*%
%ADD142R,0.0032X0.0004*%
%ADD143R,0.0032X0.0004*%
%ADD144R,0.0040X0.0004*%
%ADD145R,0.0056X0.0004*%
%ADD146R,0.0064X0.0004*%
%ADD147R,0.0072X0.0004*%
%ADD148R,0.0088X0.0004*%
%ADD149R,0.0096X0.0004*%
%ADD150R,0.0104X0.0004*%
%ADD151R,0.0112X0.0004*%
%ADD152R,0.0120X0.0004*%
%ADD153R,0.0124X0.0004*%
%ADD154R,0.0128X0.0004*%
%ADD155R,0.0144X0.0004*%
%ADD156R,0.0152X0.0004*%
%ADD157R,0.0152X0.0004*%
%ADD158R,0.0160X0.0004*%
%ADD159R,0.0168X0.0004*%
%ADD160R,0.0176X0.0004*%
%ADD161R,0.0184X0.0004*%
%ADD162R,0.0192X0.0004*%
%ADD163R,0.0200X0.0004*%
%ADD164R,0.0208X0.0004*%
%ADD165R,0.0216X0.0004*%
%ADD166R,0.0216X0.0004*%
%ADD167R,0.0224X0.0004*%
%ADD168R,0.0232X0.0004*%
%ADD169R,0.0240X0.0004*%
%ADD170R,0.0248X0.0004*%
%ADD171R,0.0256X0.0004*%
%ADD172R,0.0264X0.0004*%
%ADD173R,0.0272X0.0004*%
%ADD174R,0.0280X0.0004*%
%ADD175R,0.0288X0.0004*%
%ADD176R,0.0296X0.0004*%
%ADD177R,0.0304X0.0004*%
%ADD178R,0.0320X0.0004*%
%ADD179R,0.0328X0.0004*%
%ADD180R,0.0336X0.0004*%
%ADD181R,0.0336X0.0004*%
%ADD182R,0.0200X0.0004*%
%ADD183R,0.0128X0.0004*%
%ADD184R,0.0204X0.0004*%
%ADD185R,0.0216X0.0004*%
%ADD186R,0.0228X0.0004*%
%ADD187R,0.0416X0.0004*%
%ADD188R,0.0424X0.0004*%
%ADD189R,0.0428X0.0004*%
%ADD190R,0.0304X0.0004*%
%ADD191R,0.0180X0.0004*%
%ADD192R,0.0112X0.0004*%
%ADD193R,0.0176X0.0004*%
%ADD194R,0.0112X0.0004*%
%ADD195R,0.0132X0.0004*%
%ADD196R,0.0116X0.0004*%
%ADD197R,0.0332X0.0004*%
%ADD198R,0.0336X0.0004*%
%ADD199R,0.0480X0.0004*%
%ADD200R,0.0496X0.0004*%
%ADD201R,0.0512X0.0004*%
%ADD202R,0.0544X0.0004*%
%ADD203R,0.0208X0.0004*%
%ADD204R,0.0356X0.0004*%
%ADD205R,0.0208X0.0004*%
%ADD206R,0.0364X0.0004*%
%ADD207R,0.0212X0.0004*%
%ADD208R,0.0368X0.0004*%
%ADD209R,0.0220X0.0004*%
%ADD210R,0.0600X0.0004*%
%ADD211R,0.0356X0.0004*%
%ADD212R,0.0228X0.0004*%
%ADD213R,0.0236X0.0004*%
%ADD214R,0.0360X0.0004*%
%ADD215R,0.0368X0.0004*%
%ADD216R,0.0244X0.0004*%
%ADD217R,0.0252X0.0004*%
%ADD218R,0.0376X0.0004*%
%ADD219R,0.0672X0.0004*%
%ADD220R,0.0624X0.0004*%
%ADD221R,0.0596X0.0004*%
%ADD222R,0.0552X0.0004*%
%ADD223R,0.0456X0.0004*%
%ADD224R,0.0384X0.0004*%
%ADD225R,0.0352X0.0004*%
%ADD226R,0.0188X0.0004*%
%ADD227R,0.0108X0.0004*%
%ADD228R,0.0473X0.0827*%
%ADD229R,0.0552X0.0631*%
%ADD230C,0.0640*%
%ADD231OC8,0.0890*%
D10*
X000208Y000180D02*
X016349Y000180D01*
X016349Y019865D01*
X000208Y019865D01*
X000208Y000180D01*
D11*
X015088Y018382D03*
X015092Y018894D03*
X015088Y019194D03*
X015088Y019198D03*
D12*
X015088Y018386D03*
D13*
X015088Y018390D03*
D14*
X015088Y018394D03*
X015064Y018878D03*
D15*
X015088Y019258D03*
X015088Y019262D03*
X015088Y019518D03*
X015088Y018398D03*
D16*
X015088Y018402D03*
D17*
X015088Y018406D03*
X015088Y019278D03*
X015088Y019514D03*
D18*
X015088Y018410D03*
D19*
X015088Y018414D03*
D20*
X015088Y018418D03*
D21*
X015088Y018422D03*
X015088Y019506D03*
D22*
X015088Y019314D03*
X015088Y018426D03*
D23*
X015088Y018430D03*
D24*
X015088Y018434D03*
X015088Y019326D03*
D25*
X015088Y019498D03*
X015088Y018438D03*
D26*
X015088Y018442D03*
X015088Y019334D03*
X015088Y019338D03*
D27*
X015088Y019342D03*
X015088Y018446D03*
D28*
X015088Y018450D03*
D29*
X015088Y018454D03*
X015088Y019346D03*
X015088Y019494D03*
D30*
X015088Y019354D03*
X015088Y018458D03*
D31*
X015088Y018462D03*
X015088Y019358D03*
D32*
X015088Y019362D03*
X015088Y018466D03*
D33*
X015088Y018470D03*
D34*
X015088Y018474D03*
X015088Y019366D03*
X015088Y019486D03*
D35*
X015088Y018482D03*
X015088Y018478D03*
D36*
X015088Y018486D03*
X015088Y019482D03*
D37*
X015088Y018490D03*
D38*
X015088Y018494D03*
D39*
X015088Y018498D03*
X015088Y018502D03*
D40*
X015088Y018506D03*
X015088Y019474D03*
D41*
X015088Y018510D03*
D42*
X015088Y018514D03*
X015088Y018518D03*
D43*
X015088Y018522D03*
X015088Y018526D03*
D44*
X015088Y018530D03*
D45*
X015088Y018534D03*
X015088Y019466D03*
D46*
X015088Y018542D03*
X015088Y018538D03*
D47*
X015088Y018546D03*
X015088Y018554D03*
X015088Y019462D03*
D48*
X015088Y018550D03*
D49*
X015088Y018558D03*
X015088Y018562D03*
X015088Y019426D03*
X015088Y019458D03*
D50*
X015088Y019454D03*
X015088Y019434D03*
X015088Y018566D03*
D51*
X015088Y018570D03*
X015088Y019430D03*
D52*
X015088Y019438D03*
X015092Y018806D03*
X015088Y018582D03*
X015088Y018578D03*
X015088Y018574D03*
D53*
X015088Y018586D03*
X015088Y018802D03*
X015088Y019442D03*
X015088Y019446D03*
D54*
X015088Y018590D03*
D55*
X015088Y018594D03*
X015088Y018598D03*
X015088Y018798D03*
D56*
X015088Y018606D03*
X015088Y018602D03*
D57*
X015090Y018610D03*
D58*
X015090Y018614D03*
X015090Y018618D03*
D59*
X015090Y018622D03*
X015090Y018626D03*
D60*
X015088Y018630D03*
D61*
X015088Y018634D03*
D62*
X015086Y018638D03*
D63*
X015088Y018642D03*
X015088Y018734D03*
D64*
X015088Y018646D03*
D65*
X015088Y018650D03*
D66*
X015088Y018654D03*
X015088Y018722D03*
D67*
X015088Y018718D03*
X015088Y018658D03*
D68*
X015088Y018662D03*
X015088Y018714D03*
D69*
X015086Y018666D03*
D70*
X015088Y018670D03*
D71*
X015088Y018674D03*
X015088Y018702D03*
X015088Y018706D03*
D72*
X015086Y018698D03*
X015086Y018682D03*
X015086Y018678D03*
D73*
X015088Y018686D03*
X015088Y018694D03*
D74*
X015088Y018690D03*
D75*
X015086Y018710D03*
D76*
X015088Y018726D03*
D77*
X015088Y018730D03*
D78*
X015078Y018766D03*
X015082Y018778D03*
D79*
X015080Y018770D03*
D80*
X015080Y018774D03*
D81*
X015082Y018782D03*
X015082Y018786D03*
D82*
X015084Y018790D03*
D83*
X015086Y018794D03*
D84*
X015094Y018810D03*
D85*
X015094Y018814D03*
X015094Y018818D03*
D86*
X015194Y018822D03*
D87*
X014862Y018838D03*
X014858Y018826D03*
X014858Y018822D03*
D88*
X015196Y018826D03*
D89*
X015196Y018830D03*
D90*
X014860Y018830D03*
D91*
X015196Y018834D03*
D92*
X014860Y018834D03*
D93*
X015200Y018838D03*
D94*
X015202Y018842D03*
D95*
X014900Y018846D03*
X014896Y018842D03*
X014980Y019218D03*
X014976Y019222D03*
D96*
X014790Y018842D03*
D97*
X015204Y018846D03*
X015088Y019254D03*
D98*
X015088Y018994D03*
X014772Y018846D03*
D99*
X015206Y018850D03*
D100*
X014906Y018850D03*
X015250Y019290D03*
D101*
X015200Y019378D03*
X015216Y018854D03*
D102*
X015088Y018922D03*
X015088Y019078D03*
X014968Y019238D03*
X014908Y018854D03*
D103*
X015222Y018858D03*
D104*
X014914Y018858D03*
X014966Y019242D03*
D105*
X015156Y019298D03*
X015220Y018862D03*
D106*
X014920Y018862D03*
D107*
X015218Y018866D03*
D108*
X015090Y018918D03*
X014926Y018866D03*
D109*
X015212Y018870D03*
X015088Y019530D03*
D110*
X014970Y019250D03*
X014934Y018870D03*
D111*
X015206Y018874D03*
D112*
X014952Y018874D03*
D113*
X015088Y019038D03*
X015088Y019042D03*
X015316Y018878D03*
D114*
X015314Y018882D03*
X015214Y018906D03*
D115*
X015066Y018882D03*
D116*
X015070Y018886D03*
D117*
X015074Y018890D03*
X015194Y019370D03*
D118*
X014922Y018894D03*
D119*
X015094Y018898D03*
D120*
X015214Y018902D03*
D121*
X015060Y018902D03*
X015088Y019146D03*
X015288Y019414D03*
X015088Y019538D03*
D122*
X015276Y019394D03*
X015280Y019398D03*
X015060Y018906D03*
D123*
X015218Y018910D03*
D124*
X015090Y018910D03*
D125*
X014976Y018910D03*
D126*
X015218Y018914D03*
D127*
X015090Y018914D03*
D128*
X015088Y019018D03*
X014972Y018914D03*
D129*
X015220Y018918D03*
D130*
X015090Y018942D03*
X014970Y018918D03*
D131*
X014964Y018926D03*
X015220Y018922D03*
D132*
X014966Y018922D03*
D133*
X015222Y018926D03*
D134*
X015090Y018926D03*
X015246Y019282D03*
X014914Y019306D03*
D135*
X015090Y018930D03*
D136*
X014960Y018930D03*
D137*
X015090Y018934D03*
D138*
X015090Y018938D03*
D139*
X015088Y018990D03*
D140*
X015088Y018998D03*
D141*
X015088Y019002D03*
D142*
X015088Y019006D03*
D143*
X015088Y019010D03*
D144*
X015088Y019014D03*
D145*
X015088Y019022D03*
X015088Y019026D03*
D146*
X015088Y019030D03*
D147*
X015088Y019034D03*
D148*
X015088Y019046D03*
D149*
X015088Y019050D03*
D150*
X015088Y019054D03*
X015088Y019058D03*
D151*
X015088Y019062D03*
D152*
X015088Y019066D03*
X014912Y019302D03*
D153*
X015090Y019070D03*
D154*
X015088Y019074D03*
X014972Y019226D03*
X014968Y019234D03*
X015248Y019286D03*
D155*
X015088Y019082D03*
X014968Y019246D03*
D156*
X015088Y019086D03*
D157*
X015088Y019090D03*
D158*
X015088Y019094D03*
D159*
X015088Y019098D03*
X015088Y019102D03*
D160*
X015088Y019106D03*
D161*
X015088Y019110D03*
D162*
X015088Y019114D03*
X015088Y019118D03*
D163*
X015088Y019122D03*
X015160Y019218D03*
X015164Y019222D03*
X015168Y019226D03*
D164*
X015172Y019238D03*
X015088Y019126D03*
D165*
X015088Y019130D03*
D166*
X015088Y019134D03*
D167*
X015088Y019138D03*
D168*
X015088Y019142D03*
X015284Y019406D03*
D169*
X015088Y019150D03*
D170*
X015088Y019154D03*
D171*
X015088Y019158D03*
D172*
X015088Y019162D03*
X015088Y019166D03*
D173*
X015088Y019170D03*
D174*
X015088Y019174D03*
X015088Y019534D03*
D175*
X015088Y019182D03*
X015088Y019178D03*
D176*
X015088Y019186D03*
D177*
X015088Y019190D03*
D178*
X015088Y019202D03*
D179*
X015088Y019206D03*
D180*
X015088Y019210D03*
D181*
X015088Y019214D03*
D182*
X015168Y019230D03*
D183*
X014972Y019230D03*
D184*
X014902Y019374D03*
X015170Y019234D03*
D185*
X015172Y019242D03*
X015172Y019246D03*
D186*
X015170Y019250D03*
D187*
X015088Y019266D03*
D188*
X015088Y019270D03*
D189*
X015086Y019274D03*
D190*
X015020Y019282D03*
D191*
X015078Y019286D03*
X015082Y019294D03*
D192*
X014920Y019286D03*
X014916Y019294D03*
D193*
X015080Y019290D03*
D194*
X014916Y019290D03*
D195*
X015250Y019294D03*
D196*
X014914Y019298D03*
D197*
X015158Y019302D03*
D198*
X015156Y019306D03*
D199*
X015088Y019310D03*
D200*
X015088Y019318D03*
X015088Y019322D03*
X015088Y019502D03*
D201*
X015088Y019330D03*
D202*
X015088Y019350D03*
D203*
X014908Y019370D03*
D204*
X014958Y019398D03*
X014958Y019402D03*
X015198Y019374D03*
D205*
X014900Y019378D03*
D206*
X015202Y019382D03*
D207*
X014898Y019382D03*
D208*
X015200Y019386D03*
D209*
X014902Y019386D03*
D210*
X015088Y019390D03*
D211*
X014962Y019394D03*
X014954Y019406D03*
D212*
X015282Y019402D03*
D213*
X015286Y019410D03*
D214*
X014952Y019410D03*
D215*
X014952Y019414D03*
X014952Y019418D03*
D216*
X015286Y019418D03*
D217*
X015286Y019422D03*
D218*
X014952Y019422D03*
D219*
X015088Y019450D03*
D220*
X015088Y019470D03*
D221*
X015086Y019478D03*
D222*
X015088Y019490D03*
D223*
X015088Y019510D03*
D224*
X015088Y019522D03*
D225*
X015088Y019526D03*
D226*
X015090Y019542D03*
D227*
X015086Y019546D03*
D228*
X013560Y018428D03*
X013560Y016853D03*
X012221Y016853D03*
X011254Y016853D03*
X011254Y018428D03*
X012221Y018428D03*
X009915Y018428D03*
X008948Y018428D03*
X008948Y016853D03*
X009915Y016853D03*
X009915Y015219D03*
X008948Y015219D03*
X008948Y013645D03*
X009915Y013645D03*
X011254Y013645D03*
X012221Y013645D03*
X012221Y015219D03*
X011254Y015219D03*
X013560Y015219D03*
X014527Y015219D03*
X014527Y013645D03*
X013560Y013645D03*
X013560Y012011D03*
X014527Y012011D03*
X014527Y010436D03*
X013560Y010436D03*
X012221Y010436D03*
X011254Y010436D03*
X011254Y012011D03*
X012221Y012011D03*
X009915Y012011D03*
X008948Y012011D03*
X008948Y010436D03*
X009915Y010436D03*
X009915Y008802D03*
X008948Y008802D03*
X008948Y007227D03*
X009915Y007227D03*
X011254Y007227D03*
X012221Y007227D03*
X012221Y008802D03*
X011254Y008802D03*
X013560Y008802D03*
X014527Y008802D03*
X014527Y007227D03*
X013560Y007227D03*
X013560Y005593D03*
X014527Y005593D03*
X014527Y004019D03*
X013560Y004019D03*
X012221Y004019D03*
X011254Y004019D03*
X011254Y005593D03*
X012221Y005593D03*
X009915Y005593D03*
X008948Y005593D03*
X008948Y004019D03*
X009915Y004019D03*
X009915Y002385D03*
X008948Y002385D03*
X008948Y000810D03*
X009915Y000810D03*
X011254Y000810D03*
X012221Y000810D03*
X012221Y002385D03*
X011254Y002385D03*
X013560Y002385D03*
X013560Y000810D03*
X015865Y004019D03*
X015865Y005593D03*
X015865Y007227D03*
X015865Y008802D03*
X015865Y010436D03*
X015865Y012011D03*
X015865Y013645D03*
X015865Y015219D03*
X007609Y015219D03*
X006641Y015219D03*
X006641Y013645D03*
X007609Y013645D03*
X007609Y012011D03*
X006641Y012011D03*
X006641Y010436D03*
X007609Y010436D03*
X007609Y008802D03*
X006641Y008802D03*
X006641Y007227D03*
X007609Y007227D03*
X007609Y005593D03*
X006641Y005593D03*
X006641Y004019D03*
X007609Y004019D03*
X007609Y002385D03*
X006641Y002385D03*
X006641Y000810D03*
X007609Y000810D03*
X005302Y000810D03*
X004334Y000810D03*
X004334Y002385D03*
X005302Y002385D03*
X005302Y004019D03*
X004334Y004019D03*
X004334Y005593D03*
X005302Y005593D03*
X005302Y007227D03*
X004334Y007227D03*
X004334Y008802D03*
X005302Y008802D03*
X005302Y010436D03*
X004334Y010436D03*
X004334Y012011D03*
X005302Y012011D03*
X005302Y013645D03*
X004334Y013645D03*
X004334Y015219D03*
X005302Y015219D03*
X005302Y016853D03*
X004334Y016853D03*
X004334Y018428D03*
X005302Y018428D03*
X006641Y018428D03*
X007609Y018428D03*
X007609Y016853D03*
X006641Y016853D03*
X002995Y016853D03*
X002995Y018428D03*
X002995Y015219D03*
X002030Y015219D03*
X002030Y013645D03*
X002995Y013645D03*
X002995Y012011D03*
X002030Y012011D03*
X002030Y010436D03*
X002995Y010436D03*
X002995Y008802D03*
X002030Y008802D03*
X002030Y007227D03*
X002995Y007227D03*
X002995Y005593D03*
X002030Y005593D03*
X002030Y004019D03*
X002995Y004019D03*
X002995Y002385D03*
X002995Y000810D03*
X000691Y004019D03*
X000691Y005593D03*
X000691Y007227D03*
X000691Y008802D03*
X000691Y010436D03*
X000691Y012011D03*
X000691Y013645D03*
X000691Y015219D03*
D229*
X000987Y016026D03*
X001735Y016026D03*
X003290Y016026D03*
X004038Y016026D03*
X005597Y016026D03*
X006345Y016026D03*
X007904Y016026D03*
X008652Y016026D03*
X010210Y016026D03*
X010958Y016026D03*
X012516Y016026D03*
X013264Y016026D03*
X014822Y016026D03*
X015570Y016026D03*
X015570Y012818D03*
X014822Y012818D03*
X013264Y012818D03*
X012516Y012818D03*
X010958Y012818D03*
X010210Y012818D03*
X008652Y012818D03*
X007904Y012818D03*
X006345Y012818D03*
X005597Y012818D03*
X004038Y012818D03*
X003290Y012818D03*
X001735Y012818D03*
X000987Y012818D03*
X000987Y009609D03*
X001735Y009609D03*
X003290Y009609D03*
X004038Y009609D03*
X005597Y009609D03*
X006345Y009609D03*
X007904Y009609D03*
X008652Y009609D03*
X010210Y009609D03*
X010958Y009609D03*
X012516Y009609D03*
X013264Y009609D03*
X014822Y009609D03*
X015570Y009609D03*
X015570Y006400D03*
X014822Y006400D03*
X013264Y006400D03*
X012516Y006400D03*
X010958Y006400D03*
X010210Y006400D03*
X008652Y006400D03*
X007904Y006400D03*
X006345Y006400D03*
X005597Y006400D03*
X004038Y006400D03*
X003290Y006400D03*
X001735Y006400D03*
X000987Y006400D03*
X003290Y003192D03*
X004038Y003192D03*
X005597Y003192D03*
X006345Y003192D03*
X007904Y003192D03*
X008652Y003192D03*
X010210Y003192D03*
X010958Y003192D03*
X012516Y003192D03*
X013264Y003192D03*
X013264Y019235D03*
X012516Y019235D03*
X010958Y019235D03*
X010210Y019235D03*
X008652Y019235D03*
X007904Y019235D03*
X006345Y019235D03*
X005597Y019235D03*
X004038Y019235D03*
X003290Y019235D03*
D230*
X001788Y018020D02*
X001788Y017420D01*
X000788Y017420D02*
X000788Y018020D01*
X000783Y002040D02*
X000783Y001440D01*
X001783Y001440D02*
X001783Y002040D01*
X014788Y002035D02*
X014788Y001435D01*
X015788Y001435D02*
X015788Y002035D01*
X015778Y017440D02*
X015778Y018040D01*
X014778Y018040D02*
X014778Y017440D01*
D231*
X001889Y002897D03*
M02*
