G75*
%MOIN*%
%OFA0B0*%
%FSLAX24Y24*%
%IPPOS*%
%LPD*%
%AMOC8*
5,1,8,0,0,1.08239X$1,22.5*
%
%ADD10C,0.0160*%
%ADD11C,0.0040*%
%ADD12C,0.0050*%
%ADD13C,0.0060*%
D10*
X000208Y000180D02*
X016349Y000180D01*
X016349Y019865D01*
X000208Y019865D01*
X000208Y000180D01*
D11*
X001066Y018589D02*
X001206Y018589D01*
X001252Y018636D01*
X001252Y018823D01*
X001206Y018869D01*
X001066Y018869D01*
X001066Y018589D01*
X001360Y018589D02*
X001454Y018589D01*
X001407Y018589D02*
X001407Y018869D01*
X001360Y018869D02*
X001454Y018869D01*
X001557Y018869D02*
X001697Y018869D01*
X001744Y018823D01*
X001744Y018729D01*
X001697Y018682D01*
X001557Y018682D01*
X001557Y018589D02*
X001557Y018869D01*
X001557Y019069D02*
X001557Y019256D01*
X001650Y019349D01*
X001744Y019256D01*
X001744Y019069D01*
X001851Y019116D02*
X001851Y019303D01*
X001898Y019349D01*
X001991Y019349D01*
X002038Y019303D01*
X002146Y019349D02*
X002146Y019069D01*
X002038Y019116D02*
X001991Y019069D01*
X001898Y019069D01*
X001851Y019116D01*
X001744Y019209D02*
X001557Y019209D01*
X001449Y019069D02*
X001449Y019349D01*
X001262Y019349D02*
X001262Y019069D01*
X001159Y019069D02*
X001066Y019069D01*
X001112Y019069D02*
X001112Y019349D01*
X001066Y019349D02*
X001159Y019349D01*
X001262Y019349D02*
X001449Y019069D01*
X000958Y019209D02*
X000911Y019162D01*
X000771Y019162D01*
X000771Y019069D02*
X000771Y019349D01*
X000911Y019349D01*
X000958Y019303D01*
X000958Y019209D01*
X000663Y019162D02*
X000663Y019116D01*
X000616Y019069D01*
X000523Y019069D01*
X000476Y019116D01*
X000523Y019209D02*
X000476Y019256D01*
X000476Y019303D01*
X000523Y019349D01*
X000616Y019349D01*
X000663Y019303D01*
X000616Y019209D02*
X000663Y019162D01*
X000616Y019209D02*
X000523Y019209D01*
X002146Y019209D02*
X002333Y019209D01*
X002333Y019349D02*
X002333Y019069D01*
D12*
X002680Y018625D02*
X004649Y018625D01*
X004649Y016656D01*
X003074Y016656D01*
X002680Y017050D01*
X002680Y018625D01*
X002837Y017641D02*
X002839Y017698D01*
X002845Y017755D01*
X002855Y017811D01*
X002868Y017867D01*
X002886Y017921D01*
X002907Y017974D01*
X002932Y018025D01*
X002960Y018075D01*
X002992Y018122D01*
X003026Y018168D01*
X003064Y018210D01*
X003105Y018250D01*
X003148Y018288D01*
X003194Y018322D01*
X003242Y018352D01*
X003292Y018380D01*
X003344Y018404D01*
X003398Y018424D01*
X003452Y018440D01*
X003508Y018453D01*
X003564Y018462D01*
X003621Y018467D01*
X003678Y018468D01*
X003735Y018465D01*
X003792Y018458D01*
X003848Y018447D01*
X003903Y018433D01*
X003957Y018414D01*
X004010Y018392D01*
X004061Y018367D01*
X004110Y018337D01*
X004157Y018305D01*
X004202Y018269D01*
X004244Y018231D01*
X004283Y018189D01*
X004319Y018145D01*
X004353Y018099D01*
X004383Y018050D01*
X004409Y018000D01*
X004432Y017948D01*
X004451Y017894D01*
X004467Y017839D01*
X004479Y017783D01*
X004487Y017726D01*
X004491Y017670D01*
X004491Y017612D01*
X004487Y017556D01*
X004479Y017499D01*
X004467Y017443D01*
X004451Y017388D01*
X004432Y017334D01*
X004409Y017282D01*
X004383Y017232D01*
X004353Y017183D01*
X004319Y017137D01*
X004283Y017093D01*
X004244Y017051D01*
X004202Y017013D01*
X004157Y016977D01*
X004110Y016945D01*
X004061Y016915D01*
X004010Y016890D01*
X003957Y016868D01*
X003903Y016849D01*
X003848Y016835D01*
X003792Y016824D01*
X003735Y016817D01*
X003678Y016814D01*
X003621Y016815D01*
X003564Y016820D01*
X003508Y016829D01*
X003452Y016842D01*
X003398Y016858D01*
X003344Y016878D01*
X003292Y016902D01*
X003242Y016930D01*
X003194Y016960D01*
X003148Y016994D01*
X003105Y017032D01*
X003064Y017072D01*
X003026Y017114D01*
X002992Y017160D01*
X002960Y017207D01*
X002932Y017257D01*
X002907Y017308D01*
X002886Y017361D01*
X002868Y017415D01*
X002855Y017471D01*
X002845Y017527D01*
X002839Y017584D01*
X002837Y017641D01*
X002680Y017050D02*
X002680Y016656D01*
X003074Y016656D01*
X002550Y016486D02*
X002552Y016500D01*
X002558Y016514D01*
X002566Y016526D01*
X002578Y016534D01*
X002592Y016540D01*
X002606Y016542D01*
X002620Y016540D01*
X002634Y016534D01*
X002646Y016526D01*
X002654Y016514D01*
X002660Y016500D01*
X002662Y016486D01*
X002660Y016472D01*
X002654Y016458D01*
X002646Y016446D01*
X002634Y016438D01*
X002620Y016432D01*
X002606Y016430D01*
X002592Y016432D01*
X002578Y016438D01*
X002566Y016446D01*
X002558Y016458D01*
X002552Y016472D01*
X002550Y016486D01*
X002680Y015416D02*
X004649Y015416D01*
X004649Y013448D01*
X003074Y013448D01*
X002680Y013841D01*
X002680Y015416D01*
X002345Y015416D02*
X000376Y015416D01*
X000376Y013841D01*
X000770Y013448D01*
X000376Y013448D01*
X000376Y013841D01*
X000770Y013448D02*
X002345Y013448D01*
X002345Y015416D01*
X000534Y014432D02*
X000536Y014489D01*
X000542Y014546D01*
X000552Y014602D01*
X000565Y014658D01*
X000583Y014712D01*
X000604Y014765D01*
X000629Y014816D01*
X000657Y014866D01*
X000689Y014913D01*
X000723Y014959D01*
X000761Y015001D01*
X000802Y015041D01*
X000845Y015079D01*
X000891Y015113D01*
X000939Y015143D01*
X000989Y015171D01*
X001041Y015195D01*
X001095Y015215D01*
X001149Y015231D01*
X001205Y015244D01*
X001261Y015253D01*
X001318Y015258D01*
X001375Y015259D01*
X001432Y015256D01*
X001489Y015249D01*
X001545Y015238D01*
X001600Y015224D01*
X001654Y015205D01*
X001707Y015183D01*
X001758Y015158D01*
X001807Y015128D01*
X001854Y015096D01*
X001899Y015060D01*
X001941Y015022D01*
X001980Y014980D01*
X002016Y014936D01*
X002050Y014890D01*
X002080Y014841D01*
X002106Y014791D01*
X002129Y014739D01*
X002148Y014685D01*
X002164Y014630D01*
X002176Y014574D01*
X002184Y014517D01*
X002188Y014461D01*
X002188Y014403D01*
X002184Y014347D01*
X002176Y014290D01*
X002164Y014234D01*
X002148Y014179D01*
X002129Y014125D01*
X002106Y014073D01*
X002080Y014023D01*
X002050Y013974D01*
X002016Y013928D01*
X001980Y013884D01*
X001941Y013842D01*
X001899Y013804D01*
X001854Y013768D01*
X001807Y013736D01*
X001758Y013706D01*
X001707Y013681D01*
X001654Y013659D01*
X001600Y013640D01*
X001545Y013626D01*
X001489Y013615D01*
X001432Y013608D01*
X001375Y013605D01*
X001318Y013606D01*
X001261Y013611D01*
X001205Y013620D01*
X001149Y013633D01*
X001095Y013649D01*
X001041Y013669D01*
X000989Y013693D01*
X000939Y013721D01*
X000891Y013751D01*
X000845Y013785D01*
X000802Y013823D01*
X000761Y013863D01*
X000723Y013905D01*
X000689Y013951D01*
X000657Y013998D01*
X000629Y014048D01*
X000604Y014099D01*
X000583Y014152D01*
X000565Y014206D01*
X000552Y014262D01*
X000542Y014318D01*
X000536Y014375D01*
X000534Y014432D01*
X000246Y013277D02*
X000248Y013291D01*
X000254Y013305D01*
X000262Y013317D01*
X000274Y013325D01*
X000288Y013331D01*
X000302Y013333D01*
X000316Y013331D01*
X000330Y013325D01*
X000342Y013317D01*
X000350Y013305D01*
X000356Y013291D01*
X000358Y013277D01*
X000356Y013263D01*
X000350Y013249D01*
X000342Y013237D01*
X000330Y013229D01*
X000316Y013223D01*
X000302Y013221D01*
X000288Y013223D01*
X000274Y013229D01*
X000262Y013237D01*
X000254Y013249D01*
X000248Y013263D01*
X000246Y013277D01*
X000376Y012208D02*
X002345Y012208D01*
X002345Y010239D01*
X000770Y010239D01*
X000376Y010633D01*
X000376Y012208D01*
X000534Y011223D02*
X000536Y011280D01*
X000542Y011337D01*
X000552Y011393D01*
X000565Y011449D01*
X000583Y011503D01*
X000604Y011556D01*
X000629Y011607D01*
X000657Y011657D01*
X000689Y011704D01*
X000723Y011750D01*
X000761Y011792D01*
X000802Y011832D01*
X000845Y011870D01*
X000891Y011904D01*
X000939Y011934D01*
X000989Y011962D01*
X001041Y011986D01*
X001095Y012006D01*
X001149Y012022D01*
X001205Y012035D01*
X001261Y012044D01*
X001318Y012049D01*
X001375Y012050D01*
X001432Y012047D01*
X001489Y012040D01*
X001545Y012029D01*
X001600Y012015D01*
X001654Y011996D01*
X001707Y011974D01*
X001758Y011949D01*
X001807Y011919D01*
X001854Y011887D01*
X001899Y011851D01*
X001941Y011813D01*
X001980Y011771D01*
X002016Y011727D01*
X002050Y011681D01*
X002080Y011632D01*
X002106Y011582D01*
X002129Y011530D01*
X002148Y011476D01*
X002164Y011421D01*
X002176Y011365D01*
X002184Y011308D01*
X002188Y011252D01*
X002188Y011194D01*
X002184Y011138D01*
X002176Y011081D01*
X002164Y011025D01*
X002148Y010970D01*
X002129Y010916D01*
X002106Y010864D01*
X002080Y010814D01*
X002050Y010765D01*
X002016Y010719D01*
X001980Y010675D01*
X001941Y010633D01*
X001899Y010595D01*
X001854Y010559D01*
X001807Y010527D01*
X001758Y010497D01*
X001707Y010472D01*
X001654Y010450D01*
X001600Y010431D01*
X001545Y010417D01*
X001489Y010406D01*
X001432Y010399D01*
X001375Y010396D01*
X001318Y010397D01*
X001261Y010402D01*
X001205Y010411D01*
X001149Y010424D01*
X001095Y010440D01*
X001041Y010460D01*
X000989Y010484D01*
X000939Y010512D01*
X000891Y010542D01*
X000845Y010576D01*
X000802Y010614D01*
X000761Y010654D01*
X000723Y010696D01*
X000689Y010742D01*
X000657Y010789D01*
X000629Y010839D01*
X000604Y010890D01*
X000583Y010943D01*
X000565Y010997D01*
X000552Y011053D01*
X000542Y011109D01*
X000536Y011166D01*
X000534Y011223D01*
X000376Y010633D02*
X000376Y010239D01*
X000770Y010239D01*
X000246Y010068D02*
X000248Y010082D01*
X000254Y010096D01*
X000262Y010108D01*
X000274Y010116D01*
X000288Y010122D01*
X000302Y010124D01*
X000316Y010122D01*
X000330Y010116D01*
X000342Y010108D01*
X000350Y010096D01*
X000356Y010082D01*
X000358Y010068D01*
X000356Y010054D01*
X000350Y010040D01*
X000342Y010028D01*
X000330Y010020D01*
X000316Y010014D01*
X000302Y010012D01*
X000288Y010014D01*
X000274Y010020D01*
X000262Y010028D01*
X000254Y010040D01*
X000248Y010054D01*
X000246Y010068D01*
X000376Y008999D02*
X002345Y008999D01*
X002345Y007030D01*
X000770Y007030D01*
X000376Y007424D01*
X000376Y008999D01*
X000534Y008015D02*
X000536Y008072D01*
X000542Y008129D01*
X000552Y008185D01*
X000565Y008241D01*
X000583Y008295D01*
X000604Y008348D01*
X000629Y008399D01*
X000657Y008449D01*
X000689Y008496D01*
X000723Y008542D01*
X000761Y008584D01*
X000802Y008624D01*
X000845Y008662D01*
X000891Y008696D01*
X000939Y008726D01*
X000989Y008754D01*
X001041Y008778D01*
X001095Y008798D01*
X001149Y008814D01*
X001205Y008827D01*
X001261Y008836D01*
X001318Y008841D01*
X001375Y008842D01*
X001432Y008839D01*
X001489Y008832D01*
X001545Y008821D01*
X001600Y008807D01*
X001654Y008788D01*
X001707Y008766D01*
X001758Y008741D01*
X001807Y008711D01*
X001854Y008679D01*
X001899Y008643D01*
X001941Y008605D01*
X001980Y008563D01*
X002016Y008519D01*
X002050Y008473D01*
X002080Y008424D01*
X002106Y008374D01*
X002129Y008322D01*
X002148Y008268D01*
X002164Y008213D01*
X002176Y008157D01*
X002184Y008100D01*
X002188Y008044D01*
X002188Y007986D01*
X002184Y007930D01*
X002176Y007873D01*
X002164Y007817D01*
X002148Y007762D01*
X002129Y007708D01*
X002106Y007656D01*
X002080Y007606D01*
X002050Y007557D01*
X002016Y007511D01*
X001980Y007467D01*
X001941Y007425D01*
X001899Y007387D01*
X001854Y007351D01*
X001807Y007319D01*
X001758Y007289D01*
X001707Y007264D01*
X001654Y007242D01*
X001600Y007223D01*
X001545Y007209D01*
X001489Y007198D01*
X001432Y007191D01*
X001375Y007188D01*
X001318Y007189D01*
X001261Y007194D01*
X001205Y007203D01*
X001149Y007216D01*
X001095Y007232D01*
X001041Y007252D01*
X000989Y007276D01*
X000939Y007304D01*
X000891Y007334D01*
X000845Y007368D01*
X000802Y007406D01*
X000761Y007446D01*
X000723Y007488D01*
X000689Y007534D01*
X000657Y007581D01*
X000629Y007631D01*
X000604Y007682D01*
X000583Y007735D01*
X000565Y007789D01*
X000552Y007845D01*
X000542Y007901D01*
X000536Y007958D01*
X000534Y008015D01*
X000376Y007424D02*
X000376Y007030D01*
X000770Y007030D01*
X000246Y006860D02*
X000248Y006874D01*
X000254Y006888D01*
X000262Y006900D01*
X000274Y006908D01*
X000288Y006914D01*
X000302Y006916D01*
X000316Y006914D01*
X000330Y006908D01*
X000342Y006900D01*
X000350Y006888D01*
X000356Y006874D01*
X000358Y006860D01*
X000356Y006846D01*
X000350Y006832D01*
X000342Y006820D01*
X000330Y006812D01*
X000316Y006806D01*
X000302Y006804D01*
X000288Y006806D01*
X000274Y006812D01*
X000262Y006820D01*
X000254Y006832D01*
X000248Y006846D01*
X000246Y006860D01*
X000376Y005790D02*
X002345Y005790D01*
X002345Y003822D01*
X000770Y003822D01*
X000376Y004215D01*
X000376Y005790D01*
X000534Y004806D02*
X000536Y004863D01*
X000542Y004920D01*
X000552Y004976D01*
X000565Y005032D01*
X000583Y005086D01*
X000604Y005139D01*
X000629Y005190D01*
X000657Y005240D01*
X000689Y005287D01*
X000723Y005333D01*
X000761Y005375D01*
X000802Y005415D01*
X000845Y005453D01*
X000891Y005487D01*
X000939Y005517D01*
X000989Y005545D01*
X001041Y005569D01*
X001095Y005589D01*
X001149Y005605D01*
X001205Y005618D01*
X001261Y005627D01*
X001318Y005632D01*
X001375Y005633D01*
X001432Y005630D01*
X001489Y005623D01*
X001545Y005612D01*
X001600Y005598D01*
X001654Y005579D01*
X001707Y005557D01*
X001758Y005532D01*
X001807Y005502D01*
X001854Y005470D01*
X001899Y005434D01*
X001941Y005396D01*
X001980Y005354D01*
X002016Y005310D01*
X002050Y005264D01*
X002080Y005215D01*
X002106Y005165D01*
X002129Y005113D01*
X002148Y005059D01*
X002164Y005004D01*
X002176Y004948D01*
X002184Y004891D01*
X002188Y004835D01*
X002188Y004777D01*
X002184Y004721D01*
X002176Y004664D01*
X002164Y004608D01*
X002148Y004553D01*
X002129Y004499D01*
X002106Y004447D01*
X002080Y004397D01*
X002050Y004348D01*
X002016Y004302D01*
X001980Y004258D01*
X001941Y004216D01*
X001899Y004178D01*
X001854Y004142D01*
X001807Y004110D01*
X001758Y004080D01*
X001707Y004055D01*
X001654Y004033D01*
X001600Y004014D01*
X001545Y004000D01*
X001489Y003989D01*
X001432Y003982D01*
X001375Y003979D01*
X001318Y003980D01*
X001261Y003985D01*
X001205Y003994D01*
X001149Y004007D01*
X001095Y004023D01*
X001041Y004043D01*
X000989Y004067D01*
X000939Y004095D01*
X000891Y004125D01*
X000845Y004159D01*
X000802Y004197D01*
X000761Y004237D01*
X000723Y004279D01*
X000689Y004325D01*
X000657Y004372D01*
X000629Y004422D01*
X000604Y004473D01*
X000583Y004526D01*
X000565Y004580D01*
X000552Y004636D01*
X000542Y004692D01*
X000536Y004749D01*
X000534Y004806D01*
X000376Y004215D02*
X000376Y003822D01*
X000770Y003822D01*
X000246Y003651D02*
X000248Y003665D01*
X000254Y003679D01*
X000262Y003691D01*
X000274Y003699D01*
X000288Y003705D01*
X000302Y003707D01*
X000316Y003705D01*
X000330Y003699D01*
X000342Y003691D01*
X000350Y003679D01*
X000356Y003665D01*
X000358Y003651D01*
X000356Y003637D01*
X000350Y003623D01*
X000342Y003611D01*
X000330Y003603D01*
X000316Y003597D01*
X000302Y003595D01*
X000288Y003597D01*
X000274Y003603D01*
X000262Y003611D01*
X000254Y003623D01*
X000248Y003637D01*
X000246Y003651D01*
X002550Y003651D02*
X002552Y003665D01*
X002558Y003679D01*
X002566Y003691D01*
X002578Y003699D01*
X002592Y003705D01*
X002606Y003707D01*
X002620Y003705D01*
X002634Y003699D01*
X002646Y003691D01*
X002654Y003679D01*
X002660Y003665D01*
X002662Y003651D01*
X002660Y003637D01*
X002654Y003623D01*
X002646Y003611D01*
X002634Y003603D01*
X002620Y003597D01*
X002606Y003595D01*
X002592Y003597D01*
X002578Y003603D01*
X002566Y003611D01*
X002558Y003623D01*
X002552Y003637D01*
X002550Y003651D01*
X002680Y003822D02*
X002680Y004215D01*
X003074Y003822D01*
X002680Y003822D01*
X002680Y004215D02*
X002680Y005790D01*
X004649Y005790D01*
X004649Y003822D01*
X003074Y003822D01*
X002837Y004806D02*
X002839Y004863D01*
X002845Y004920D01*
X002855Y004976D01*
X002868Y005032D01*
X002886Y005086D01*
X002907Y005139D01*
X002932Y005190D01*
X002960Y005240D01*
X002992Y005287D01*
X003026Y005333D01*
X003064Y005375D01*
X003105Y005415D01*
X003148Y005453D01*
X003194Y005487D01*
X003242Y005517D01*
X003292Y005545D01*
X003344Y005569D01*
X003398Y005589D01*
X003452Y005605D01*
X003508Y005618D01*
X003564Y005627D01*
X003621Y005632D01*
X003678Y005633D01*
X003735Y005630D01*
X003792Y005623D01*
X003848Y005612D01*
X003903Y005598D01*
X003957Y005579D01*
X004010Y005557D01*
X004061Y005532D01*
X004110Y005502D01*
X004157Y005470D01*
X004202Y005434D01*
X004244Y005396D01*
X004283Y005354D01*
X004319Y005310D01*
X004353Y005264D01*
X004383Y005215D01*
X004409Y005165D01*
X004432Y005113D01*
X004451Y005059D01*
X004467Y005004D01*
X004479Y004948D01*
X004487Y004891D01*
X004491Y004835D01*
X004491Y004777D01*
X004487Y004721D01*
X004479Y004664D01*
X004467Y004608D01*
X004451Y004553D01*
X004432Y004499D01*
X004409Y004447D01*
X004383Y004397D01*
X004353Y004348D01*
X004319Y004302D01*
X004283Y004258D01*
X004244Y004216D01*
X004202Y004178D01*
X004157Y004142D01*
X004110Y004110D01*
X004061Y004080D01*
X004010Y004055D01*
X003957Y004033D01*
X003903Y004014D01*
X003848Y004000D01*
X003792Y003989D01*
X003735Y003982D01*
X003678Y003979D01*
X003621Y003980D01*
X003564Y003985D01*
X003508Y003994D01*
X003452Y004007D01*
X003398Y004023D01*
X003344Y004043D01*
X003292Y004067D01*
X003242Y004095D01*
X003194Y004125D01*
X003148Y004159D01*
X003105Y004197D01*
X003064Y004237D01*
X003026Y004279D01*
X002992Y004325D01*
X002960Y004372D01*
X002932Y004422D01*
X002907Y004473D01*
X002886Y004526D01*
X002868Y004580D01*
X002855Y004636D01*
X002845Y004692D01*
X002839Y004749D01*
X002837Y004806D01*
X002550Y006860D02*
X002552Y006874D01*
X002558Y006888D01*
X002566Y006900D01*
X002578Y006908D01*
X002592Y006914D01*
X002606Y006916D01*
X002620Y006914D01*
X002634Y006908D01*
X002646Y006900D01*
X002654Y006888D01*
X002660Y006874D01*
X002662Y006860D01*
X002660Y006846D01*
X002654Y006832D01*
X002646Y006820D01*
X002634Y006812D01*
X002620Y006806D01*
X002606Y006804D01*
X002592Y006806D01*
X002578Y006812D01*
X002566Y006820D01*
X002558Y006832D01*
X002552Y006846D01*
X002550Y006860D01*
X002680Y007030D02*
X002680Y007424D01*
X003074Y007030D01*
X002680Y007030D01*
X003074Y007030D02*
X004649Y007030D01*
X004649Y008999D01*
X002680Y008999D01*
X002680Y007424D01*
X002837Y008015D02*
X002839Y008072D01*
X002845Y008129D01*
X002855Y008185D01*
X002868Y008241D01*
X002886Y008295D01*
X002907Y008348D01*
X002932Y008399D01*
X002960Y008449D01*
X002992Y008496D01*
X003026Y008542D01*
X003064Y008584D01*
X003105Y008624D01*
X003148Y008662D01*
X003194Y008696D01*
X003242Y008726D01*
X003292Y008754D01*
X003344Y008778D01*
X003398Y008798D01*
X003452Y008814D01*
X003508Y008827D01*
X003564Y008836D01*
X003621Y008841D01*
X003678Y008842D01*
X003735Y008839D01*
X003792Y008832D01*
X003848Y008821D01*
X003903Y008807D01*
X003957Y008788D01*
X004010Y008766D01*
X004061Y008741D01*
X004110Y008711D01*
X004157Y008679D01*
X004202Y008643D01*
X004244Y008605D01*
X004283Y008563D01*
X004319Y008519D01*
X004353Y008473D01*
X004383Y008424D01*
X004409Y008374D01*
X004432Y008322D01*
X004451Y008268D01*
X004467Y008213D01*
X004479Y008157D01*
X004487Y008100D01*
X004491Y008044D01*
X004491Y007986D01*
X004487Y007930D01*
X004479Y007873D01*
X004467Y007817D01*
X004451Y007762D01*
X004432Y007708D01*
X004409Y007656D01*
X004383Y007606D01*
X004353Y007557D01*
X004319Y007511D01*
X004283Y007467D01*
X004244Y007425D01*
X004202Y007387D01*
X004157Y007351D01*
X004110Y007319D01*
X004061Y007289D01*
X004010Y007264D01*
X003957Y007242D01*
X003903Y007223D01*
X003848Y007209D01*
X003792Y007198D01*
X003735Y007191D01*
X003678Y007188D01*
X003621Y007189D01*
X003564Y007194D01*
X003508Y007203D01*
X003452Y007216D01*
X003398Y007232D01*
X003344Y007252D01*
X003292Y007276D01*
X003242Y007304D01*
X003194Y007334D01*
X003148Y007368D01*
X003105Y007406D01*
X003064Y007446D01*
X003026Y007488D01*
X002992Y007534D01*
X002960Y007581D01*
X002932Y007631D01*
X002907Y007682D01*
X002886Y007735D01*
X002868Y007789D01*
X002855Y007845D01*
X002845Y007901D01*
X002839Y007958D01*
X002837Y008015D01*
X002550Y010068D02*
X002552Y010082D01*
X002558Y010096D01*
X002566Y010108D01*
X002578Y010116D01*
X002592Y010122D01*
X002606Y010124D01*
X002620Y010122D01*
X002634Y010116D01*
X002646Y010108D01*
X002654Y010096D01*
X002660Y010082D01*
X002662Y010068D01*
X002660Y010054D01*
X002654Y010040D01*
X002646Y010028D01*
X002634Y010020D01*
X002620Y010014D01*
X002606Y010012D01*
X002592Y010014D01*
X002578Y010020D01*
X002566Y010028D01*
X002558Y010040D01*
X002552Y010054D01*
X002550Y010068D01*
X002680Y010239D02*
X002680Y010633D01*
X003074Y010239D01*
X002680Y010239D01*
X003074Y010239D02*
X004649Y010239D01*
X004649Y012208D01*
X002680Y012208D01*
X002680Y010633D01*
X002837Y011223D02*
X002839Y011280D01*
X002845Y011337D01*
X002855Y011393D01*
X002868Y011449D01*
X002886Y011503D01*
X002907Y011556D01*
X002932Y011607D01*
X002960Y011657D01*
X002992Y011704D01*
X003026Y011750D01*
X003064Y011792D01*
X003105Y011832D01*
X003148Y011870D01*
X003194Y011904D01*
X003242Y011934D01*
X003292Y011962D01*
X003344Y011986D01*
X003398Y012006D01*
X003452Y012022D01*
X003508Y012035D01*
X003564Y012044D01*
X003621Y012049D01*
X003678Y012050D01*
X003735Y012047D01*
X003792Y012040D01*
X003848Y012029D01*
X003903Y012015D01*
X003957Y011996D01*
X004010Y011974D01*
X004061Y011949D01*
X004110Y011919D01*
X004157Y011887D01*
X004202Y011851D01*
X004244Y011813D01*
X004283Y011771D01*
X004319Y011727D01*
X004353Y011681D01*
X004383Y011632D01*
X004409Y011582D01*
X004432Y011530D01*
X004451Y011476D01*
X004467Y011421D01*
X004479Y011365D01*
X004487Y011308D01*
X004491Y011252D01*
X004491Y011194D01*
X004487Y011138D01*
X004479Y011081D01*
X004467Y011025D01*
X004451Y010970D01*
X004432Y010916D01*
X004409Y010864D01*
X004383Y010814D01*
X004353Y010765D01*
X004319Y010719D01*
X004283Y010675D01*
X004244Y010633D01*
X004202Y010595D01*
X004157Y010559D01*
X004110Y010527D01*
X004061Y010497D01*
X004010Y010472D01*
X003957Y010450D01*
X003903Y010431D01*
X003848Y010417D01*
X003792Y010406D01*
X003735Y010399D01*
X003678Y010396D01*
X003621Y010397D01*
X003564Y010402D01*
X003508Y010411D01*
X003452Y010424D01*
X003398Y010440D01*
X003344Y010460D01*
X003292Y010484D01*
X003242Y010512D01*
X003194Y010542D01*
X003148Y010576D01*
X003105Y010614D01*
X003064Y010654D01*
X003026Y010696D01*
X002992Y010742D01*
X002960Y010789D01*
X002932Y010839D01*
X002907Y010890D01*
X002886Y010943D01*
X002868Y010997D01*
X002855Y011053D01*
X002845Y011109D01*
X002839Y011166D01*
X002837Y011223D01*
X002550Y013277D02*
X002552Y013291D01*
X002558Y013305D01*
X002566Y013317D01*
X002578Y013325D01*
X002592Y013331D01*
X002606Y013333D01*
X002620Y013331D01*
X002634Y013325D01*
X002646Y013317D01*
X002654Y013305D01*
X002660Y013291D01*
X002662Y013277D01*
X002660Y013263D01*
X002654Y013249D01*
X002646Y013237D01*
X002634Y013229D01*
X002620Y013223D01*
X002606Y013221D01*
X002592Y013223D01*
X002578Y013229D01*
X002566Y013237D01*
X002558Y013249D01*
X002552Y013263D01*
X002550Y013277D01*
X002680Y013448D02*
X002680Y013841D01*
X002680Y013448D02*
X003074Y013448D01*
X002837Y014432D02*
X002839Y014489D01*
X002845Y014546D01*
X002855Y014602D01*
X002868Y014658D01*
X002886Y014712D01*
X002907Y014765D01*
X002932Y014816D01*
X002960Y014866D01*
X002992Y014913D01*
X003026Y014959D01*
X003064Y015001D01*
X003105Y015041D01*
X003148Y015079D01*
X003194Y015113D01*
X003242Y015143D01*
X003292Y015171D01*
X003344Y015195D01*
X003398Y015215D01*
X003452Y015231D01*
X003508Y015244D01*
X003564Y015253D01*
X003621Y015258D01*
X003678Y015259D01*
X003735Y015256D01*
X003792Y015249D01*
X003848Y015238D01*
X003903Y015224D01*
X003957Y015205D01*
X004010Y015183D01*
X004061Y015158D01*
X004110Y015128D01*
X004157Y015096D01*
X004202Y015060D01*
X004244Y015022D01*
X004283Y014980D01*
X004319Y014936D01*
X004353Y014890D01*
X004383Y014841D01*
X004409Y014791D01*
X004432Y014739D01*
X004451Y014685D01*
X004467Y014630D01*
X004479Y014574D01*
X004487Y014517D01*
X004491Y014461D01*
X004491Y014403D01*
X004487Y014347D01*
X004479Y014290D01*
X004467Y014234D01*
X004451Y014179D01*
X004432Y014125D01*
X004409Y014073D01*
X004383Y014023D01*
X004353Y013974D01*
X004319Y013928D01*
X004283Y013884D01*
X004244Y013842D01*
X004202Y013804D01*
X004157Y013768D01*
X004110Y013736D01*
X004061Y013706D01*
X004010Y013681D01*
X003957Y013659D01*
X003903Y013640D01*
X003848Y013626D01*
X003792Y013615D01*
X003735Y013608D01*
X003678Y013605D01*
X003621Y013606D01*
X003564Y013611D01*
X003508Y013620D01*
X003452Y013633D01*
X003398Y013649D01*
X003344Y013669D01*
X003292Y013693D01*
X003242Y013721D01*
X003194Y013751D01*
X003148Y013785D01*
X003105Y013823D01*
X003064Y013863D01*
X003026Y013905D01*
X002992Y013951D01*
X002960Y013998D01*
X002932Y014048D01*
X002907Y014099D01*
X002886Y014152D01*
X002868Y014206D01*
X002855Y014262D01*
X002845Y014318D01*
X002839Y014375D01*
X002837Y014432D01*
X004857Y013277D02*
X004859Y013291D01*
X004865Y013305D01*
X004873Y013317D01*
X004885Y013325D01*
X004899Y013331D01*
X004913Y013333D01*
X004927Y013331D01*
X004941Y013325D01*
X004953Y013317D01*
X004961Y013305D01*
X004967Y013291D01*
X004969Y013277D01*
X004967Y013263D01*
X004961Y013249D01*
X004953Y013237D01*
X004941Y013229D01*
X004927Y013223D01*
X004913Y013221D01*
X004899Y013223D01*
X004885Y013229D01*
X004873Y013237D01*
X004865Y013249D01*
X004859Y013263D01*
X004857Y013277D01*
X004987Y013448D02*
X004987Y013841D01*
X005381Y013448D01*
X004987Y013448D01*
X004987Y013841D02*
X004987Y015416D01*
X006956Y015416D01*
X006956Y013448D01*
X005381Y013448D01*
X005144Y014432D02*
X005146Y014489D01*
X005152Y014546D01*
X005162Y014602D01*
X005175Y014658D01*
X005193Y014712D01*
X005214Y014765D01*
X005239Y014816D01*
X005267Y014866D01*
X005299Y014913D01*
X005333Y014959D01*
X005371Y015001D01*
X005412Y015041D01*
X005455Y015079D01*
X005501Y015113D01*
X005549Y015143D01*
X005599Y015171D01*
X005651Y015195D01*
X005705Y015215D01*
X005759Y015231D01*
X005815Y015244D01*
X005871Y015253D01*
X005928Y015258D01*
X005985Y015259D01*
X006042Y015256D01*
X006099Y015249D01*
X006155Y015238D01*
X006210Y015224D01*
X006264Y015205D01*
X006317Y015183D01*
X006368Y015158D01*
X006417Y015128D01*
X006464Y015096D01*
X006509Y015060D01*
X006551Y015022D01*
X006590Y014980D01*
X006626Y014936D01*
X006660Y014890D01*
X006690Y014841D01*
X006716Y014791D01*
X006739Y014739D01*
X006758Y014685D01*
X006774Y014630D01*
X006786Y014574D01*
X006794Y014517D01*
X006798Y014461D01*
X006798Y014403D01*
X006794Y014347D01*
X006786Y014290D01*
X006774Y014234D01*
X006758Y014179D01*
X006739Y014125D01*
X006716Y014073D01*
X006690Y014023D01*
X006660Y013974D01*
X006626Y013928D01*
X006590Y013884D01*
X006551Y013842D01*
X006509Y013804D01*
X006464Y013768D01*
X006417Y013736D01*
X006368Y013706D01*
X006317Y013681D01*
X006264Y013659D01*
X006210Y013640D01*
X006155Y013626D01*
X006099Y013615D01*
X006042Y013608D01*
X005985Y013605D01*
X005928Y013606D01*
X005871Y013611D01*
X005815Y013620D01*
X005759Y013633D01*
X005705Y013649D01*
X005651Y013669D01*
X005599Y013693D01*
X005549Y013721D01*
X005501Y013751D01*
X005455Y013785D01*
X005412Y013823D01*
X005371Y013863D01*
X005333Y013905D01*
X005299Y013951D01*
X005267Y013998D01*
X005239Y014048D01*
X005214Y014099D01*
X005193Y014152D01*
X005175Y014206D01*
X005162Y014262D01*
X005152Y014318D01*
X005146Y014375D01*
X005144Y014432D01*
X004857Y016486D02*
X004859Y016500D01*
X004865Y016514D01*
X004873Y016526D01*
X004885Y016534D01*
X004899Y016540D01*
X004913Y016542D01*
X004927Y016540D01*
X004941Y016534D01*
X004953Y016526D01*
X004961Y016514D01*
X004967Y016500D01*
X004969Y016486D01*
X004967Y016472D01*
X004961Y016458D01*
X004953Y016446D01*
X004941Y016438D01*
X004927Y016432D01*
X004913Y016430D01*
X004899Y016432D01*
X004885Y016438D01*
X004873Y016446D01*
X004865Y016458D01*
X004859Y016472D01*
X004857Y016486D01*
X004987Y016656D02*
X004987Y017050D01*
X005381Y016656D01*
X004987Y016656D01*
X005381Y016656D02*
X006956Y016656D01*
X006956Y018625D01*
X004987Y018625D01*
X004987Y017050D01*
X005144Y017641D02*
X005146Y017698D01*
X005152Y017755D01*
X005162Y017811D01*
X005175Y017867D01*
X005193Y017921D01*
X005214Y017974D01*
X005239Y018025D01*
X005267Y018075D01*
X005299Y018122D01*
X005333Y018168D01*
X005371Y018210D01*
X005412Y018250D01*
X005455Y018288D01*
X005501Y018322D01*
X005549Y018352D01*
X005599Y018380D01*
X005651Y018404D01*
X005705Y018424D01*
X005759Y018440D01*
X005815Y018453D01*
X005871Y018462D01*
X005928Y018467D01*
X005985Y018468D01*
X006042Y018465D01*
X006099Y018458D01*
X006155Y018447D01*
X006210Y018433D01*
X006264Y018414D01*
X006317Y018392D01*
X006368Y018367D01*
X006417Y018337D01*
X006464Y018305D01*
X006509Y018269D01*
X006551Y018231D01*
X006590Y018189D01*
X006626Y018145D01*
X006660Y018099D01*
X006690Y018050D01*
X006716Y018000D01*
X006739Y017948D01*
X006758Y017894D01*
X006774Y017839D01*
X006786Y017783D01*
X006794Y017726D01*
X006798Y017670D01*
X006798Y017612D01*
X006794Y017556D01*
X006786Y017499D01*
X006774Y017443D01*
X006758Y017388D01*
X006739Y017334D01*
X006716Y017282D01*
X006690Y017232D01*
X006660Y017183D01*
X006626Y017137D01*
X006590Y017093D01*
X006551Y017051D01*
X006509Y017013D01*
X006464Y016977D01*
X006417Y016945D01*
X006368Y016915D01*
X006317Y016890D01*
X006264Y016868D01*
X006210Y016849D01*
X006155Y016835D01*
X006099Y016824D01*
X006042Y016817D01*
X005985Y016814D01*
X005928Y016815D01*
X005871Y016820D01*
X005815Y016829D01*
X005759Y016842D01*
X005705Y016858D01*
X005651Y016878D01*
X005599Y016902D01*
X005549Y016930D01*
X005501Y016960D01*
X005455Y016994D01*
X005412Y017032D01*
X005371Y017072D01*
X005333Y017114D01*
X005299Y017160D01*
X005267Y017207D01*
X005239Y017257D01*
X005214Y017308D01*
X005193Y017361D01*
X005175Y017415D01*
X005162Y017471D01*
X005152Y017527D01*
X005146Y017584D01*
X005144Y017641D01*
X007164Y016486D02*
X007166Y016500D01*
X007172Y016514D01*
X007180Y016526D01*
X007192Y016534D01*
X007206Y016540D01*
X007220Y016542D01*
X007234Y016540D01*
X007248Y016534D01*
X007260Y016526D01*
X007268Y016514D01*
X007274Y016500D01*
X007276Y016486D01*
X007274Y016472D01*
X007268Y016458D01*
X007260Y016446D01*
X007248Y016438D01*
X007234Y016432D01*
X007220Y016430D01*
X007206Y016432D01*
X007192Y016438D01*
X007180Y016446D01*
X007172Y016458D01*
X007166Y016472D01*
X007164Y016486D01*
X007294Y016656D02*
X007294Y017050D01*
X007688Y016656D01*
X007294Y016656D01*
X007688Y016656D02*
X009263Y016656D01*
X009263Y018625D01*
X007294Y018625D01*
X007294Y017050D01*
X007451Y017641D02*
X007453Y017698D01*
X007459Y017755D01*
X007469Y017811D01*
X007482Y017867D01*
X007500Y017921D01*
X007521Y017974D01*
X007546Y018025D01*
X007574Y018075D01*
X007606Y018122D01*
X007640Y018168D01*
X007678Y018210D01*
X007719Y018250D01*
X007762Y018288D01*
X007808Y018322D01*
X007856Y018352D01*
X007906Y018380D01*
X007958Y018404D01*
X008012Y018424D01*
X008066Y018440D01*
X008122Y018453D01*
X008178Y018462D01*
X008235Y018467D01*
X008292Y018468D01*
X008349Y018465D01*
X008406Y018458D01*
X008462Y018447D01*
X008517Y018433D01*
X008571Y018414D01*
X008624Y018392D01*
X008675Y018367D01*
X008724Y018337D01*
X008771Y018305D01*
X008816Y018269D01*
X008858Y018231D01*
X008897Y018189D01*
X008933Y018145D01*
X008967Y018099D01*
X008997Y018050D01*
X009023Y018000D01*
X009046Y017948D01*
X009065Y017894D01*
X009081Y017839D01*
X009093Y017783D01*
X009101Y017726D01*
X009105Y017670D01*
X009105Y017612D01*
X009101Y017556D01*
X009093Y017499D01*
X009081Y017443D01*
X009065Y017388D01*
X009046Y017334D01*
X009023Y017282D01*
X008997Y017232D01*
X008967Y017183D01*
X008933Y017137D01*
X008897Y017093D01*
X008858Y017051D01*
X008816Y017013D01*
X008771Y016977D01*
X008724Y016945D01*
X008675Y016915D01*
X008624Y016890D01*
X008571Y016868D01*
X008517Y016849D01*
X008462Y016835D01*
X008406Y016824D01*
X008349Y016817D01*
X008292Y016814D01*
X008235Y016815D01*
X008178Y016820D01*
X008122Y016829D01*
X008066Y016842D01*
X008012Y016858D01*
X007958Y016878D01*
X007906Y016902D01*
X007856Y016930D01*
X007808Y016960D01*
X007762Y016994D01*
X007719Y017032D01*
X007678Y017072D01*
X007640Y017114D01*
X007606Y017160D01*
X007574Y017207D01*
X007546Y017257D01*
X007521Y017308D01*
X007500Y017361D01*
X007482Y017415D01*
X007469Y017471D01*
X007459Y017527D01*
X007453Y017584D01*
X007451Y017641D01*
X007294Y015416D02*
X009263Y015416D01*
X009263Y013448D01*
X007688Y013448D01*
X007294Y013841D01*
X007294Y015416D01*
X007451Y014432D02*
X007453Y014489D01*
X007459Y014546D01*
X007469Y014602D01*
X007482Y014658D01*
X007500Y014712D01*
X007521Y014765D01*
X007546Y014816D01*
X007574Y014866D01*
X007606Y014913D01*
X007640Y014959D01*
X007678Y015001D01*
X007719Y015041D01*
X007762Y015079D01*
X007808Y015113D01*
X007856Y015143D01*
X007906Y015171D01*
X007958Y015195D01*
X008012Y015215D01*
X008066Y015231D01*
X008122Y015244D01*
X008178Y015253D01*
X008235Y015258D01*
X008292Y015259D01*
X008349Y015256D01*
X008406Y015249D01*
X008462Y015238D01*
X008517Y015224D01*
X008571Y015205D01*
X008624Y015183D01*
X008675Y015158D01*
X008724Y015128D01*
X008771Y015096D01*
X008816Y015060D01*
X008858Y015022D01*
X008897Y014980D01*
X008933Y014936D01*
X008967Y014890D01*
X008997Y014841D01*
X009023Y014791D01*
X009046Y014739D01*
X009065Y014685D01*
X009081Y014630D01*
X009093Y014574D01*
X009101Y014517D01*
X009105Y014461D01*
X009105Y014403D01*
X009101Y014347D01*
X009093Y014290D01*
X009081Y014234D01*
X009065Y014179D01*
X009046Y014125D01*
X009023Y014073D01*
X008997Y014023D01*
X008967Y013974D01*
X008933Y013928D01*
X008897Y013884D01*
X008858Y013842D01*
X008816Y013804D01*
X008771Y013768D01*
X008724Y013736D01*
X008675Y013706D01*
X008624Y013681D01*
X008571Y013659D01*
X008517Y013640D01*
X008462Y013626D01*
X008406Y013615D01*
X008349Y013608D01*
X008292Y013605D01*
X008235Y013606D01*
X008178Y013611D01*
X008122Y013620D01*
X008066Y013633D01*
X008012Y013649D01*
X007958Y013669D01*
X007906Y013693D01*
X007856Y013721D01*
X007808Y013751D01*
X007762Y013785D01*
X007719Y013823D01*
X007678Y013863D01*
X007640Y013905D01*
X007606Y013951D01*
X007574Y013998D01*
X007546Y014048D01*
X007521Y014099D01*
X007500Y014152D01*
X007482Y014206D01*
X007469Y014262D01*
X007459Y014318D01*
X007453Y014375D01*
X007451Y014432D01*
X007294Y013841D02*
X007294Y013448D01*
X007688Y013448D01*
X007164Y013277D02*
X007166Y013291D01*
X007172Y013305D01*
X007180Y013317D01*
X007192Y013325D01*
X007206Y013331D01*
X007220Y013333D01*
X007234Y013331D01*
X007248Y013325D01*
X007260Y013317D01*
X007268Y013305D01*
X007274Y013291D01*
X007276Y013277D01*
X007274Y013263D01*
X007268Y013249D01*
X007260Y013237D01*
X007248Y013229D01*
X007234Y013223D01*
X007220Y013221D01*
X007206Y013223D01*
X007192Y013229D01*
X007180Y013237D01*
X007172Y013249D01*
X007166Y013263D01*
X007164Y013277D01*
X007294Y012208D02*
X009263Y012208D01*
X009263Y010239D01*
X007688Y010239D01*
X007294Y010633D01*
X007294Y012208D01*
X006956Y012208D02*
X004987Y012208D01*
X004987Y010633D01*
X005381Y010239D01*
X004987Y010239D01*
X004987Y010633D01*
X005381Y010239D02*
X006956Y010239D01*
X006956Y012208D01*
X005144Y011223D02*
X005146Y011280D01*
X005152Y011337D01*
X005162Y011393D01*
X005175Y011449D01*
X005193Y011503D01*
X005214Y011556D01*
X005239Y011607D01*
X005267Y011657D01*
X005299Y011704D01*
X005333Y011750D01*
X005371Y011792D01*
X005412Y011832D01*
X005455Y011870D01*
X005501Y011904D01*
X005549Y011934D01*
X005599Y011962D01*
X005651Y011986D01*
X005705Y012006D01*
X005759Y012022D01*
X005815Y012035D01*
X005871Y012044D01*
X005928Y012049D01*
X005985Y012050D01*
X006042Y012047D01*
X006099Y012040D01*
X006155Y012029D01*
X006210Y012015D01*
X006264Y011996D01*
X006317Y011974D01*
X006368Y011949D01*
X006417Y011919D01*
X006464Y011887D01*
X006509Y011851D01*
X006551Y011813D01*
X006590Y011771D01*
X006626Y011727D01*
X006660Y011681D01*
X006690Y011632D01*
X006716Y011582D01*
X006739Y011530D01*
X006758Y011476D01*
X006774Y011421D01*
X006786Y011365D01*
X006794Y011308D01*
X006798Y011252D01*
X006798Y011194D01*
X006794Y011138D01*
X006786Y011081D01*
X006774Y011025D01*
X006758Y010970D01*
X006739Y010916D01*
X006716Y010864D01*
X006690Y010814D01*
X006660Y010765D01*
X006626Y010719D01*
X006590Y010675D01*
X006551Y010633D01*
X006509Y010595D01*
X006464Y010559D01*
X006417Y010527D01*
X006368Y010497D01*
X006317Y010472D01*
X006264Y010450D01*
X006210Y010431D01*
X006155Y010417D01*
X006099Y010406D01*
X006042Y010399D01*
X005985Y010396D01*
X005928Y010397D01*
X005871Y010402D01*
X005815Y010411D01*
X005759Y010424D01*
X005705Y010440D01*
X005651Y010460D01*
X005599Y010484D01*
X005549Y010512D01*
X005501Y010542D01*
X005455Y010576D01*
X005412Y010614D01*
X005371Y010654D01*
X005333Y010696D01*
X005299Y010742D01*
X005267Y010789D01*
X005239Y010839D01*
X005214Y010890D01*
X005193Y010943D01*
X005175Y010997D01*
X005162Y011053D01*
X005152Y011109D01*
X005146Y011166D01*
X005144Y011223D01*
X004857Y010068D02*
X004859Y010082D01*
X004865Y010096D01*
X004873Y010108D01*
X004885Y010116D01*
X004899Y010122D01*
X004913Y010124D01*
X004927Y010122D01*
X004941Y010116D01*
X004953Y010108D01*
X004961Y010096D01*
X004967Y010082D01*
X004969Y010068D01*
X004967Y010054D01*
X004961Y010040D01*
X004953Y010028D01*
X004941Y010020D01*
X004927Y010014D01*
X004913Y010012D01*
X004899Y010014D01*
X004885Y010020D01*
X004873Y010028D01*
X004865Y010040D01*
X004859Y010054D01*
X004857Y010068D01*
X004987Y008999D02*
X006956Y008999D01*
X006956Y007030D01*
X005381Y007030D01*
X004987Y007424D01*
X004987Y008999D01*
X005144Y008015D02*
X005146Y008072D01*
X005152Y008129D01*
X005162Y008185D01*
X005175Y008241D01*
X005193Y008295D01*
X005214Y008348D01*
X005239Y008399D01*
X005267Y008449D01*
X005299Y008496D01*
X005333Y008542D01*
X005371Y008584D01*
X005412Y008624D01*
X005455Y008662D01*
X005501Y008696D01*
X005549Y008726D01*
X005599Y008754D01*
X005651Y008778D01*
X005705Y008798D01*
X005759Y008814D01*
X005815Y008827D01*
X005871Y008836D01*
X005928Y008841D01*
X005985Y008842D01*
X006042Y008839D01*
X006099Y008832D01*
X006155Y008821D01*
X006210Y008807D01*
X006264Y008788D01*
X006317Y008766D01*
X006368Y008741D01*
X006417Y008711D01*
X006464Y008679D01*
X006509Y008643D01*
X006551Y008605D01*
X006590Y008563D01*
X006626Y008519D01*
X006660Y008473D01*
X006690Y008424D01*
X006716Y008374D01*
X006739Y008322D01*
X006758Y008268D01*
X006774Y008213D01*
X006786Y008157D01*
X006794Y008100D01*
X006798Y008044D01*
X006798Y007986D01*
X006794Y007930D01*
X006786Y007873D01*
X006774Y007817D01*
X006758Y007762D01*
X006739Y007708D01*
X006716Y007656D01*
X006690Y007606D01*
X006660Y007557D01*
X006626Y007511D01*
X006590Y007467D01*
X006551Y007425D01*
X006509Y007387D01*
X006464Y007351D01*
X006417Y007319D01*
X006368Y007289D01*
X006317Y007264D01*
X006264Y007242D01*
X006210Y007223D01*
X006155Y007209D01*
X006099Y007198D01*
X006042Y007191D01*
X005985Y007188D01*
X005928Y007189D01*
X005871Y007194D01*
X005815Y007203D01*
X005759Y007216D01*
X005705Y007232D01*
X005651Y007252D01*
X005599Y007276D01*
X005549Y007304D01*
X005501Y007334D01*
X005455Y007368D01*
X005412Y007406D01*
X005371Y007446D01*
X005333Y007488D01*
X005299Y007534D01*
X005267Y007581D01*
X005239Y007631D01*
X005214Y007682D01*
X005193Y007735D01*
X005175Y007789D01*
X005162Y007845D01*
X005152Y007901D01*
X005146Y007958D01*
X005144Y008015D01*
X004987Y007424D02*
X004987Y007030D01*
X005381Y007030D01*
X004857Y006860D02*
X004859Y006874D01*
X004865Y006888D01*
X004873Y006900D01*
X004885Y006908D01*
X004899Y006914D01*
X004913Y006916D01*
X004927Y006914D01*
X004941Y006908D01*
X004953Y006900D01*
X004961Y006888D01*
X004967Y006874D01*
X004969Y006860D01*
X004967Y006846D01*
X004961Y006832D01*
X004953Y006820D01*
X004941Y006812D01*
X004927Y006806D01*
X004913Y006804D01*
X004899Y006806D01*
X004885Y006812D01*
X004873Y006820D01*
X004865Y006832D01*
X004859Y006846D01*
X004857Y006860D01*
X004987Y005790D02*
X006956Y005790D01*
X006956Y003822D01*
X005381Y003822D01*
X004987Y004215D01*
X004987Y005790D01*
X005144Y004806D02*
X005146Y004863D01*
X005152Y004920D01*
X005162Y004976D01*
X005175Y005032D01*
X005193Y005086D01*
X005214Y005139D01*
X005239Y005190D01*
X005267Y005240D01*
X005299Y005287D01*
X005333Y005333D01*
X005371Y005375D01*
X005412Y005415D01*
X005455Y005453D01*
X005501Y005487D01*
X005549Y005517D01*
X005599Y005545D01*
X005651Y005569D01*
X005705Y005589D01*
X005759Y005605D01*
X005815Y005618D01*
X005871Y005627D01*
X005928Y005632D01*
X005985Y005633D01*
X006042Y005630D01*
X006099Y005623D01*
X006155Y005612D01*
X006210Y005598D01*
X006264Y005579D01*
X006317Y005557D01*
X006368Y005532D01*
X006417Y005502D01*
X006464Y005470D01*
X006509Y005434D01*
X006551Y005396D01*
X006590Y005354D01*
X006626Y005310D01*
X006660Y005264D01*
X006690Y005215D01*
X006716Y005165D01*
X006739Y005113D01*
X006758Y005059D01*
X006774Y005004D01*
X006786Y004948D01*
X006794Y004891D01*
X006798Y004835D01*
X006798Y004777D01*
X006794Y004721D01*
X006786Y004664D01*
X006774Y004608D01*
X006758Y004553D01*
X006739Y004499D01*
X006716Y004447D01*
X006690Y004397D01*
X006660Y004348D01*
X006626Y004302D01*
X006590Y004258D01*
X006551Y004216D01*
X006509Y004178D01*
X006464Y004142D01*
X006417Y004110D01*
X006368Y004080D01*
X006317Y004055D01*
X006264Y004033D01*
X006210Y004014D01*
X006155Y004000D01*
X006099Y003989D01*
X006042Y003982D01*
X005985Y003979D01*
X005928Y003980D01*
X005871Y003985D01*
X005815Y003994D01*
X005759Y004007D01*
X005705Y004023D01*
X005651Y004043D01*
X005599Y004067D01*
X005549Y004095D01*
X005501Y004125D01*
X005455Y004159D01*
X005412Y004197D01*
X005371Y004237D01*
X005333Y004279D01*
X005299Y004325D01*
X005267Y004372D01*
X005239Y004422D01*
X005214Y004473D01*
X005193Y004526D01*
X005175Y004580D01*
X005162Y004636D01*
X005152Y004692D01*
X005146Y004749D01*
X005144Y004806D01*
X004987Y004215D02*
X004987Y003822D01*
X005381Y003822D01*
X004857Y003651D02*
X004859Y003665D01*
X004865Y003679D01*
X004873Y003691D01*
X004885Y003699D01*
X004899Y003705D01*
X004913Y003707D01*
X004927Y003705D01*
X004941Y003699D01*
X004953Y003691D01*
X004961Y003679D01*
X004967Y003665D01*
X004969Y003651D01*
X004967Y003637D01*
X004961Y003623D01*
X004953Y003611D01*
X004941Y003603D01*
X004927Y003597D01*
X004913Y003595D01*
X004899Y003597D01*
X004885Y003603D01*
X004873Y003611D01*
X004865Y003623D01*
X004859Y003637D01*
X004857Y003651D01*
X004987Y002582D02*
X006956Y002582D01*
X006956Y000613D01*
X005381Y000613D01*
X004987Y001007D01*
X004987Y002582D01*
X004649Y002582D02*
X002680Y002582D01*
X002680Y001007D01*
X003074Y000613D01*
X002680Y000613D01*
X002680Y001007D01*
X003074Y000613D02*
X004649Y000613D01*
X004649Y002582D01*
X002837Y001597D02*
X002839Y001654D01*
X002845Y001711D01*
X002855Y001767D01*
X002868Y001823D01*
X002886Y001877D01*
X002907Y001930D01*
X002932Y001981D01*
X002960Y002031D01*
X002992Y002078D01*
X003026Y002124D01*
X003064Y002166D01*
X003105Y002206D01*
X003148Y002244D01*
X003194Y002278D01*
X003242Y002308D01*
X003292Y002336D01*
X003344Y002360D01*
X003398Y002380D01*
X003452Y002396D01*
X003508Y002409D01*
X003564Y002418D01*
X003621Y002423D01*
X003678Y002424D01*
X003735Y002421D01*
X003792Y002414D01*
X003848Y002403D01*
X003903Y002389D01*
X003957Y002370D01*
X004010Y002348D01*
X004061Y002323D01*
X004110Y002293D01*
X004157Y002261D01*
X004202Y002225D01*
X004244Y002187D01*
X004283Y002145D01*
X004319Y002101D01*
X004353Y002055D01*
X004383Y002006D01*
X004409Y001956D01*
X004432Y001904D01*
X004451Y001850D01*
X004467Y001795D01*
X004479Y001739D01*
X004487Y001682D01*
X004491Y001626D01*
X004491Y001568D01*
X004487Y001512D01*
X004479Y001455D01*
X004467Y001399D01*
X004451Y001344D01*
X004432Y001290D01*
X004409Y001238D01*
X004383Y001188D01*
X004353Y001139D01*
X004319Y001093D01*
X004283Y001049D01*
X004244Y001007D01*
X004202Y000969D01*
X004157Y000933D01*
X004110Y000901D01*
X004061Y000871D01*
X004010Y000846D01*
X003957Y000824D01*
X003903Y000805D01*
X003848Y000791D01*
X003792Y000780D01*
X003735Y000773D01*
X003678Y000770D01*
X003621Y000771D01*
X003564Y000776D01*
X003508Y000785D01*
X003452Y000798D01*
X003398Y000814D01*
X003344Y000834D01*
X003292Y000858D01*
X003242Y000886D01*
X003194Y000916D01*
X003148Y000950D01*
X003105Y000988D01*
X003064Y001028D01*
X003026Y001070D01*
X002992Y001116D01*
X002960Y001163D01*
X002932Y001213D01*
X002907Y001264D01*
X002886Y001317D01*
X002868Y001371D01*
X002855Y001427D01*
X002845Y001483D01*
X002839Y001540D01*
X002837Y001597D01*
X002550Y000442D02*
X002552Y000456D01*
X002558Y000470D01*
X002566Y000482D01*
X002578Y000490D01*
X002592Y000496D01*
X002606Y000498D01*
X002620Y000496D01*
X002634Y000490D01*
X002646Y000482D01*
X002654Y000470D01*
X002660Y000456D01*
X002662Y000442D01*
X002660Y000428D01*
X002654Y000414D01*
X002646Y000402D01*
X002634Y000394D01*
X002620Y000388D01*
X002606Y000386D01*
X002592Y000388D01*
X002578Y000394D01*
X002566Y000402D01*
X002558Y000414D01*
X002552Y000428D01*
X002550Y000442D01*
X004857Y000442D02*
X004859Y000456D01*
X004865Y000470D01*
X004873Y000482D01*
X004885Y000490D01*
X004899Y000496D01*
X004913Y000498D01*
X004927Y000496D01*
X004941Y000490D01*
X004953Y000482D01*
X004961Y000470D01*
X004967Y000456D01*
X004969Y000442D01*
X004967Y000428D01*
X004961Y000414D01*
X004953Y000402D01*
X004941Y000394D01*
X004927Y000388D01*
X004913Y000386D01*
X004899Y000388D01*
X004885Y000394D01*
X004873Y000402D01*
X004865Y000414D01*
X004859Y000428D01*
X004857Y000442D01*
X004987Y000613D02*
X004987Y001007D01*
X004987Y000613D02*
X005381Y000613D01*
X005144Y001597D02*
X005146Y001654D01*
X005152Y001711D01*
X005162Y001767D01*
X005175Y001823D01*
X005193Y001877D01*
X005214Y001930D01*
X005239Y001981D01*
X005267Y002031D01*
X005299Y002078D01*
X005333Y002124D01*
X005371Y002166D01*
X005412Y002206D01*
X005455Y002244D01*
X005501Y002278D01*
X005549Y002308D01*
X005599Y002336D01*
X005651Y002360D01*
X005705Y002380D01*
X005759Y002396D01*
X005815Y002409D01*
X005871Y002418D01*
X005928Y002423D01*
X005985Y002424D01*
X006042Y002421D01*
X006099Y002414D01*
X006155Y002403D01*
X006210Y002389D01*
X006264Y002370D01*
X006317Y002348D01*
X006368Y002323D01*
X006417Y002293D01*
X006464Y002261D01*
X006509Y002225D01*
X006551Y002187D01*
X006590Y002145D01*
X006626Y002101D01*
X006660Y002055D01*
X006690Y002006D01*
X006716Y001956D01*
X006739Y001904D01*
X006758Y001850D01*
X006774Y001795D01*
X006786Y001739D01*
X006794Y001682D01*
X006798Y001626D01*
X006798Y001568D01*
X006794Y001512D01*
X006786Y001455D01*
X006774Y001399D01*
X006758Y001344D01*
X006739Y001290D01*
X006716Y001238D01*
X006690Y001188D01*
X006660Y001139D01*
X006626Y001093D01*
X006590Y001049D01*
X006551Y001007D01*
X006509Y000969D01*
X006464Y000933D01*
X006417Y000901D01*
X006368Y000871D01*
X006317Y000846D01*
X006264Y000824D01*
X006210Y000805D01*
X006155Y000791D01*
X006099Y000780D01*
X006042Y000773D01*
X005985Y000770D01*
X005928Y000771D01*
X005871Y000776D01*
X005815Y000785D01*
X005759Y000798D01*
X005705Y000814D01*
X005651Y000834D01*
X005599Y000858D01*
X005549Y000886D01*
X005501Y000916D01*
X005455Y000950D01*
X005412Y000988D01*
X005371Y001028D01*
X005333Y001070D01*
X005299Y001116D01*
X005267Y001163D01*
X005239Y001213D01*
X005214Y001264D01*
X005193Y001317D01*
X005175Y001371D01*
X005162Y001427D01*
X005152Y001483D01*
X005146Y001540D01*
X005144Y001597D01*
X007164Y000442D02*
X007166Y000456D01*
X007172Y000470D01*
X007180Y000482D01*
X007192Y000490D01*
X007206Y000496D01*
X007220Y000498D01*
X007234Y000496D01*
X007248Y000490D01*
X007260Y000482D01*
X007268Y000470D01*
X007274Y000456D01*
X007276Y000442D01*
X007274Y000428D01*
X007268Y000414D01*
X007260Y000402D01*
X007248Y000394D01*
X007234Y000388D01*
X007220Y000386D01*
X007206Y000388D01*
X007192Y000394D01*
X007180Y000402D01*
X007172Y000414D01*
X007166Y000428D01*
X007164Y000442D01*
X007294Y000613D02*
X007294Y001007D01*
X007688Y000613D01*
X007294Y000613D01*
X007294Y001007D02*
X007294Y002582D01*
X009263Y002582D01*
X009263Y000613D01*
X007688Y000613D01*
X007451Y001597D02*
X007453Y001654D01*
X007459Y001711D01*
X007469Y001767D01*
X007482Y001823D01*
X007500Y001877D01*
X007521Y001930D01*
X007546Y001981D01*
X007574Y002031D01*
X007606Y002078D01*
X007640Y002124D01*
X007678Y002166D01*
X007719Y002206D01*
X007762Y002244D01*
X007808Y002278D01*
X007856Y002308D01*
X007906Y002336D01*
X007958Y002360D01*
X008012Y002380D01*
X008066Y002396D01*
X008122Y002409D01*
X008178Y002418D01*
X008235Y002423D01*
X008292Y002424D01*
X008349Y002421D01*
X008406Y002414D01*
X008462Y002403D01*
X008517Y002389D01*
X008571Y002370D01*
X008624Y002348D01*
X008675Y002323D01*
X008724Y002293D01*
X008771Y002261D01*
X008816Y002225D01*
X008858Y002187D01*
X008897Y002145D01*
X008933Y002101D01*
X008967Y002055D01*
X008997Y002006D01*
X009023Y001956D01*
X009046Y001904D01*
X009065Y001850D01*
X009081Y001795D01*
X009093Y001739D01*
X009101Y001682D01*
X009105Y001626D01*
X009105Y001568D01*
X009101Y001512D01*
X009093Y001455D01*
X009081Y001399D01*
X009065Y001344D01*
X009046Y001290D01*
X009023Y001238D01*
X008997Y001188D01*
X008967Y001139D01*
X008933Y001093D01*
X008897Y001049D01*
X008858Y001007D01*
X008816Y000969D01*
X008771Y000933D01*
X008724Y000901D01*
X008675Y000871D01*
X008624Y000846D01*
X008571Y000824D01*
X008517Y000805D01*
X008462Y000791D01*
X008406Y000780D01*
X008349Y000773D01*
X008292Y000770D01*
X008235Y000771D01*
X008178Y000776D01*
X008122Y000785D01*
X008066Y000798D01*
X008012Y000814D01*
X007958Y000834D01*
X007906Y000858D01*
X007856Y000886D01*
X007808Y000916D01*
X007762Y000950D01*
X007719Y000988D01*
X007678Y001028D01*
X007640Y001070D01*
X007606Y001116D01*
X007574Y001163D01*
X007546Y001213D01*
X007521Y001264D01*
X007500Y001317D01*
X007482Y001371D01*
X007469Y001427D01*
X007459Y001483D01*
X007453Y001540D01*
X007451Y001597D01*
X007164Y003651D02*
X007166Y003665D01*
X007172Y003679D01*
X007180Y003691D01*
X007192Y003699D01*
X007206Y003705D01*
X007220Y003707D01*
X007234Y003705D01*
X007248Y003699D01*
X007260Y003691D01*
X007268Y003679D01*
X007274Y003665D01*
X007276Y003651D01*
X007274Y003637D01*
X007268Y003623D01*
X007260Y003611D01*
X007248Y003603D01*
X007234Y003597D01*
X007220Y003595D01*
X007206Y003597D01*
X007192Y003603D01*
X007180Y003611D01*
X007172Y003623D01*
X007166Y003637D01*
X007164Y003651D01*
X007294Y003822D02*
X007294Y004215D01*
X007688Y003822D01*
X007294Y003822D01*
X007294Y004215D02*
X007294Y005790D01*
X009263Y005790D01*
X009263Y003822D01*
X007688Y003822D01*
X007451Y004806D02*
X007453Y004863D01*
X007459Y004920D01*
X007469Y004976D01*
X007482Y005032D01*
X007500Y005086D01*
X007521Y005139D01*
X007546Y005190D01*
X007574Y005240D01*
X007606Y005287D01*
X007640Y005333D01*
X007678Y005375D01*
X007719Y005415D01*
X007762Y005453D01*
X007808Y005487D01*
X007856Y005517D01*
X007906Y005545D01*
X007958Y005569D01*
X008012Y005589D01*
X008066Y005605D01*
X008122Y005618D01*
X008178Y005627D01*
X008235Y005632D01*
X008292Y005633D01*
X008349Y005630D01*
X008406Y005623D01*
X008462Y005612D01*
X008517Y005598D01*
X008571Y005579D01*
X008624Y005557D01*
X008675Y005532D01*
X008724Y005502D01*
X008771Y005470D01*
X008816Y005434D01*
X008858Y005396D01*
X008897Y005354D01*
X008933Y005310D01*
X008967Y005264D01*
X008997Y005215D01*
X009023Y005165D01*
X009046Y005113D01*
X009065Y005059D01*
X009081Y005004D01*
X009093Y004948D01*
X009101Y004891D01*
X009105Y004835D01*
X009105Y004777D01*
X009101Y004721D01*
X009093Y004664D01*
X009081Y004608D01*
X009065Y004553D01*
X009046Y004499D01*
X009023Y004447D01*
X008997Y004397D01*
X008967Y004348D01*
X008933Y004302D01*
X008897Y004258D01*
X008858Y004216D01*
X008816Y004178D01*
X008771Y004142D01*
X008724Y004110D01*
X008675Y004080D01*
X008624Y004055D01*
X008571Y004033D01*
X008517Y004014D01*
X008462Y004000D01*
X008406Y003989D01*
X008349Y003982D01*
X008292Y003979D01*
X008235Y003980D01*
X008178Y003985D01*
X008122Y003994D01*
X008066Y004007D01*
X008012Y004023D01*
X007958Y004043D01*
X007906Y004067D01*
X007856Y004095D01*
X007808Y004125D01*
X007762Y004159D01*
X007719Y004197D01*
X007678Y004237D01*
X007640Y004279D01*
X007606Y004325D01*
X007574Y004372D01*
X007546Y004422D01*
X007521Y004473D01*
X007500Y004526D01*
X007482Y004580D01*
X007469Y004636D01*
X007459Y004692D01*
X007453Y004749D01*
X007451Y004806D01*
X007164Y006860D02*
X007166Y006874D01*
X007172Y006888D01*
X007180Y006900D01*
X007192Y006908D01*
X007206Y006914D01*
X007220Y006916D01*
X007234Y006914D01*
X007248Y006908D01*
X007260Y006900D01*
X007268Y006888D01*
X007274Y006874D01*
X007276Y006860D01*
X007274Y006846D01*
X007268Y006832D01*
X007260Y006820D01*
X007248Y006812D01*
X007234Y006806D01*
X007220Y006804D01*
X007206Y006806D01*
X007192Y006812D01*
X007180Y006820D01*
X007172Y006832D01*
X007166Y006846D01*
X007164Y006860D01*
X007294Y007030D02*
X007294Y007424D01*
X007688Y007030D01*
X007294Y007030D01*
X007688Y007030D02*
X009263Y007030D01*
X009263Y008999D01*
X007294Y008999D01*
X007294Y007424D01*
X007451Y008015D02*
X007453Y008072D01*
X007459Y008129D01*
X007469Y008185D01*
X007482Y008241D01*
X007500Y008295D01*
X007521Y008348D01*
X007546Y008399D01*
X007574Y008449D01*
X007606Y008496D01*
X007640Y008542D01*
X007678Y008584D01*
X007719Y008624D01*
X007762Y008662D01*
X007808Y008696D01*
X007856Y008726D01*
X007906Y008754D01*
X007958Y008778D01*
X008012Y008798D01*
X008066Y008814D01*
X008122Y008827D01*
X008178Y008836D01*
X008235Y008841D01*
X008292Y008842D01*
X008349Y008839D01*
X008406Y008832D01*
X008462Y008821D01*
X008517Y008807D01*
X008571Y008788D01*
X008624Y008766D01*
X008675Y008741D01*
X008724Y008711D01*
X008771Y008679D01*
X008816Y008643D01*
X008858Y008605D01*
X008897Y008563D01*
X008933Y008519D01*
X008967Y008473D01*
X008997Y008424D01*
X009023Y008374D01*
X009046Y008322D01*
X009065Y008268D01*
X009081Y008213D01*
X009093Y008157D01*
X009101Y008100D01*
X009105Y008044D01*
X009105Y007986D01*
X009101Y007930D01*
X009093Y007873D01*
X009081Y007817D01*
X009065Y007762D01*
X009046Y007708D01*
X009023Y007656D01*
X008997Y007606D01*
X008967Y007557D01*
X008933Y007511D01*
X008897Y007467D01*
X008858Y007425D01*
X008816Y007387D01*
X008771Y007351D01*
X008724Y007319D01*
X008675Y007289D01*
X008624Y007264D01*
X008571Y007242D01*
X008517Y007223D01*
X008462Y007209D01*
X008406Y007198D01*
X008349Y007191D01*
X008292Y007188D01*
X008235Y007189D01*
X008178Y007194D01*
X008122Y007203D01*
X008066Y007216D01*
X008012Y007232D01*
X007958Y007252D01*
X007906Y007276D01*
X007856Y007304D01*
X007808Y007334D01*
X007762Y007368D01*
X007719Y007406D01*
X007678Y007446D01*
X007640Y007488D01*
X007606Y007534D01*
X007574Y007581D01*
X007546Y007631D01*
X007521Y007682D01*
X007500Y007735D01*
X007482Y007789D01*
X007469Y007845D01*
X007459Y007901D01*
X007453Y007958D01*
X007451Y008015D01*
X007164Y010068D02*
X007166Y010082D01*
X007172Y010096D01*
X007180Y010108D01*
X007192Y010116D01*
X007206Y010122D01*
X007220Y010124D01*
X007234Y010122D01*
X007248Y010116D01*
X007260Y010108D01*
X007268Y010096D01*
X007274Y010082D01*
X007276Y010068D01*
X007274Y010054D01*
X007268Y010040D01*
X007260Y010028D01*
X007248Y010020D01*
X007234Y010014D01*
X007220Y010012D01*
X007206Y010014D01*
X007192Y010020D01*
X007180Y010028D01*
X007172Y010040D01*
X007166Y010054D01*
X007164Y010068D01*
X007294Y010239D02*
X007294Y010633D01*
X007294Y010239D02*
X007688Y010239D01*
X007451Y011223D02*
X007453Y011280D01*
X007459Y011337D01*
X007469Y011393D01*
X007482Y011449D01*
X007500Y011503D01*
X007521Y011556D01*
X007546Y011607D01*
X007574Y011657D01*
X007606Y011704D01*
X007640Y011750D01*
X007678Y011792D01*
X007719Y011832D01*
X007762Y011870D01*
X007808Y011904D01*
X007856Y011934D01*
X007906Y011962D01*
X007958Y011986D01*
X008012Y012006D01*
X008066Y012022D01*
X008122Y012035D01*
X008178Y012044D01*
X008235Y012049D01*
X008292Y012050D01*
X008349Y012047D01*
X008406Y012040D01*
X008462Y012029D01*
X008517Y012015D01*
X008571Y011996D01*
X008624Y011974D01*
X008675Y011949D01*
X008724Y011919D01*
X008771Y011887D01*
X008816Y011851D01*
X008858Y011813D01*
X008897Y011771D01*
X008933Y011727D01*
X008967Y011681D01*
X008997Y011632D01*
X009023Y011582D01*
X009046Y011530D01*
X009065Y011476D01*
X009081Y011421D01*
X009093Y011365D01*
X009101Y011308D01*
X009105Y011252D01*
X009105Y011194D01*
X009101Y011138D01*
X009093Y011081D01*
X009081Y011025D01*
X009065Y010970D01*
X009046Y010916D01*
X009023Y010864D01*
X008997Y010814D01*
X008967Y010765D01*
X008933Y010719D01*
X008897Y010675D01*
X008858Y010633D01*
X008816Y010595D01*
X008771Y010559D01*
X008724Y010527D01*
X008675Y010497D01*
X008624Y010472D01*
X008571Y010450D01*
X008517Y010431D01*
X008462Y010417D01*
X008406Y010406D01*
X008349Y010399D01*
X008292Y010396D01*
X008235Y010397D01*
X008178Y010402D01*
X008122Y010411D01*
X008066Y010424D01*
X008012Y010440D01*
X007958Y010460D01*
X007906Y010484D01*
X007856Y010512D01*
X007808Y010542D01*
X007762Y010576D01*
X007719Y010614D01*
X007678Y010654D01*
X007640Y010696D01*
X007606Y010742D01*
X007574Y010789D01*
X007546Y010839D01*
X007521Y010890D01*
X007500Y010943D01*
X007482Y010997D01*
X007469Y011053D01*
X007459Y011109D01*
X007453Y011166D01*
X007451Y011223D01*
X009470Y010068D02*
X009472Y010082D01*
X009478Y010096D01*
X009486Y010108D01*
X009498Y010116D01*
X009512Y010122D01*
X009526Y010124D01*
X009540Y010122D01*
X009554Y010116D01*
X009566Y010108D01*
X009574Y010096D01*
X009580Y010082D01*
X009582Y010068D01*
X009580Y010054D01*
X009574Y010040D01*
X009566Y010028D01*
X009554Y010020D01*
X009540Y010014D01*
X009526Y010012D01*
X009512Y010014D01*
X009498Y010020D01*
X009486Y010028D01*
X009478Y010040D01*
X009472Y010054D01*
X009470Y010068D01*
X009600Y010239D02*
X009600Y010633D01*
X009994Y010239D01*
X009600Y010239D01*
X009600Y010633D02*
X009600Y012208D01*
X011569Y012208D01*
X011569Y010239D01*
X009994Y010239D01*
X009757Y011223D02*
X009759Y011280D01*
X009765Y011337D01*
X009775Y011393D01*
X009788Y011449D01*
X009806Y011503D01*
X009827Y011556D01*
X009852Y011607D01*
X009880Y011657D01*
X009912Y011704D01*
X009946Y011750D01*
X009984Y011792D01*
X010025Y011832D01*
X010068Y011870D01*
X010114Y011904D01*
X010162Y011934D01*
X010212Y011962D01*
X010264Y011986D01*
X010318Y012006D01*
X010372Y012022D01*
X010428Y012035D01*
X010484Y012044D01*
X010541Y012049D01*
X010598Y012050D01*
X010655Y012047D01*
X010712Y012040D01*
X010768Y012029D01*
X010823Y012015D01*
X010877Y011996D01*
X010930Y011974D01*
X010981Y011949D01*
X011030Y011919D01*
X011077Y011887D01*
X011122Y011851D01*
X011164Y011813D01*
X011203Y011771D01*
X011239Y011727D01*
X011273Y011681D01*
X011303Y011632D01*
X011329Y011582D01*
X011352Y011530D01*
X011371Y011476D01*
X011387Y011421D01*
X011399Y011365D01*
X011407Y011308D01*
X011411Y011252D01*
X011411Y011194D01*
X011407Y011138D01*
X011399Y011081D01*
X011387Y011025D01*
X011371Y010970D01*
X011352Y010916D01*
X011329Y010864D01*
X011303Y010814D01*
X011273Y010765D01*
X011239Y010719D01*
X011203Y010675D01*
X011164Y010633D01*
X011122Y010595D01*
X011077Y010559D01*
X011030Y010527D01*
X010981Y010497D01*
X010930Y010472D01*
X010877Y010450D01*
X010823Y010431D01*
X010768Y010417D01*
X010712Y010406D01*
X010655Y010399D01*
X010598Y010396D01*
X010541Y010397D01*
X010484Y010402D01*
X010428Y010411D01*
X010372Y010424D01*
X010318Y010440D01*
X010264Y010460D01*
X010212Y010484D01*
X010162Y010512D01*
X010114Y010542D01*
X010068Y010576D01*
X010025Y010614D01*
X009984Y010654D01*
X009946Y010696D01*
X009912Y010742D01*
X009880Y010789D01*
X009852Y010839D01*
X009827Y010890D01*
X009806Y010943D01*
X009788Y010997D01*
X009775Y011053D01*
X009765Y011109D01*
X009759Y011166D01*
X009757Y011223D01*
X009470Y013277D02*
X009472Y013291D01*
X009478Y013305D01*
X009486Y013317D01*
X009498Y013325D01*
X009512Y013331D01*
X009526Y013333D01*
X009540Y013331D01*
X009554Y013325D01*
X009566Y013317D01*
X009574Y013305D01*
X009580Y013291D01*
X009582Y013277D01*
X009580Y013263D01*
X009574Y013249D01*
X009566Y013237D01*
X009554Y013229D01*
X009540Y013223D01*
X009526Y013221D01*
X009512Y013223D01*
X009498Y013229D01*
X009486Y013237D01*
X009478Y013249D01*
X009472Y013263D01*
X009470Y013277D01*
X009600Y013448D02*
X009600Y013841D01*
X009994Y013448D01*
X009600Y013448D01*
X009600Y013841D02*
X009600Y015416D01*
X011569Y015416D01*
X011569Y013448D01*
X009994Y013448D01*
X009757Y014432D02*
X009759Y014489D01*
X009765Y014546D01*
X009775Y014602D01*
X009788Y014658D01*
X009806Y014712D01*
X009827Y014765D01*
X009852Y014816D01*
X009880Y014866D01*
X009912Y014913D01*
X009946Y014959D01*
X009984Y015001D01*
X010025Y015041D01*
X010068Y015079D01*
X010114Y015113D01*
X010162Y015143D01*
X010212Y015171D01*
X010264Y015195D01*
X010318Y015215D01*
X010372Y015231D01*
X010428Y015244D01*
X010484Y015253D01*
X010541Y015258D01*
X010598Y015259D01*
X010655Y015256D01*
X010712Y015249D01*
X010768Y015238D01*
X010823Y015224D01*
X010877Y015205D01*
X010930Y015183D01*
X010981Y015158D01*
X011030Y015128D01*
X011077Y015096D01*
X011122Y015060D01*
X011164Y015022D01*
X011203Y014980D01*
X011239Y014936D01*
X011273Y014890D01*
X011303Y014841D01*
X011329Y014791D01*
X011352Y014739D01*
X011371Y014685D01*
X011387Y014630D01*
X011399Y014574D01*
X011407Y014517D01*
X011411Y014461D01*
X011411Y014403D01*
X011407Y014347D01*
X011399Y014290D01*
X011387Y014234D01*
X011371Y014179D01*
X011352Y014125D01*
X011329Y014073D01*
X011303Y014023D01*
X011273Y013974D01*
X011239Y013928D01*
X011203Y013884D01*
X011164Y013842D01*
X011122Y013804D01*
X011077Y013768D01*
X011030Y013736D01*
X010981Y013706D01*
X010930Y013681D01*
X010877Y013659D01*
X010823Y013640D01*
X010768Y013626D01*
X010712Y013615D01*
X010655Y013608D01*
X010598Y013605D01*
X010541Y013606D01*
X010484Y013611D01*
X010428Y013620D01*
X010372Y013633D01*
X010318Y013649D01*
X010264Y013669D01*
X010212Y013693D01*
X010162Y013721D01*
X010114Y013751D01*
X010068Y013785D01*
X010025Y013823D01*
X009984Y013863D01*
X009946Y013905D01*
X009912Y013951D01*
X009880Y013998D01*
X009852Y014048D01*
X009827Y014099D01*
X009806Y014152D01*
X009788Y014206D01*
X009775Y014262D01*
X009765Y014318D01*
X009759Y014375D01*
X009757Y014432D01*
X009470Y016486D02*
X009472Y016500D01*
X009478Y016514D01*
X009486Y016526D01*
X009498Y016534D01*
X009512Y016540D01*
X009526Y016542D01*
X009540Y016540D01*
X009554Y016534D01*
X009566Y016526D01*
X009574Y016514D01*
X009580Y016500D01*
X009582Y016486D01*
X009580Y016472D01*
X009574Y016458D01*
X009566Y016446D01*
X009554Y016438D01*
X009540Y016432D01*
X009526Y016430D01*
X009512Y016432D01*
X009498Y016438D01*
X009486Y016446D01*
X009478Y016458D01*
X009472Y016472D01*
X009470Y016486D01*
X009600Y016656D02*
X009600Y017050D01*
X009994Y016656D01*
X009600Y016656D01*
X009994Y016656D02*
X011569Y016656D01*
X011569Y018625D01*
X009600Y018625D01*
X009600Y017050D01*
X009757Y017641D02*
X009759Y017698D01*
X009765Y017755D01*
X009775Y017811D01*
X009788Y017867D01*
X009806Y017921D01*
X009827Y017974D01*
X009852Y018025D01*
X009880Y018075D01*
X009912Y018122D01*
X009946Y018168D01*
X009984Y018210D01*
X010025Y018250D01*
X010068Y018288D01*
X010114Y018322D01*
X010162Y018352D01*
X010212Y018380D01*
X010264Y018404D01*
X010318Y018424D01*
X010372Y018440D01*
X010428Y018453D01*
X010484Y018462D01*
X010541Y018467D01*
X010598Y018468D01*
X010655Y018465D01*
X010712Y018458D01*
X010768Y018447D01*
X010823Y018433D01*
X010877Y018414D01*
X010930Y018392D01*
X010981Y018367D01*
X011030Y018337D01*
X011077Y018305D01*
X011122Y018269D01*
X011164Y018231D01*
X011203Y018189D01*
X011239Y018145D01*
X011273Y018099D01*
X011303Y018050D01*
X011329Y018000D01*
X011352Y017948D01*
X011371Y017894D01*
X011387Y017839D01*
X011399Y017783D01*
X011407Y017726D01*
X011411Y017670D01*
X011411Y017612D01*
X011407Y017556D01*
X011399Y017499D01*
X011387Y017443D01*
X011371Y017388D01*
X011352Y017334D01*
X011329Y017282D01*
X011303Y017232D01*
X011273Y017183D01*
X011239Y017137D01*
X011203Y017093D01*
X011164Y017051D01*
X011122Y017013D01*
X011077Y016977D01*
X011030Y016945D01*
X010981Y016915D01*
X010930Y016890D01*
X010877Y016868D01*
X010823Y016849D01*
X010768Y016835D01*
X010712Y016824D01*
X010655Y016817D01*
X010598Y016814D01*
X010541Y016815D01*
X010484Y016820D01*
X010428Y016829D01*
X010372Y016842D01*
X010318Y016858D01*
X010264Y016878D01*
X010212Y016902D01*
X010162Y016930D01*
X010114Y016960D01*
X010068Y016994D01*
X010025Y017032D01*
X009984Y017072D01*
X009946Y017114D01*
X009912Y017160D01*
X009880Y017207D01*
X009852Y017257D01*
X009827Y017308D01*
X009806Y017361D01*
X009788Y017415D01*
X009775Y017471D01*
X009765Y017527D01*
X009759Y017584D01*
X009757Y017641D01*
X011906Y017050D02*
X011906Y016656D01*
X012300Y016656D01*
X011906Y017050D01*
X011906Y018625D01*
X013874Y018625D01*
X013874Y016656D01*
X012300Y016656D01*
X011776Y016486D02*
X011778Y016500D01*
X011784Y016514D01*
X011792Y016526D01*
X011804Y016534D01*
X011818Y016540D01*
X011832Y016542D01*
X011846Y016540D01*
X011860Y016534D01*
X011872Y016526D01*
X011880Y016514D01*
X011886Y016500D01*
X011888Y016486D01*
X011886Y016472D01*
X011880Y016458D01*
X011872Y016446D01*
X011860Y016438D01*
X011846Y016432D01*
X011832Y016430D01*
X011818Y016432D01*
X011804Y016438D01*
X011792Y016446D01*
X011784Y016458D01*
X011778Y016472D01*
X011776Y016486D01*
X011906Y015416D02*
X013874Y015416D01*
X013874Y013448D01*
X012300Y013448D01*
X011906Y013841D01*
X011906Y015416D01*
X012063Y014432D02*
X012065Y014489D01*
X012071Y014546D01*
X012081Y014602D01*
X012094Y014658D01*
X012112Y014712D01*
X012133Y014765D01*
X012158Y014816D01*
X012186Y014866D01*
X012218Y014913D01*
X012252Y014959D01*
X012290Y015001D01*
X012331Y015041D01*
X012374Y015079D01*
X012420Y015113D01*
X012468Y015143D01*
X012518Y015171D01*
X012570Y015195D01*
X012624Y015215D01*
X012678Y015231D01*
X012734Y015244D01*
X012790Y015253D01*
X012847Y015258D01*
X012904Y015259D01*
X012961Y015256D01*
X013018Y015249D01*
X013074Y015238D01*
X013129Y015224D01*
X013183Y015205D01*
X013236Y015183D01*
X013287Y015158D01*
X013336Y015128D01*
X013383Y015096D01*
X013428Y015060D01*
X013470Y015022D01*
X013509Y014980D01*
X013545Y014936D01*
X013579Y014890D01*
X013609Y014841D01*
X013635Y014791D01*
X013658Y014739D01*
X013677Y014685D01*
X013693Y014630D01*
X013705Y014574D01*
X013713Y014517D01*
X013717Y014461D01*
X013717Y014403D01*
X013713Y014347D01*
X013705Y014290D01*
X013693Y014234D01*
X013677Y014179D01*
X013658Y014125D01*
X013635Y014073D01*
X013609Y014023D01*
X013579Y013974D01*
X013545Y013928D01*
X013509Y013884D01*
X013470Y013842D01*
X013428Y013804D01*
X013383Y013768D01*
X013336Y013736D01*
X013287Y013706D01*
X013236Y013681D01*
X013183Y013659D01*
X013129Y013640D01*
X013074Y013626D01*
X013018Y013615D01*
X012961Y013608D01*
X012904Y013605D01*
X012847Y013606D01*
X012790Y013611D01*
X012734Y013620D01*
X012678Y013633D01*
X012624Y013649D01*
X012570Y013669D01*
X012518Y013693D01*
X012468Y013721D01*
X012420Y013751D01*
X012374Y013785D01*
X012331Y013823D01*
X012290Y013863D01*
X012252Y013905D01*
X012218Y013951D01*
X012186Y013998D01*
X012158Y014048D01*
X012133Y014099D01*
X012112Y014152D01*
X012094Y014206D01*
X012081Y014262D01*
X012071Y014318D01*
X012065Y014375D01*
X012063Y014432D01*
X011906Y013841D02*
X011906Y013448D01*
X012300Y013448D01*
X011776Y013277D02*
X011778Y013291D01*
X011784Y013305D01*
X011792Y013317D01*
X011804Y013325D01*
X011818Y013331D01*
X011832Y013333D01*
X011846Y013331D01*
X011860Y013325D01*
X011872Y013317D01*
X011880Y013305D01*
X011886Y013291D01*
X011888Y013277D01*
X011886Y013263D01*
X011880Y013249D01*
X011872Y013237D01*
X011860Y013229D01*
X011846Y013223D01*
X011832Y013221D01*
X011818Y013223D01*
X011804Y013229D01*
X011792Y013237D01*
X011784Y013249D01*
X011778Y013263D01*
X011776Y013277D01*
X011906Y012208D02*
X013874Y012208D01*
X013874Y010239D01*
X012300Y010239D01*
X011906Y010633D01*
X011906Y012208D01*
X012063Y011223D02*
X012065Y011280D01*
X012071Y011337D01*
X012081Y011393D01*
X012094Y011449D01*
X012112Y011503D01*
X012133Y011556D01*
X012158Y011607D01*
X012186Y011657D01*
X012218Y011704D01*
X012252Y011750D01*
X012290Y011792D01*
X012331Y011832D01*
X012374Y011870D01*
X012420Y011904D01*
X012468Y011934D01*
X012518Y011962D01*
X012570Y011986D01*
X012624Y012006D01*
X012678Y012022D01*
X012734Y012035D01*
X012790Y012044D01*
X012847Y012049D01*
X012904Y012050D01*
X012961Y012047D01*
X013018Y012040D01*
X013074Y012029D01*
X013129Y012015D01*
X013183Y011996D01*
X013236Y011974D01*
X013287Y011949D01*
X013336Y011919D01*
X013383Y011887D01*
X013428Y011851D01*
X013470Y011813D01*
X013509Y011771D01*
X013545Y011727D01*
X013579Y011681D01*
X013609Y011632D01*
X013635Y011582D01*
X013658Y011530D01*
X013677Y011476D01*
X013693Y011421D01*
X013705Y011365D01*
X013713Y011308D01*
X013717Y011252D01*
X013717Y011194D01*
X013713Y011138D01*
X013705Y011081D01*
X013693Y011025D01*
X013677Y010970D01*
X013658Y010916D01*
X013635Y010864D01*
X013609Y010814D01*
X013579Y010765D01*
X013545Y010719D01*
X013509Y010675D01*
X013470Y010633D01*
X013428Y010595D01*
X013383Y010559D01*
X013336Y010527D01*
X013287Y010497D01*
X013236Y010472D01*
X013183Y010450D01*
X013129Y010431D01*
X013074Y010417D01*
X013018Y010406D01*
X012961Y010399D01*
X012904Y010396D01*
X012847Y010397D01*
X012790Y010402D01*
X012734Y010411D01*
X012678Y010424D01*
X012624Y010440D01*
X012570Y010460D01*
X012518Y010484D01*
X012468Y010512D01*
X012420Y010542D01*
X012374Y010576D01*
X012331Y010614D01*
X012290Y010654D01*
X012252Y010696D01*
X012218Y010742D01*
X012186Y010789D01*
X012158Y010839D01*
X012133Y010890D01*
X012112Y010943D01*
X012094Y010997D01*
X012081Y011053D01*
X012071Y011109D01*
X012065Y011166D01*
X012063Y011223D01*
X011906Y010633D02*
X011906Y010239D01*
X012300Y010239D01*
X011776Y010068D02*
X011778Y010082D01*
X011784Y010096D01*
X011792Y010108D01*
X011804Y010116D01*
X011818Y010122D01*
X011832Y010124D01*
X011846Y010122D01*
X011860Y010116D01*
X011872Y010108D01*
X011880Y010096D01*
X011886Y010082D01*
X011888Y010068D01*
X011886Y010054D01*
X011880Y010040D01*
X011872Y010028D01*
X011860Y010020D01*
X011846Y010014D01*
X011832Y010012D01*
X011818Y010014D01*
X011804Y010020D01*
X011792Y010028D01*
X011784Y010040D01*
X011778Y010054D01*
X011776Y010068D01*
X011906Y008999D02*
X013874Y008999D01*
X013874Y007030D01*
X012300Y007030D01*
X011906Y007424D01*
X011906Y008999D01*
X011569Y008999D02*
X009600Y008999D01*
X009600Y007424D01*
X009994Y007030D01*
X009600Y007030D01*
X009600Y007424D01*
X009994Y007030D02*
X011569Y007030D01*
X011569Y008999D01*
X009757Y008015D02*
X009759Y008072D01*
X009765Y008129D01*
X009775Y008185D01*
X009788Y008241D01*
X009806Y008295D01*
X009827Y008348D01*
X009852Y008399D01*
X009880Y008449D01*
X009912Y008496D01*
X009946Y008542D01*
X009984Y008584D01*
X010025Y008624D01*
X010068Y008662D01*
X010114Y008696D01*
X010162Y008726D01*
X010212Y008754D01*
X010264Y008778D01*
X010318Y008798D01*
X010372Y008814D01*
X010428Y008827D01*
X010484Y008836D01*
X010541Y008841D01*
X010598Y008842D01*
X010655Y008839D01*
X010712Y008832D01*
X010768Y008821D01*
X010823Y008807D01*
X010877Y008788D01*
X010930Y008766D01*
X010981Y008741D01*
X011030Y008711D01*
X011077Y008679D01*
X011122Y008643D01*
X011164Y008605D01*
X011203Y008563D01*
X011239Y008519D01*
X011273Y008473D01*
X011303Y008424D01*
X011329Y008374D01*
X011352Y008322D01*
X011371Y008268D01*
X011387Y008213D01*
X011399Y008157D01*
X011407Y008100D01*
X011411Y008044D01*
X011411Y007986D01*
X011407Y007930D01*
X011399Y007873D01*
X011387Y007817D01*
X011371Y007762D01*
X011352Y007708D01*
X011329Y007656D01*
X011303Y007606D01*
X011273Y007557D01*
X011239Y007511D01*
X011203Y007467D01*
X011164Y007425D01*
X011122Y007387D01*
X011077Y007351D01*
X011030Y007319D01*
X010981Y007289D01*
X010930Y007264D01*
X010877Y007242D01*
X010823Y007223D01*
X010768Y007209D01*
X010712Y007198D01*
X010655Y007191D01*
X010598Y007188D01*
X010541Y007189D01*
X010484Y007194D01*
X010428Y007203D01*
X010372Y007216D01*
X010318Y007232D01*
X010264Y007252D01*
X010212Y007276D01*
X010162Y007304D01*
X010114Y007334D01*
X010068Y007368D01*
X010025Y007406D01*
X009984Y007446D01*
X009946Y007488D01*
X009912Y007534D01*
X009880Y007581D01*
X009852Y007631D01*
X009827Y007682D01*
X009806Y007735D01*
X009788Y007789D01*
X009775Y007845D01*
X009765Y007901D01*
X009759Y007958D01*
X009757Y008015D01*
X009470Y006860D02*
X009472Y006874D01*
X009478Y006888D01*
X009486Y006900D01*
X009498Y006908D01*
X009512Y006914D01*
X009526Y006916D01*
X009540Y006914D01*
X009554Y006908D01*
X009566Y006900D01*
X009574Y006888D01*
X009580Y006874D01*
X009582Y006860D01*
X009580Y006846D01*
X009574Y006832D01*
X009566Y006820D01*
X009554Y006812D01*
X009540Y006806D01*
X009526Y006804D01*
X009512Y006806D01*
X009498Y006812D01*
X009486Y006820D01*
X009478Y006832D01*
X009472Y006846D01*
X009470Y006860D01*
X009600Y005790D02*
X011569Y005790D01*
X011569Y003822D01*
X009994Y003822D01*
X009600Y004215D01*
X009600Y005790D01*
X009757Y004806D02*
X009759Y004863D01*
X009765Y004920D01*
X009775Y004976D01*
X009788Y005032D01*
X009806Y005086D01*
X009827Y005139D01*
X009852Y005190D01*
X009880Y005240D01*
X009912Y005287D01*
X009946Y005333D01*
X009984Y005375D01*
X010025Y005415D01*
X010068Y005453D01*
X010114Y005487D01*
X010162Y005517D01*
X010212Y005545D01*
X010264Y005569D01*
X010318Y005589D01*
X010372Y005605D01*
X010428Y005618D01*
X010484Y005627D01*
X010541Y005632D01*
X010598Y005633D01*
X010655Y005630D01*
X010712Y005623D01*
X010768Y005612D01*
X010823Y005598D01*
X010877Y005579D01*
X010930Y005557D01*
X010981Y005532D01*
X011030Y005502D01*
X011077Y005470D01*
X011122Y005434D01*
X011164Y005396D01*
X011203Y005354D01*
X011239Y005310D01*
X011273Y005264D01*
X011303Y005215D01*
X011329Y005165D01*
X011352Y005113D01*
X011371Y005059D01*
X011387Y005004D01*
X011399Y004948D01*
X011407Y004891D01*
X011411Y004835D01*
X011411Y004777D01*
X011407Y004721D01*
X011399Y004664D01*
X011387Y004608D01*
X011371Y004553D01*
X011352Y004499D01*
X011329Y004447D01*
X011303Y004397D01*
X011273Y004348D01*
X011239Y004302D01*
X011203Y004258D01*
X011164Y004216D01*
X011122Y004178D01*
X011077Y004142D01*
X011030Y004110D01*
X010981Y004080D01*
X010930Y004055D01*
X010877Y004033D01*
X010823Y004014D01*
X010768Y004000D01*
X010712Y003989D01*
X010655Y003982D01*
X010598Y003979D01*
X010541Y003980D01*
X010484Y003985D01*
X010428Y003994D01*
X010372Y004007D01*
X010318Y004023D01*
X010264Y004043D01*
X010212Y004067D01*
X010162Y004095D01*
X010114Y004125D01*
X010068Y004159D01*
X010025Y004197D01*
X009984Y004237D01*
X009946Y004279D01*
X009912Y004325D01*
X009880Y004372D01*
X009852Y004422D01*
X009827Y004473D01*
X009806Y004526D01*
X009788Y004580D01*
X009775Y004636D01*
X009765Y004692D01*
X009759Y004749D01*
X009757Y004806D01*
X009600Y004215D02*
X009600Y003822D01*
X009994Y003822D01*
X009470Y003651D02*
X009472Y003665D01*
X009478Y003679D01*
X009486Y003691D01*
X009498Y003699D01*
X009512Y003705D01*
X009526Y003707D01*
X009540Y003705D01*
X009554Y003699D01*
X009566Y003691D01*
X009574Y003679D01*
X009580Y003665D01*
X009582Y003651D01*
X009580Y003637D01*
X009574Y003623D01*
X009566Y003611D01*
X009554Y003603D01*
X009540Y003597D01*
X009526Y003595D01*
X009512Y003597D01*
X009498Y003603D01*
X009486Y003611D01*
X009478Y003623D01*
X009472Y003637D01*
X009470Y003651D01*
X009600Y002582D02*
X011569Y002582D01*
X011569Y000613D01*
X009994Y000613D01*
X009600Y001007D01*
X009600Y002582D01*
X009757Y001597D02*
X009759Y001654D01*
X009765Y001711D01*
X009775Y001767D01*
X009788Y001823D01*
X009806Y001877D01*
X009827Y001930D01*
X009852Y001981D01*
X009880Y002031D01*
X009912Y002078D01*
X009946Y002124D01*
X009984Y002166D01*
X010025Y002206D01*
X010068Y002244D01*
X010114Y002278D01*
X010162Y002308D01*
X010212Y002336D01*
X010264Y002360D01*
X010318Y002380D01*
X010372Y002396D01*
X010428Y002409D01*
X010484Y002418D01*
X010541Y002423D01*
X010598Y002424D01*
X010655Y002421D01*
X010712Y002414D01*
X010768Y002403D01*
X010823Y002389D01*
X010877Y002370D01*
X010930Y002348D01*
X010981Y002323D01*
X011030Y002293D01*
X011077Y002261D01*
X011122Y002225D01*
X011164Y002187D01*
X011203Y002145D01*
X011239Y002101D01*
X011273Y002055D01*
X011303Y002006D01*
X011329Y001956D01*
X011352Y001904D01*
X011371Y001850D01*
X011387Y001795D01*
X011399Y001739D01*
X011407Y001682D01*
X011411Y001626D01*
X011411Y001568D01*
X011407Y001512D01*
X011399Y001455D01*
X011387Y001399D01*
X011371Y001344D01*
X011352Y001290D01*
X011329Y001238D01*
X011303Y001188D01*
X011273Y001139D01*
X011239Y001093D01*
X011203Y001049D01*
X011164Y001007D01*
X011122Y000969D01*
X011077Y000933D01*
X011030Y000901D01*
X010981Y000871D01*
X010930Y000846D01*
X010877Y000824D01*
X010823Y000805D01*
X010768Y000791D01*
X010712Y000780D01*
X010655Y000773D01*
X010598Y000770D01*
X010541Y000771D01*
X010484Y000776D01*
X010428Y000785D01*
X010372Y000798D01*
X010318Y000814D01*
X010264Y000834D01*
X010212Y000858D01*
X010162Y000886D01*
X010114Y000916D01*
X010068Y000950D01*
X010025Y000988D01*
X009984Y001028D01*
X009946Y001070D01*
X009912Y001116D01*
X009880Y001163D01*
X009852Y001213D01*
X009827Y001264D01*
X009806Y001317D01*
X009788Y001371D01*
X009775Y001427D01*
X009765Y001483D01*
X009759Y001540D01*
X009757Y001597D01*
X009600Y001007D02*
X009600Y000613D01*
X009994Y000613D01*
X009470Y000442D02*
X009472Y000456D01*
X009478Y000470D01*
X009486Y000482D01*
X009498Y000490D01*
X009512Y000496D01*
X009526Y000498D01*
X009540Y000496D01*
X009554Y000490D01*
X009566Y000482D01*
X009574Y000470D01*
X009580Y000456D01*
X009582Y000442D01*
X009580Y000428D01*
X009574Y000414D01*
X009566Y000402D01*
X009554Y000394D01*
X009540Y000388D01*
X009526Y000386D01*
X009512Y000388D01*
X009498Y000394D01*
X009486Y000402D01*
X009478Y000414D01*
X009472Y000428D01*
X009470Y000442D01*
X011776Y000442D02*
X011778Y000456D01*
X011784Y000470D01*
X011792Y000482D01*
X011804Y000490D01*
X011818Y000496D01*
X011832Y000498D01*
X011846Y000496D01*
X011860Y000490D01*
X011872Y000482D01*
X011880Y000470D01*
X011886Y000456D01*
X011888Y000442D01*
X011886Y000428D01*
X011880Y000414D01*
X011872Y000402D01*
X011860Y000394D01*
X011846Y000388D01*
X011832Y000386D01*
X011818Y000388D01*
X011804Y000394D01*
X011792Y000402D01*
X011784Y000414D01*
X011778Y000428D01*
X011776Y000442D01*
X011906Y000613D02*
X011906Y001007D01*
X012300Y000613D01*
X011906Y000613D01*
X011906Y001007D02*
X011906Y002582D01*
X013874Y002582D01*
X013874Y000613D01*
X012300Y000613D01*
X012063Y001597D02*
X012065Y001654D01*
X012071Y001711D01*
X012081Y001767D01*
X012094Y001823D01*
X012112Y001877D01*
X012133Y001930D01*
X012158Y001981D01*
X012186Y002031D01*
X012218Y002078D01*
X012252Y002124D01*
X012290Y002166D01*
X012331Y002206D01*
X012374Y002244D01*
X012420Y002278D01*
X012468Y002308D01*
X012518Y002336D01*
X012570Y002360D01*
X012624Y002380D01*
X012678Y002396D01*
X012734Y002409D01*
X012790Y002418D01*
X012847Y002423D01*
X012904Y002424D01*
X012961Y002421D01*
X013018Y002414D01*
X013074Y002403D01*
X013129Y002389D01*
X013183Y002370D01*
X013236Y002348D01*
X013287Y002323D01*
X013336Y002293D01*
X013383Y002261D01*
X013428Y002225D01*
X013470Y002187D01*
X013509Y002145D01*
X013545Y002101D01*
X013579Y002055D01*
X013609Y002006D01*
X013635Y001956D01*
X013658Y001904D01*
X013677Y001850D01*
X013693Y001795D01*
X013705Y001739D01*
X013713Y001682D01*
X013717Y001626D01*
X013717Y001568D01*
X013713Y001512D01*
X013705Y001455D01*
X013693Y001399D01*
X013677Y001344D01*
X013658Y001290D01*
X013635Y001238D01*
X013609Y001188D01*
X013579Y001139D01*
X013545Y001093D01*
X013509Y001049D01*
X013470Y001007D01*
X013428Y000969D01*
X013383Y000933D01*
X013336Y000901D01*
X013287Y000871D01*
X013236Y000846D01*
X013183Y000824D01*
X013129Y000805D01*
X013074Y000791D01*
X013018Y000780D01*
X012961Y000773D01*
X012904Y000770D01*
X012847Y000771D01*
X012790Y000776D01*
X012734Y000785D01*
X012678Y000798D01*
X012624Y000814D01*
X012570Y000834D01*
X012518Y000858D01*
X012468Y000886D01*
X012420Y000916D01*
X012374Y000950D01*
X012331Y000988D01*
X012290Y001028D01*
X012252Y001070D01*
X012218Y001116D01*
X012186Y001163D01*
X012158Y001213D01*
X012133Y001264D01*
X012112Y001317D01*
X012094Y001371D01*
X012081Y001427D01*
X012071Y001483D01*
X012065Y001540D01*
X012063Y001597D01*
X011776Y003651D02*
X011778Y003665D01*
X011784Y003679D01*
X011792Y003691D01*
X011804Y003699D01*
X011818Y003705D01*
X011832Y003707D01*
X011846Y003705D01*
X011860Y003699D01*
X011872Y003691D01*
X011880Y003679D01*
X011886Y003665D01*
X011888Y003651D01*
X011886Y003637D01*
X011880Y003623D01*
X011872Y003611D01*
X011860Y003603D01*
X011846Y003597D01*
X011832Y003595D01*
X011818Y003597D01*
X011804Y003603D01*
X011792Y003611D01*
X011784Y003623D01*
X011778Y003637D01*
X011776Y003651D01*
X011906Y003822D02*
X011906Y004215D01*
X012300Y003822D01*
X011906Y003822D01*
X011906Y004215D02*
X011906Y005790D01*
X013874Y005790D01*
X013874Y003822D01*
X012300Y003822D01*
X012063Y004806D02*
X012065Y004863D01*
X012071Y004920D01*
X012081Y004976D01*
X012094Y005032D01*
X012112Y005086D01*
X012133Y005139D01*
X012158Y005190D01*
X012186Y005240D01*
X012218Y005287D01*
X012252Y005333D01*
X012290Y005375D01*
X012331Y005415D01*
X012374Y005453D01*
X012420Y005487D01*
X012468Y005517D01*
X012518Y005545D01*
X012570Y005569D01*
X012624Y005589D01*
X012678Y005605D01*
X012734Y005618D01*
X012790Y005627D01*
X012847Y005632D01*
X012904Y005633D01*
X012961Y005630D01*
X013018Y005623D01*
X013074Y005612D01*
X013129Y005598D01*
X013183Y005579D01*
X013236Y005557D01*
X013287Y005532D01*
X013336Y005502D01*
X013383Y005470D01*
X013428Y005434D01*
X013470Y005396D01*
X013509Y005354D01*
X013545Y005310D01*
X013579Y005264D01*
X013609Y005215D01*
X013635Y005165D01*
X013658Y005113D01*
X013677Y005059D01*
X013693Y005004D01*
X013705Y004948D01*
X013713Y004891D01*
X013717Y004835D01*
X013717Y004777D01*
X013713Y004721D01*
X013705Y004664D01*
X013693Y004608D01*
X013677Y004553D01*
X013658Y004499D01*
X013635Y004447D01*
X013609Y004397D01*
X013579Y004348D01*
X013545Y004302D01*
X013509Y004258D01*
X013470Y004216D01*
X013428Y004178D01*
X013383Y004142D01*
X013336Y004110D01*
X013287Y004080D01*
X013236Y004055D01*
X013183Y004033D01*
X013129Y004014D01*
X013074Y004000D01*
X013018Y003989D01*
X012961Y003982D01*
X012904Y003979D01*
X012847Y003980D01*
X012790Y003985D01*
X012734Y003994D01*
X012678Y004007D01*
X012624Y004023D01*
X012570Y004043D01*
X012518Y004067D01*
X012468Y004095D01*
X012420Y004125D01*
X012374Y004159D01*
X012331Y004197D01*
X012290Y004237D01*
X012252Y004279D01*
X012218Y004325D01*
X012186Y004372D01*
X012158Y004422D01*
X012133Y004473D01*
X012112Y004526D01*
X012094Y004580D01*
X012081Y004636D01*
X012071Y004692D01*
X012065Y004749D01*
X012063Y004806D01*
X011776Y006860D02*
X011778Y006874D01*
X011784Y006888D01*
X011792Y006900D01*
X011804Y006908D01*
X011818Y006914D01*
X011832Y006916D01*
X011846Y006914D01*
X011860Y006908D01*
X011872Y006900D01*
X011880Y006888D01*
X011886Y006874D01*
X011888Y006860D01*
X011886Y006846D01*
X011880Y006832D01*
X011872Y006820D01*
X011860Y006812D01*
X011846Y006806D01*
X011832Y006804D01*
X011818Y006806D01*
X011804Y006812D01*
X011792Y006820D01*
X011784Y006832D01*
X011778Y006846D01*
X011776Y006860D01*
X011906Y007030D02*
X011906Y007424D01*
X011906Y007030D02*
X012300Y007030D01*
X012063Y008015D02*
X012065Y008072D01*
X012071Y008129D01*
X012081Y008185D01*
X012094Y008241D01*
X012112Y008295D01*
X012133Y008348D01*
X012158Y008399D01*
X012186Y008449D01*
X012218Y008496D01*
X012252Y008542D01*
X012290Y008584D01*
X012331Y008624D01*
X012374Y008662D01*
X012420Y008696D01*
X012468Y008726D01*
X012518Y008754D01*
X012570Y008778D01*
X012624Y008798D01*
X012678Y008814D01*
X012734Y008827D01*
X012790Y008836D01*
X012847Y008841D01*
X012904Y008842D01*
X012961Y008839D01*
X013018Y008832D01*
X013074Y008821D01*
X013129Y008807D01*
X013183Y008788D01*
X013236Y008766D01*
X013287Y008741D01*
X013336Y008711D01*
X013383Y008679D01*
X013428Y008643D01*
X013470Y008605D01*
X013509Y008563D01*
X013545Y008519D01*
X013579Y008473D01*
X013609Y008424D01*
X013635Y008374D01*
X013658Y008322D01*
X013677Y008268D01*
X013693Y008213D01*
X013705Y008157D01*
X013713Y008100D01*
X013717Y008044D01*
X013717Y007986D01*
X013713Y007930D01*
X013705Y007873D01*
X013693Y007817D01*
X013677Y007762D01*
X013658Y007708D01*
X013635Y007656D01*
X013609Y007606D01*
X013579Y007557D01*
X013545Y007511D01*
X013509Y007467D01*
X013470Y007425D01*
X013428Y007387D01*
X013383Y007351D01*
X013336Y007319D01*
X013287Y007289D01*
X013236Y007264D01*
X013183Y007242D01*
X013129Y007223D01*
X013074Y007209D01*
X013018Y007198D01*
X012961Y007191D01*
X012904Y007188D01*
X012847Y007189D01*
X012790Y007194D01*
X012734Y007203D01*
X012678Y007216D01*
X012624Y007232D01*
X012570Y007252D01*
X012518Y007276D01*
X012468Y007304D01*
X012420Y007334D01*
X012374Y007368D01*
X012331Y007406D01*
X012290Y007446D01*
X012252Y007488D01*
X012218Y007534D01*
X012186Y007581D01*
X012158Y007631D01*
X012133Y007682D01*
X012112Y007735D01*
X012094Y007789D01*
X012081Y007845D01*
X012071Y007901D01*
X012065Y007958D01*
X012063Y008015D01*
X014212Y007424D02*
X014212Y007030D01*
X014606Y007030D01*
X014212Y007424D01*
X014212Y008999D01*
X016180Y008999D01*
X016180Y007030D01*
X014606Y007030D01*
X014082Y006860D02*
X014084Y006874D01*
X014090Y006888D01*
X014098Y006900D01*
X014110Y006908D01*
X014124Y006914D01*
X014138Y006916D01*
X014152Y006914D01*
X014166Y006908D01*
X014178Y006900D01*
X014186Y006888D01*
X014192Y006874D01*
X014194Y006860D01*
X014192Y006846D01*
X014186Y006832D01*
X014178Y006820D01*
X014166Y006812D01*
X014152Y006806D01*
X014138Y006804D01*
X014124Y006806D01*
X014110Y006812D01*
X014098Y006820D01*
X014090Y006832D01*
X014084Y006846D01*
X014082Y006860D01*
X014212Y005790D02*
X016180Y005790D01*
X016180Y003822D01*
X014606Y003822D01*
X014212Y004215D01*
X014212Y005790D01*
X014369Y004806D02*
X014371Y004863D01*
X014377Y004920D01*
X014387Y004976D01*
X014400Y005032D01*
X014418Y005086D01*
X014439Y005139D01*
X014464Y005190D01*
X014492Y005240D01*
X014524Y005287D01*
X014558Y005333D01*
X014596Y005375D01*
X014637Y005415D01*
X014680Y005453D01*
X014726Y005487D01*
X014774Y005517D01*
X014824Y005545D01*
X014876Y005569D01*
X014930Y005589D01*
X014984Y005605D01*
X015040Y005618D01*
X015096Y005627D01*
X015153Y005632D01*
X015210Y005633D01*
X015267Y005630D01*
X015324Y005623D01*
X015380Y005612D01*
X015435Y005598D01*
X015489Y005579D01*
X015542Y005557D01*
X015593Y005532D01*
X015642Y005502D01*
X015689Y005470D01*
X015734Y005434D01*
X015776Y005396D01*
X015815Y005354D01*
X015851Y005310D01*
X015885Y005264D01*
X015915Y005215D01*
X015941Y005165D01*
X015964Y005113D01*
X015983Y005059D01*
X015999Y005004D01*
X016011Y004948D01*
X016019Y004891D01*
X016023Y004835D01*
X016023Y004777D01*
X016019Y004721D01*
X016011Y004664D01*
X015999Y004608D01*
X015983Y004553D01*
X015964Y004499D01*
X015941Y004447D01*
X015915Y004397D01*
X015885Y004348D01*
X015851Y004302D01*
X015815Y004258D01*
X015776Y004216D01*
X015734Y004178D01*
X015689Y004142D01*
X015642Y004110D01*
X015593Y004080D01*
X015542Y004055D01*
X015489Y004033D01*
X015435Y004014D01*
X015380Y004000D01*
X015324Y003989D01*
X015267Y003982D01*
X015210Y003979D01*
X015153Y003980D01*
X015096Y003985D01*
X015040Y003994D01*
X014984Y004007D01*
X014930Y004023D01*
X014876Y004043D01*
X014824Y004067D01*
X014774Y004095D01*
X014726Y004125D01*
X014680Y004159D01*
X014637Y004197D01*
X014596Y004237D01*
X014558Y004279D01*
X014524Y004325D01*
X014492Y004372D01*
X014464Y004422D01*
X014439Y004473D01*
X014418Y004526D01*
X014400Y004580D01*
X014387Y004636D01*
X014377Y004692D01*
X014371Y004749D01*
X014369Y004806D01*
X014212Y004215D02*
X014212Y003822D01*
X014606Y003822D01*
X014082Y003651D02*
X014084Y003665D01*
X014090Y003679D01*
X014098Y003691D01*
X014110Y003699D01*
X014124Y003705D01*
X014138Y003707D01*
X014152Y003705D01*
X014166Y003699D01*
X014178Y003691D01*
X014186Y003679D01*
X014192Y003665D01*
X014194Y003651D01*
X014192Y003637D01*
X014186Y003623D01*
X014178Y003611D01*
X014166Y003603D01*
X014152Y003597D01*
X014138Y003595D01*
X014124Y003597D01*
X014110Y003603D01*
X014098Y003611D01*
X014090Y003623D01*
X014084Y003637D01*
X014082Y003651D01*
X014369Y008015D02*
X014371Y008072D01*
X014377Y008129D01*
X014387Y008185D01*
X014400Y008241D01*
X014418Y008295D01*
X014439Y008348D01*
X014464Y008399D01*
X014492Y008449D01*
X014524Y008496D01*
X014558Y008542D01*
X014596Y008584D01*
X014637Y008624D01*
X014680Y008662D01*
X014726Y008696D01*
X014774Y008726D01*
X014824Y008754D01*
X014876Y008778D01*
X014930Y008798D01*
X014984Y008814D01*
X015040Y008827D01*
X015096Y008836D01*
X015153Y008841D01*
X015210Y008842D01*
X015267Y008839D01*
X015324Y008832D01*
X015380Y008821D01*
X015435Y008807D01*
X015489Y008788D01*
X015542Y008766D01*
X015593Y008741D01*
X015642Y008711D01*
X015689Y008679D01*
X015734Y008643D01*
X015776Y008605D01*
X015815Y008563D01*
X015851Y008519D01*
X015885Y008473D01*
X015915Y008424D01*
X015941Y008374D01*
X015964Y008322D01*
X015983Y008268D01*
X015999Y008213D01*
X016011Y008157D01*
X016019Y008100D01*
X016023Y008044D01*
X016023Y007986D01*
X016019Y007930D01*
X016011Y007873D01*
X015999Y007817D01*
X015983Y007762D01*
X015964Y007708D01*
X015941Y007656D01*
X015915Y007606D01*
X015885Y007557D01*
X015851Y007511D01*
X015815Y007467D01*
X015776Y007425D01*
X015734Y007387D01*
X015689Y007351D01*
X015642Y007319D01*
X015593Y007289D01*
X015542Y007264D01*
X015489Y007242D01*
X015435Y007223D01*
X015380Y007209D01*
X015324Y007198D01*
X015267Y007191D01*
X015210Y007188D01*
X015153Y007189D01*
X015096Y007194D01*
X015040Y007203D01*
X014984Y007216D01*
X014930Y007232D01*
X014876Y007252D01*
X014824Y007276D01*
X014774Y007304D01*
X014726Y007334D01*
X014680Y007368D01*
X014637Y007406D01*
X014596Y007446D01*
X014558Y007488D01*
X014524Y007534D01*
X014492Y007581D01*
X014464Y007631D01*
X014439Y007682D01*
X014418Y007735D01*
X014400Y007789D01*
X014387Y007845D01*
X014377Y007901D01*
X014371Y007958D01*
X014369Y008015D01*
X014082Y010068D02*
X014084Y010082D01*
X014090Y010096D01*
X014098Y010108D01*
X014110Y010116D01*
X014124Y010122D01*
X014138Y010124D01*
X014152Y010122D01*
X014166Y010116D01*
X014178Y010108D01*
X014186Y010096D01*
X014192Y010082D01*
X014194Y010068D01*
X014192Y010054D01*
X014186Y010040D01*
X014178Y010028D01*
X014166Y010020D01*
X014152Y010014D01*
X014138Y010012D01*
X014124Y010014D01*
X014110Y010020D01*
X014098Y010028D01*
X014090Y010040D01*
X014084Y010054D01*
X014082Y010068D01*
X014212Y010239D02*
X014212Y010633D01*
X014606Y010239D01*
X014212Y010239D01*
X014212Y010633D02*
X014212Y012208D01*
X016180Y012208D01*
X016180Y010239D01*
X014606Y010239D01*
X014369Y011223D02*
X014371Y011280D01*
X014377Y011337D01*
X014387Y011393D01*
X014400Y011449D01*
X014418Y011503D01*
X014439Y011556D01*
X014464Y011607D01*
X014492Y011657D01*
X014524Y011704D01*
X014558Y011750D01*
X014596Y011792D01*
X014637Y011832D01*
X014680Y011870D01*
X014726Y011904D01*
X014774Y011934D01*
X014824Y011962D01*
X014876Y011986D01*
X014930Y012006D01*
X014984Y012022D01*
X015040Y012035D01*
X015096Y012044D01*
X015153Y012049D01*
X015210Y012050D01*
X015267Y012047D01*
X015324Y012040D01*
X015380Y012029D01*
X015435Y012015D01*
X015489Y011996D01*
X015542Y011974D01*
X015593Y011949D01*
X015642Y011919D01*
X015689Y011887D01*
X015734Y011851D01*
X015776Y011813D01*
X015815Y011771D01*
X015851Y011727D01*
X015885Y011681D01*
X015915Y011632D01*
X015941Y011582D01*
X015964Y011530D01*
X015983Y011476D01*
X015999Y011421D01*
X016011Y011365D01*
X016019Y011308D01*
X016023Y011252D01*
X016023Y011194D01*
X016019Y011138D01*
X016011Y011081D01*
X015999Y011025D01*
X015983Y010970D01*
X015964Y010916D01*
X015941Y010864D01*
X015915Y010814D01*
X015885Y010765D01*
X015851Y010719D01*
X015815Y010675D01*
X015776Y010633D01*
X015734Y010595D01*
X015689Y010559D01*
X015642Y010527D01*
X015593Y010497D01*
X015542Y010472D01*
X015489Y010450D01*
X015435Y010431D01*
X015380Y010417D01*
X015324Y010406D01*
X015267Y010399D01*
X015210Y010396D01*
X015153Y010397D01*
X015096Y010402D01*
X015040Y010411D01*
X014984Y010424D01*
X014930Y010440D01*
X014876Y010460D01*
X014824Y010484D01*
X014774Y010512D01*
X014726Y010542D01*
X014680Y010576D01*
X014637Y010614D01*
X014596Y010654D01*
X014558Y010696D01*
X014524Y010742D01*
X014492Y010789D01*
X014464Y010839D01*
X014439Y010890D01*
X014418Y010943D01*
X014400Y010997D01*
X014387Y011053D01*
X014377Y011109D01*
X014371Y011166D01*
X014369Y011223D01*
X014082Y013277D02*
X014084Y013291D01*
X014090Y013305D01*
X014098Y013317D01*
X014110Y013325D01*
X014124Y013331D01*
X014138Y013333D01*
X014152Y013331D01*
X014166Y013325D01*
X014178Y013317D01*
X014186Y013305D01*
X014192Y013291D01*
X014194Y013277D01*
X014192Y013263D01*
X014186Y013249D01*
X014178Y013237D01*
X014166Y013229D01*
X014152Y013223D01*
X014138Y013221D01*
X014124Y013223D01*
X014110Y013229D01*
X014098Y013237D01*
X014090Y013249D01*
X014084Y013263D01*
X014082Y013277D01*
X014212Y013448D02*
X014212Y013841D01*
X014606Y013448D01*
X014212Y013448D01*
X014212Y013841D02*
X014212Y015416D01*
X016180Y015416D01*
X016180Y013448D01*
X014606Y013448D01*
X014369Y014432D02*
X014371Y014489D01*
X014377Y014546D01*
X014387Y014602D01*
X014400Y014658D01*
X014418Y014712D01*
X014439Y014765D01*
X014464Y014816D01*
X014492Y014866D01*
X014524Y014913D01*
X014558Y014959D01*
X014596Y015001D01*
X014637Y015041D01*
X014680Y015079D01*
X014726Y015113D01*
X014774Y015143D01*
X014824Y015171D01*
X014876Y015195D01*
X014930Y015215D01*
X014984Y015231D01*
X015040Y015244D01*
X015096Y015253D01*
X015153Y015258D01*
X015210Y015259D01*
X015267Y015256D01*
X015324Y015249D01*
X015380Y015238D01*
X015435Y015224D01*
X015489Y015205D01*
X015542Y015183D01*
X015593Y015158D01*
X015642Y015128D01*
X015689Y015096D01*
X015734Y015060D01*
X015776Y015022D01*
X015815Y014980D01*
X015851Y014936D01*
X015885Y014890D01*
X015915Y014841D01*
X015941Y014791D01*
X015964Y014739D01*
X015983Y014685D01*
X015999Y014630D01*
X016011Y014574D01*
X016019Y014517D01*
X016023Y014461D01*
X016023Y014403D01*
X016019Y014347D01*
X016011Y014290D01*
X015999Y014234D01*
X015983Y014179D01*
X015964Y014125D01*
X015941Y014073D01*
X015915Y014023D01*
X015885Y013974D01*
X015851Y013928D01*
X015815Y013884D01*
X015776Y013842D01*
X015734Y013804D01*
X015689Y013768D01*
X015642Y013736D01*
X015593Y013706D01*
X015542Y013681D01*
X015489Y013659D01*
X015435Y013640D01*
X015380Y013626D01*
X015324Y013615D01*
X015267Y013608D01*
X015210Y013605D01*
X015153Y013606D01*
X015096Y013611D01*
X015040Y013620D01*
X014984Y013633D01*
X014930Y013649D01*
X014876Y013669D01*
X014824Y013693D01*
X014774Y013721D01*
X014726Y013751D01*
X014680Y013785D01*
X014637Y013823D01*
X014596Y013863D01*
X014558Y013905D01*
X014524Y013951D01*
X014492Y013998D01*
X014464Y014048D01*
X014439Y014099D01*
X014418Y014152D01*
X014400Y014206D01*
X014387Y014262D01*
X014377Y014318D01*
X014371Y014375D01*
X014369Y014432D01*
X012063Y017641D02*
X012065Y017698D01*
X012071Y017755D01*
X012081Y017811D01*
X012094Y017867D01*
X012112Y017921D01*
X012133Y017974D01*
X012158Y018025D01*
X012186Y018075D01*
X012218Y018122D01*
X012252Y018168D01*
X012290Y018210D01*
X012331Y018250D01*
X012374Y018288D01*
X012420Y018322D01*
X012468Y018352D01*
X012518Y018380D01*
X012570Y018404D01*
X012624Y018424D01*
X012678Y018440D01*
X012734Y018453D01*
X012790Y018462D01*
X012847Y018467D01*
X012904Y018468D01*
X012961Y018465D01*
X013018Y018458D01*
X013074Y018447D01*
X013129Y018433D01*
X013183Y018414D01*
X013236Y018392D01*
X013287Y018367D01*
X013336Y018337D01*
X013383Y018305D01*
X013428Y018269D01*
X013470Y018231D01*
X013509Y018189D01*
X013545Y018145D01*
X013579Y018099D01*
X013609Y018050D01*
X013635Y018000D01*
X013658Y017948D01*
X013677Y017894D01*
X013693Y017839D01*
X013705Y017783D01*
X013713Y017726D01*
X013717Y017670D01*
X013717Y017612D01*
X013713Y017556D01*
X013705Y017499D01*
X013693Y017443D01*
X013677Y017388D01*
X013658Y017334D01*
X013635Y017282D01*
X013609Y017232D01*
X013579Y017183D01*
X013545Y017137D01*
X013509Y017093D01*
X013470Y017051D01*
X013428Y017013D01*
X013383Y016977D01*
X013336Y016945D01*
X013287Y016915D01*
X013236Y016890D01*
X013183Y016868D01*
X013129Y016849D01*
X013074Y016835D01*
X013018Y016824D01*
X012961Y016817D01*
X012904Y016814D01*
X012847Y016815D01*
X012790Y016820D01*
X012734Y016829D01*
X012678Y016842D01*
X012624Y016858D01*
X012570Y016878D01*
X012518Y016902D01*
X012468Y016930D01*
X012420Y016960D01*
X012374Y016994D01*
X012331Y017032D01*
X012290Y017072D01*
X012252Y017114D01*
X012218Y017160D01*
X012186Y017207D01*
X012158Y017257D01*
X012133Y017308D01*
X012112Y017361D01*
X012094Y017415D01*
X012081Y017471D01*
X012071Y017527D01*
X012065Y017584D01*
X012063Y017641D01*
D13*
X014278Y017490D02*
X014528Y017240D01*
X015028Y017240D01*
X015278Y017490D01*
X015528Y017240D01*
X016028Y017240D01*
X016278Y017490D01*
X016278Y017990D01*
X016028Y018240D01*
X015528Y018240D01*
X015278Y017990D01*
X015278Y017490D01*
X015278Y017990D02*
X015028Y018240D01*
X014528Y018240D01*
X014278Y017990D01*
X014278Y017490D01*
X002288Y017470D02*
X002038Y017220D01*
X001538Y017220D01*
X001288Y017470D01*
X001038Y017220D01*
X000538Y017220D01*
X000288Y017470D01*
X000288Y017970D01*
X000538Y018220D01*
X001038Y018220D01*
X001288Y017970D01*
X001538Y018220D01*
X002038Y018220D01*
X002288Y017970D01*
X002288Y017470D01*
X001288Y017470D02*
X001288Y017970D01*
X001389Y002997D02*
X001439Y002997D01*
X001389Y002997D02*
X001389Y002797D01*
X001439Y002797D01*
X001533Y002240D02*
X002033Y002240D01*
X002283Y001990D01*
X002283Y001490D01*
X002033Y001240D01*
X001533Y001240D01*
X001283Y001490D01*
X001033Y001240D01*
X000533Y001240D01*
X000283Y001490D01*
X000283Y001990D01*
X000533Y002240D01*
X001033Y002240D01*
X001283Y001990D01*
X001533Y002240D01*
X001283Y001990D02*
X001283Y001490D01*
X002339Y002797D02*
X002389Y002797D01*
X002389Y002997D01*
X002339Y002997D01*
X014288Y001985D02*
X014288Y001485D01*
X014538Y001235D01*
X015038Y001235D01*
X015288Y001485D01*
X015538Y001235D01*
X016038Y001235D01*
X016288Y001485D01*
X016288Y001985D01*
X016038Y002235D01*
X015538Y002235D01*
X015288Y001985D01*
X015288Y001485D01*
X015288Y001985D02*
X015038Y002235D01*
X014538Y002235D01*
X014288Y001985D01*
M02*
