G75*
%MOIN*%
%OFA0B0*%
%FSLAX24Y24*%
%IPPOS*%
%LPD*%
%AMOC8*
5,1,8,0,0,1.08239X$1,22.5*
%
%ADD10R,0.0312X0.0004*%
%ADD11R,0.0344X0.0004*%
%ADD12R,0.0368X0.0004*%
%ADD13R,0.0392X0.0004*%
%ADD14R,0.0408X0.0004*%
%ADD15R,0.0424X0.0004*%
%ADD16R,0.0432X0.0004*%
%ADD17R,0.0448X0.0004*%
%ADD18R,0.0456X0.0004*%
%ADD19R,0.0472X0.0004*%
%ADD20R,0.0480X0.0004*%
%ADD21R,0.0488X0.0004*%
%ADD22R,0.0496X0.0004*%
%ADD23R,0.0504X0.0004*%
%ADD24R,0.0512X0.0004*%
%ADD25R,0.0520X0.0004*%
%ADD26R,0.0528X0.0004*%
%ADD27R,0.0536X0.0004*%
%ADD28R,0.0536X0.0004*%
%ADD29R,0.0544X0.0004*%
%ADD30R,0.0552X0.0004*%
%ADD31R,0.0560X0.0004*%
%ADD32R,0.0560X0.0004*%
%ADD33R,0.0568X0.0004*%
%ADD34R,0.0576X0.0004*%
%ADD35R,0.0584X0.0004*%
%ADD36R,0.0592X0.0004*%
%ADD37R,0.0592X0.0004*%
%ADD38R,0.0600X0.0004*%
%ADD39R,0.0608X0.0004*%
%ADD40R,0.0608X0.0004*%
%ADD41R,0.0616X0.0004*%
%ADD42R,0.0624X0.0004*%
%ADD43R,0.0632X0.0004*%
%ADD44R,0.0632X0.0004*%
%ADD45R,0.0640X0.0004*%
%ADD46R,0.0648X0.0004*%
%ADD47R,0.0648X0.0004*%
%ADD48R,0.0656X0.0004*%
%ADD49R,0.0664X0.0004*%
%ADD50R,0.0664X0.0004*%
%ADD51R,0.0672X0.0004*%
%ADD52R,0.0680X0.0004*%
%ADD53R,0.0680X0.0004*%
%ADD54R,0.0688X0.0004*%
%ADD55R,0.0696X0.0004*%
%ADD56R,0.0700X0.0004*%
%ADD57R,0.0708X0.0004*%
%ADD58R,0.0716X0.0004*%
%ADD59R,0.0720X0.0004*%
%ADD60R,0.0720X0.0004*%
%ADD61R,0.0724X0.0004*%
%ADD62R,0.0808X0.0004*%
%ADD63R,0.0824X0.0004*%
%ADD64R,0.0832X0.0004*%
%ADD65R,0.0840X0.0004*%
%ADD66R,0.0848X0.0004*%
%ADD67R,0.0856X0.0004*%
%ADD68R,0.0860X0.0004*%
%ADD69R,0.0864X0.0004*%
%ADD70R,0.0864X0.0004*%
%ADD71R,0.0868X0.0004*%
%ADD72R,0.0872X0.0004*%
%ADD73R,0.0872X0.0004*%
%ADD74R,0.0860X0.0004*%
%ADD75R,0.0832X0.0004*%
%ADD76R,0.0824X0.0004*%
%ADD77R,0.0708X0.0004*%
%ADD78R,0.0712X0.0004*%
%ADD79R,0.0712X0.0004*%
%ADD80R,0.0700X0.0004*%
%ADD81R,0.0696X0.0004*%
%ADD82R,0.0692X0.0004*%
%ADD83R,0.0668X0.0004*%
%ADD84R,0.0660X0.0004*%
%ADD85R,0.0452X0.0004*%
%ADD86R,0.0188X0.0004*%
%ADD87R,0.0448X0.0004*%
%ADD88R,0.0440X0.0004*%
%ADD89R,0.0184X0.0004*%
%ADD90R,0.0432X0.0004*%
%ADD91R,0.0184X0.0004*%
%ADD92R,0.0424X0.0004*%
%ADD93R,0.0412X0.0004*%
%ADD94R,0.0128X0.0004*%
%ADD95R,0.0044X0.0004*%
%ADD96R,0.0400X0.0004*%
%ADD97R,0.0008X0.0004*%
%ADD98R,0.0388X0.0004*%
%ADD99R,0.0132X0.0004*%
%ADD100R,0.0360X0.0004*%
%ADD101R,0.0136X0.0004*%
%ADD102R,0.0340X0.0004*%
%ADD103R,0.0140X0.0004*%
%ADD104R,0.0328X0.0004*%
%ADD105R,0.0144X0.0004*%
%ADD106R,0.0324X0.0004*%
%ADD107R,0.0148X0.0004*%
%ADD108R,0.0320X0.0004*%
%ADD109R,0.0156X0.0004*%
%ADD110R,0.0316X0.0004*%
%ADD111R,0.0176X0.0004*%
%ADD112R,0.0080X0.0004*%
%ADD113R,0.0052X0.0004*%
%ADD114R,0.0380X0.0004*%
%ADD115R,0.0372X0.0004*%
%ADD116R,0.0356X0.0004*%
%ADD117R,0.0004X0.0004*%
%ADD118R,0.0308X0.0004*%
%ADD119R,0.0060X0.0004*%
%ADD120R,0.0240X0.0004*%
%ADD121R,0.0232X0.0004*%
%ADD122R,0.0044X0.0004*%
%ADD123R,0.0164X0.0004*%
%ADD124R,0.0056X0.0004*%
%ADD125R,0.0036X0.0004*%
%ADD126R,0.0156X0.0004*%
%ADD127R,0.0048X0.0004*%
%ADD128R,0.0024X0.0004*%
%ADD129R,0.0036X0.0004*%
%ADD130R,0.0016X0.0004*%
%ADD131R,0.0028X0.0004*%
%ADD132R,0.0012X0.0004*%
%ADD133R,0.0124X0.0004*%
%ADD134R,0.0108X0.0004*%
%ADD135R,0.0008X0.0004*%
%ADD136R,0.0092X0.0004*%
%ADD137R,0.0068X0.0004*%
%ADD138R,0.0008X0.0004*%
%ADD139R,0.0016X0.0004*%
%ADD140R,0.0024X0.0004*%
%ADD141R,0.0032X0.0004*%
%ADD142R,0.0032X0.0004*%
%ADD143R,0.0040X0.0004*%
%ADD144R,0.0056X0.0004*%
%ADD145R,0.0064X0.0004*%
%ADD146R,0.0072X0.0004*%
%ADD147R,0.0088X0.0004*%
%ADD148R,0.0096X0.0004*%
%ADD149R,0.0104X0.0004*%
%ADD150R,0.0112X0.0004*%
%ADD151R,0.0120X0.0004*%
%ADD152R,0.0124X0.0004*%
%ADD153R,0.0128X0.0004*%
%ADD154R,0.0144X0.0004*%
%ADD155R,0.0152X0.0004*%
%ADD156R,0.0152X0.0004*%
%ADD157R,0.0160X0.0004*%
%ADD158R,0.0168X0.0004*%
%ADD159R,0.0176X0.0004*%
%ADD160R,0.0184X0.0004*%
%ADD161R,0.0192X0.0004*%
%ADD162R,0.0200X0.0004*%
%ADD163R,0.0208X0.0004*%
%ADD164R,0.0216X0.0004*%
%ADD165R,0.0216X0.0004*%
%ADD166R,0.0224X0.0004*%
%ADD167R,0.0232X0.0004*%
%ADD168R,0.0240X0.0004*%
%ADD169R,0.0248X0.0004*%
%ADD170R,0.0256X0.0004*%
%ADD171R,0.0264X0.0004*%
%ADD172R,0.0272X0.0004*%
%ADD173R,0.0280X0.0004*%
%ADD174R,0.0288X0.0004*%
%ADD175R,0.0296X0.0004*%
%ADD176R,0.0304X0.0004*%
%ADD177R,0.0320X0.0004*%
%ADD178R,0.0328X0.0004*%
%ADD179R,0.0336X0.0004*%
%ADD180R,0.0336X0.0004*%
%ADD181R,0.0200X0.0004*%
%ADD182R,0.0128X0.0004*%
%ADD183R,0.0204X0.0004*%
%ADD184R,0.0216X0.0004*%
%ADD185R,0.0228X0.0004*%
%ADD186R,0.0416X0.0004*%
%ADD187R,0.0424X0.0004*%
%ADD188R,0.0428X0.0004*%
%ADD189R,0.0304X0.0004*%
%ADD190R,0.0180X0.0004*%
%ADD191R,0.0112X0.0004*%
%ADD192R,0.0176X0.0004*%
%ADD193R,0.0112X0.0004*%
%ADD194R,0.0132X0.0004*%
%ADD195R,0.0116X0.0004*%
%ADD196R,0.0332X0.0004*%
%ADD197R,0.0336X0.0004*%
%ADD198R,0.0480X0.0004*%
%ADD199R,0.0496X0.0004*%
%ADD200R,0.0512X0.0004*%
%ADD201R,0.0544X0.0004*%
%ADD202R,0.0208X0.0004*%
%ADD203R,0.0356X0.0004*%
%ADD204R,0.0208X0.0004*%
%ADD205R,0.0364X0.0004*%
%ADD206R,0.0212X0.0004*%
%ADD207R,0.0368X0.0004*%
%ADD208R,0.0220X0.0004*%
%ADD209R,0.0600X0.0004*%
%ADD210R,0.0356X0.0004*%
%ADD211R,0.0228X0.0004*%
%ADD212R,0.0236X0.0004*%
%ADD213R,0.0360X0.0004*%
%ADD214R,0.0368X0.0004*%
%ADD215R,0.0244X0.0004*%
%ADD216R,0.0252X0.0004*%
%ADD217R,0.0376X0.0004*%
%ADD218R,0.0672X0.0004*%
%ADD219R,0.0624X0.0004*%
%ADD220R,0.0596X0.0004*%
%ADD221R,0.0552X0.0004*%
%ADD222R,0.0456X0.0004*%
%ADD223R,0.0384X0.0004*%
%ADD224R,0.0352X0.0004*%
%ADD225R,0.0188X0.0004*%
%ADD226R,0.0108X0.0004*%
%ADD227R,0.0433X0.0787*%
%ADD228R,0.0512X0.0591*%
%ADD229C,0.0600*%
%ADD230OC8,0.0850*%
%ADD231C,0.0160*%
%ADD232C,0.0356*%
%ADD233C,0.0100*%
%ADD234C,0.0120*%
D10*
X015088Y018382D03*
X015092Y018894D03*
X015088Y019194D03*
X015088Y019198D03*
D11*
X015088Y018386D03*
D12*
X015088Y018390D03*
D13*
X015088Y018394D03*
X015064Y018878D03*
D14*
X015088Y019258D03*
X015088Y019262D03*
X015088Y019518D03*
X015088Y018398D03*
D15*
X015088Y018402D03*
D16*
X015088Y018406D03*
X015088Y019278D03*
X015088Y019514D03*
D17*
X015088Y018410D03*
D18*
X015088Y018414D03*
D19*
X015088Y018418D03*
D20*
X015088Y018422D03*
X015088Y019506D03*
D21*
X015088Y019314D03*
X015088Y018426D03*
D22*
X015088Y018430D03*
D23*
X015088Y018434D03*
X015088Y019326D03*
D24*
X015088Y019498D03*
X015088Y018438D03*
D25*
X015088Y018442D03*
X015088Y019334D03*
X015088Y019338D03*
D26*
X015088Y019342D03*
X015088Y018446D03*
D27*
X015088Y018450D03*
D28*
X015088Y018454D03*
X015088Y019346D03*
X015088Y019494D03*
D29*
X015088Y019354D03*
X015088Y018458D03*
D30*
X015088Y018462D03*
X015088Y019358D03*
D31*
X015088Y019362D03*
X015088Y018466D03*
D32*
X015088Y018470D03*
D33*
X015088Y018474D03*
X015088Y019366D03*
X015088Y019486D03*
D34*
X015088Y018482D03*
X015088Y018478D03*
D35*
X015088Y018486D03*
X015088Y019482D03*
D36*
X015088Y018490D03*
D37*
X015088Y018494D03*
D38*
X015088Y018498D03*
X015088Y018502D03*
D39*
X015088Y018506D03*
X015088Y019474D03*
D40*
X015088Y018510D03*
D41*
X015088Y018514D03*
X015088Y018518D03*
D42*
X015088Y018522D03*
X015088Y018526D03*
D43*
X015088Y018530D03*
D44*
X015088Y018534D03*
X015088Y019466D03*
D45*
X015088Y018542D03*
X015088Y018538D03*
D46*
X015088Y018546D03*
X015088Y018554D03*
X015088Y019462D03*
D47*
X015088Y018550D03*
D48*
X015088Y018558D03*
X015088Y018562D03*
X015088Y019426D03*
X015088Y019458D03*
D49*
X015088Y019454D03*
X015088Y019434D03*
X015088Y018566D03*
D50*
X015088Y018570D03*
X015088Y019430D03*
D51*
X015088Y019438D03*
X015092Y018806D03*
X015088Y018582D03*
X015088Y018578D03*
X015088Y018574D03*
D52*
X015088Y018586D03*
X015088Y018802D03*
X015088Y019442D03*
X015088Y019446D03*
D53*
X015088Y018590D03*
D54*
X015088Y018594D03*
X015088Y018598D03*
X015088Y018798D03*
D55*
X015088Y018606D03*
X015088Y018602D03*
D56*
X015090Y018610D03*
D57*
X015090Y018614D03*
X015090Y018618D03*
D58*
X015090Y018622D03*
X015090Y018626D03*
D59*
X015088Y018630D03*
D60*
X015088Y018634D03*
D61*
X015086Y018638D03*
D62*
X015088Y018642D03*
X015088Y018734D03*
D63*
X015088Y018646D03*
D64*
X015088Y018650D03*
D65*
X015088Y018654D03*
X015088Y018722D03*
D66*
X015088Y018718D03*
X015088Y018658D03*
D67*
X015088Y018662D03*
X015088Y018714D03*
D68*
X015086Y018666D03*
D69*
X015088Y018670D03*
D70*
X015088Y018674D03*
X015088Y018702D03*
X015088Y018706D03*
D71*
X015086Y018698D03*
X015086Y018682D03*
X015086Y018678D03*
D72*
X015088Y018686D03*
X015088Y018694D03*
D73*
X015088Y018690D03*
D74*
X015086Y018710D03*
D75*
X015088Y018726D03*
D76*
X015088Y018730D03*
D77*
X015078Y018766D03*
X015082Y018778D03*
D78*
X015080Y018770D03*
D79*
X015080Y018774D03*
D80*
X015082Y018782D03*
X015082Y018786D03*
D81*
X015084Y018790D03*
D82*
X015086Y018794D03*
D83*
X015094Y018810D03*
D84*
X015094Y018814D03*
X015094Y018818D03*
D85*
X015194Y018822D03*
D86*
X014862Y018838D03*
X014858Y018826D03*
X014858Y018822D03*
D87*
X015196Y018826D03*
D88*
X015196Y018830D03*
D89*
X014860Y018830D03*
D90*
X015196Y018834D03*
D91*
X014860Y018834D03*
D92*
X015200Y018838D03*
D93*
X015202Y018842D03*
D94*
X014900Y018846D03*
X014896Y018842D03*
X014980Y019218D03*
X014976Y019222D03*
D95*
X014790Y018842D03*
D96*
X015204Y018846D03*
X015088Y019254D03*
D97*
X015088Y018994D03*
X014772Y018846D03*
D98*
X015206Y018850D03*
D99*
X014906Y018850D03*
X015250Y019290D03*
D100*
X015200Y019378D03*
X015216Y018854D03*
D101*
X015088Y018922D03*
X015088Y019078D03*
X014968Y019238D03*
X014908Y018854D03*
D102*
X015222Y018858D03*
D103*
X014914Y018858D03*
X014966Y019242D03*
D104*
X015156Y019298D03*
X015220Y018862D03*
D105*
X014920Y018862D03*
D106*
X015218Y018866D03*
D107*
X015090Y018918D03*
X014926Y018866D03*
D108*
X015212Y018870D03*
X015088Y019530D03*
D109*
X014970Y019250D03*
X014934Y018870D03*
D110*
X015206Y018874D03*
D111*
X014952Y018874D03*
D112*
X015088Y019038D03*
X015088Y019042D03*
X015316Y018878D03*
D113*
X015314Y018882D03*
X015214Y018906D03*
D114*
X015066Y018882D03*
D115*
X015070Y018886D03*
D116*
X015074Y018890D03*
X015194Y019370D03*
D117*
X014922Y018894D03*
D118*
X015094Y018898D03*
D119*
X015214Y018902D03*
D120*
X015060Y018902D03*
X015088Y019146D03*
X015288Y019414D03*
X015088Y019538D03*
D121*
X015276Y019394D03*
X015280Y019398D03*
X015060Y018906D03*
D122*
X015218Y018910D03*
D123*
X015090Y018910D03*
D124*
X014976Y018910D03*
D125*
X015218Y018914D03*
D126*
X015090Y018914D03*
D127*
X015088Y019018D03*
X014972Y018914D03*
D128*
X015220Y018918D03*
D129*
X015090Y018942D03*
X014970Y018918D03*
D130*
X014964Y018926D03*
X015220Y018922D03*
D131*
X014966Y018922D03*
D132*
X015222Y018926D03*
D133*
X015090Y018926D03*
X015246Y019282D03*
X014914Y019306D03*
D134*
X015090Y018930D03*
D135*
X014960Y018930D03*
D136*
X015090Y018934D03*
D137*
X015090Y018938D03*
D138*
X015088Y018990D03*
D139*
X015088Y018998D03*
D140*
X015088Y019002D03*
D141*
X015088Y019006D03*
D142*
X015088Y019010D03*
D143*
X015088Y019014D03*
D144*
X015088Y019022D03*
X015088Y019026D03*
D145*
X015088Y019030D03*
D146*
X015088Y019034D03*
D147*
X015088Y019046D03*
D148*
X015088Y019050D03*
D149*
X015088Y019054D03*
X015088Y019058D03*
D150*
X015088Y019062D03*
D151*
X015088Y019066D03*
X014912Y019302D03*
D152*
X015090Y019070D03*
D153*
X015088Y019074D03*
X014972Y019226D03*
X014968Y019234D03*
X015248Y019286D03*
D154*
X015088Y019082D03*
X014968Y019246D03*
D155*
X015088Y019086D03*
D156*
X015088Y019090D03*
D157*
X015088Y019094D03*
D158*
X015088Y019098D03*
X015088Y019102D03*
D159*
X015088Y019106D03*
D160*
X015088Y019110D03*
D161*
X015088Y019114D03*
X015088Y019118D03*
D162*
X015088Y019122D03*
X015160Y019218D03*
X015164Y019222D03*
X015168Y019226D03*
D163*
X015172Y019238D03*
X015088Y019126D03*
D164*
X015088Y019130D03*
D165*
X015088Y019134D03*
D166*
X015088Y019138D03*
D167*
X015088Y019142D03*
X015284Y019406D03*
D168*
X015088Y019150D03*
D169*
X015088Y019154D03*
D170*
X015088Y019158D03*
D171*
X015088Y019162D03*
X015088Y019166D03*
D172*
X015088Y019170D03*
D173*
X015088Y019174D03*
X015088Y019534D03*
D174*
X015088Y019182D03*
X015088Y019178D03*
D175*
X015088Y019186D03*
D176*
X015088Y019190D03*
D177*
X015088Y019202D03*
D178*
X015088Y019206D03*
D179*
X015088Y019210D03*
D180*
X015088Y019214D03*
D181*
X015168Y019230D03*
D182*
X014972Y019230D03*
D183*
X014902Y019374D03*
X015170Y019234D03*
D184*
X015172Y019242D03*
X015172Y019246D03*
D185*
X015170Y019250D03*
D186*
X015088Y019266D03*
D187*
X015088Y019270D03*
D188*
X015086Y019274D03*
D189*
X015020Y019282D03*
D190*
X015078Y019286D03*
X015082Y019294D03*
D191*
X014920Y019286D03*
X014916Y019294D03*
D192*
X015080Y019290D03*
D193*
X014916Y019290D03*
D194*
X015250Y019294D03*
D195*
X014914Y019298D03*
D196*
X015158Y019302D03*
D197*
X015156Y019306D03*
D198*
X015088Y019310D03*
D199*
X015088Y019318D03*
X015088Y019322D03*
X015088Y019502D03*
D200*
X015088Y019330D03*
D201*
X015088Y019350D03*
D202*
X014908Y019370D03*
D203*
X014958Y019398D03*
X014958Y019402D03*
X015198Y019374D03*
D204*
X014900Y019378D03*
D205*
X015202Y019382D03*
D206*
X014898Y019382D03*
D207*
X015200Y019386D03*
D208*
X014902Y019386D03*
D209*
X015088Y019390D03*
D210*
X014962Y019394D03*
X014954Y019406D03*
D211*
X015282Y019402D03*
D212*
X015286Y019410D03*
D213*
X014952Y019410D03*
D214*
X014952Y019414D03*
X014952Y019418D03*
D215*
X015286Y019418D03*
D216*
X015286Y019422D03*
D217*
X014952Y019422D03*
D218*
X015088Y019450D03*
D219*
X015088Y019470D03*
D220*
X015086Y019478D03*
D221*
X015088Y019490D03*
D222*
X015088Y019510D03*
D223*
X015088Y019522D03*
D224*
X015088Y019526D03*
D225*
X015090Y019542D03*
D226*
X015086Y019546D03*
D227*
X013560Y018428D03*
X013560Y016853D03*
X012221Y016853D03*
X011254Y016853D03*
X011254Y018428D03*
X012221Y018428D03*
X009915Y018428D03*
X008948Y018428D03*
X008948Y016853D03*
X009915Y016853D03*
X009915Y015219D03*
X008948Y015219D03*
X008948Y013645D03*
X009915Y013645D03*
X011254Y013645D03*
X012221Y013645D03*
X012221Y015219D03*
X011254Y015219D03*
X013560Y015219D03*
X014527Y015219D03*
X014527Y013645D03*
X013560Y013645D03*
X013560Y012011D03*
X014527Y012011D03*
X014527Y010436D03*
X013560Y010436D03*
X012221Y010436D03*
X011254Y010436D03*
X011254Y012011D03*
X012221Y012011D03*
X009915Y012011D03*
X008948Y012011D03*
X008948Y010436D03*
X009915Y010436D03*
X009915Y008802D03*
X008948Y008802D03*
X008948Y007227D03*
X009915Y007227D03*
X011254Y007227D03*
X012221Y007227D03*
X012221Y008802D03*
X011254Y008802D03*
X013560Y008802D03*
X014527Y008802D03*
X014527Y007227D03*
X013560Y007227D03*
X013560Y005593D03*
X014527Y005593D03*
X014527Y004019D03*
X013560Y004019D03*
X012221Y004019D03*
X011254Y004019D03*
X011254Y005593D03*
X012221Y005593D03*
X009915Y005593D03*
X008948Y005593D03*
X008948Y004019D03*
X009915Y004019D03*
X009915Y002385D03*
X008948Y002385D03*
X008948Y000810D03*
X009915Y000810D03*
X011254Y000810D03*
X012221Y000810D03*
X012221Y002385D03*
X011254Y002385D03*
X013560Y002385D03*
X013560Y000810D03*
X015865Y004019D03*
X015865Y005593D03*
X015865Y007227D03*
X015865Y008802D03*
X015865Y010436D03*
X015865Y012011D03*
X015865Y013645D03*
X015865Y015219D03*
X007609Y015219D03*
X006641Y015219D03*
X006641Y013645D03*
X007609Y013645D03*
X007609Y012011D03*
X006641Y012011D03*
X006641Y010436D03*
X007609Y010436D03*
X007609Y008802D03*
X006641Y008802D03*
X006641Y007227D03*
X007609Y007227D03*
X007609Y005593D03*
X006641Y005593D03*
X006641Y004019D03*
X007609Y004019D03*
X007609Y002385D03*
X006641Y002385D03*
X006641Y000810D03*
X007609Y000810D03*
X005302Y000810D03*
X004334Y000810D03*
X004334Y002385D03*
X005302Y002385D03*
X005302Y004019D03*
X004334Y004019D03*
X004334Y005593D03*
X005302Y005593D03*
X005302Y007227D03*
X004334Y007227D03*
X004334Y008802D03*
X005302Y008802D03*
X005302Y010436D03*
X004334Y010436D03*
X004334Y012011D03*
X005302Y012011D03*
X005302Y013645D03*
X004334Y013645D03*
X004334Y015219D03*
X005302Y015219D03*
X005302Y016853D03*
X004334Y016853D03*
X004334Y018428D03*
X005302Y018428D03*
X006641Y018428D03*
X007609Y018428D03*
X007609Y016853D03*
X006641Y016853D03*
X002995Y016853D03*
X002995Y018428D03*
X002995Y015219D03*
X002030Y015219D03*
X002030Y013645D03*
X002995Y013645D03*
X002995Y012011D03*
X002030Y012011D03*
X002030Y010436D03*
X002995Y010436D03*
X002995Y008802D03*
X002030Y008802D03*
X002030Y007227D03*
X002995Y007227D03*
X002995Y005593D03*
X002030Y005593D03*
X002030Y004019D03*
X002995Y004019D03*
X002995Y002385D03*
X002995Y000810D03*
X000691Y004019D03*
X000691Y005593D03*
X000691Y007227D03*
X000691Y008802D03*
X000691Y010436D03*
X000691Y012011D03*
X000691Y013645D03*
X000691Y015219D03*
D228*
X000987Y016026D03*
X001735Y016026D03*
X003290Y016026D03*
X004038Y016026D03*
X005597Y016026D03*
X006345Y016026D03*
X007904Y016026D03*
X008652Y016026D03*
X010210Y016026D03*
X010958Y016026D03*
X012516Y016026D03*
X013264Y016026D03*
X014822Y016026D03*
X015570Y016026D03*
X015570Y012818D03*
X014822Y012818D03*
X013264Y012818D03*
X012516Y012818D03*
X010958Y012818D03*
X010210Y012818D03*
X008652Y012818D03*
X007904Y012818D03*
X006345Y012818D03*
X005597Y012818D03*
X004038Y012818D03*
X003290Y012818D03*
X001735Y012818D03*
X000987Y012818D03*
X000987Y009609D03*
X001735Y009609D03*
X003290Y009609D03*
X004038Y009609D03*
X005597Y009609D03*
X006345Y009609D03*
X007904Y009609D03*
X008652Y009609D03*
X010210Y009609D03*
X010958Y009609D03*
X012516Y009609D03*
X013264Y009609D03*
X014822Y009609D03*
X015570Y009609D03*
X015570Y006400D03*
X014822Y006400D03*
X013264Y006400D03*
X012516Y006400D03*
X010958Y006400D03*
X010210Y006400D03*
X008652Y006400D03*
X007904Y006400D03*
X006345Y006400D03*
X005597Y006400D03*
X004038Y006400D03*
X003290Y006400D03*
X001735Y006400D03*
X000987Y006400D03*
X003290Y003192D03*
X004038Y003192D03*
X005597Y003192D03*
X006345Y003192D03*
X007904Y003192D03*
X008652Y003192D03*
X010210Y003192D03*
X010958Y003192D03*
X012516Y003192D03*
X013264Y003192D03*
X013264Y019235D03*
X012516Y019235D03*
X010958Y019235D03*
X010210Y019235D03*
X008652Y019235D03*
X007904Y019235D03*
X006345Y019235D03*
X005597Y019235D03*
X004038Y019235D03*
X003290Y019235D03*
D229*
X001788Y018020D02*
X001788Y017420D01*
X000788Y017420D02*
X000788Y018020D01*
X000783Y002040D02*
X000783Y001440D01*
X001783Y001440D02*
X001783Y002040D01*
X014788Y002035D02*
X014788Y001435D01*
X015788Y001435D02*
X015788Y002035D01*
X015778Y017440D02*
X015778Y018040D01*
X014778Y018040D02*
X014778Y017440D01*
D230*
X001889Y002897D03*
D231*
X000488Y001028D02*
X000488Y000460D01*
X002598Y000460D01*
X002598Y000782D01*
X002967Y000782D01*
X002967Y000838D01*
X002967Y001384D01*
X002755Y001384D01*
X002709Y001371D01*
X002668Y001348D01*
X002634Y001314D01*
X002611Y001273D01*
X002598Y001227D01*
X002598Y000838D01*
X002967Y000838D01*
X003023Y000838D01*
X003023Y001384D01*
X003235Y001384D01*
X003281Y001371D01*
X003322Y001348D01*
X003356Y001314D01*
X003379Y001273D01*
X003391Y001227D01*
X003391Y000838D01*
X003023Y000838D01*
X003023Y000782D01*
X003391Y000782D01*
X003391Y000460D01*
X003854Y000460D01*
X003793Y000485D01*
X003686Y000592D01*
X003629Y000731D01*
X003629Y000881D01*
X003686Y001020D01*
X003793Y001127D01*
X003917Y001178D01*
X003917Y001286D01*
X004034Y001404D01*
X004633Y001404D01*
X004750Y001286D01*
X004750Y000460D01*
X004906Y000460D01*
X004906Y000782D01*
X005274Y000782D01*
X005274Y000838D01*
X004906Y000838D01*
X004906Y001227D01*
X004918Y001273D01*
X004941Y001314D01*
X004975Y001348D01*
X005016Y001371D01*
X005062Y001384D01*
X005274Y001384D01*
X005274Y000838D01*
X005330Y000838D01*
X005330Y001384D01*
X005542Y001384D01*
X005588Y001371D01*
X005629Y001348D01*
X005663Y001314D01*
X005686Y001273D01*
X005699Y001227D01*
X005699Y001175D01*
X005731Y001188D01*
X005881Y001188D01*
X006020Y001130D01*
X006091Y001060D01*
X006224Y001060D01*
X006224Y001286D01*
X006341Y001404D01*
X006940Y001404D01*
X007057Y001286D01*
X007057Y000460D01*
X007213Y000460D01*
X007213Y000782D01*
X007581Y000782D01*
X007581Y000838D01*
X007213Y000838D01*
X007213Y001227D01*
X007225Y001273D01*
X007249Y001314D01*
X007282Y001348D01*
X007323Y001371D01*
X007369Y001384D01*
X007581Y001384D01*
X007581Y000838D01*
X007637Y000838D01*
X007637Y001384D01*
X007849Y001384D01*
X007895Y001371D01*
X007936Y001348D01*
X007970Y001314D01*
X007993Y001273D01*
X008006Y001227D01*
X008006Y001092D01*
X008013Y001099D01*
X008152Y001157D01*
X008302Y001157D01*
X008441Y001099D01*
X008512Y001028D01*
X008531Y001028D01*
X008531Y001286D01*
X008648Y001404D01*
X009247Y001404D01*
X009364Y001286D01*
X009364Y000460D01*
X009519Y000460D01*
X009519Y000782D01*
X009887Y000782D01*
X009887Y000838D01*
X009519Y000838D01*
X009519Y001227D01*
X009531Y001273D01*
X009554Y001314D01*
X009588Y001348D01*
X009629Y001371D01*
X009675Y001384D01*
X009887Y001384D01*
X009887Y000838D01*
X009943Y000838D01*
X009943Y001384D01*
X010155Y001384D01*
X010201Y001371D01*
X010242Y001348D01*
X010276Y001314D01*
X010299Y001273D01*
X010312Y001227D01*
X010312Y001063D01*
X010375Y001127D01*
X010514Y001184D01*
X010665Y001184D01*
X010804Y001127D01*
X010837Y001093D01*
X010837Y001286D01*
X010954Y001404D01*
X011553Y001404D01*
X011670Y001286D01*
X011670Y000460D01*
X011824Y000460D01*
X011824Y000782D01*
X012193Y000782D01*
X012193Y000838D01*
X012193Y001384D01*
X011981Y001384D01*
X011935Y001371D01*
X011894Y001348D01*
X011860Y001314D01*
X011837Y001273D01*
X011824Y001227D01*
X011824Y000838D01*
X012193Y000838D01*
X012249Y000838D01*
X012249Y001384D01*
X012461Y001384D01*
X012507Y001371D01*
X012548Y001348D01*
X012582Y001314D01*
X012605Y001273D01*
X012617Y001227D01*
X012617Y000838D01*
X012249Y000838D01*
X012249Y000782D01*
X012617Y000782D01*
X012617Y000460D01*
X012845Y000460D01*
X012812Y000474D01*
X012706Y000580D01*
X012648Y000719D01*
X012648Y000869D01*
X012706Y001008D01*
X012812Y001115D01*
X012951Y001172D01*
X013102Y001172D01*
X013143Y001155D01*
X013143Y001286D01*
X013260Y001404D01*
X013859Y001404D01*
X013976Y001286D01*
X013976Y000460D01*
X016069Y000460D01*
X016069Y001011D01*
X015887Y000935D01*
X015688Y000935D01*
X015504Y001011D01*
X015364Y001152D01*
X015288Y001336D01*
X015288Y002134D01*
X015364Y002318D01*
X015504Y002459D01*
X015688Y002535D01*
X015887Y002535D01*
X016069Y002459D01*
X016069Y003425D01*
X015566Y003425D01*
X015484Y003507D01*
X015484Y002817D01*
X015441Y002714D01*
X015130Y002403D01*
X015128Y002401D01*
X015211Y002318D01*
X015288Y002134D01*
X015288Y001336D01*
X015211Y001152D01*
X015071Y001011D01*
X014887Y000935D01*
X014688Y000935D01*
X014504Y001011D01*
X014364Y001152D01*
X014288Y001336D01*
X014288Y001707D01*
X014201Y001620D01*
X014122Y001541D01*
X014019Y001498D01*
X009535Y001498D01*
X007173Y001498D01*
X002542Y001498D01*
X002439Y001541D01*
X002328Y001651D01*
X002283Y001697D01*
X002283Y001341D01*
X002206Y001157D01*
X002066Y001016D01*
X001882Y000940D01*
X001683Y000940D01*
X001499Y001016D01*
X001359Y001157D01*
X001283Y001341D01*
X001283Y002139D01*
X001359Y002323D01*
X001468Y002433D01*
X001264Y002638D01*
X001264Y003155D01*
X001630Y003522D01*
X001634Y003522D01*
X001613Y003542D01*
X001613Y004495D01*
X001730Y004612D01*
X002207Y004612D01*
X002207Y005000D01*
X001730Y005000D01*
X001613Y005117D01*
X001613Y005905D01*
X001607Y005905D01*
X001607Y005819D01*
X001569Y005727D01*
X001499Y005657D01*
X001337Y005496D01*
X001245Y005458D01*
X001108Y005458D01*
X001108Y005117D01*
X000991Y005000D01*
X000488Y005000D01*
X000488Y004592D01*
X000663Y004592D01*
X000663Y004047D01*
X000720Y004047D01*
X001088Y004047D01*
X001088Y004436D01*
X001076Y004482D01*
X001052Y004523D01*
X001018Y004556D01*
X000977Y004580D01*
X000931Y004592D01*
X000720Y004592D01*
X000720Y004047D01*
X000720Y003990D01*
X001088Y003990D01*
X001088Y003601D01*
X001076Y003555D01*
X001052Y003514D01*
X001018Y003481D01*
X000977Y003457D01*
X000931Y003445D01*
X000720Y003445D01*
X000720Y003990D01*
X000663Y003990D01*
X000663Y003445D01*
X000488Y003445D01*
X000488Y002452D01*
X000499Y002464D01*
X000683Y002540D01*
X000882Y002540D01*
X001066Y002464D01*
X001206Y002323D01*
X001283Y002139D01*
X001283Y001341D01*
X001206Y001157D01*
X001066Y001016D01*
X000882Y000940D01*
X000683Y000940D01*
X000499Y001016D01*
X000488Y001028D01*
X000488Y000973D02*
X000605Y000973D01*
X000488Y000814D02*
X002967Y000814D01*
X002995Y000810D02*
X002995Y001361D01*
X003113Y001479D01*
X005432Y001479D01*
X005471Y001440D01*
X005302Y001271D01*
X005302Y000810D01*
X005274Y000814D02*
X004750Y000814D01*
X004750Y000656D02*
X004906Y000656D01*
X004906Y000497D02*
X004750Y000497D01*
X004750Y000973D02*
X004906Y000973D01*
X004906Y001131D02*
X004750Y001131D01*
X004747Y001290D02*
X004927Y001290D01*
X005274Y001290D02*
X005330Y001290D01*
X005330Y001131D02*
X005274Y001131D01*
X005274Y000973D02*
X005330Y000973D01*
X005330Y000838D02*
X005428Y000838D01*
X005428Y000782D01*
X005330Y000782D01*
X005330Y000838D01*
X005330Y000814D02*
X005428Y000814D01*
X005330Y000782D02*
X005274Y000782D01*
X005274Y000460D01*
X005330Y000460D01*
X005330Y000782D01*
X005330Y000656D02*
X005274Y000656D01*
X005274Y000497D02*
X005330Y000497D01*
X005949Y000460D02*
X006020Y000489D01*
X006091Y000560D01*
X006224Y000560D01*
X006224Y000460D01*
X005949Y000460D01*
X006028Y000497D02*
X006224Y000497D01*
X006224Y001131D02*
X006019Y001131D01*
X006058Y001208D02*
X005700Y001208D01*
X005700Y001211D01*
X005471Y001440D01*
X005432Y001479D02*
X010373Y001479D01*
X010277Y001384D01*
X010277Y001172D01*
X009915Y000810D01*
X009887Y000814D02*
X009364Y000814D01*
X009364Y000656D02*
X009519Y000656D01*
X009519Y000497D02*
X009364Y000497D01*
X009364Y000973D02*
X009519Y000973D01*
X009519Y001131D02*
X009364Y001131D01*
X009361Y001290D02*
X009540Y001290D01*
X009887Y001290D02*
X009943Y001290D01*
X009943Y001131D02*
X009887Y001131D01*
X009887Y000973D02*
X009943Y000973D01*
X009943Y000838D02*
X010211Y000838D01*
X010211Y000782D01*
X009943Y000782D01*
X009943Y000838D01*
X009943Y000814D02*
X010211Y000814D01*
X009943Y000782D02*
X009943Y000460D01*
X009887Y000460D01*
X009887Y000782D01*
X009943Y000782D01*
X009943Y000656D02*
X009887Y000656D01*
X009887Y000497D02*
X009943Y000497D01*
X010312Y000497D02*
X010364Y000497D01*
X010375Y000485D02*
X010437Y000460D01*
X010312Y000460D01*
X010312Y000549D01*
X010375Y000485D01*
X010742Y000460D02*
X010804Y000485D01*
X010837Y000519D01*
X010837Y000460D01*
X010742Y000460D01*
X010815Y000497D02*
X010837Y000497D01*
X010837Y001131D02*
X010793Y001131D01*
X010840Y001290D02*
X010290Y001290D01*
X010312Y001131D02*
X010386Y001131D01*
X010373Y001479D02*
X012806Y001479D01*
X013054Y001231D01*
X012834Y001452D01*
X010814Y001452D01*
X010837Y002058D02*
X010332Y002058D01*
X010332Y002135D01*
X010391Y002135D01*
X010483Y002173D01*
X010727Y002417D01*
X010797Y002487D01*
X010836Y002579D01*
X010836Y002697D01*
X010837Y002697D01*
X010837Y002058D01*
X010837Y002082D02*
X010332Y002082D01*
X010551Y002241D02*
X010837Y002241D01*
X010837Y002399D02*
X010709Y002399D01*
X010827Y002558D02*
X010837Y002558D01*
X011254Y002385D02*
X011254Y002957D01*
X011026Y003184D01*
X011735Y003184D01*
X011739Y003180D01*
X011739Y006416D01*
X011723Y006400D01*
X010958Y006400D01*
X011254Y006105D01*
X011254Y005593D01*
X010837Y005569D02*
X010671Y005569D01*
X010723Y005622D02*
X010483Y005381D01*
X010391Y005343D01*
X010332Y005343D01*
X010332Y005117D01*
X010214Y005000D01*
X009724Y005000D01*
X009724Y004592D01*
X009887Y004592D01*
X009887Y004047D01*
X009943Y004047D01*
X009943Y004592D01*
X010155Y004592D01*
X010201Y004580D01*
X010242Y004556D01*
X010276Y004523D01*
X010299Y004482D01*
X010312Y004436D01*
X010312Y004047D01*
X009943Y004047D01*
X009943Y003990D01*
X009943Y003667D01*
X009931Y003667D01*
X009887Y003655D01*
X009887Y003990D01*
X009943Y003990D01*
X010312Y003990D01*
X010312Y003667D01*
X010336Y003667D01*
X010336Y003934D01*
X010374Y004026D01*
X010480Y004133D01*
X010550Y004203D01*
X010642Y004241D01*
X010837Y004241D01*
X010837Y004495D01*
X010954Y004612D01*
X011451Y004612D01*
X011451Y005000D01*
X010954Y005000D01*
X010837Y005117D01*
X010837Y005905D01*
X010832Y005905D01*
X010832Y005784D01*
X010794Y005692D01*
X010723Y005622D01*
X010808Y005728D02*
X010837Y005728D01*
X010832Y005886D02*
X010837Y005886D01*
X010837Y005411D02*
X010512Y005411D01*
X010332Y005252D02*
X010837Y005252D01*
X010860Y005094D02*
X010308Y005094D01*
X009936Y004790D02*
X009915Y004769D01*
X009915Y004019D01*
X009915Y003487D01*
X010210Y003192D01*
X010162Y003192D02*
X009724Y003192D01*
X009774Y003240D02*
X010162Y003240D01*
X010162Y003144D01*
X009774Y003144D01*
X009774Y002978D01*
X009724Y002978D01*
X009724Y003445D01*
X009774Y003445D01*
X009774Y003240D01*
X009774Y003350D02*
X009724Y003350D01*
X009724Y003033D02*
X009774Y003033D01*
X009436Y003215D02*
X008660Y003215D01*
X008948Y002928D01*
X008948Y002385D01*
X008948Y002897D01*
X008652Y003192D01*
X008531Y002553D02*
X008531Y002058D01*
X008026Y002058D01*
X008026Y002135D01*
X008112Y002135D01*
X008204Y002173D01*
X008494Y002464D01*
X008531Y002553D01*
X008531Y002399D02*
X008430Y002399D01*
X008531Y002241D02*
X008271Y002241D01*
X008026Y002082D02*
X008531Y002082D01*
X008026Y002702D02*
X008026Y002717D01*
X008032Y002717D01*
X008032Y002709D01*
X008026Y002702D01*
X008026Y002716D02*
X008032Y002716D01*
X007856Y003144D02*
X007469Y003144D01*
X007469Y002978D01*
X007413Y002978D01*
X007413Y003445D01*
X007469Y003445D01*
X007469Y003240D01*
X007856Y003240D01*
X007856Y003144D01*
X007856Y003192D02*
X007413Y003192D01*
X007413Y003350D02*
X007469Y003350D01*
X007609Y003487D02*
X007609Y004019D01*
X007609Y004692D01*
X007581Y004592D02*
X007413Y004592D01*
X007413Y005000D01*
X007909Y005000D01*
X008026Y005117D01*
X008026Y005343D01*
X008186Y005343D01*
X008278Y005381D01*
X008420Y005523D01*
X008490Y005594D01*
X008528Y005685D01*
X008528Y005905D01*
X008531Y005905D01*
X008531Y005117D01*
X008648Y005000D01*
X009156Y005000D01*
X009156Y004612D01*
X008648Y004612D01*
X008531Y004495D01*
X008531Y004261D01*
X008414Y004261D01*
X008322Y004223D01*
X008141Y004042D01*
X008070Y003971D01*
X008032Y003879D01*
X008032Y003667D01*
X008006Y003667D01*
X008006Y003990D01*
X007637Y003990D01*
X007637Y003667D01*
X007625Y003667D01*
X007581Y003655D01*
X007581Y003990D01*
X007637Y003990D01*
X007637Y004047D01*
X007581Y004047D01*
X007581Y004592D01*
X007637Y004592D02*
X007637Y004047D01*
X008006Y004047D01*
X008006Y004436D01*
X007993Y004482D01*
X007970Y004523D01*
X007936Y004556D01*
X007895Y004580D01*
X007849Y004592D01*
X007637Y004592D01*
X007637Y004460D02*
X007581Y004460D01*
X007581Y004301D02*
X007637Y004301D01*
X007637Y004143D02*
X007581Y004143D01*
X007581Y004047D02*
X007413Y004047D01*
X007413Y003990D01*
X007581Y003990D01*
X007581Y004047D01*
X007581Y003984D02*
X007637Y003984D01*
X007637Y003826D02*
X007581Y003826D01*
X007581Y003667D02*
X007625Y003667D01*
X007609Y003487D02*
X007904Y003192D01*
X007469Y003033D02*
X007413Y003033D01*
X007129Y003172D02*
X007117Y003160D01*
X006373Y003160D01*
X006641Y002893D01*
X006641Y002385D01*
X006641Y002897D01*
X006345Y003192D01*
X006224Y002697D02*
X006221Y002697D01*
X006221Y002504D01*
X006183Y002412D01*
X006113Y002342D01*
X005944Y002173D01*
X005852Y002135D01*
X005719Y002135D01*
X005719Y002058D01*
X006224Y002058D01*
X006224Y002697D01*
X006221Y002558D02*
X006224Y002558D01*
X006224Y002399D02*
X006170Y002399D01*
X006224Y002241D02*
X006011Y002241D01*
X006224Y002082D02*
X005719Y002082D01*
X005719Y002655D02*
X005719Y002717D01*
X005721Y002717D01*
X005721Y002658D01*
X005719Y002655D01*
X005719Y002716D02*
X005721Y002716D01*
X005549Y003144D02*
X005161Y003144D01*
X005161Y002978D01*
X005094Y002978D01*
X005094Y003445D01*
X005161Y003445D01*
X005161Y003240D01*
X005549Y003240D01*
X005549Y003144D01*
X005549Y003192D02*
X005094Y003192D01*
X005094Y003350D02*
X005161Y003350D01*
X005302Y003487D02*
X005302Y004019D01*
X005302Y004696D01*
X005353Y004747D01*
X005330Y004592D02*
X005330Y004047D01*
X005274Y004047D01*
X005274Y004592D01*
X005094Y004592D01*
X005094Y005000D01*
X005601Y005000D01*
X005719Y005117D01*
X005719Y005343D01*
X005836Y005343D01*
X005928Y005381D01*
X006113Y005566D01*
X006183Y005637D01*
X006221Y005729D01*
X006221Y005905D01*
X006224Y005905D01*
X006224Y005117D01*
X006341Y005000D01*
X006849Y005000D01*
X006849Y004612D01*
X006341Y004612D01*
X006224Y004495D01*
X006224Y004186D01*
X006036Y004186D01*
X005944Y004148D01*
X005874Y004078D01*
X005759Y003963D01*
X005721Y003871D01*
X005721Y003667D01*
X005699Y003667D01*
X005699Y003990D01*
X005330Y003990D01*
X005330Y003667D01*
X005318Y003667D01*
X005274Y003655D01*
X005274Y003990D01*
X005330Y003990D01*
X005330Y004047D01*
X005699Y004047D01*
X005699Y004436D01*
X005686Y004482D01*
X005663Y004523D01*
X005629Y004556D01*
X005588Y004580D01*
X005542Y004592D01*
X005330Y004592D01*
X005330Y004460D02*
X005274Y004460D01*
X005274Y004301D02*
X005330Y004301D01*
X005330Y004143D02*
X005274Y004143D01*
X005274Y004047D02*
X005094Y004047D01*
X005094Y003990D01*
X005274Y003990D01*
X005274Y004047D01*
X005274Y003984D02*
X005330Y003984D01*
X005330Y003826D02*
X005274Y003826D01*
X005274Y003667D02*
X005317Y003667D01*
X005302Y003487D02*
X005597Y003192D01*
X005161Y003033D02*
X005094Y003033D01*
X004814Y003129D02*
X004814Y001877D01*
X004715Y001778D01*
X002597Y001778D01*
X002487Y001889D01*
X002487Y004904D01*
X002495Y004897D01*
X002487Y004904D02*
X002487Y006369D01*
X002456Y006400D01*
X001739Y006400D01*
X002030Y006110D01*
X002030Y005593D01*
X002030Y006105D01*
X001735Y006400D01*
X001613Y005886D02*
X001607Y005886D01*
X001613Y005728D02*
X001569Y005728D01*
X001613Y005569D02*
X001411Y005569D01*
X001613Y005411D02*
X001108Y005411D01*
X001108Y005252D02*
X001613Y005252D01*
X001637Y005094D02*
X001084Y005094D01*
X001081Y004460D02*
X001613Y004460D01*
X001613Y004301D02*
X001088Y004301D01*
X001088Y004143D02*
X001613Y004143D01*
X001613Y003984D02*
X001088Y003984D01*
X001088Y003826D02*
X001613Y003826D01*
X001613Y003667D02*
X001088Y003667D01*
X001046Y003509D02*
X001617Y003509D01*
X001458Y003350D02*
X000488Y003350D01*
X000488Y003192D02*
X001300Y003192D01*
X001264Y003033D02*
X000488Y003033D01*
X000488Y002875D02*
X001264Y002875D01*
X001264Y002716D02*
X000488Y002716D01*
X000488Y002558D02*
X001344Y002558D01*
X001294Y002542D02*
X001294Y001042D01*
X001507Y000830D01*
X003011Y000830D01*
X003042Y000861D01*
X003164Y000861D01*
X003448Y001145D01*
X003330Y001145D01*
X003391Y001131D02*
X003803Y001131D01*
X003920Y001290D02*
X003370Y001290D01*
X003391Y000973D02*
X003666Y000973D01*
X003629Y000814D02*
X003023Y000814D01*
X003023Y000973D02*
X002967Y000973D01*
X002967Y001131D02*
X003023Y001131D01*
X003023Y001290D02*
X002967Y001290D01*
X002620Y001290D02*
X002261Y001290D01*
X002283Y001448D02*
X014288Y001448D01*
X014288Y001607D02*
X014188Y001607D01*
X013963Y001778D02*
X014082Y001897D01*
X014082Y002334D01*
X014086Y002330D01*
X014082Y002334D02*
X014082Y002373D01*
X013571Y002373D01*
X013560Y002385D01*
X013143Y002399D02*
X013075Y002399D01*
X013105Y002428D02*
X013143Y002520D01*
X013143Y002697D01*
X013143Y002697D01*
X013143Y002058D01*
X012637Y002058D01*
X012637Y002135D01*
X012757Y002135D01*
X012849Y002173D01*
X013034Y002358D01*
X013105Y002428D01*
X013143Y002558D02*
X013143Y002558D01*
X013143Y002241D02*
X012917Y002241D01*
X013143Y002082D02*
X012637Y002082D01*
X012637Y002668D02*
X012637Y002717D01*
X012643Y002717D01*
X012643Y002673D01*
X012637Y002668D01*
X012637Y002716D02*
X012643Y002716D01*
X012468Y003144D02*
X012080Y003144D01*
X012080Y002978D01*
X012011Y002978D01*
X012011Y003105D01*
X012019Y003124D01*
X012019Y003445D01*
X012080Y003445D01*
X012080Y003240D01*
X012468Y003240D01*
X012468Y003144D01*
X012468Y003192D02*
X012019Y003192D01*
X012019Y003350D02*
X012080Y003350D01*
X012221Y003487D02*
X012221Y004019D01*
X012221Y004804D01*
X012219Y004806D01*
X012019Y004777D02*
X013802Y004777D01*
X013802Y004935D02*
X012019Y004935D01*
X012019Y005000D02*
X012520Y005000D01*
X012637Y005117D01*
X012637Y005343D01*
X012714Y005343D01*
X012806Y005381D01*
X013030Y005606D01*
X013101Y005676D01*
X013139Y005768D01*
X013139Y005905D01*
X013143Y005905D01*
X013143Y005117D01*
X013260Y005000D01*
X013802Y005000D01*
X013802Y004612D01*
X013260Y004612D01*
X013143Y004495D01*
X013143Y004241D01*
X012941Y004241D01*
X012849Y004203D01*
X012779Y004133D01*
X012681Y004034D01*
X012643Y003942D01*
X012643Y003667D01*
X012617Y003667D01*
X012617Y003990D01*
X012249Y003990D01*
X012249Y003667D01*
X012237Y003667D01*
X012193Y003655D01*
X012193Y003990D01*
X012249Y003990D01*
X012249Y004047D01*
X012193Y004047D01*
X012193Y004592D01*
X012019Y004592D01*
X012019Y005000D01*
X012019Y004618D02*
X013802Y004618D01*
X014362Y004618D02*
X015176Y004618D01*
X015176Y004583D02*
X015045Y004453D01*
X014966Y004374D01*
X014924Y004271D01*
X014924Y002989D01*
X014777Y002842D01*
X014362Y002842D01*
X014362Y003445D01*
X014499Y003445D01*
X014499Y003990D01*
X014555Y003990D01*
X014555Y003445D01*
X014767Y003445D01*
X014813Y003457D01*
X014854Y003481D01*
X014887Y003514D01*
X014911Y003555D01*
X014923Y003601D01*
X014923Y003990D01*
X014555Y003990D01*
X014555Y004047D01*
X014499Y004047D01*
X014499Y004592D01*
X014362Y004592D01*
X014362Y005000D01*
X014826Y005000D01*
X014943Y005117D01*
X014943Y005343D01*
X015029Y005343D01*
X015121Y005381D01*
X015337Y005598D01*
X015408Y005668D01*
X015446Y005760D01*
X015446Y005905D01*
X015449Y005905D01*
X015449Y005577D01*
X015297Y005425D01*
X015218Y005346D01*
X015176Y005244D01*
X015176Y004583D01*
X015052Y004460D02*
X014917Y004460D01*
X014911Y004482D02*
X014887Y004523D01*
X014854Y004556D01*
X014813Y004580D01*
X014767Y004592D01*
X014555Y004592D01*
X014555Y004047D01*
X014923Y004047D01*
X014923Y004436D01*
X014911Y004482D01*
X015011Y004502D02*
X014527Y004019D01*
X014499Y004047D02*
X014362Y004047D01*
X014362Y003990D01*
X014499Y003990D01*
X014499Y004047D01*
X014499Y003984D02*
X014555Y003984D01*
X014555Y003826D02*
X014499Y003826D01*
X014499Y003667D02*
X014555Y003667D01*
X014555Y003509D02*
X014499Y003509D01*
X014362Y003350D02*
X014924Y003350D01*
X014924Y003192D02*
X014362Y003192D01*
X014362Y003033D02*
X014924Y003033D01*
X014809Y002875D02*
X014362Y002875D01*
X014160Y002562D02*
X014156Y002558D01*
X014160Y002562D02*
X014893Y002562D01*
X015204Y002873D01*
X015204Y004215D01*
X015456Y004467D01*
X015456Y005188D01*
X015861Y005593D01*
X015865Y005593D01*
X015865Y006105D01*
X015570Y006400D01*
X015952Y006400D01*
X015967Y006416D01*
X015449Y006896D02*
X015449Y006950D01*
X015446Y006947D01*
X015446Y006896D01*
X015449Y006896D01*
X015105Y007313D02*
X014923Y007313D01*
X014923Y007256D02*
X014923Y007645D01*
X014911Y007690D01*
X014887Y007731D01*
X014854Y007765D01*
X014813Y007789D01*
X014767Y007801D01*
X014555Y007801D01*
X014555Y007256D01*
X014499Y007256D01*
X014499Y007801D01*
X014362Y007801D01*
X014362Y008208D01*
X014826Y008208D01*
X014943Y008326D01*
X014943Y008552D01*
X015013Y008552D01*
X015105Y008590D01*
X015337Y008822D01*
X015408Y008893D01*
X015446Y008985D01*
X015446Y009114D01*
X015449Y009114D01*
X015449Y008326D01*
X015566Y008208D01*
X016069Y008208D01*
X016069Y007821D01*
X015566Y007821D01*
X015449Y007704D01*
X015449Y007481D01*
X015327Y007481D01*
X015235Y007443D01*
X015165Y007373D01*
X014984Y007192D01*
X014946Y007100D01*
X014946Y006876D01*
X014923Y006876D01*
X014923Y007199D01*
X014555Y007199D01*
X014555Y006876D01*
X014543Y006876D01*
X014499Y006864D01*
X014499Y007199D01*
X014555Y007199D01*
X014555Y007256D01*
X014923Y007256D01*
X014923Y007154D02*
X014968Y007154D01*
X014946Y006996D02*
X014923Y006996D01*
X014774Y006448D02*
X014774Y006353D01*
X014386Y006353D01*
X014386Y006187D01*
X014362Y006187D01*
X014362Y006543D01*
X014362Y006654D01*
X014386Y006654D01*
X014386Y006448D01*
X014774Y006448D01*
X014759Y006400D02*
X014523Y006637D01*
X014523Y007223D01*
X014523Y007668D01*
X014727Y007873D01*
X014814Y007788D02*
X015533Y007788D01*
X015449Y007630D02*
X014923Y007630D01*
X014923Y007471D02*
X015303Y007471D01*
X015511Y008264D02*
X014881Y008264D01*
X014943Y008422D02*
X015449Y008422D01*
X015449Y008581D02*
X015082Y008581D01*
X015254Y008739D02*
X015449Y008739D01*
X015449Y008898D02*
X015410Y008898D01*
X015446Y009056D02*
X015449Y009056D01*
X015570Y009609D02*
X015963Y009609D01*
X015967Y009605D01*
X015449Y010104D02*
X015449Y010162D01*
X015446Y010159D01*
X015446Y010104D01*
X015449Y010104D01*
X015062Y010483D02*
X014923Y010483D01*
X014923Y010464D02*
X014923Y010853D01*
X014911Y010899D01*
X014887Y010940D01*
X014854Y010974D01*
X014813Y010997D01*
X014767Y011010D01*
X014555Y011010D01*
X014555Y010464D01*
X014923Y010464D01*
X014923Y010408D02*
X014555Y010408D01*
X014555Y010464D01*
X014499Y010464D01*
X014499Y011010D01*
X014362Y011010D01*
X014362Y011417D01*
X014826Y011417D01*
X014943Y011534D01*
X014943Y011761D01*
X015060Y011761D01*
X015152Y011799D01*
X015337Y011984D01*
X015408Y012054D01*
X015446Y012146D01*
X015446Y012323D01*
X015449Y012323D01*
X015449Y011534D01*
X015566Y011417D01*
X016069Y011417D01*
X016069Y011030D01*
X015566Y011030D01*
X015449Y010912D01*
X015449Y010674D01*
X015307Y010674D01*
X015216Y010636D01*
X015145Y010566D01*
X014984Y010404D01*
X014946Y010312D01*
X014946Y010084D01*
X014923Y010084D01*
X014923Y010408D01*
X014923Y010324D02*
X014951Y010324D01*
X014946Y010166D02*
X014923Y010166D01*
X014822Y010141D02*
X014527Y010436D01*
X014527Y011003D01*
X014727Y011204D01*
X014870Y010958D02*
X015494Y010958D01*
X015449Y010800D02*
X014923Y010800D01*
X014923Y010641D02*
X015228Y010641D01*
X014822Y010141D02*
X014822Y009609D01*
X014774Y009561D02*
X014386Y009561D01*
X014386Y009396D01*
X014362Y009396D01*
X014362Y009704D01*
X014362Y009862D01*
X014386Y009862D01*
X014386Y009657D01*
X014774Y009657D01*
X014774Y009561D01*
X014386Y009532D02*
X014362Y009532D01*
X014362Y009690D02*
X014386Y009690D01*
X014386Y009849D02*
X014362Y009849D01*
X014499Y010073D02*
X014499Y010408D01*
X014555Y010408D01*
X014555Y010084D01*
X014543Y010084D01*
X014499Y010073D01*
X014499Y010166D02*
X014555Y010166D01*
X014555Y010324D02*
X014499Y010324D01*
X014499Y010408D02*
X014362Y010408D01*
X014362Y010464D01*
X014499Y010464D01*
X014499Y010408D01*
X014499Y010483D02*
X014555Y010483D01*
X014555Y010641D02*
X014499Y010641D01*
X014499Y010800D02*
X014555Y010800D01*
X014555Y010958D02*
X014499Y010958D01*
X014362Y011117D02*
X016069Y011117D01*
X016069Y011275D02*
X014362Y011275D01*
X014843Y011434D02*
X015550Y011434D01*
X015449Y011592D02*
X014943Y011592D01*
X014943Y011751D02*
X015449Y011751D01*
X015449Y011909D02*
X015263Y011909D01*
X015413Y012068D02*
X015449Y012068D01*
X015446Y012226D02*
X015449Y012226D01*
X015865Y012078D02*
X015865Y012011D01*
X015865Y012078D02*
X015967Y012180D01*
X015967Y012421D01*
X015570Y012818D01*
X015617Y012771D01*
X015967Y012771D01*
X015449Y013313D02*
X015449Y013379D01*
X015446Y013379D01*
X015446Y013313D01*
X015449Y013313D01*
X015446Y013336D02*
X015449Y013336D01*
X015098Y013770D02*
X014984Y013656D01*
X014946Y013564D01*
X014946Y013293D01*
X014923Y013293D01*
X014923Y013616D01*
X014555Y013616D01*
X014555Y013673D01*
X014499Y013673D01*
X014499Y014218D01*
X014362Y014218D01*
X014362Y014626D01*
X014826Y014626D01*
X014943Y014743D01*
X014943Y015551D01*
X015102Y015551D01*
X015148Y015563D01*
X015180Y015582D01*
X015231Y015531D01*
X015449Y015531D01*
X015449Y014743D01*
X015566Y014626D01*
X016069Y014626D01*
X016069Y014238D01*
X015566Y014238D01*
X015449Y014121D01*
X015449Y013879D01*
X015260Y013879D01*
X015168Y013841D01*
X015098Y013770D01*
X015139Y013811D02*
X014923Y013811D01*
X014923Y013673D02*
X014923Y014062D01*
X014911Y014108D01*
X014887Y014149D01*
X014854Y014182D01*
X014813Y014206D01*
X014767Y014218D01*
X014555Y014218D01*
X014555Y013673D01*
X014923Y013673D01*
X014982Y013653D02*
X014555Y013653D01*
X014527Y013645D02*
X015117Y014235D01*
X015117Y015558D01*
X014822Y015853D01*
X014822Y016026D01*
X014774Y016030D02*
X014362Y016030D01*
X014386Y016074D02*
X014774Y016074D01*
X014774Y015979D01*
X014386Y015979D01*
X014386Y015813D01*
X014362Y015813D01*
X014362Y017149D01*
X014494Y017016D01*
X014678Y016940D01*
X014877Y016940D01*
X015061Y017016D01*
X015201Y017157D01*
X015278Y017341D01*
X015354Y017157D01*
X015494Y017016D01*
X015678Y016940D01*
X015877Y016940D01*
X016061Y017016D01*
X016069Y017025D01*
X016069Y016265D01*
X016026Y016283D01*
X016026Y016405D01*
X015909Y016522D01*
X015231Y016522D01*
X015180Y016471D01*
X015148Y016489D01*
X015102Y016502D01*
X014870Y016502D01*
X014870Y016074D01*
X014774Y016074D01*
X014774Y016502D01*
X014543Y016502D01*
X014497Y016489D01*
X014456Y016466D01*
X014422Y016432D01*
X014398Y016391D01*
X014386Y016345D01*
X014386Y016074D01*
X014386Y016189D02*
X014362Y016189D01*
X014362Y016347D02*
X014387Y016347D01*
X014362Y016506D02*
X015215Y016506D01*
X014870Y016347D02*
X014774Y016347D01*
X014774Y016189D02*
X014870Y016189D01*
X014870Y015978D02*
X014870Y015769D01*
X014826Y015813D01*
X014774Y015813D01*
X014774Y015978D01*
X014870Y015978D01*
X014870Y015872D02*
X014774Y015872D01*
X015114Y015555D02*
X015208Y015555D01*
X015449Y015396D02*
X014943Y015396D01*
X014943Y015238D02*
X015449Y015238D01*
X015449Y015079D02*
X014943Y015079D01*
X014943Y014921D02*
X015449Y014921D01*
X015449Y014762D02*
X014943Y014762D01*
X014527Y014361D02*
X014523Y014365D01*
X014527Y014361D02*
X014527Y013645D01*
X014822Y013349D01*
X014822Y012818D01*
X014774Y012860D02*
X014362Y012860D01*
X014386Y012866D02*
X014774Y012866D01*
X014774Y012770D01*
X014386Y012770D01*
X014386Y012604D01*
X014362Y012604D01*
X014362Y013071D01*
X014386Y013071D01*
X014386Y012866D01*
X014386Y013019D02*
X014362Y013019D01*
X014362Y012702D02*
X014386Y012702D01*
X014082Y012794D02*
X014058Y012818D01*
X013264Y012818D01*
X013560Y012523D01*
X013560Y012011D01*
X013143Y012068D02*
X013126Y012068D01*
X013143Y012107D02*
X013143Y012323D01*
X013143Y011534D01*
X013260Y011417D01*
X013802Y011417D01*
X013802Y011030D01*
X013260Y011030D01*
X013143Y010912D01*
X013143Y010682D01*
X013004Y010682D01*
X012912Y010644D01*
X012842Y010574D01*
X012673Y010404D01*
X012635Y010312D01*
X012635Y010084D01*
X012617Y010084D01*
X012617Y010408D01*
X012249Y010408D01*
X012249Y010464D01*
X012193Y010464D01*
X012193Y011010D01*
X012019Y011010D01*
X012019Y011417D01*
X012520Y011417D01*
X012637Y011534D01*
X012637Y011761D01*
X012797Y011761D01*
X012889Y011799D01*
X013034Y011944D01*
X013034Y011944D01*
X013105Y012015D01*
X013143Y012107D01*
X013143Y012226D02*
X013143Y012226D01*
X013143Y012323D02*
X013143Y012323D01*
X013143Y011909D02*
X012999Y011909D01*
X013143Y011751D02*
X012637Y011751D01*
X012637Y011592D02*
X013143Y011592D01*
X013244Y011434D02*
X012537Y011434D01*
X012221Y011155D02*
X012219Y011156D01*
X012221Y011155D02*
X012221Y010436D01*
X012221Y009904D01*
X012516Y009609D01*
X012468Y009561D02*
X012080Y009561D01*
X012080Y009396D01*
X012019Y009396D01*
X012019Y009862D01*
X012080Y009862D01*
X012080Y009657D01*
X012468Y009657D01*
X012468Y009561D01*
X012080Y009532D02*
X012019Y009532D01*
X012019Y009690D02*
X012080Y009690D01*
X012080Y009849D02*
X012019Y009849D01*
X012193Y010073D02*
X012193Y010408D01*
X012019Y010408D01*
X012019Y010464D01*
X012193Y010464D01*
X012193Y010408D01*
X012249Y010408D01*
X012249Y010084D01*
X012237Y010084D01*
X012193Y010073D01*
X012193Y010166D02*
X012249Y010166D01*
X012249Y010324D02*
X012193Y010324D01*
X012249Y010464D02*
X012617Y010464D01*
X012617Y010853D01*
X012605Y010899D01*
X012582Y010940D01*
X012548Y010974D01*
X012507Y010997D01*
X012461Y011010D01*
X012249Y011010D01*
X012249Y010464D01*
X012249Y010483D02*
X012193Y010483D01*
X012193Y010641D02*
X012249Y010641D01*
X012249Y010800D02*
X012193Y010800D01*
X012193Y010958D02*
X012249Y010958D01*
X012564Y010958D02*
X013189Y010958D01*
X013143Y010800D02*
X012617Y010800D01*
X012617Y010641D02*
X012910Y010641D01*
X012751Y010483D02*
X012617Y010483D01*
X012617Y010324D02*
X012640Y010324D01*
X012635Y010166D02*
X012617Y010166D01*
X013135Y010159D02*
X013143Y010167D01*
X013143Y010104D01*
X013135Y010104D01*
X013135Y010159D01*
X013141Y010166D02*
X013143Y010166D01*
X013264Y009609D02*
X014042Y009609D01*
X014082Y009649D01*
X014082Y006487D01*
X013351Y006487D01*
X013264Y006400D01*
X013139Y005886D02*
X013143Y005886D01*
X013143Y005728D02*
X013122Y005728D01*
X013143Y005569D02*
X012993Y005569D01*
X013143Y005411D02*
X012835Y005411D01*
X012637Y005252D02*
X013143Y005252D01*
X013166Y005094D02*
X012614Y005094D01*
X012461Y004592D02*
X012249Y004592D01*
X012249Y004047D01*
X012617Y004047D01*
X012617Y004436D01*
X012605Y004482D01*
X012582Y004523D01*
X012548Y004556D01*
X012507Y004580D01*
X012461Y004592D01*
X012611Y004460D02*
X013143Y004460D01*
X013143Y004301D02*
X012617Y004301D01*
X012617Y004143D02*
X012789Y004143D01*
X012660Y003984D02*
X012617Y003984D01*
X012617Y003826D02*
X012643Y003826D01*
X012249Y003826D02*
X012193Y003826D01*
X012193Y003984D02*
X012249Y003984D01*
X012193Y003990D02*
X012193Y004047D01*
X012019Y004047D01*
X012019Y003990D01*
X012193Y003990D01*
X012193Y004143D02*
X012249Y004143D01*
X012249Y004301D02*
X012193Y004301D01*
X012193Y004460D02*
X012249Y004460D01*
X012236Y003667D02*
X012193Y003667D01*
X012221Y003487D02*
X012516Y003192D01*
X012080Y003033D02*
X012011Y003033D01*
X011254Y002897D02*
X011254Y002385D01*
X011254Y002897D02*
X010958Y003192D01*
X010837Y003687D02*
X010837Y003741D01*
X010836Y003741D01*
X010836Y003687D01*
X010837Y003687D01*
X010490Y004143D02*
X010312Y004143D01*
X010312Y004301D02*
X010837Y004301D01*
X010837Y004460D02*
X010305Y004460D01*
X009943Y004460D02*
X009887Y004460D01*
X009887Y004301D02*
X009943Y004301D01*
X009943Y004143D02*
X009887Y004143D01*
X009887Y004047D02*
X009724Y004047D01*
X009724Y003990D01*
X009887Y003990D01*
X009887Y004047D01*
X009887Y003984D02*
X009943Y003984D01*
X009943Y003826D02*
X009887Y003826D01*
X009887Y003667D02*
X009930Y003667D01*
X010312Y003826D02*
X010336Y003826D01*
X010312Y003984D02*
X010356Y003984D01*
X009724Y004618D02*
X011451Y004618D01*
X011451Y004777D02*
X009724Y004777D01*
X009724Y004935D02*
X011451Y004935D01*
X012019Y006187D02*
X012019Y006472D01*
X012019Y006654D01*
X012080Y006654D01*
X012080Y006448D01*
X012468Y006448D01*
X012468Y006353D01*
X012080Y006353D01*
X012080Y006187D01*
X012019Y006187D01*
X012019Y006203D02*
X012080Y006203D01*
X012019Y006362D02*
X012468Y006362D01*
X012516Y006400D02*
X012221Y006696D01*
X012221Y007227D01*
X012221Y008111D01*
X012219Y008113D01*
X012019Y008105D02*
X013802Y008105D01*
X013802Y008208D02*
X013802Y007821D01*
X013260Y007821D01*
X013143Y007704D01*
X013143Y007469D01*
X012977Y007469D01*
X012885Y007431D01*
X012815Y007361D01*
X012677Y007223D01*
X012639Y007131D01*
X012639Y006876D01*
X012617Y006876D01*
X012617Y007199D01*
X012249Y007199D01*
X012249Y006876D01*
X012237Y006876D01*
X012193Y006864D01*
X012193Y007199D01*
X012249Y007199D01*
X012249Y007256D01*
X012193Y007256D01*
X012193Y007801D01*
X012019Y007801D01*
X012019Y008208D01*
X012520Y008208D01*
X012637Y008326D01*
X012637Y008552D01*
X012734Y008552D01*
X012826Y008590D01*
X013026Y008791D01*
X013097Y008861D01*
X013135Y008953D01*
X013135Y009114D01*
X013143Y009114D01*
X013143Y008326D01*
X013260Y008208D01*
X013802Y008208D01*
X013802Y007947D02*
X012019Y007947D01*
X012193Y007788D02*
X012249Y007788D01*
X012249Y007801D02*
X012249Y007256D01*
X012617Y007256D01*
X012617Y007645D01*
X012605Y007690D01*
X012582Y007731D01*
X012548Y007765D01*
X012507Y007789D01*
X012461Y007801D01*
X012249Y007801D01*
X012249Y007630D02*
X012193Y007630D01*
X012193Y007471D02*
X012249Y007471D01*
X012249Y007313D02*
X012193Y007313D01*
X012193Y007256D02*
X012019Y007256D01*
X012019Y007199D01*
X012193Y007199D01*
X012193Y007256D01*
X012193Y007154D02*
X012249Y007154D01*
X012249Y006996D02*
X012193Y006996D01*
X012080Y006520D02*
X012019Y006520D01*
X011739Y006416D02*
X011739Y009578D01*
X011708Y009609D01*
X010958Y009609D01*
X011254Y009314D01*
X011254Y008802D01*
X010837Y008739D02*
X010652Y008739D01*
X010723Y008811D02*
X010723Y008811D01*
X010794Y008881D01*
X010832Y008973D01*
X010832Y009114D01*
X010837Y009114D01*
X010837Y008326D01*
X010954Y008208D01*
X011451Y008208D01*
X011451Y007821D01*
X010954Y007821D01*
X010837Y007704D01*
X010837Y007465D01*
X010717Y007465D01*
X010625Y007427D01*
X010555Y007357D01*
X010370Y007172D01*
X010332Y007080D01*
X010332Y006876D01*
X010312Y006876D01*
X010312Y007199D01*
X009943Y007199D01*
X009943Y006876D01*
X009931Y006876D01*
X009887Y006864D01*
X009887Y007199D01*
X009943Y007199D01*
X009943Y007256D01*
X009887Y007256D01*
X009887Y007801D01*
X009724Y007801D01*
X009724Y008208D01*
X010214Y008208D01*
X010332Y008326D01*
X010332Y008552D01*
X010411Y008552D01*
X010503Y008590D01*
X010723Y008811D01*
X010800Y008898D02*
X010837Y008898D01*
X010832Y009056D02*
X010837Y009056D01*
X010837Y008581D02*
X010480Y008581D01*
X010332Y008422D02*
X010837Y008422D01*
X010899Y008264D02*
X010270Y008264D01*
X009936Y008038D02*
X009915Y008017D01*
X009915Y007227D01*
X009915Y006696D01*
X010210Y006400D01*
X010162Y006362D02*
X009724Y006362D01*
X009774Y006353D02*
X009774Y006187D01*
X009724Y006187D01*
X009724Y006654D01*
X009774Y006654D01*
X009774Y006448D01*
X010162Y006448D01*
X010162Y006353D01*
X009774Y006353D01*
X009774Y006203D02*
X009724Y006203D01*
X009436Y006310D02*
X009345Y006400D01*
X008652Y006400D01*
X008948Y006105D01*
X008948Y005593D01*
X008531Y005569D02*
X008466Y005569D01*
X008420Y005523D02*
X008420Y005523D01*
X008531Y005411D02*
X008307Y005411D01*
X008531Y005252D02*
X008026Y005252D01*
X008002Y005094D02*
X008555Y005094D01*
X008528Y005728D02*
X008531Y005728D01*
X008528Y005886D02*
X008531Y005886D01*
X008028Y005886D02*
X008026Y005886D01*
X008026Y005925D02*
X008028Y005925D01*
X008028Y005843D01*
X008026Y005843D01*
X008026Y005925D01*
X007856Y006353D02*
X007469Y006353D01*
X007469Y006187D01*
X007413Y006187D01*
X007413Y006654D01*
X007469Y006654D01*
X007469Y006448D01*
X007856Y006448D01*
X007856Y006353D01*
X007856Y006362D02*
X007413Y006362D01*
X007413Y006520D02*
X007469Y006520D01*
X007609Y006696D02*
X007609Y007227D01*
X007609Y008007D01*
X007413Y007947D02*
X009156Y007947D01*
X009156Y007821D02*
X008648Y007821D01*
X008531Y007704D01*
X008531Y007477D01*
X008398Y007477D01*
X008306Y007439D01*
X008236Y007369D01*
X008066Y007200D01*
X008028Y007108D01*
X008028Y006876D01*
X008006Y006876D01*
X008006Y007199D01*
X007637Y007199D01*
X007637Y006876D01*
X007625Y006876D01*
X007581Y006864D01*
X007581Y007199D01*
X007637Y007199D01*
X007637Y007256D01*
X007581Y007256D01*
X007581Y007801D01*
X007413Y007801D01*
X007413Y008208D01*
X007909Y008208D01*
X008026Y008326D01*
X008026Y008552D01*
X008151Y008552D01*
X008243Y008590D01*
X008428Y008775D01*
X008498Y008845D01*
X008531Y008925D01*
X008531Y008326D01*
X008648Y008208D01*
X009156Y008208D01*
X009156Y007821D01*
X009156Y008105D02*
X007413Y008105D01*
X007581Y007788D02*
X007637Y007788D01*
X007637Y007801D02*
X007637Y007256D01*
X008006Y007256D01*
X008006Y007645D01*
X007993Y007690D01*
X007970Y007731D01*
X007936Y007765D01*
X007895Y007789D01*
X007849Y007801D01*
X007637Y007801D01*
X007637Y007630D02*
X007581Y007630D01*
X007581Y007471D02*
X007637Y007471D01*
X007637Y007313D02*
X007581Y007313D01*
X007581Y007256D02*
X007413Y007256D01*
X007413Y007199D01*
X007581Y007199D01*
X007581Y007256D01*
X007581Y007154D02*
X007637Y007154D01*
X007637Y006996D02*
X007581Y006996D01*
X007609Y006696D02*
X007904Y006400D01*
X007469Y006203D02*
X007413Y006203D01*
X007129Y006436D02*
X007093Y006400D01*
X006345Y006400D01*
X006641Y006105D01*
X006641Y005593D01*
X006224Y005569D02*
X006115Y005569D01*
X006113Y005566D02*
X006113Y005566D01*
X006224Y005411D02*
X005957Y005411D01*
X005719Y005252D02*
X006224Y005252D01*
X006247Y005094D02*
X005695Y005094D01*
X005692Y004460D02*
X006224Y004460D01*
X006224Y004301D02*
X005699Y004301D01*
X005699Y004143D02*
X005939Y004143D01*
X005780Y003984D02*
X005699Y003984D01*
X005699Y003826D02*
X005721Y003826D01*
X005094Y004618D02*
X006849Y004618D01*
X006849Y004777D02*
X005094Y004777D01*
X005094Y004935D02*
X006849Y004935D01*
X007413Y004935D02*
X009156Y004935D01*
X009156Y004777D02*
X007413Y004777D01*
X007413Y004618D02*
X009156Y004618D01*
X008531Y004460D02*
X007999Y004460D01*
X008006Y004301D02*
X008531Y004301D01*
X008242Y004143D02*
X008006Y004143D01*
X008006Y003984D02*
X008083Y003984D01*
X008032Y003826D02*
X008006Y003826D01*
X007129Y003172D02*
X007129Y006436D01*
X007129Y009660D01*
X007078Y009609D01*
X006345Y009609D01*
X006641Y009314D01*
X006641Y008802D01*
X006224Y008739D02*
X006100Y008739D01*
X006113Y008752D02*
X006183Y008822D01*
X006221Y008914D01*
X006221Y009114D01*
X006224Y009114D01*
X006224Y008326D01*
X006341Y008208D01*
X006849Y008208D01*
X006849Y007821D01*
X006341Y007821D01*
X006224Y007704D01*
X006224Y007473D01*
X006055Y007473D01*
X005964Y007435D01*
X005893Y007365D01*
X005759Y007231D01*
X005721Y007139D01*
X005721Y006876D01*
X005699Y006876D01*
X005699Y007199D01*
X005330Y007199D01*
X005330Y006876D01*
X005318Y006876D01*
X005274Y006864D01*
X005274Y007199D01*
X005330Y007199D01*
X005330Y007256D01*
X005274Y007256D01*
X005274Y007801D01*
X005094Y007801D01*
X005094Y008208D01*
X005601Y008208D01*
X005719Y008326D01*
X005719Y008552D01*
X005860Y008552D01*
X005952Y008590D01*
X006113Y008752D01*
X006215Y008898D02*
X006224Y008898D01*
X006221Y009056D02*
X006224Y009056D01*
X006224Y008581D02*
X005928Y008581D01*
X005719Y008422D02*
X006224Y008422D01*
X006286Y008264D02*
X005657Y008264D01*
X005353Y007971D02*
X005302Y007920D01*
X005302Y007227D01*
X005302Y006696D01*
X005597Y006400D01*
X005549Y006362D02*
X005094Y006362D01*
X005161Y006353D02*
X005161Y006187D01*
X005094Y006187D01*
X005094Y006654D01*
X005161Y006654D01*
X005161Y006448D01*
X005549Y006448D01*
X005549Y006353D01*
X005161Y006353D01*
X005161Y006203D02*
X005094Y006203D01*
X004814Y006349D02*
X004763Y006400D01*
X004038Y006400D01*
X004334Y006105D01*
X004334Y005593D01*
X003917Y005569D02*
X003856Y005569D01*
X003872Y005586D02*
X003910Y005678D01*
X003910Y005905D01*
X003917Y005905D01*
X003917Y005117D01*
X004034Y005000D01*
X004534Y005000D01*
X004534Y004612D01*
X004034Y004612D01*
X003917Y004495D01*
X003917Y004265D01*
X003815Y004265D01*
X003723Y004227D01*
X003653Y004156D01*
X003452Y003955D01*
X003414Y003864D01*
X003414Y003667D01*
X003391Y003667D01*
X003391Y003990D01*
X003023Y003990D01*
X003023Y004047D01*
X002967Y004047D01*
X002967Y004592D01*
X002767Y004592D01*
X002767Y004822D01*
X002775Y004841D01*
X002775Y004952D01*
X002767Y004971D01*
X002767Y005000D01*
X003294Y005000D01*
X003411Y005117D01*
X003411Y005343D01*
X003576Y005343D01*
X003668Y005381D01*
X003802Y005515D01*
X003872Y005586D01*
X003910Y005728D02*
X003917Y005728D01*
X003910Y005886D02*
X003917Y005886D01*
X003917Y005411D02*
X003697Y005411D01*
X003917Y005252D02*
X003411Y005252D01*
X003388Y005094D02*
X003940Y005094D01*
X003917Y004460D02*
X003385Y004460D01*
X003379Y004482D02*
X003356Y004523D01*
X003322Y004556D01*
X003281Y004580D01*
X003235Y004592D01*
X003023Y004592D01*
X003023Y004047D01*
X003391Y004047D01*
X003391Y004436D01*
X003379Y004482D01*
X003391Y004301D02*
X003917Y004301D01*
X003639Y004143D02*
X003391Y004143D01*
X003391Y003984D02*
X003481Y003984D01*
X003414Y003826D02*
X003391Y003826D01*
X002995Y004019D02*
X002995Y003487D01*
X003290Y003192D01*
X003242Y003192D02*
X002767Y003192D01*
X002854Y003240D02*
X003242Y003240D01*
X003242Y003144D01*
X002854Y003144D01*
X002854Y002978D01*
X002767Y002978D01*
X002767Y003445D01*
X002854Y003445D01*
X002854Y003240D01*
X002854Y003350D02*
X002767Y003350D01*
X002767Y003033D02*
X002854Y003033D01*
X003411Y002717D02*
X003411Y002714D01*
X003414Y002717D01*
X003411Y002717D01*
X003411Y002716D02*
X003414Y002716D01*
X003804Y002399D02*
X003917Y002399D01*
X003876Y002471D02*
X003914Y002563D01*
X003914Y002697D01*
X003917Y002697D01*
X003917Y002058D01*
X003411Y002058D01*
X003411Y002135D01*
X003486Y002135D01*
X003578Y002173D01*
X003806Y002401D01*
X003876Y002471D01*
X003912Y002558D02*
X003917Y002558D01*
X003917Y002241D02*
X003645Y002241D01*
X003411Y002082D02*
X003917Y002082D01*
X004334Y002385D02*
X004334Y002897D01*
X004038Y003192D01*
X004751Y003192D01*
X004814Y003129D01*
X004814Y006349D01*
X004814Y009637D01*
X004786Y009609D01*
X004038Y009609D01*
X004334Y009314D01*
X004334Y008802D01*
X003979Y008264D02*
X003350Y008264D01*
X003294Y008208D02*
X003411Y008326D01*
X003411Y008552D01*
X003533Y008552D01*
X003625Y008590D01*
X003806Y008771D01*
X003876Y008842D01*
X003914Y008933D01*
X003914Y009114D01*
X003917Y009114D01*
X003917Y008326D01*
X004034Y008208D01*
X004534Y008208D01*
X004534Y007821D01*
X004034Y007821D01*
X003917Y007704D01*
X003917Y007505D01*
X003780Y007505D01*
X003688Y007467D01*
X003618Y007396D01*
X003448Y007227D01*
X003410Y007135D01*
X003410Y006876D01*
X003391Y006876D01*
X003391Y007199D01*
X003023Y007199D01*
X003023Y007256D01*
X002967Y007256D01*
X002967Y007801D01*
X002767Y007801D01*
X002767Y008208D01*
X003294Y008208D01*
X003026Y007987D02*
X002995Y007956D01*
X002995Y007227D01*
X002995Y006696D01*
X003290Y006400D01*
X003242Y006362D02*
X002767Y006362D01*
X002854Y006353D02*
X002854Y006187D01*
X002767Y006187D01*
X002767Y006654D01*
X002854Y006654D01*
X002854Y006448D01*
X003242Y006448D01*
X003242Y006353D01*
X002854Y006353D01*
X002854Y006203D02*
X002767Y006203D01*
X002487Y006369D02*
X002487Y009550D01*
X002471Y009566D01*
X001767Y009566D01*
X002030Y009303D01*
X002030Y008802D01*
X002030Y009314D01*
X001735Y009609D01*
X001613Y009114D02*
X001613Y008326D01*
X001730Y008208D01*
X002207Y008208D01*
X002207Y007821D01*
X001730Y007821D01*
X001613Y007704D01*
X001613Y007450D01*
X001414Y007450D01*
X001322Y007412D01*
X001252Y007341D01*
X001145Y007235D01*
X001107Y007143D01*
X001107Y006876D01*
X001088Y006876D01*
X001088Y007199D01*
X000720Y007199D01*
X000720Y007256D01*
X000663Y007256D01*
X000663Y007801D01*
X000488Y007801D01*
X000488Y008208D01*
X000991Y008208D01*
X001108Y008326D01*
X001108Y008552D01*
X001190Y008552D01*
X001282Y008590D01*
X001499Y008807D01*
X001569Y008877D01*
X001607Y008969D01*
X001607Y009114D01*
X001613Y009114D01*
X001607Y009056D02*
X001613Y009056D01*
X001613Y008898D02*
X001578Y008898D01*
X001613Y008739D02*
X001431Y008739D01*
X001259Y008581D02*
X001613Y008581D01*
X001613Y008422D02*
X001108Y008422D01*
X001046Y008264D02*
X001675Y008264D01*
X001698Y007788D02*
X000978Y007788D01*
X000977Y007789D02*
X000931Y007801D01*
X000720Y007801D01*
X000720Y007256D01*
X001088Y007256D01*
X001088Y007645D01*
X001076Y007690D01*
X001052Y007731D01*
X001018Y007765D01*
X000977Y007789D01*
X001088Y007630D02*
X001613Y007630D01*
X001613Y007471D02*
X001088Y007471D01*
X001088Y007313D02*
X001223Y007313D01*
X001112Y007154D02*
X001088Y007154D01*
X001088Y006996D02*
X001107Y006996D01*
X000720Y006996D02*
X000663Y006996D01*
X000707Y006876D02*
X000663Y006864D01*
X000663Y007199D01*
X000488Y007199D01*
X000488Y007256D01*
X000663Y007256D01*
X000663Y007199D01*
X000720Y007199D01*
X000720Y006876D01*
X000707Y006876D01*
X000691Y006696D02*
X000987Y006400D01*
X000939Y006362D02*
X000488Y006362D01*
X000551Y006353D02*
X000551Y006187D01*
X000488Y006187D01*
X000488Y006654D01*
X000551Y006654D01*
X000551Y006448D01*
X000939Y006448D01*
X000939Y006353D01*
X000551Y006353D01*
X000551Y006203D02*
X000488Y006203D01*
X000488Y006520D02*
X000551Y006520D01*
X000691Y006696D02*
X000691Y007227D01*
X000691Y007955D01*
X000759Y008023D01*
X000720Y007788D02*
X000663Y007788D01*
X000663Y007630D02*
X000720Y007630D01*
X000720Y007471D02*
X000663Y007471D01*
X000663Y007313D02*
X000720Y007313D01*
X000720Y007154D02*
X000663Y007154D01*
X000488Y007947D02*
X002207Y007947D01*
X002207Y008105D02*
X000488Y008105D01*
X000488Y009396D02*
X000488Y009862D01*
X000551Y009862D01*
X000551Y009657D01*
X000939Y009657D01*
X000939Y009561D01*
X000551Y009561D01*
X000551Y009396D01*
X000488Y009396D01*
X000488Y009532D02*
X000551Y009532D01*
X000551Y009690D02*
X000488Y009690D01*
X000488Y009849D02*
X000551Y009849D01*
X000691Y009904D02*
X000987Y009609D01*
X000691Y009904D02*
X000691Y010436D01*
X000691Y011148D01*
X000759Y011215D01*
X000720Y011010D02*
X000720Y010464D01*
X001088Y010464D01*
X001088Y010853D01*
X001076Y010899D01*
X001052Y010940D01*
X001018Y010974D01*
X000977Y010997D01*
X000931Y011010D01*
X000720Y011010D01*
X000720Y010958D02*
X000663Y010958D01*
X000663Y011010D02*
X000488Y011010D01*
X000488Y011417D01*
X000991Y011417D01*
X001108Y011534D01*
X001108Y011761D01*
X001182Y011761D01*
X001274Y011799D01*
X001503Y012027D01*
X001573Y012097D01*
X001611Y012189D01*
X001611Y012323D01*
X001613Y012323D01*
X001613Y011534D01*
X001730Y011417D01*
X002207Y011417D01*
X002207Y011030D01*
X001730Y011030D01*
X001613Y010912D01*
X001613Y010690D01*
X001571Y010690D01*
X001479Y010652D01*
X001409Y010581D01*
X001145Y010318D01*
X001107Y010226D01*
X001107Y010084D01*
X001088Y010084D01*
X001088Y010408D01*
X000720Y010408D01*
X000720Y010464D01*
X000663Y010464D01*
X000663Y010408D01*
X000488Y010408D01*
X000488Y010464D01*
X000663Y010464D01*
X000663Y011010D01*
X000663Y010800D02*
X000720Y010800D01*
X000720Y010641D02*
X000663Y010641D01*
X000663Y010483D02*
X000720Y010483D01*
X000720Y010408D02*
X000720Y010084D01*
X000707Y010084D01*
X000663Y010073D01*
X000663Y010408D01*
X000720Y010408D01*
X000720Y010324D02*
X000663Y010324D01*
X000663Y010166D02*
X000720Y010166D01*
X001088Y010166D02*
X001107Y010166D01*
X001088Y010324D02*
X001152Y010324D01*
X001088Y010483D02*
X001310Y010483D01*
X001469Y010641D02*
X001088Y010641D01*
X001088Y010800D02*
X001613Y010800D01*
X001659Y010958D02*
X001034Y010958D01*
X001007Y011434D02*
X001714Y011434D01*
X001613Y011592D02*
X001108Y011592D01*
X001108Y011751D02*
X001613Y011751D01*
X001613Y011909D02*
X001385Y011909D01*
X001543Y012068D02*
X001613Y012068D01*
X001611Y012226D02*
X001613Y012226D01*
X002030Y012011D02*
X002030Y012531D01*
X001759Y012802D01*
X002471Y012802D01*
X002487Y012786D01*
X002487Y009550D01*
X002767Y009532D02*
X002854Y009532D01*
X002854Y009561D02*
X002854Y009396D01*
X002767Y009396D01*
X002767Y009862D01*
X002854Y009862D01*
X002854Y009657D01*
X003242Y009657D01*
X003242Y009561D01*
X002854Y009561D01*
X002854Y009690D02*
X002767Y009690D01*
X002767Y009849D02*
X002854Y009849D01*
X002995Y009904D02*
X002995Y010436D01*
X002995Y011180D01*
X003026Y011211D01*
X003023Y011010D02*
X003023Y010464D01*
X002967Y010464D01*
X002967Y011010D01*
X002767Y011010D01*
X002767Y011417D01*
X003294Y011417D01*
X003411Y011534D01*
X003411Y011761D01*
X003517Y011761D01*
X003609Y011799D01*
X003806Y011996D01*
X003876Y012066D01*
X003914Y012158D01*
X003914Y012323D01*
X003917Y012323D01*
X003917Y011534D01*
X004034Y011417D01*
X004534Y011417D01*
X004534Y011030D01*
X004034Y011030D01*
X003917Y010912D01*
X003917Y010682D01*
X003705Y010682D01*
X003613Y010644D01*
X003543Y010574D01*
X003452Y010483D01*
X003414Y010391D01*
X003414Y010084D01*
X003391Y010084D01*
X003391Y010408D01*
X003023Y010408D01*
X003023Y010464D01*
X003391Y010464D01*
X003391Y010853D01*
X003379Y010899D01*
X003356Y010940D01*
X003322Y010974D01*
X003281Y010997D01*
X003235Y011010D01*
X003023Y011010D01*
X003023Y010958D02*
X002967Y010958D01*
X002967Y010800D02*
X003023Y010800D01*
X003023Y010641D02*
X002967Y010641D01*
X002967Y010483D02*
X003023Y010483D01*
X002967Y010464D02*
X002967Y010408D01*
X002767Y010408D01*
X002767Y010464D01*
X002967Y010464D01*
X002967Y010408D02*
X002967Y010073D01*
X003011Y010084D01*
X003023Y010084D01*
X003023Y010408D01*
X002967Y010408D01*
X002967Y010324D02*
X003023Y010324D01*
X003023Y010166D02*
X002967Y010166D01*
X002995Y009904D02*
X003290Y009609D01*
X003411Y009134D02*
X003411Y009084D01*
X003414Y009087D01*
X003414Y009134D01*
X003411Y009134D01*
X003774Y008739D02*
X003917Y008739D01*
X003917Y008581D02*
X003602Y008581D01*
X003411Y008422D02*
X003917Y008422D01*
X003899Y008898D02*
X003917Y008898D01*
X003914Y009056D02*
X003917Y009056D01*
X003917Y010104D02*
X003917Y010182D01*
X003914Y010182D01*
X003914Y010104D01*
X003917Y010104D01*
X003914Y010166D02*
X003917Y010166D01*
X003414Y010166D02*
X003391Y010166D01*
X003391Y010324D02*
X003414Y010324D01*
X003391Y010483D02*
X003452Y010483D01*
X003391Y010641D02*
X003610Y010641D01*
X003391Y010800D02*
X003917Y010800D01*
X003963Y010958D02*
X003338Y010958D01*
X003311Y011434D02*
X004018Y011434D01*
X003917Y011592D02*
X003411Y011592D01*
X003411Y011751D02*
X003917Y011751D01*
X003917Y011909D02*
X003719Y011909D01*
X003877Y012068D02*
X003917Y012068D01*
X003914Y012226D02*
X003917Y012226D01*
X004334Y012011D02*
X004334Y012523D01*
X004038Y012818D01*
X004810Y012818D01*
X004814Y012822D01*
X004814Y009637D01*
X005094Y009690D02*
X005161Y009690D01*
X005161Y009657D02*
X005549Y009657D01*
X005549Y009561D01*
X005161Y009561D01*
X005161Y009396D01*
X005094Y009396D01*
X005094Y009692D01*
X005094Y009862D01*
X005161Y009862D01*
X005161Y009657D01*
X005161Y009532D02*
X005094Y009532D01*
X005094Y009849D02*
X005161Y009849D01*
X005302Y009904D02*
X005302Y010436D01*
X005302Y011086D01*
X005353Y011137D01*
X005330Y011010D02*
X005330Y010464D01*
X005274Y010464D01*
X005274Y011010D01*
X005094Y011010D01*
X005094Y011417D01*
X005601Y011417D01*
X005719Y011534D01*
X005719Y011761D01*
X005852Y011761D01*
X005944Y011799D01*
X006105Y011960D01*
X006175Y012031D01*
X006213Y012122D01*
X006213Y012323D01*
X006224Y012323D01*
X006224Y011534D01*
X006341Y011417D01*
X006849Y011417D01*
X006849Y011030D01*
X006341Y011030D01*
X006224Y010912D01*
X006224Y010682D01*
X006024Y010682D01*
X005932Y010644D01*
X005862Y010574D01*
X005759Y010471D01*
X005721Y010379D01*
X005721Y010084D01*
X005699Y010084D01*
X005699Y010408D01*
X005330Y010408D01*
X005330Y010464D01*
X005699Y010464D01*
X005699Y010853D01*
X005686Y010899D01*
X005663Y010940D01*
X005629Y010974D01*
X005588Y010997D01*
X005542Y011010D01*
X005330Y011010D01*
X005330Y010958D02*
X005274Y010958D01*
X005274Y010800D02*
X005330Y010800D01*
X005330Y010641D02*
X005274Y010641D01*
X005274Y010483D02*
X005330Y010483D01*
X005274Y010464D02*
X005274Y010408D01*
X005094Y010408D01*
X005094Y010464D01*
X005274Y010464D01*
X005274Y010408D02*
X005274Y010073D01*
X005318Y010084D01*
X005330Y010084D01*
X005330Y010408D01*
X005274Y010408D01*
X005274Y010324D02*
X005330Y010324D01*
X005330Y010166D02*
X005274Y010166D01*
X005302Y009904D02*
X005597Y009609D01*
X005719Y009134D02*
X005719Y009064D01*
X005721Y009067D01*
X005721Y009134D01*
X005719Y009134D01*
X005699Y010166D02*
X005721Y010166D01*
X005721Y010324D02*
X005699Y010324D01*
X005699Y010483D02*
X005771Y010483D01*
X005699Y010641D02*
X005929Y010641D01*
X005699Y010800D02*
X006224Y010800D01*
X006270Y010958D02*
X005645Y010958D01*
X005618Y011434D02*
X006325Y011434D01*
X006224Y011592D02*
X005719Y011592D01*
X005719Y011751D02*
X006224Y011751D01*
X006224Y011909D02*
X006054Y011909D01*
X006191Y012068D02*
X006224Y012068D01*
X006213Y012226D02*
X006224Y012226D01*
X006641Y012011D02*
X006641Y012523D01*
X006345Y012818D01*
X007117Y012818D01*
X007129Y012830D01*
X007129Y009660D01*
X007413Y009690D02*
X007469Y009690D01*
X007469Y009657D02*
X007856Y009657D01*
X007856Y009561D01*
X007469Y009561D01*
X007469Y009396D01*
X007413Y009396D01*
X007413Y009862D01*
X007469Y009862D01*
X007469Y009657D01*
X007469Y009532D02*
X007413Y009532D01*
X007413Y009849D02*
X007469Y009849D01*
X007609Y009904D02*
X007609Y010436D01*
X007609Y011211D01*
X007581Y011010D02*
X007413Y011010D01*
X007413Y011417D01*
X007909Y011417D01*
X008026Y011534D01*
X008026Y011761D01*
X008123Y011761D01*
X008215Y011799D01*
X008420Y012003D01*
X008490Y012074D01*
X008528Y012166D01*
X008528Y012323D01*
X008531Y012323D01*
X008531Y011534D01*
X008648Y011417D01*
X009156Y011417D01*
X009156Y011030D01*
X008648Y011030D01*
X008531Y010912D01*
X008531Y010627D01*
X008374Y010627D01*
X008282Y010589D01*
X008212Y010518D01*
X008074Y010381D01*
X008036Y010289D01*
X008036Y010084D01*
X008006Y010084D01*
X008006Y010408D01*
X007637Y010408D01*
X007637Y010084D01*
X007625Y010084D01*
X007581Y010073D01*
X007581Y010408D01*
X007413Y010408D01*
X007413Y010464D01*
X007581Y010464D01*
X007581Y010408D01*
X007637Y010408D01*
X007637Y010464D01*
X007581Y010464D01*
X007581Y011010D01*
X007581Y010958D02*
X007637Y010958D01*
X007637Y011010D02*
X007637Y010464D01*
X008006Y010464D01*
X008006Y010853D01*
X007993Y010899D01*
X007970Y010940D01*
X007936Y010974D01*
X007895Y010997D01*
X007849Y011010D01*
X007637Y011010D01*
X007637Y010800D02*
X007581Y010800D01*
X007581Y010641D02*
X007637Y010641D01*
X007637Y010483D02*
X007581Y010483D01*
X007581Y010324D02*
X007637Y010324D01*
X007637Y010166D02*
X007581Y010166D01*
X007609Y009904D02*
X007904Y009609D01*
X008026Y009134D02*
X008026Y009080D01*
X008036Y009091D01*
X008036Y009134D01*
X008026Y009134D01*
X008392Y008739D02*
X008531Y008739D01*
X008531Y008581D02*
X008220Y008581D01*
X008026Y008422D02*
X008531Y008422D01*
X008593Y008264D02*
X007964Y008264D01*
X007896Y007788D02*
X008615Y007788D01*
X008531Y007630D02*
X008006Y007630D01*
X008006Y007471D02*
X008383Y007471D01*
X008179Y007313D02*
X008006Y007313D01*
X008006Y007154D02*
X008048Y007154D01*
X008028Y006996D02*
X008006Y006996D01*
X008528Y006954D02*
X008531Y006957D01*
X008531Y006896D01*
X008528Y006896D01*
X008528Y006954D01*
X009436Y006310D02*
X009436Y003215D01*
X009444Y001814D02*
X009479Y001778D01*
X007117Y001778D01*
X007133Y001794D01*
X007133Y015999D01*
X007105Y016026D01*
X006345Y016026D01*
X007121Y016026D01*
X007129Y016034D01*
X007129Y012830D01*
X007413Y012860D02*
X007856Y012860D01*
X007856Y012866D02*
X007856Y012770D01*
X007469Y012770D01*
X007469Y012604D01*
X007413Y012604D01*
X007413Y013071D01*
X007469Y013071D01*
X007469Y012866D01*
X007856Y012866D01*
X007904Y012818D02*
X007609Y013113D01*
X007609Y013645D01*
X007609Y014511D01*
X007413Y014445D02*
X009156Y014445D01*
X009156Y014287D02*
X007413Y014287D01*
X007413Y014218D02*
X007413Y014626D01*
X007909Y014626D01*
X008026Y014743D01*
X008026Y014969D01*
X008135Y014969D01*
X008227Y015007D01*
X008416Y015196D01*
X008486Y015267D01*
X008524Y015359D01*
X008524Y015531D01*
X008531Y015531D01*
X008531Y014743D01*
X008648Y014626D01*
X009156Y014626D01*
X009156Y014238D01*
X008648Y014238D01*
X008531Y014121D01*
X008531Y013855D01*
X008418Y013855D01*
X008326Y013817D01*
X008066Y013558D01*
X008028Y013466D01*
X008028Y013293D01*
X008006Y013293D01*
X008006Y013616D01*
X007637Y013616D01*
X007637Y013293D01*
X007625Y013293D01*
X007581Y013281D01*
X007581Y013616D01*
X007637Y013616D01*
X007637Y013673D01*
X007581Y013673D01*
X007581Y014218D01*
X007413Y014218D01*
X007581Y014128D02*
X007637Y014128D01*
X007637Y014218D02*
X007637Y013673D01*
X008006Y013673D01*
X008006Y014062D01*
X007993Y014108D01*
X007970Y014149D01*
X007936Y014182D01*
X007895Y014206D01*
X007849Y014218D01*
X007637Y014218D01*
X007637Y013970D02*
X007581Y013970D01*
X007581Y013811D02*
X007637Y013811D01*
X007581Y013673D02*
X007581Y013616D01*
X007413Y013616D01*
X007413Y013673D01*
X007581Y013673D01*
X007581Y013653D02*
X007413Y013653D01*
X007581Y013494D02*
X007637Y013494D01*
X007637Y013336D02*
X007581Y013336D01*
X007637Y013653D02*
X008161Y013653D01*
X008040Y013494D02*
X008006Y013494D01*
X008006Y013336D02*
X008028Y013336D01*
X008006Y013811D02*
X008320Y013811D01*
X008531Y013970D02*
X008006Y013970D01*
X007982Y014128D02*
X008538Y014128D01*
X008531Y014762D02*
X008026Y014762D01*
X008026Y014921D02*
X008531Y014921D01*
X008531Y015079D02*
X008299Y015079D01*
X008457Y015238D02*
X008531Y015238D01*
X008524Y015396D02*
X008531Y015396D01*
X008948Y015219D02*
X008948Y015731D01*
X008652Y016026D01*
X009436Y016026D01*
X009444Y016019D01*
X009444Y001814D01*
X009479Y001778D02*
X011715Y001778D01*
X011731Y001794D01*
X011731Y016058D01*
X011700Y016026D01*
X010958Y016026D01*
X011254Y015731D01*
X011254Y015787D01*
X010995Y016046D01*
X011739Y016046D01*
X011739Y012822D01*
X011735Y012818D01*
X010958Y012818D01*
X011254Y012523D01*
X011254Y012011D01*
X010938Y011434D02*
X010231Y011434D01*
X010214Y011417D02*
X010332Y011534D01*
X010332Y011761D01*
X010470Y011761D01*
X010562Y011799D01*
X010723Y011960D01*
X010794Y012031D01*
X010832Y012122D01*
X010832Y012323D01*
X010837Y012323D01*
X010837Y011534D01*
X010954Y011417D01*
X011451Y011417D01*
X011451Y011030D01*
X010954Y011030D01*
X010837Y010912D01*
X010837Y010678D01*
X010658Y010678D01*
X010566Y010640D01*
X010496Y010570D01*
X010370Y010444D01*
X010332Y010352D01*
X010332Y010084D01*
X010312Y010084D01*
X010312Y010408D01*
X009943Y010408D01*
X009943Y010464D01*
X009887Y010464D01*
X009887Y011010D01*
X009724Y011010D01*
X009724Y011417D01*
X010214Y011417D01*
X010332Y011592D02*
X010837Y011592D01*
X010837Y011751D02*
X010332Y011751D01*
X010672Y011909D02*
X010837Y011909D01*
X010837Y012068D02*
X010809Y012068D01*
X010832Y012226D02*
X010837Y012226D01*
X010332Y012276D02*
X010332Y012276D01*
X010332Y012343D01*
X010332Y012343D01*
X010332Y012276D01*
X010162Y012770D02*
X009774Y012770D01*
X009774Y012604D01*
X009724Y012604D01*
X009724Y013071D01*
X009774Y013071D01*
X009774Y012866D01*
X010162Y012866D01*
X010162Y012770D01*
X010210Y012818D02*
X009915Y013113D01*
X009915Y013645D01*
X009915Y014273D01*
X009936Y014294D01*
X009943Y014218D02*
X009943Y013673D01*
X009887Y013673D01*
X009887Y014218D01*
X009724Y014218D01*
X009724Y014626D01*
X010214Y014626D01*
X010332Y014743D01*
X010332Y014969D01*
X010458Y014969D01*
X010550Y015007D01*
X010727Y015185D01*
X010797Y015255D01*
X010836Y015347D01*
X010836Y015531D01*
X010837Y015531D01*
X010837Y014743D01*
X010954Y014626D01*
X011451Y014626D01*
X011451Y014238D01*
X010954Y014238D01*
X010837Y014121D01*
X010837Y013879D01*
X010693Y013879D01*
X010601Y013841D01*
X010531Y013770D01*
X010370Y013609D01*
X010332Y013517D01*
X010332Y013293D01*
X010312Y013293D01*
X010312Y013616D01*
X009943Y013616D01*
X009943Y013293D01*
X009931Y013293D01*
X009887Y013281D01*
X009887Y013616D01*
X009943Y013616D01*
X009943Y013673D01*
X010312Y013673D01*
X010312Y014062D01*
X010299Y014108D01*
X010276Y014149D01*
X010242Y014182D01*
X010201Y014206D01*
X010155Y014218D01*
X009943Y014218D01*
X009943Y014128D02*
X009887Y014128D01*
X009887Y013970D02*
X009943Y013970D01*
X009943Y013811D02*
X009887Y013811D01*
X009887Y013673D02*
X009724Y013673D01*
X009724Y013616D01*
X009887Y013616D01*
X009887Y013673D01*
X009887Y013653D02*
X009724Y013653D01*
X009887Y013494D02*
X009943Y013494D01*
X009943Y013336D02*
X009887Y013336D01*
X009943Y013653D02*
X010413Y013653D01*
X010332Y013494D02*
X010312Y013494D01*
X010312Y013336D02*
X010332Y013336D01*
X010312Y013811D02*
X010572Y013811D01*
X010312Y013970D02*
X010837Y013970D01*
X010844Y014128D02*
X010288Y014128D01*
X010332Y014762D02*
X010837Y014762D01*
X010837Y014921D02*
X010332Y014921D01*
X010622Y015079D02*
X010837Y015079D01*
X010837Y015238D02*
X010780Y015238D01*
X010836Y015396D02*
X010837Y015396D01*
X011254Y015219D02*
X011254Y015731D01*
X011739Y016046D02*
X011739Y019105D01*
X011609Y019235D01*
X010958Y019235D01*
X011254Y018940D01*
X011254Y018428D01*
X010837Y018487D02*
X010796Y018528D01*
X010657Y018586D01*
X010557Y018586D01*
X010503Y018640D01*
X010411Y018678D01*
X010332Y018678D01*
X010332Y018760D01*
X010490Y018760D01*
X010536Y018772D01*
X010568Y018791D01*
X010620Y018740D01*
X010837Y018740D01*
X010837Y018487D01*
X010837Y018566D02*
X010704Y018566D01*
X010837Y018725D02*
X010332Y018725D01*
X010162Y019187D02*
X009774Y019187D01*
X009774Y019022D01*
X009716Y019022D01*
X009716Y019200D01*
X010162Y019200D01*
X010162Y019187D02*
X010162Y019283D01*
X009774Y019283D01*
X009774Y019554D01*
X009783Y019585D01*
X009108Y019585D01*
X009108Y019539D01*
X009266Y019539D01*
X009377Y019539D01*
X009480Y019496D01*
X009595Y019382D01*
X009673Y019303D01*
X009716Y019200D01*
X009716Y019042D02*
X009774Y019042D01*
X009999Y019235D02*
X009763Y019471D01*
X009774Y019517D02*
X009430Y019517D01*
X009322Y019259D02*
X009436Y019145D01*
X009436Y016034D01*
X009428Y016026D01*
X008652Y016026D01*
X008531Y016522D02*
X008531Y016591D01*
X008524Y016591D01*
X008524Y016522D01*
X008531Y016522D01*
X008190Y016981D02*
X008006Y016981D01*
X008006Y016881D02*
X008006Y017271D01*
X007993Y017316D01*
X007970Y017357D01*
X007936Y017391D01*
X007895Y017415D01*
X007849Y017427D01*
X007637Y017427D01*
X007637Y016882D01*
X007581Y016882D01*
X007581Y017427D01*
X007409Y017427D01*
X007409Y017834D01*
X007909Y017834D01*
X008026Y017951D01*
X008026Y017993D01*
X008076Y017942D01*
X008215Y017885D01*
X008365Y017885D01*
X008504Y017942D01*
X008531Y017969D01*
X008531Y017951D01*
X008648Y017834D01*
X009156Y017834D01*
X009156Y017447D01*
X008648Y017447D01*
X008531Y017330D01*
X008531Y017091D01*
X008355Y017091D01*
X008263Y017053D01*
X008192Y016983D01*
X008063Y016853D01*
X008024Y016761D01*
X008024Y016502D01*
X008006Y016502D01*
X008006Y016825D01*
X007637Y016825D01*
X007637Y016881D01*
X008006Y016881D01*
X008006Y016823D02*
X008050Y016823D01*
X008024Y016664D02*
X008006Y016664D01*
X008006Y016506D02*
X008024Y016506D01*
X007856Y016074D02*
X007856Y015979D01*
X007469Y015979D01*
X007469Y015813D01*
X007413Y015813D01*
X007413Y016055D01*
X007409Y016064D01*
X007409Y016090D01*
X007409Y016280D01*
X007469Y016280D01*
X007469Y016074D01*
X007856Y016074D01*
X007856Y016030D02*
X007413Y016030D01*
X007413Y015872D02*
X007469Y015872D01*
X007469Y016189D02*
X007409Y016189D01*
X007609Y016322D02*
X007609Y016853D01*
X007609Y017515D01*
X007409Y017457D02*
X009156Y017457D01*
X009156Y017615D02*
X007409Y017615D01*
X007409Y017774D02*
X009156Y017774D01*
X009716Y017774D02*
X011459Y017774D01*
X011459Y017834D02*
X011459Y017447D01*
X010954Y017447D01*
X010837Y017330D01*
X010837Y017099D01*
X010693Y017099D01*
X010601Y017061D01*
X010531Y016991D01*
X010374Y016833D01*
X010336Y016742D01*
X010336Y016502D01*
X010312Y016502D01*
X010312Y016825D01*
X009943Y016825D01*
X009943Y016881D01*
X010312Y016881D01*
X010312Y017271D01*
X010299Y017316D01*
X010276Y017357D01*
X010242Y017391D01*
X010201Y017415D01*
X010155Y017427D01*
X009943Y017427D01*
X009943Y016882D01*
X009887Y016882D01*
X009887Y017427D01*
X009716Y017427D01*
X009716Y017834D01*
X010214Y017834D01*
X010317Y017937D01*
X010367Y017887D01*
X010506Y017829D01*
X010657Y017829D01*
X010796Y017887D01*
X010849Y017940D01*
X010954Y017834D01*
X011459Y017834D01*
X011459Y017615D02*
X009716Y017615D01*
X009716Y017457D02*
X011459Y017457D01*
X012019Y017457D02*
X013802Y017457D01*
X013802Y017447D02*
X013260Y017447D01*
X013143Y017330D01*
X013143Y017080D01*
X012973Y017080D01*
X012881Y017042D01*
X012811Y016971D01*
X012681Y016841D01*
X012643Y016749D01*
X012643Y016502D01*
X012617Y016502D01*
X012617Y016825D01*
X012249Y016825D01*
X012249Y016881D01*
X012617Y016881D01*
X012617Y017271D01*
X012605Y017316D01*
X012582Y017357D01*
X012548Y017391D01*
X012507Y017415D01*
X012461Y017427D01*
X012249Y017427D01*
X012249Y016882D01*
X012193Y016882D01*
X012193Y017427D01*
X012019Y017427D01*
X012019Y017834D01*
X012520Y017834D01*
X012637Y017951D01*
X012637Y017967D01*
X012726Y017879D01*
X012865Y017822D01*
X013015Y017822D01*
X013154Y017879D01*
X013185Y017910D01*
X013260Y017834D01*
X013802Y017834D01*
X013802Y017447D01*
X013802Y017615D02*
X012019Y017615D01*
X012019Y017774D02*
X013802Y017774D01*
X013560Y018428D02*
X013560Y018940D01*
X013264Y019235D01*
X013904Y019235D01*
X014082Y019058D01*
X014082Y016026D01*
X013264Y016026D01*
X013560Y015731D01*
X013560Y015219D01*
X013143Y015238D02*
X013008Y015238D01*
X013034Y015263D02*
X013105Y015334D01*
X013143Y015426D01*
X013143Y015531D01*
X013143Y014743D01*
X013260Y014626D01*
X013802Y014626D01*
X013802Y014238D01*
X013260Y014238D01*
X013143Y014121D01*
X013143Y013867D01*
X012981Y013867D01*
X012889Y013829D01*
X012818Y013759D01*
X012681Y013621D01*
X012643Y013529D01*
X012643Y013293D01*
X012617Y013293D01*
X012617Y013616D01*
X012249Y013616D01*
X012249Y013293D01*
X012237Y013293D01*
X012193Y013281D01*
X012193Y013616D01*
X012249Y013616D01*
X012249Y013673D01*
X012193Y013673D01*
X012193Y014218D01*
X012019Y014218D01*
X012019Y014626D01*
X012520Y014626D01*
X012637Y014743D01*
X012637Y014969D01*
X012686Y014969D01*
X012778Y015007D01*
X013034Y015263D01*
X013130Y015396D02*
X013143Y015396D01*
X013143Y015531D02*
X013143Y015531D01*
X013143Y015079D02*
X012850Y015079D01*
X012637Y014921D02*
X013143Y014921D01*
X013143Y014762D02*
X012637Y014762D01*
X012507Y014206D02*
X012461Y014218D01*
X012249Y014218D01*
X012249Y013673D01*
X012617Y013673D01*
X012617Y014062D01*
X012605Y014108D01*
X012582Y014149D01*
X012548Y014182D01*
X012507Y014206D01*
X012594Y014128D02*
X013150Y014128D01*
X013143Y013970D02*
X012617Y013970D01*
X012617Y013811D02*
X012871Y013811D01*
X012712Y013653D02*
X012249Y013653D01*
X012221Y013645D02*
X012221Y013113D01*
X012516Y012818D01*
X012468Y012860D02*
X012019Y012860D01*
X012019Y012877D02*
X012019Y013071D01*
X012080Y013071D01*
X012080Y012866D01*
X012468Y012866D01*
X012468Y012770D01*
X012080Y012770D01*
X012080Y012604D01*
X012019Y012604D01*
X012019Y012877D01*
X012019Y013019D02*
X012080Y013019D01*
X012080Y012702D02*
X012019Y012702D01*
X011739Y012822D02*
X011739Y009578D01*
X010837Y010104D02*
X010837Y010178D01*
X010832Y010178D01*
X010832Y010104D01*
X010837Y010104D01*
X010832Y010166D02*
X010837Y010166D01*
X010332Y010166D02*
X010312Y010166D01*
X010312Y010324D02*
X010332Y010324D01*
X010312Y010464D02*
X010312Y010853D01*
X010299Y010899D01*
X010276Y010940D01*
X010242Y010974D01*
X010201Y010997D01*
X010155Y011010D01*
X009943Y011010D01*
X009943Y010464D01*
X010312Y010464D01*
X010312Y010483D02*
X010408Y010483D01*
X010312Y010641D02*
X010568Y010641D01*
X010312Y010800D02*
X010837Y010800D01*
X010883Y010958D02*
X010258Y010958D01*
X009943Y010958D02*
X009887Y010958D01*
X009915Y011080D02*
X009936Y011101D01*
X009915Y011080D02*
X009915Y010436D01*
X009915Y009904D01*
X010210Y009609D01*
X010162Y009561D02*
X009774Y009561D01*
X009774Y009396D01*
X009724Y009396D01*
X009724Y009862D01*
X009774Y009862D01*
X009774Y009657D01*
X010162Y009657D01*
X010162Y009561D01*
X009774Y009532D02*
X009724Y009532D01*
X009724Y009690D02*
X009774Y009690D01*
X009774Y009849D02*
X009724Y009849D01*
X009887Y010073D02*
X009887Y010408D01*
X009724Y010408D01*
X009724Y010464D01*
X009887Y010464D01*
X009887Y010408D01*
X009943Y010408D01*
X009943Y010084D01*
X009931Y010084D01*
X009887Y010073D01*
X009887Y010166D02*
X009943Y010166D01*
X009943Y010324D02*
X009887Y010324D01*
X009887Y010483D02*
X009943Y010483D01*
X009943Y010641D02*
X009887Y010641D01*
X009887Y010800D02*
X009943Y010800D01*
X009724Y011117D02*
X011451Y011117D01*
X011451Y011275D02*
X009724Y011275D01*
X009156Y011275D02*
X007413Y011275D01*
X007413Y011117D02*
X009156Y011117D01*
X008632Y011434D02*
X007925Y011434D01*
X008026Y011592D02*
X008531Y011592D01*
X008531Y011751D02*
X008026Y011751D01*
X008326Y011909D02*
X008531Y011909D01*
X008531Y012068D02*
X008484Y012068D01*
X008528Y012226D02*
X008531Y012226D01*
X008948Y012011D02*
X008948Y012523D01*
X008652Y012818D01*
X009404Y012818D01*
X009436Y012786D01*
X009436Y009656D01*
X009389Y009609D01*
X008652Y009609D01*
X008948Y009314D01*
X008948Y008802D01*
X008531Y008898D02*
X008520Y008898D01*
X009436Y009656D02*
X009436Y006310D01*
X009724Y006520D02*
X009774Y006520D01*
X009887Y006996D02*
X009943Y006996D01*
X009943Y007154D02*
X009887Y007154D01*
X009887Y007199D02*
X009724Y007199D01*
X009724Y007256D01*
X009887Y007256D01*
X009887Y007199D01*
X009943Y007256D02*
X009943Y007801D01*
X010155Y007801D01*
X010201Y007789D01*
X010242Y007765D01*
X010276Y007731D01*
X010299Y007690D01*
X010312Y007645D01*
X010312Y007256D01*
X009943Y007256D01*
X009943Y007313D02*
X009887Y007313D01*
X009887Y007471D02*
X009943Y007471D01*
X009943Y007630D02*
X009887Y007630D01*
X009887Y007788D02*
X009943Y007788D01*
X010202Y007788D02*
X010921Y007788D01*
X010837Y007630D02*
X010312Y007630D01*
X010312Y007471D02*
X010837Y007471D01*
X010510Y007313D02*
X010312Y007313D01*
X010312Y007154D02*
X010362Y007154D01*
X010332Y006996D02*
X010312Y006996D01*
X010832Y006927D02*
X010837Y006932D01*
X010837Y006896D01*
X010832Y006896D01*
X010832Y006927D01*
X011451Y007947D02*
X009724Y007947D01*
X009724Y008105D02*
X011451Y008105D01*
X012508Y007788D02*
X013227Y007788D01*
X013143Y007630D02*
X012617Y007630D01*
X012617Y007471D02*
X013143Y007471D01*
X012766Y007313D02*
X012617Y007313D01*
X012617Y007154D02*
X012648Y007154D01*
X012639Y006996D02*
X012617Y006996D01*
X013139Y006969D02*
X013143Y006969D01*
X013143Y006896D01*
X013139Y006896D01*
X013139Y006969D01*
X013788Y006207D02*
X013802Y006207D01*
X013802Y006187D01*
X013796Y006187D01*
X013788Y006207D01*
X013790Y006203D02*
X013802Y006203D01*
X014082Y006487D02*
X014082Y002483D01*
X014082Y002373D01*
X013963Y001778D02*
X011715Y001778D01*
X011667Y001290D02*
X011846Y001290D01*
X011824Y001131D02*
X011670Y001131D01*
X011670Y000973D02*
X011824Y000973D01*
X011670Y000814D02*
X012193Y000814D01*
X012221Y000810D02*
X012642Y001231D01*
X013054Y001231D01*
X013146Y001290D02*
X012596Y001290D01*
X012617Y001131D02*
X012852Y001131D01*
X012691Y000973D02*
X012617Y000973D01*
X012648Y000814D02*
X012249Y000814D01*
X012249Y000782D02*
X012193Y000782D01*
X012193Y000460D01*
X012249Y000460D01*
X012249Y000782D01*
X012249Y000656D02*
X012193Y000656D01*
X012193Y000497D02*
X012249Y000497D01*
X012617Y000497D02*
X012789Y000497D01*
X012675Y000656D02*
X012617Y000656D01*
X012249Y000973D02*
X012193Y000973D01*
X012193Y001131D02*
X012249Y001131D01*
X012249Y001290D02*
X012193Y001290D01*
X011824Y000656D02*
X011670Y000656D01*
X011670Y000497D02*
X011824Y000497D01*
X013796Y002978D02*
X013802Y002978D01*
X013802Y003425D01*
X013720Y003425D01*
X013720Y003089D01*
X013771Y003038D01*
X013796Y002978D01*
X013802Y003033D02*
X013774Y003033D01*
X013802Y003192D02*
X013720Y003192D01*
X013720Y003350D02*
X013802Y003350D01*
X013143Y003687D02*
X013143Y003741D01*
X013143Y003741D01*
X013143Y003687D01*
X013143Y003687D01*
X014362Y004777D02*
X015176Y004777D01*
X015176Y004935D02*
X014362Y004935D01*
X014499Y004460D02*
X014555Y004460D01*
X014555Y004301D02*
X014499Y004301D01*
X014499Y004143D02*
X014555Y004143D01*
X014923Y004143D02*
X014924Y004143D01*
X014923Y004301D02*
X014936Y004301D01*
X015011Y004502D02*
X015011Y005109D01*
X014920Y005094D02*
X015176Y005094D01*
X015179Y005252D02*
X014943Y005252D01*
X015150Y005411D02*
X015282Y005411D01*
X015308Y005569D02*
X015441Y005569D01*
X015432Y005728D02*
X015449Y005728D01*
X015446Y005886D02*
X015449Y005886D01*
X014946Y005913D02*
X014943Y005911D01*
X014943Y005925D01*
X014946Y005925D01*
X014946Y005913D01*
X014774Y006362D02*
X014362Y006362D01*
X014362Y006520D02*
X014386Y006520D01*
X014362Y006203D02*
X014386Y006203D01*
X014759Y006400D02*
X014822Y006400D01*
X014555Y006996D02*
X014499Y006996D01*
X014499Y007154D02*
X014555Y007154D01*
X014499Y007199D02*
X014362Y007199D01*
X014362Y007256D01*
X014499Y007256D01*
X014499Y007199D01*
X014523Y007223D02*
X014527Y007227D01*
X014499Y007313D02*
X014555Y007313D01*
X014555Y007471D02*
X014499Y007471D01*
X014499Y007630D02*
X014555Y007630D01*
X014555Y007788D02*
X014499Y007788D01*
X014362Y007947D02*
X016069Y007947D01*
X016069Y008105D02*
X014362Y008105D01*
X013560Y008802D02*
X013560Y009314D01*
X013264Y009609D01*
X013143Y009056D02*
X013135Y009056D01*
X013143Y008898D02*
X013112Y008898D01*
X013143Y008739D02*
X012974Y008739D01*
X013143Y008581D02*
X012802Y008581D01*
X012637Y008422D02*
X013143Y008422D01*
X013205Y008264D02*
X012575Y008264D01*
X014082Y009649D02*
X014082Y012794D01*
X014082Y016026D01*
X014362Y015872D02*
X014386Y015872D01*
X014362Y016664D02*
X016069Y016664D01*
X016069Y016506D02*
X015925Y016506D01*
X016026Y016347D02*
X016069Y016347D01*
X015806Y016011D02*
X015885Y015932D01*
X015806Y016011D02*
X015562Y016011D01*
X015570Y016019D01*
X015570Y016026D01*
X015865Y015731D01*
X015865Y015219D01*
X016069Y014604D02*
X014362Y014604D01*
X014362Y014445D02*
X016069Y014445D01*
X016069Y014287D02*
X014362Y014287D01*
X014499Y014128D02*
X014555Y014128D01*
X014555Y013970D02*
X014499Y013970D01*
X014499Y013811D02*
X014555Y013811D01*
X014923Y013970D02*
X015449Y013970D01*
X015456Y014128D02*
X014899Y014128D01*
X014923Y013494D02*
X014946Y013494D01*
X014946Y013336D02*
X014923Y013336D01*
X014943Y012343D02*
X014943Y012297D01*
X014946Y012299D01*
X014946Y012343D01*
X014943Y012343D01*
X013802Y011275D02*
X012019Y011275D01*
X012019Y011117D02*
X013802Y011117D01*
X012643Y012261D02*
X012637Y012261D01*
X012637Y012343D01*
X012643Y012343D01*
X012643Y012261D01*
X012617Y013336D02*
X012643Y013336D01*
X012643Y013494D02*
X012617Y013494D01*
X012249Y013494D02*
X012193Y013494D01*
X012193Y013616D02*
X012019Y013616D01*
X012019Y013673D01*
X012193Y013673D01*
X012193Y013616D01*
X012193Y013653D02*
X012019Y013653D01*
X012221Y013645D02*
X012221Y014316D01*
X012219Y014318D01*
X012193Y014128D02*
X012249Y014128D01*
X012249Y013970D02*
X012193Y013970D01*
X012193Y013811D02*
X012249Y013811D01*
X012249Y013336D02*
X012193Y013336D01*
X012019Y014287D02*
X013802Y014287D01*
X013802Y014445D02*
X012019Y014445D01*
X012019Y014604D02*
X013802Y014604D01*
X013143Y013367D02*
X013143Y013313D01*
X013143Y013313D01*
X013143Y013367D01*
X013143Y013367D01*
X013143Y013336D02*
X013143Y013336D01*
X011451Y014287D02*
X009724Y014287D01*
X009724Y014445D02*
X011451Y014445D01*
X011451Y014604D02*
X009724Y014604D01*
X009156Y014604D02*
X007413Y014604D01*
X006849Y014604D02*
X005094Y014604D01*
X005094Y014626D02*
X005601Y014626D01*
X005719Y014743D01*
X005719Y014969D01*
X005840Y014969D01*
X005932Y015007D01*
X006109Y015185D01*
X006179Y015255D01*
X006217Y015347D01*
X006217Y015531D01*
X006224Y015531D01*
X006224Y014743D01*
X006341Y014626D01*
X006849Y014626D01*
X006849Y014238D01*
X006341Y014238D01*
X006224Y014121D01*
X006224Y013883D01*
X006067Y013883D01*
X005975Y013845D01*
X005905Y013774D01*
X005752Y013621D01*
X005713Y013529D01*
X005713Y013293D01*
X005699Y013293D01*
X005699Y013616D01*
X005330Y013616D01*
X005330Y013293D01*
X005318Y013293D01*
X005274Y013281D01*
X005274Y013616D01*
X005330Y013616D01*
X005330Y013673D01*
X005274Y013673D01*
X005274Y014218D01*
X005094Y014218D01*
X005094Y014626D01*
X005094Y014445D02*
X006849Y014445D01*
X006849Y014287D02*
X005094Y014287D01*
X005274Y014128D02*
X005330Y014128D01*
X005330Y014218D02*
X005330Y013673D01*
X005699Y013673D01*
X005699Y014062D01*
X005686Y014108D01*
X005663Y014149D01*
X005629Y014182D01*
X005588Y014206D01*
X005542Y014218D01*
X005330Y014218D01*
X005302Y014381D02*
X005353Y014432D01*
X005302Y014381D02*
X005302Y013645D01*
X005302Y013113D01*
X005597Y012818D01*
X005549Y012860D02*
X005094Y012860D01*
X005094Y012877D02*
X005094Y013071D01*
X005161Y013071D01*
X005161Y012866D01*
X005549Y012866D01*
X005549Y012770D01*
X005161Y012770D01*
X005161Y012604D01*
X005094Y012604D01*
X005094Y012877D01*
X005094Y013019D02*
X005161Y013019D01*
X005161Y012702D02*
X005094Y012702D01*
X004814Y012822D02*
X004814Y016015D01*
X004802Y016026D01*
X004038Y016026D01*
X004334Y015731D01*
X004334Y015219D01*
X003917Y015238D02*
X003871Y015238D01*
X003876Y015243D02*
X003914Y015335D01*
X003914Y015531D01*
X003917Y015531D01*
X003917Y014743D01*
X004034Y014626D01*
X004534Y014626D01*
X004534Y014238D01*
X004034Y014238D01*
X003917Y014121D01*
X003917Y013879D01*
X003823Y013879D01*
X003731Y013841D01*
X003661Y013770D01*
X003452Y013562D01*
X003414Y013470D01*
X003414Y013293D01*
X003391Y013293D01*
X003391Y013616D01*
X003023Y013616D01*
X003023Y013293D01*
X003011Y013293D01*
X002967Y013281D01*
X002967Y013616D01*
X003023Y013616D01*
X003023Y013673D01*
X002967Y013673D01*
X002967Y014218D01*
X002767Y014218D01*
X002767Y014626D01*
X003294Y014626D01*
X003411Y014743D01*
X003411Y014969D01*
X003549Y014969D01*
X003641Y015007D01*
X003876Y015243D01*
X003914Y015396D02*
X003917Y015396D01*
X003917Y015079D02*
X003712Y015079D01*
X003917Y014921D02*
X003411Y014921D01*
X003411Y014762D02*
X003917Y014762D01*
X003924Y014128D02*
X003368Y014128D01*
X003379Y014108D02*
X003356Y014149D01*
X003322Y014182D01*
X003281Y014206D01*
X003235Y014218D01*
X003023Y014218D01*
X003023Y013673D01*
X003391Y013673D01*
X003391Y014062D01*
X003379Y014108D01*
X003391Y013970D02*
X003917Y013970D01*
X003702Y013811D02*
X003391Y013811D01*
X003543Y013653D02*
X003023Y013653D01*
X002995Y013645D02*
X002995Y013113D01*
X003290Y012818D01*
X003242Y012860D02*
X002767Y012860D01*
X002854Y012866D02*
X002854Y013071D01*
X002767Y013071D01*
X002767Y012604D01*
X002854Y012604D01*
X002854Y012770D01*
X003242Y012770D01*
X003242Y012866D01*
X002854Y012866D01*
X002854Y013019D02*
X002767Y013019D01*
X002767Y012702D02*
X002854Y012702D01*
X002487Y012786D02*
X002487Y015897D01*
X002381Y016003D01*
X001723Y016003D01*
X001735Y016026D02*
X001788Y016079D01*
X001788Y017720D01*
X002288Y017774D02*
X004534Y017774D01*
X004534Y017834D02*
X004534Y017447D01*
X004034Y017447D01*
X003917Y017330D01*
X003917Y017103D01*
X003843Y017103D01*
X003751Y017065D01*
X003523Y016837D01*
X003452Y016766D01*
X003414Y016675D01*
X003414Y016502D01*
X003391Y016502D01*
X003391Y016825D01*
X003023Y016825D01*
X003023Y016502D01*
X003011Y016502D01*
X002967Y016490D01*
X002967Y016825D01*
X003023Y016825D01*
X003023Y016881D01*
X003391Y016881D01*
X003391Y017271D01*
X003379Y017316D01*
X003356Y017357D01*
X003322Y017391D01*
X003281Y017415D01*
X003235Y017427D01*
X003023Y017427D01*
X003023Y016882D01*
X002967Y016882D01*
X002967Y017427D01*
X002755Y017427D01*
X002709Y017415D01*
X002668Y017391D01*
X002634Y017357D01*
X002611Y017316D01*
X002598Y017271D01*
X002598Y016881D01*
X002967Y016881D01*
X002967Y016825D01*
X002598Y016825D01*
X002598Y016436D01*
X002611Y016390D01*
X002634Y016349D01*
X002668Y016315D01*
X002709Y016292D01*
X002755Y016280D01*
X002854Y016280D01*
X002854Y016074D01*
X003242Y016074D01*
X003242Y015979D01*
X002854Y015979D01*
X002854Y015813D01*
X002767Y015813D01*
X002767Y015952D01*
X002724Y016055D01*
X002539Y016240D01*
X002436Y016283D01*
X002325Y016283D01*
X002190Y016283D01*
X002190Y016405D01*
X002073Y016522D01*
X002068Y016522D01*
X002068Y016995D01*
X002071Y016996D01*
X002211Y017137D01*
X002288Y017321D01*
X002288Y018119D01*
X002211Y018303D01*
X002071Y018444D01*
X001887Y018520D01*
X001688Y018520D01*
X001504Y018444D01*
X001364Y018303D01*
X001288Y018119D01*
X001288Y017321D01*
X001364Y017137D01*
X001504Y016996D01*
X001508Y016995D01*
X001508Y016522D01*
X001396Y016522D01*
X001345Y016471D01*
X001312Y016489D01*
X001266Y016502D01*
X001034Y016502D01*
X001034Y016074D01*
X000939Y016074D01*
X000939Y015979D01*
X000551Y015979D01*
X000551Y015813D01*
X000488Y015813D01*
X000488Y017045D01*
X000536Y017009D01*
X000603Y016975D01*
X000675Y016952D01*
X000750Y016940D01*
X000768Y016940D01*
X000768Y017700D01*
X000808Y017700D01*
X000808Y017740D01*
X001268Y017740D01*
X001268Y018058D01*
X001256Y018132D01*
X001232Y018204D01*
X001198Y018272D01*
X001154Y018333D01*
X001100Y018386D01*
X001039Y018431D01*
X000972Y018465D01*
X000900Y018488D01*
X000825Y018500D01*
X000808Y018500D01*
X000808Y017740D01*
X000768Y017740D01*
X000768Y018500D01*
X000750Y018500D01*
X000675Y018488D01*
X000603Y018465D01*
X000536Y018431D01*
X000488Y018395D01*
X000488Y019585D01*
X002863Y019585D01*
X002854Y019554D01*
X002854Y019283D01*
X003242Y019283D01*
X003242Y019187D01*
X002854Y019187D01*
X002854Y019022D01*
X002696Y019022D01*
X002578Y018905D01*
X002578Y017951D01*
X002696Y017834D01*
X003294Y017834D01*
X003404Y017944D01*
X003471Y017916D01*
X003621Y017916D01*
X003760Y017974D01*
X003867Y018080D01*
X003917Y018201D01*
X003917Y017951D01*
X004034Y017834D01*
X004534Y017834D01*
X004534Y017615D02*
X002288Y017615D01*
X002288Y017457D02*
X004534Y017457D01*
X005094Y017457D02*
X006849Y017457D01*
X006849Y017447D02*
X006341Y017447D01*
X006224Y017330D01*
X006224Y017107D01*
X006079Y017107D01*
X005987Y017069D01*
X005917Y016999D01*
X005755Y016837D01*
X005717Y016745D01*
X005717Y016502D01*
X005699Y016502D01*
X005699Y016825D01*
X005330Y016825D01*
X005330Y016881D01*
X005699Y016881D01*
X005699Y017271D01*
X005686Y017316D01*
X005663Y017357D01*
X005629Y017391D01*
X005588Y017415D01*
X005542Y017427D01*
X005330Y017427D01*
X005330Y016882D01*
X005274Y016882D01*
X005274Y017427D01*
X005094Y017427D01*
X005094Y017834D01*
X005601Y017834D01*
X005719Y017951D01*
X005719Y018003D01*
X005833Y017955D01*
X005984Y017955D01*
X006123Y018013D01*
X006224Y018115D01*
X006224Y017951D01*
X006341Y017834D01*
X006849Y017834D01*
X006849Y017447D01*
X006849Y017615D02*
X005094Y017615D01*
X005094Y017774D02*
X006849Y017774D01*
X006641Y018428D02*
X006641Y018940D01*
X006345Y019235D01*
X006963Y019235D01*
X007129Y019070D01*
X007129Y016034D01*
X007609Y016322D02*
X007904Y016026D01*
X007637Y016981D02*
X007581Y016981D01*
X007581Y017140D02*
X007637Y017140D01*
X007637Y017298D02*
X007581Y017298D01*
X007998Y017298D02*
X008531Y017298D01*
X008531Y017140D02*
X008006Y017140D01*
X008006Y017932D02*
X008100Y017932D01*
X008480Y017932D02*
X008551Y017932D01*
X008531Y018556D02*
X008504Y018583D01*
X008365Y018641D01*
X008265Y018641D01*
X008175Y018678D01*
X008075Y018678D01*
X008026Y018678D01*
X008026Y018760D01*
X008184Y018760D01*
X008230Y018772D01*
X008263Y018791D01*
X008314Y018740D01*
X008531Y018740D01*
X008531Y018556D01*
X008531Y018566D02*
X008522Y018566D01*
X008531Y018725D02*
X008026Y018725D01*
X007856Y019187D02*
X007469Y019187D01*
X007469Y019022D01*
X007409Y019022D01*
X007409Y019125D01*
X007366Y019228D01*
X007287Y019307D01*
X007122Y019472D01*
X007019Y019515D01*
X006908Y019515D01*
X006801Y019515D01*
X006801Y019585D01*
X007477Y019585D01*
X007469Y019554D01*
X007469Y019283D01*
X007856Y019283D01*
X007856Y019187D01*
X007856Y019200D02*
X007378Y019200D01*
X007409Y019042D02*
X007469Y019042D01*
X007751Y019235D02*
X007530Y019456D01*
X007469Y019517D02*
X006801Y019517D01*
X007236Y019359D02*
X007469Y019359D01*
X007751Y019235D02*
X007904Y019235D01*
X008645Y019259D02*
X009322Y019259D01*
X009618Y019359D02*
X009774Y019359D01*
X009999Y019235D02*
X010210Y019235D01*
X010312Y017932D02*
X010322Y017932D01*
X009936Y017523D02*
X009915Y017502D01*
X009915Y016853D01*
X009915Y016322D01*
X010210Y016026D01*
X010162Y016030D02*
X009724Y016030D01*
X009724Y016074D02*
X009724Y015813D01*
X009774Y015813D01*
X009774Y015979D01*
X010162Y015979D01*
X010162Y016074D01*
X009774Y016074D01*
X009774Y016280D01*
X009716Y016280D01*
X009716Y016093D01*
X009724Y016074D01*
X009716Y016189D02*
X009774Y016189D01*
X009774Y015872D02*
X009724Y015872D01*
X009436Y016034D02*
X009436Y012786D01*
X009724Y012860D02*
X010162Y012860D01*
X009774Y012702D02*
X009724Y012702D01*
X009724Y013019D02*
X009774Y013019D01*
X010832Y013313D02*
X010832Y013364D01*
X010837Y013369D01*
X010837Y013313D01*
X010832Y013313D01*
X010832Y013336D02*
X010837Y013336D01*
X010332Y015496D02*
X010332Y015551D01*
X010336Y015551D01*
X010336Y015500D01*
X010332Y015496D01*
X010312Y016506D02*
X010336Y016506D01*
X010336Y016664D02*
X010312Y016664D01*
X010312Y016823D02*
X010369Y016823D01*
X010312Y016981D02*
X010521Y016981D01*
X010312Y017140D02*
X010837Y017140D01*
X010837Y017298D02*
X010304Y017298D01*
X009943Y017298D02*
X009887Y017298D01*
X009887Y017140D02*
X009943Y017140D01*
X009943Y016981D02*
X009887Y016981D01*
X010836Y016588D02*
X010837Y016590D01*
X010837Y016522D01*
X010836Y016522D01*
X010836Y016588D01*
X012019Y016280D02*
X012019Y016102D01*
X012019Y015813D01*
X012080Y015813D01*
X012080Y015979D01*
X012468Y015979D01*
X012468Y016074D01*
X012080Y016074D01*
X012080Y016280D01*
X012019Y016280D01*
X012019Y016189D02*
X012080Y016189D01*
X012019Y016030D02*
X012468Y016030D01*
X012516Y016026D02*
X012221Y016322D01*
X012221Y016853D01*
X012221Y017482D01*
X012219Y017483D01*
X012193Y017298D02*
X012249Y017298D01*
X012249Y017140D02*
X012193Y017140D01*
X012193Y016981D02*
X012249Y016981D01*
X012617Y016981D02*
X012820Y016981D01*
X012673Y016823D02*
X012617Y016823D01*
X012617Y016664D02*
X012643Y016664D01*
X012643Y016506D02*
X012617Y016506D01*
X013143Y016522D02*
X013143Y016580D01*
X013143Y016522D01*
X013143Y016522D01*
X013143Y016580D02*
X013143Y016580D01*
X013143Y017140D02*
X012617Y017140D01*
X012610Y017298D02*
X013143Y017298D01*
X012673Y017932D02*
X012618Y017932D01*
X012915Y018578D02*
X012853Y018640D01*
X012761Y018678D01*
X012662Y018678D01*
X012637Y018678D01*
X012637Y018760D01*
X012796Y018760D01*
X012842Y018772D01*
X012874Y018791D01*
X012926Y018740D01*
X013143Y018740D01*
X013143Y018525D01*
X013015Y018578D01*
X012915Y018578D01*
X013043Y018566D02*
X013143Y018566D01*
X013143Y018725D02*
X012637Y018725D01*
X012468Y019187D02*
X012080Y019187D01*
X012080Y019022D01*
X012019Y019022D01*
X012019Y019161D01*
X011976Y019264D01*
X011898Y019343D01*
X011768Y019472D01*
X011665Y019515D01*
X011553Y019515D01*
X011414Y019515D01*
X011414Y019585D01*
X012089Y019585D01*
X012080Y019554D01*
X012080Y019283D01*
X012468Y019283D01*
X012468Y019187D01*
X012468Y019200D02*
X012003Y019200D01*
X012019Y019042D02*
X012080Y019042D01*
X012080Y019359D02*
X011882Y019359D01*
X012080Y019517D02*
X011414Y019517D01*
X012145Y019507D02*
X012416Y019235D01*
X012516Y019235D01*
X013720Y019515D02*
X013720Y019585D01*
X014602Y019585D01*
X014552Y019535D01*
X014548Y019531D01*
X014548Y019357D01*
X014556Y019349D01*
X014556Y019345D01*
X014568Y019333D01*
X014568Y019329D01*
X014572Y019325D01*
X014580Y019317D01*
X014580Y019313D01*
X014588Y019305D01*
X014592Y019301D01*
X014592Y019297D01*
X014604Y019285D01*
X014604Y019281D01*
X014616Y019269D01*
X014616Y019265D01*
X014628Y019253D01*
X014628Y019249D01*
X014632Y019245D01*
X014640Y019237D01*
X014640Y019233D01*
X014648Y019225D01*
X014652Y019221D01*
X014652Y019217D01*
X014660Y019209D01*
X014660Y019205D01*
X014672Y019193D01*
X014672Y019189D01*
X014676Y019185D01*
X014684Y019177D01*
X014684Y019173D01*
X014696Y019161D01*
X014696Y019157D01*
X014708Y019145D01*
X014708Y019141D01*
X014720Y019129D01*
X014720Y019125D01*
X014732Y019113D01*
X014732Y019109D01*
X014736Y019105D01*
X014744Y019097D01*
X014744Y019093D01*
X014748Y019089D01*
X014752Y019085D01*
X014756Y019081D01*
X014756Y019077D01*
X014767Y019066D01*
X014749Y019048D01*
X014685Y019048D01*
X014568Y018931D01*
X014568Y018915D01*
X014564Y018911D01*
X014564Y018903D01*
X014476Y018815D01*
X014456Y018795D01*
X014456Y018787D01*
X014452Y018783D01*
X014452Y018779D01*
X014452Y018779D01*
X014452Y018601D01*
X014452Y018593D01*
X014456Y018589D01*
X014456Y018581D01*
X014472Y018565D01*
X014550Y018487D01*
X014494Y018464D01*
X014362Y018331D01*
X014362Y019114D01*
X014319Y019217D01*
X014240Y019295D01*
X014063Y019472D01*
X013960Y019515D01*
X013720Y019515D01*
X013720Y019517D02*
X014548Y019517D01*
X014552Y019535D02*
X014552Y019535D01*
X014548Y019359D02*
X014177Y019359D01*
X014326Y019200D02*
X014665Y019200D01*
X014672Y019193D02*
X014672Y019193D01*
X014672Y019193D01*
X014676Y019185D02*
X014676Y019185D01*
X014648Y019225D02*
X014648Y019225D01*
X014632Y019245D02*
X014632Y019245D01*
X014588Y019305D02*
X014588Y019305D01*
X014572Y019325D02*
X014572Y019325D01*
X014736Y019105D02*
X014736Y019105D01*
X014748Y019089D02*
X014748Y019089D01*
X014752Y019085D02*
X014752Y019085D01*
X014678Y019042D02*
X014362Y019042D01*
X014362Y018883D02*
X014544Y018883D01*
X014452Y018725D02*
X014362Y018725D01*
X014452Y018601D02*
X014452Y018601D01*
X014471Y018566D02*
X014362Y018566D01*
X014472Y018565D02*
X014472Y018565D01*
X014438Y018408D02*
X014362Y018408D01*
X015261Y018180D02*
X015294Y018180D01*
X015278Y018139D01*
X015278Y017341D01*
X015278Y018139D01*
X015261Y018180D01*
X015278Y018091D02*
X015278Y018091D01*
X015278Y017932D02*
X015278Y017932D01*
X015278Y017774D02*
X015278Y017774D01*
X015278Y017615D02*
X015278Y017615D01*
X015278Y017457D02*
X015278Y017457D01*
X015295Y017298D02*
X015260Y017298D01*
X015184Y017140D02*
X015371Y017140D01*
X015579Y016981D02*
X014976Y016981D01*
X014579Y016981D02*
X014362Y016981D01*
X014362Y016823D02*
X016069Y016823D01*
X016069Y016981D02*
X015976Y016981D01*
X016069Y018455D02*
X016061Y018464D01*
X015877Y018540D01*
X015678Y018540D01*
X015704Y018565D01*
X015704Y018565D01*
X015708Y018569D01*
X015716Y018577D01*
X015716Y018581D01*
X015720Y018585D01*
X015720Y018597D01*
X015724Y018601D01*
X015724Y018779D01*
X015720Y018783D01*
X015720Y018791D01*
X015716Y018795D01*
X015716Y018799D01*
X015712Y018803D01*
X015708Y018807D01*
X015704Y018811D01*
X015700Y018815D01*
X015628Y018887D01*
X015628Y018895D01*
X015624Y018899D01*
X015624Y018903D01*
X015620Y018907D01*
X015620Y018911D01*
X015616Y018915D01*
X015612Y018919D01*
X015612Y018923D01*
X015608Y018927D01*
X015604Y018931D01*
X015600Y018935D01*
X015482Y019052D01*
X015474Y019060D01*
X015470Y019060D01*
X015462Y019068D01*
X015458Y019068D01*
X015454Y019072D01*
X015450Y019072D01*
X015446Y019076D01*
X015442Y019076D01*
X015438Y019080D01*
X015426Y019080D01*
X015422Y019084D01*
X015424Y019085D01*
X015424Y019085D01*
X015428Y019089D01*
X015432Y019093D01*
X015432Y019097D01*
X015440Y019105D01*
X015440Y019105D01*
X015444Y019109D01*
X015444Y019113D01*
X015456Y019125D01*
X015456Y019129D01*
X015468Y019141D01*
X015468Y019145D01*
X015480Y019157D01*
X015480Y019161D01*
X015484Y019165D01*
X015484Y019165D01*
X015492Y019173D01*
X015492Y019177D01*
X015500Y019185D01*
X015500Y019189D01*
X015508Y019197D01*
X015508Y019197D01*
X015516Y019205D01*
X015516Y019209D01*
X015524Y019217D01*
X015524Y019221D01*
X015528Y019225D01*
X015528Y019225D01*
X015536Y019233D01*
X015536Y019237D01*
X015544Y019245D01*
X015544Y019245D01*
X015548Y019249D01*
X015548Y019253D01*
X015560Y019265D01*
X015560Y019269D01*
X015572Y019281D01*
X015572Y019285D01*
X015580Y019293D01*
X015584Y019297D01*
X015584Y019301D01*
X015588Y019305D01*
X015588Y019305D01*
X015596Y019313D01*
X015596Y019317D01*
X015604Y019325D01*
X015604Y019325D01*
X015608Y019329D01*
X015608Y019333D01*
X015620Y019345D01*
X015620Y019349D01*
X015628Y019357D01*
X015628Y019531D01*
X015624Y019535D01*
X015573Y019585D01*
X016069Y019585D01*
X016069Y018455D01*
X016069Y018566D02*
X015704Y018566D01*
X015708Y018569D02*
X015708Y018569D01*
X015724Y018725D02*
X016069Y018725D01*
X016069Y018883D02*
X015631Y018883D01*
X015616Y018915D02*
X015616Y018915D01*
X015600Y018935D02*
X015600Y018935D01*
X015493Y019042D02*
X016069Y019042D01*
X016069Y019200D02*
X015510Y019200D01*
X015580Y019293D02*
X015580Y019293D01*
X015628Y019359D02*
X016069Y019359D01*
X016069Y019517D02*
X015628Y019517D01*
X015624Y019535D02*
X015624Y019535D01*
X015428Y019089D02*
X015428Y019089D01*
X015422Y019084D02*
X015422Y019084D01*
X015482Y019052D02*
X015482Y019052D01*
X015700Y018815D02*
X015700Y018815D01*
X014371Y017140D02*
X014362Y017140D01*
X012080Y015872D02*
X012019Y015872D01*
X010857Y017932D02*
X010841Y017932D01*
X008948Y018428D02*
X008948Y018956D01*
X008645Y019259D01*
X006224Y018740D02*
X006224Y018553D01*
X006123Y018654D01*
X005984Y018712D01*
X005833Y018712D01*
X005752Y018678D01*
X005719Y018678D01*
X005719Y018760D01*
X005877Y018760D01*
X005923Y018772D01*
X005955Y018791D01*
X006007Y018740D01*
X006224Y018740D01*
X006224Y018725D02*
X005719Y018725D01*
X005549Y019187D02*
X005161Y019187D01*
X005161Y019022D01*
X005094Y019022D01*
X005094Y019035D01*
X005051Y019138D01*
X004972Y019217D01*
X004717Y019472D01*
X004614Y019515D01*
X004502Y019515D01*
X004494Y019515D01*
X004494Y019585D01*
X005170Y019585D01*
X005161Y019554D01*
X005161Y019283D01*
X005549Y019283D01*
X005549Y019187D01*
X005549Y019200D02*
X004989Y019200D01*
X005046Y019247D02*
X005058Y019235D01*
X005597Y019235D01*
X005161Y019359D02*
X004831Y019359D01*
X004558Y019235D02*
X004814Y018979D01*
X004814Y016015D01*
X005094Y016030D02*
X005549Y016030D01*
X005549Y016074D02*
X005549Y015979D01*
X005161Y015979D01*
X005161Y015813D01*
X005094Y015813D01*
X005094Y016280D01*
X005161Y016280D01*
X005161Y016074D01*
X005549Y016074D01*
X005597Y016026D02*
X005597Y016558D01*
X005302Y016853D01*
X005302Y017475D01*
X005353Y017526D01*
X005330Y017298D02*
X005274Y017298D01*
X005274Y017140D02*
X005330Y017140D01*
X005330Y016981D02*
X005274Y016981D01*
X005699Y016981D02*
X005899Y016981D01*
X005749Y016823D02*
X005699Y016823D01*
X005699Y016664D02*
X005717Y016664D01*
X005717Y016506D02*
X005699Y016506D01*
X006217Y016522D02*
X006217Y016592D01*
X006224Y016599D01*
X006224Y016522D01*
X006217Y016522D01*
X006345Y016026D02*
X006641Y015731D01*
X006641Y015219D01*
X006224Y015238D02*
X006162Y015238D01*
X006217Y015396D02*
X006224Y015396D01*
X006224Y015079D02*
X006003Y015079D01*
X006224Y014921D02*
X005719Y014921D01*
X005719Y014762D02*
X006224Y014762D01*
X006231Y014128D02*
X005675Y014128D01*
X005699Y013970D02*
X006224Y013970D01*
X005942Y013811D02*
X005699Y013811D01*
X005783Y013653D02*
X005330Y013653D01*
X005274Y013653D02*
X005094Y013653D01*
X005094Y013673D02*
X005274Y013673D01*
X005274Y013616D01*
X005094Y013616D01*
X005094Y013673D01*
X005274Y013811D02*
X005330Y013811D01*
X005330Y013970D02*
X005274Y013970D01*
X005274Y013494D02*
X005330Y013494D01*
X005330Y013336D02*
X005274Y013336D01*
X005699Y013336D02*
X005713Y013336D01*
X005699Y013494D02*
X005713Y013494D01*
X006213Y013376D02*
X006221Y013383D01*
X006224Y013383D01*
X006224Y013313D01*
X006213Y013313D01*
X006213Y013376D01*
X006213Y013336D02*
X006224Y013336D01*
X007413Y013019D02*
X007469Y013019D01*
X007469Y012702D02*
X007413Y012702D01*
X008026Y012343D02*
X008026Y012316D01*
X008028Y012319D01*
X008028Y012343D01*
X008026Y012343D01*
X008529Y013313D02*
X008531Y013315D01*
X008531Y013313D01*
X008529Y013313D01*
X006849Y011275D02*
X005094Y011275D01*
X005094Y011117D02*
X006849Y011117D01*
X006224Y010182D02*
X006224Y010104D01*
X006221Y010104D01*
X006221Y010182D01*
X006224Y010182D01*
X006221Y010166D02*
X006224Y010166D01*
X004534Y011117D02*
X002767Y011117D01*
X002767Y011275D02*
X004534Y011275D01*
X003414Y012311D02*
X003411Y012308D01*
X003411Y012343D01*
X003414Y012343D01*
X003414Y012311D01*
X003391Y013336D02*
X003414Y013336D01*
X003424Y013494D02*
X003391Y013494D01*
X003023Y013494D02*
X002967Y013494D01*
X002967Y013616D02*
X002767Y013616D01*
X002767Y013673D01*
X002967Y013673D01*
X002967Y013616D01*
X002967Y013653D02*
X002767Y013653D01*
X002967Y013811D02*
X003023Y013811D01*
X003023Y013970D02*
X002967Y013970D01*
X002967Y014128D02*
X003023Y014128D01*
X002995Y014361D02*
X003026Y014393D01*
X002995Y014361D02*
X002995Y013645D01*
X002967Y013336D02*
X003023Y013336D01*
X003914Y013317D02*
X003917Y013319D01*
X003917Y013313D01*
X003914Y013313D01*
X003914Y013317D01*
X004534Y014287D02*
X002767Y014287D01*
X002767Y014445D02*
X004534Y014445D01*
X004534Y014604D02*
X002767Y014604D01*
X002207Y014604D02*
X001901Y014604D01*
X001909Y014621D02*
X001909Y014626D01*
X002207Y014626D01*
X002207Y014238D01*
X001730Y014238D01*
X001613Y014121D01*
X001613Y013875D01*
X001524Y013875D01*
X001432Y013837D01*
X001362Y013766D01*
X001149Y013554D01*
X001111Y013462D01*
X001111Y013293D01*
X001088Y013293D01*
X001088Y013616D01*
X000720Y013616D01*
X000720Y013673D01*
X001088Y013673D01*
X001088Y014062D01*
X001076Y014108D01*
X001052Y014149D01*
X001018Y014182D01*
X000977Y014206D01*
X000931Y014218D01*
X000720Y014218D01*
X000720Y013673D01*
X000663Y013673D01*
X000663Y014218D01*
X000488Y014218D01*
X000488Y014626D01*
X000991Y014626D01*
X001098Y014733D01*
X001152Y014678D01*
X001152Y014621D01*
X001210Y014482D01*
X001316Y014375D01*
X001455Y014318D01*
X001606Y014318D01*
X001745Y014375D01*
X001851Y014482D01*
X001909Y014621D01*
X001814Y014445D02*
X002207Y014445D01*
X002207Y014287D02*
X000488Y014287D01*
X000488Y014445D02*
X001246Y014445D01*
X001159Y014604D02*
X000488Y014604D01*
X000759Y014365D02*
X000691Y014298D01*
X000691Y013645D01*
X000691Y013113D01*
X000987Y012818D01*
X000939Y012860D02*
X000488Y012860D01*
X000551Y012866D02*
X000551Y013071D01*
X000488Y013071D01*
X000488Y012604D01*
X000551Y012604D01*
X000551Y012770D01*
X000939Y012770D01*
X000939Y012866D01*
X000551Y012866D01*
X000551Y013019D02*
X000488Y013019D01*
X000488Y012702D02*
X000551Y012702D01*
X000663Y013281D02*
X000663Y013616D01*
X000720Y013616D01*
X000720Y013293D01*
X000707Y013293D01*
X000663Y013281D01*
X000663Y013336D02*
X000720Y013336D01*
X000720Y013494D02*
X000663Y013494D01*
X000663Y013616D02*
X000488Y013616D01*
X000488Y013673D01*
X000663Y013673D01*
X000663Y013616D01*
X000663Y013653D02*
X000488Y013653D01*
X000720Y013653D02*
X001248Y013653D01*
X001124Y013494D02*
X001088Y013494D01*
X001088Y013336D02*
X001111Y013336D01*
X001088Y013811D02*
X001406Y013811D01*
X001613Y013970D02*
X001088Y013970D01*
X001064Y014128D02*
X001620Y014128D01*
X001530Y014696D02*
X001007Y015219D01*
X000691Y015219D01*
X001108Y015481D02*
X001108Y015551D01*
X001266Y015551D01*
X001312Y015563D01*
X001345Y015582D01*
X001396Y015531D01*
X001613Y015531D01*
X001613Y015071D01*
X001606Y015074D01*
X001548Y015074D01*
X001165Y015457D01*
X001108Y015481D01*
X001226Y015396D02*
X001613Y015396D01*
X001613Y015238D02*
X001385Y015238D01*
X001543Y015079D02*
X001613Y015079D01*
X001372Y015555D02*
X001279Y015555D01*
X000987Y016026D02*
X000987Y016220D01*
X000696Y016511D01*
X000788Y016603D01*
X000788Y017720D01*
X000808Y017700D02*
X000808Y016940D01*
X000825Y016940D01*
X000900Y016952D01*
X000972Y016975D01*
X001039Y017009D01*
X001100Y017054D01*
X001154Y017107D01*
X001198Y017168D01*
X001232Y017236D01*
X001256Y017308D01*
X001268Y017382D01*
X001268Y017700D01*
X000808Y017700D01*
X000808Y017774D02*
X000768Y017774D01*
X000768Y017932D02*
X000808Y017932D01*
X000808Y018091D02*
X000768Y018091D01*
X000768Y018249D02*
X000808Y018249D01*
X000808Y018408D02*
X000768Y018408D01*
X000504Y018408D02*
X000488Y018408D01*
X000488Y018566D02*
X002578Y018566D01*
X002578Y018408D02*
X002107Y018408D01*
X002234Y018249D02*
X002578Y018249D01*
X002578Y018091D02*
X002288Y018091D01*
X002288Y017932D02*
X002598Y017932D01*
X002995Y017503D02*
X003026Y017534D01*
X002995Y017503D02*
X002995Y016853D01*
X002995Y016322D01*
X003290Y016026D01*
X003242Y016030D02*
X002735Y016030D01*
X002767Y015872D02*
X002854Y015872D01*
X002854Y016189D02*
X002591Y016189D01*
X002636Y016347D02*
X002190Y016347D01*
X002090Y016506D02*
X002598Y016506D01*
X002598Y016664D02*
X002068Y016664D01*
X002068Y016823D02*
X002598Y016823D01*
X002598Y016981D02*
X002068Y016981D01*
X002213Y017140D02*
X002598Y017140D01*
X002606Y017298D02*
X002278Y017298D01*
X002967Y017298D02*
X003023Y017298D01*
X003023Y017140D02*
X002967Y017140D01*
X002967Y016981D02*
X003023Y016981D01*
X003023Y016823D02*
X002967Y016823D01*
X002967Y016664D02*
X003023Y016664D01*
X003023Y016506D02*
X002967Y016506D01*
X003391Y016506D02*
X003414Y016506D01*
X003414Y016664D02*
X003391Y016664D01*
X003391Y016823D02*
X003508Y016823D01*
X003391Y016981D02*
X003667Y016981D01*
X003917Y017140D02*
X003391Y017140D01*
X003384Y017298D02*
X003917Y017298D01*
X003936Y017932D02*
X003660Y017932D01*
X003871Y018091D02*
X003917Y018091D01*
X003917Y018387D02*
X003867Y018508D01*
X003760Y018615D01*
X003621Y018672D01*
X003476Y018672D01*
X003462Y018678D01*
X003411Y018678D01*
X003411Y018760D01*
X003570Y018760D01*
X003616Y018772D01*
X003648Y018791D01*
X003700Y018740D01*
X003917Y018740D01*
X003917Y018387D01*
X003917Y018408D02*
X003908Y018408D01*
X003917Y018566D02*
X003809Y018566D01*
X003917Y018725D02*
X003411Y018725D01*
X003242Y019200D02*
X000488Y019200D01*
X000488Y019042D02*
X002854Y019042D01*
X002617Y019235D02*
X002605Y019247D01*
X002617Y019235D02*
X003290Y019235D01*
X002854Y019359D02*
X000488Y019359D01*
X000488Y019517D02*
X002854Y019517D01*
X002578Y018883D02*
X000488Y018883D01*
X000488Y018725D02*
X002578Y018725D01*
X003392Y017932D02*
X003432Y017932D01*
X004334Y018428D02*
X004334Y018940D01*
X004038Y019235D01*
X004558Y019235D01*
X004494Y019517D02*
X005161Y019517D01*
X005161Y019042D02*
X005091Y019042D01*
X005699Y017932D02*
X006244Y017932D01*
X006224Y018091D02*
X006200Y018091D01*
X006211Y018566D02*
X006224Y018566D01*
X006224Y017298D02*
X005691Y017298D01*
X005699Y017140D02*
X006224Y017140D01*
X005161Y016189D02*
X005094Y016189D01*
X005094Y015872D02*
X005161Y015872D01*
X003917Y016522D02*
X003917Y016524D01*
X003915Y016522D01*
X003917Y016522D01*
X003414Y015551D02*
X003414Y015488D01*
X003411Y015486D01*
X003411Y015551D01*
X003414Y015551D01*
X002030Y015731D02*
X002030Y015219D01*
X002030Y015731D02*
X001735Y016026D01*
X001380Y016506D02*
X000488Y016506D01*
X000587Y016432D02*
X000563Y016391D01*
X000551Y016345D01*
X000551Y016074D01*
X000939Y016074D01*
X000939Y016502D01*
X000707Y016502D01*
X000661Y016489D01*
X000620Y016466D01*
X000587Y016432D01*
X000551Y016347D02*
X000488Y016347D01*
X000488Y016189D02*
X000551Y016189D01*
X000488Y016030D02*
X000939Y016030D01*
X000939Y016189D02*
X001034Y016189D01*
X001034Y016347D02*
X000939Y016347D01*
X000551Y015872D02*
X000488Y015872D01*
X000488Y016664D02*
X001508Y016664D01*
X001508Y016823D02*
X000488Y016823D01*
X000488Y016981D02*
X000592Y016981D01*
X000768Y016981D02*
X000808Y016981D01*
X000808Y017140D02*
X000768Y017140D01*
X000768Y017298D02*
X000808Y017298D01*
X000808Y017457D02*
X000768Y017457D01*
X000768Y017615D02*
X000808Y017615D01*
X001268Y017615D02*
X001288Y017615D01*
X001288Y017457D02*
X001268Y017457D01*
X001253Y017298D02*
X001297Y017298D01*
X001363Y017140D02*
X001177Y017140D01*
X000983Y016981D02*
X001508Y016981D01*
X001288Y017774D02*
X001268Y017774D01*
X001268Y017932D02*
X001288Y017932D01*
X001288Y018091D02*
X001262Y018091D01*
X001210Y018249D02*
X001341Y018249D01*
X001468Y018408D02*
X001071Y018408D01*
X000720Y014128D02*
X000663Y014128D01*
X000663Y013970D02*
X000720Y013970D01*
X000720Y013811D02*
X000663Y013811D01*
X001735Y012818D02*
X002030Y012523D01*
X002030Y012011D01*
X002207Y011275D02*
X000488Y011275D01*
X000488Y011117D02*
X002207Y011117D01*
X001108Y012339D02*
X001108Y012343D01*
X001111Y012343D01*
X001108Y012339D01*
X002767Y008105D02*
X004534Y008105D01*
X004534Y007947D02*
X002767Y007947D01*
X002967Y007788D02*
X003023Y007788D01*
X003023Y007801D02*
X003023Y007256D01*
X003391Y007256D01*
X003391Y007645D01*
X003379Y007690D01*
X003356Y007731D01*
X003322Y007765D01*
X003281Y007789D01*
X003235Y007801D01*
X003023Y007801D01*
X003023Y007630D02*
X002967Y007630D01*
X002967Y007471D02*
X003023Y007471D01*
X003023Y007313D02*
X002967Y007313D01*
X003282Y007788D02*
X004001Y007788D01*
X003917Y007630D02*
X003391Y007630D01*
X003391Y007471D02*
X003698Y007471D01*
X003534Y007313D02*
X003391Y007313D01*
X003391Y007154D02*
X003418Y007154D01*
X003410Y006996D02*
X003391Y006996D01*
X003910Y006982D02*
X003917Y006989D01*
X003917Y006896D01*
X003910Y006896D01*
X003910Y006982D01*
X002854Y006520D02*
X002767Y006520D01*
X001613Y006896D02*
X001613Y006950D01*
X001607Y006950D01*
X001607Y006896D01*
X001613Y006896D01*
X002207Y004935D02*
X000488Y004935D01*
X000488Y004777D02*
X002207Y004777D01*
X002207Y004618D02*
X000488Y004618D01*
X000663Y004460D02*
X000720Y004460D01*
X000720Y004301D02*
X000663Y004301D01*
X000663Y004143D02*
X000720Y004143D01*
X000663Y004047D02*
X000663Y003990D01*
X000488Y003990D01*
X000488Y004047D01*
X000663Y004047D01*
X000691Y004019D02*
X000691Y003043D01*
X000759Y002975D01*
X000861Y002975D01*
X001294Y002542D01*
X001434Y002399D02*
X001131Y002399D01*
X001241Y002241D02*
X001324Y002241D01*
X001283Y002082D02*
X001283Y002082D01*
X001283Y001924D02*
X001283Y001924D01*
X001283Y001765D02*
X001283Y001765D01*
X001283Y001607D02*
X001283Y001607D01*
X001283Y001448D02*
X001283Y001448D01*
X001261Y001290D02*
X001304Y001290D01*
X001384Y001131D02*
X001181Y001131D01*
X000960Y000973D02*
X001605Y000973D01*
X001960Y000973D02*
X002598Y000973D01*
X002598Y001131D02*
X002181Y001131D01*
X002598Y000656D02*
X000488Y000656D01*
X000488Y000497D02*
X002598Y000497D01*
X003391Y000497D02*
X003781Y000497D01*
X003660Y000656D02*
X003391Y000656D01*
X002373Y001607D02*
X002283Y001607D01*
X002207Y002322D02*
X002206Y002323D01*
X002203Y002327D01*
X002207Y002331D01*
X002207Y002322D01*
X001889Y002897D02*
X002030Y003038D01*
X002030Y004019D01*
X002767Y004618D02*
X004534Y004618D01*
X004534Y004777D02*
X002767Y004777D01*
X002775Y004935D02*
X004534Y004935D01*
X003917Y003713D02*
X003917Y003687D01*
X003914Y003687D01*
X003914Y003710D01*
X003917Y003713D01*
X002995Y004019D02*
X002995Y004715D01*
X003026Y004747D01*
X003023Y004460D02*
X002967Y004460D01*
X002967Y004301D02*
X003023Y004301D01*
X003023Y004143D02*
X002967Y004143D01*
X004715Y001778D02*
X007117Y001778D01*
X007054Y001290D02*
X007234Y001290D01*
X007213Y001131D02*
X007057Y001131D01*
X007057Y000973D02*
X007213Y000973D01*
X007057Y000814D02*
X007581Y000814D01*
X007609Y000810D02*
X007609Y001271D01*
X007767Y001428D01*
X007995Y001200D01*
X007995Y001196D01*
X008432Y001196D01*
X008364Y001131D02*
X008531Y001131D01*
X008534Y001290D02*
X007984Y001290D01*
X008006Y001131D02*
X008090Y001131D01*
X007849Y000838D02*
X007849Y000782D01*
X007637Y000782D01*
X007637Y000460D01*
X007581Y000460D01*
X007581Y000782D01*
X007637Y000782D01*
X007637Y000838D01*
X007849Y000838D01*
X007849Y000814D02*
X007637Y000814D01*
X007637Y000656D02*
X007581Y000656D01*
X007581Y000497D02*
X007637Y000497D01*
X008006Y000465D02*
X008011Y000460D01*
X008006Y000460D01*
X008006Y000465D01*
X007637Y000973D02*
X007581Y000973D01*
X007581Y001131D02*
X007637Y001131D01*
X007637Y001290D02*
X007581Y001290D01*
X007213Y000656D02*
X007057Y000656D01*
X007057Y000497D02*
X007213Y000497D01*
X006227Y001290D02*
X005677Y001290D01*
X008444Y000460D02*
X008512Y000528D01*
X008531Y000528D01*
X008531Y000460D01*
X008444Y000460D01*
X008481Y000497D02*
X008531Y000497D01*
X006224Y005728D02*
X006221Y005728D01*
X006221Y005886D02*
X006224Y005886D01*
X005721Y005886D02*
X005719Y005886D01*
X005721Y005882D02*
X005719Y005879D01*
X005719Y005925D01*
X005721Y005925D01*
X005721Y005882D01*
X005161Y006520D02*
X005094Y006520D01*
X005274Y006996D02*
X005330Y006996D01*
X005330Y007154D02*
X005274Y007154D01*
X005274Y007199D02*
X005094Y007199D01*
X005094Y007256D01*
X005274Y007256D01*
X005274Y007199D01*
X005330Y007256D02*
X005330Y007801D01*
X005542Y007801D01*
X005588Y007789D01*
X005629Y007765D01*
X005663Y007731D01*
X005686Y007690D01*
X005699Y007645D01*
X005699Y007256D01*
X005330Y007256D01*
X005330Y007313D02*
X005274Y007313D01*
X005274Y007471D02*
X005330Y007471D01*
X005330Y007630D02*
X005274Y007630D01*
X005274Y007788D02*
X005330Y007788D01*
X005589Y007788D02*
X006308Y007788D01*
X006224Y007630D02*
X005699Y007630D01*
X005699Y007471D02*
X006050Y007471D01*
X005841Y007313D02*
X005699Y007313D01*
X005699Y007154D02*
X005727Y007154D01*
X005721Y006996D02*
X005699Y006996D01*
X006221Y006973D02*
X006224Y006973D01*
X006224Y006896D01*
X006221Y006896D01*
X006221Y006973D01*
X006849Y007947D02*
X005094Y007947D01*
X005094Y008105D02*
X006849Y008105D01*
X008006Y010166D02*
X008036Y010166D01*
X008051Y010324D02*
X008006Y010324D01*
X008006Y010483D02*
X008176Y010483D01*
X008006Y010641D02*
X008531Y010641D01*
X008531Y010800D02*
X008006Y010800D01*
X007952Y010958D02*
X008577Y010958D01*
X010332Y009134D02*
X010332Y009126D01*
X010332Y009126D01*
X010332Y009134D01*
X010332Y009134D01*
X012637Y005925D02*
X012637Y005920D01*
X012639Y005921D01*
X012639Y005925D01*
X012637Y005925D01*
X014882Y003509D02*
X014924Y003509D01*
X014923Y003667D02*
X014924Y003667D01*
X014923Y003826D02*
X014924Y003826D01*
X014923Y003984D02*
X014924Y003984D01*
X015484Y003350D02*
X016069Y003350D01*
X016069Y003192D02*
X015484Y003192D01*
X015484Y003033D02*
X016069Y003033D01*
X016069Y002875D02*
X015484Y002875D01*
X015442Y002716D02*
X016069Y002716D01*
X016069Y002558D02*
X015284Y002558D01*
X015131Y002399D02*
X015444Y002399D01*
X015331Y002241D02*
X015244Y002241D01*
X015288Y002082D02*
X015288Y002082D01*
X015288Y001924D02*
X015288Y001924D01*
X015288Y001765D02*
X015288Y001765D01*
X015288Y001607D02*
X015288Y001607D01*
X015288Y001448D02*
X015288Y001448D01*
X015268Y001290D02*
X015307Y001290D01*
X015384Y001131D02*
X015191Y001131D01*
X014978Y000973D02*
X015598Y000973D01*
X015978Y000973D02*
X016069Y000973D01*
X016069Y000814D02*
X013976Y000814D01*
X013976Y000656D02*
X016069Y000656D01*
X016069Y000497D02*
X013976Y000497D01*
X013976Y000973D02*
X014598Y000973D01*
X014384Y001131D02*
X013976Y001131D01*
X013973Y001290D02*
X014307Y001290D01*
X000720Y003509D02*
X000663Y003509D01*
X000663Y003667D02*
X000720Y003667D01*
X000720Y003826D02*
X000663Y003826D01*
X000663Y003984D02*
X000720Y003984D01*
D232*
X000759Y002975D03*
X003026Y004747D03*
X005353Y004747D03*
X007609Y004692D03*
X009936Y004790D03*
X012219Y004806D03*
X014727Y007873D03*
X015967Y006416D03*
X015011Y005109D03*
X015822Y004731D03*
X013054Y001231D03*
X013026Y000794D03*
X010676Y001274D03*
X010589Y000806D03*
X008432Y001196D03*
X008227Y000778D03*
X006058Y001208D03*
X005806Y000810D03*
X004007Y000806D03*
X003448Y001145D03*
X003026Y007987D03*
X000759Y008023D03*
X000759Y011215D03*
X003026Y011211D03*
X005353Y011137D03*
X007609Y011211D03*
X009936Y011101D03*
X012219Y011156D03*
X014727Y011204D03*
X015967Y012771D03*
X014523Y014365D03*
X015885Y015932D03*
X012940Y018200D03*
X012219Y017483D03*
X010582Y018208D03*
X009936Y017523D03*
X008290Y018263D03*
X007609Y017515D03*
X005908Y018334D03*
X005353Y017526D03*
X005046Y019247D03*
X003546Y018294D03*
X003026Y017534D03*
X002605Y019247D03*
X000696Y016511D03*
X001530Y014696D03*
X000759Y014365D03*
X003026Y014393D03*
X005353Y014432D03*
X007609Y014511D03*
X009936Y014294D03*
X012219Y014318D03*
X015967Y009605D03*
X012219Y008113D03*
X009936Y008038D03*
X007609Y008007D03*
X005353Y007971D03*
X007530Y019456D03*
X009763Y019471D03*
X012145Y019507D03*
D233*
X012221Y018428D02*
X012711Y018428D01*
X012940Y018200D01*
X013560Y016853D02*
X013536Y016830D01*
X013023Y016830D01*
X012893Y016700D01*
X012893Y015475D01*
X012637Y015219D01*
X012221Y015219D01*
X011254Y013645D02*
X011238Y013629D01*
X010743Y013629D01*
X010582Y013467D01*
X010582Y012172D01*
X010420Y012011D01*
X009915Y012011D01*
X010708Y010428D02*
X011246Y010428D01*
X011254Y010436D01*
X010708Y010428D02*
X010582Y010302D01*
X010582Y009023D01*
X010361Y008802D01*
X009915Y008802D01*
X008948Y007227D02*
X008448Y007227D01*
X008278Y007058D01*
X008278Y005735D01*
X008137Y005593D01*
X007609Y005593D01*
X008463Y004011D02*
X008282Y003830D01*
X008282Y002605D01*
X008062Y002385D01*
X007609Y002385D01*
X006641Y000810D02*
X005806Y000810D01*
X005802Y002385D02*
X005302Y002385D01*
X005802Y002385D02*
X005971Y002554D01*
X005971Y003822D01*
X006086Y003936D01*
X006558Y003936D01*
X006641Y004019D01*
X005786Y005593D02*
X005971Y005778D01*
X005971Y007089D01*
X006105Y007223D01*
X006637Y007223D01*
X006641Y007227D01*
X005810Y008802D02*
X005971Y008963D01*
X005971Y010330D01*
X006074Y010432D01*
X006637Y010432D01*
X006641Y010436D01*
X005802Y012011D02*
X005963Y012172D01*
X005963Y013479D01*
X006117Y013633D01*
X006629Y013633D01*
X006641Y013645D01*
X005790Y015219D02*
X005967Y015397D01*
X005967Y016696D01*
X006129Y016857D01*
X006637Y016857D01*
X006641Y016853D01*
X005908Y018334D02*
X005814Y018428D01*
X005302Y018428D01*
X004334Y016853D02*
X003893Y016853D01*
X003664Y016625D01*
X003664Y015385D01*
X003499Y015219D01*
X002995Y015219D01*
X002030Y013645D02*
X002010Y013625D01*
X001574Y013625D01*
X001361Y013412D01*
X001361Y012239D01*
X001133Y012011D01*
X000691Y012011D01*
X001621Y010440D02*
X002026Y010440D01*
X002030Y010436D01*
X001621Y010440D02*
X001357Y010176D01*
X001357Y009019D01*
X001141Y008802D01*
X000691Y008802D01*
X001463Y007200D02*
X002002Y007200D01*
X002030Y007227D01*
X001463Y007200D02*
X001357Y007093D01*
X001357Y005869D01*
X001196Y005708D01*
X000649Y005708D01*
X002995Y005593D02*
X003526Y005593D01*
X003660Y005727D01*
X003660Y007086D01*
X003830Y007255D01*
X004306Y007255D01*
X004334Y007227D01*
X003483Y008802D02*
X003664Y008983D01*
X003664Y010341D01*
X003755Y010432D01*
X004330Y010432D01*
X004334Y010436D01*
X003467Y012011D02*
X003664Y012208D01*
X003664Y013420D01*
X003873Y013629D01*
X004318Y013629D01*
X004334Y013645D01*
X005302Y015219D02*
X005790Y015219D01*
X007609Y015219D02*
X008086Y015219D01*
X008274Y015408D01*
X008274Y016711D01*
X008404Y016841D01*
X008936Y016841D01*
X008948Y016853D01*
X008290Y018263D02*
X008125Y018428D01*
X007609Y018428D01*
X008652Y019235D02*
X008948Y018940D01*
X008948Y018428D01*
X009915Y018428D02*
X010361Y018428D01*
X010582Y018208D01*
X010743Y016849D02*
X011250Y016849D01*
X011254Y016853D01*
X010743Y016849D02*
X010586Y016692D01*
X010586Y015397D01*
X010408Y015219D01*
X009915Y015219D01*
X008948Y013645D02*
X008908Y013605D01*
X008467Y013605D01*
X008278Y013416D01*
X008278Y012215D01*
X008074Y012011D01*
X007609Y012011D01*
X008424Y010377D02*
X008889Y010377D01*
X008948Y010436D01*
X008424Y010377D02*
X008286Y010239D01*
X008286Y008987D01*
X008101Y008802D01*
X007609Y008802D01*
X005810Y008802D02*
X005302Y008802D01*
X003483Y008802D02*
X002995Y008802D01*
X002995Y012011D02*
X003467Y012011D01*
X005302Y012011D02*
X005802Y012011D01*
X010582Y007030D02*
X010767Y007215D01*
X011242Y007215D01*
X011254Y007227D01*
X011261Y007219D01*
X010582Y007030D02*
X010582Y005834D01*
X010341Y005593D01*
X009915Y005593D01*
X008948Y004019D02*
X008940Y004011D01*
X008463Y004011D01*
X009915Y002385D02*
X010341Y002385D01*
X010586Y002629D01*
X010586Y003885D01*
X010692Y003991D01*
X011226Y003991D01*
X011254Y004019D01*
X012221Y005593D02*
X012664Y005593D01*
X012889Y005818D01*
X012889Y007082D01*
X013026Y007219D01*
X013552Y007219D01*
X013560Y007227D01*
X013264Y006400D02*
X013560Y006105D01*
X013560Y005593D01*
X014527Y005593D02*
X014979Y005593D01*
X015196Y005810D01*
X015196Y007050D01*
X015377Y007231D01*
X015861Y007231D01*
X015865Y007227D01*
X015865Y008802D02*
X015865Y009314D01*
X015570Y009609D01*
X015196Y009034D02*
X015196Y010263D01*
X015357Y010424D01*
X015854Y010424D01*
X015865Y010436D01*
X015196Y009034D02*
X014963Y008802D01*
X014527Y008802D01*
X013556Y010432D02*
X013054Y010432D01*
X012885Y010263D01*
X012885Y009003D01*
X012684Y008802D01*
X012221Y008802D01*
X013556Y010432D02*
X013560Y010436D01*
X012747Y012011D02*
X012893Y012156D01*
X012893Y013479D01*
X013030Y013617D01*
X013532Y013617D01*
X013560Y013645D01*
X012747Y012011D02*
X012221Y012011D01*
X014527Y012011D02*
X015011Y012011D01*
X015196Y012196D01*
X015196Y013515D01*
X015310Y013629D01*
X015850Y013629D01*
X015865Y013645D01*
X013560Y004019D02*
X013532Y003991D01*
X012991Y003991D01*
X012893Y003893D01*
X012893Y002570D01*
X012708Y002385D01*
X012221Y002385D01*
X013264Y003192D02*
X013560Y002897D01*
X013560Y002385D01*
X013560Y000810D02*
X013544Y000794D01*
X013026Y000794D01*
X011254Y000810D02*
X011250Y000806D01*
X010589Y000806D01*
X010676Y001274D02*
X010814Y001412D01*
X010814Y001452D01*
X008948Y000810D02*
X008916Y000778D01*
X008227Y000778D01*
X004334Y000810D02*
X004330Y000806D01*
X004007Y000806D01*
X003436Y002385D02*
X002995Y002385D01*
X003436Y002385D02*
X003664Y002613D01*
X003664Y003814D01*
X003865Y004015D01*
X004330Y004015D01*
X004334Y004019D01*
X005302Y005593D02*
X005786Y005593D01*
X013540Y003999D02*
X013560Y004019D01*
X003546Y018294D02*
X003412Y018428D01*
X002995Y018428D01*
D234*
X000649Y005708D02*
X000649Y005593D01*
X000691Y005593D01*
X014082Y002483D02*
X014156Y002558D01*
X015822Y004062D02*
X015865Y004019D01*
X015822Y004062D02*
X015822Y004731D01*
M02*
